<svg xmlns="http://www.w3.org/2000/svg" xmlns:xlink="http://www.w3.org/1999/xlink" width="700" height="500" class="main-svg" viewBox="0 0 700 500"><rect width="700" height="500" x="0" y="0" style="fill:#fff;fill-opacity:1"/><defs id="defs-d168b8"><g class="clips"><clipPath id="clipd168b8xyplot" class="plotclip"><rect width="317" height="435"/></clipPath><clipPath id="clipd168b8x" class="axesclip"><rect width="317" height="500" x="60" y="0"/></clipPath><clipPath id="clipd168b8y" class="axesclip"><rect width="700" height="435" x="0" y="25"/></clipPath><clipPath id="clipd168b8xy" class="axesclip"><rect width="317" height="435" x="60" y="25"/></clipPath></g></defs><g class="cartesianlayer"><g class="subplot xy"><path class="xlines-below"/><path class="ylines-below"/><g class="plot" clip-path="url(#clipd168b8xyplot)" transform="translate(60,25)"><g class="scatterlayer mlayer"><g class="trace scatter trace5cbeb7" style="stroke-miterlimit:2;opacity:1"><g class="lines"><path d="M12.68,413.25H12.68V339.16H25.36V304.77H38.04V286.36H50.72V273.45H63.4V262.09H76.08V254.72H88.76V247.71H101.44V241.33H114.12V236.53H126.8V231.48H139.48V227.13H152.16V223.36H164.84V220.83H177.52V218.39H190.2V215.86H202.88V213.55H215.56V211.55H228.24V209.47H240.92V207.92H253.6V206.27H266.28V204.54H278.96V203.12H291.64V201.75H304.32V200.24H317V199H329.68V197.98H342.36V196.43H355.04V195.18H367.72V194.16H380.4V193.28H393.08V192.34H405.76V191.5H418.44V190.57H431.12V189.33H443.8V188.26H456.48V187.51H469.16V186.66H481.84V186.04H494.52V185.42H507.2V184.4H519.88V183.96H532.56V183.6H545.24V182.98H557.92V182.45H570.6V182.14H583.28V181.61H595.96V180.85H608.64V180.05H621.32V179.74H634V179.34H646.68V179.08H659.36V178.77H672.04V178.63H684.72V178.23H697.4V177.79H710.08V177.52H722.76V177.08H735.44V176.68H748.12V176.46H760.8V176.33H773.48V176.1H786.16V175.97H798.84V175.66H811.52V175.57H824.2V175.26H836.88V175.13H849.56V175.04H862.24V174.82H874.92V174.69H887.6V174.51H900.28V174.37H912.96V174.24H925.64V174.06H938.32V173.98H951V173.75H963.68V173.62H976.36V173.27H989.04V173.09H1001.72V173H1014.4V172.95H1027.08V172.78H1039.76V172.64H1052.44V172.38H1065.12V171.98H1077.8V171.62H1090.48V171.49H1103.16V171.36H1115.84V171.27H1128.52V171.09H1141.2V171H1153.88V170.87H1166.56V170.65H1179.24V170.51H1191.92V170.34H1204.6V170.16H1217.28V169.89H1229.96V169.8H1242.64V169.58H1255.32V169.49H1268V169.36H1280.68V169.18H1293.36V169.14H1306.04V169.09H1318.72V169.01H1331.4V168.83H1344.08V168.83H1356.76V168.65H1369.44V168.56H1382.12V168.43H1394.8V168.39H1407.48V168.3H1420.16V168.3H1432.84V168.21H1445.52V168.21H1458.2V168.16H1470.88V167.99H1483.56V167.99H1496.24V167.94H1508.92V167.81H1521.6V167.68H1534.28V167.63H1546.96V167.54H1559.64V167.41H1572.32V167.23H1585V167.23H1597.68V167.23H1610.36V167.1H1623.04V167.01H1635.72V166.88H1648.4V166.79H1661.08V166.7H1673.76V166.65H1686.44V166.52H1699.12V166.52H1711.8V166.48H1724.48V166.43H1737.16V166.34H1749.84V166.34H1762.52V166.34H1775.2V166.3H1787.88V166.3H1800.56V166.21H1813.24V166.21H1825.92V166.12H1838.6V166.03H1851.28V165.94H1863.96V165.86H1876.64V165.81H1889.32V165.81H1902V165.77H1914.68V165.68H1927.36V165.55H1940.04V165.46H1952.72V165.41H1965.4V165.41H1978.08V165.41H1990.76V165.28H2003.44V165.28H2016.12V165.28H2028.8V165.23H2041.48V165.19H2054.16V165.15H2066.84V165.01H2079.52V165.01H2092.2V164.97H2104.88V164.92H2117.56V164.88H2130.24V164.88H2142.92V164.84H2155.6V164.79H2168.28V164.79H2180.96V164.7H2193.64V164.61H2206.32V164.57H2219V164.53H2231.68V164.53H2244.36V164.48H2257.04V164.44H2269.72V164.39H2282.4V164.3H2295.08V164.3H2307.76V164.3H2320.44V164.3H2333.12V164.21H2345.8V164.13H2358.48V164.08H2371.16V164.04H2383.84V163.99H2396.52V163.95H2409.2V163.82H2421.88V163.82H2434.56V163.73H2447.24V163.73H2459.92V163.73H2472.6V163.73H2485.28V163.73H2497.96V163.73H2510.64V163.68H2523.32V163.64H2536V163.55H2548.68V163.5H2561.36V163.5H2574.04V163.46H2586.72V163.46H2599.4V163.42H2612.08V163.37H2624.76V163.33H2637.44V163.33H2650.12V163.24H2662.8V163.24H2675.48V163.24H2688.16V163.24H2700.84V163.24H2713.52V163.24H2726.2V163.24H2738.88V163.15H2751.56V163.11H2764.24V163.11H2776.92V163.06H2789.6V162.97H2802.28V162.93H2814.96V162.93H2827.64V162.93H2840.32V162.93H2853V162.93H2865.68V162.93H2878.36V162.88H2891.04V162.88H2903.72V162.88H2916.4V162.88H2929.08V162.88H2941.76V162.88H2954.44V162.84H2967.12V162.84H2979.8V162.84H2992.48V162.75H3005.16V162.75H3017.84V162.66H3030.52V162.66H3043.2V162.66H3055.88V162.66H3068.56V162.66H3081.24V162.66H3093.92V162.66H3106.6V162.66H3119.28V162.62H3131.96V162.57H3144.64V162.57H3157.32V162.57H3170V162.57H3182.68V162.48H3195.36V162.48H3208.04V162.48H3220.72V162.48H3233.4V162.48H3246.08V162.4H3258.76V162.35H3271.44V162.35H3284.12V162.31H3296.8V162.31H3309.48V162.31H3322.16V162.31H3334.84V162.26H3347.52V162.22H3360.2V162.22H3372.88V162.17H3385.56V162.17H3398.24V162.17H3410.92V162.17H3423.6V162.17H3436.28V162.17H3448.96V162.17H3461.64V162.17H3474.32V162.17H3487V162.17H3499.68V162.17H3512.36V162.17H3525.04V162.13H3537.72V162.13H3550.4V162.13H3563.08V162.08H3575.76V162.08H3588.44V162.04H3601.12V162.04H3613.8V162.04H3626.48V162.04H3639.16V162.04H3651.84V162.04H3664.52V162H3677.2V162H3689.88V162H3702.56V161.95H3715.24V161.95H3727.92V161.86H3740.6V161.86H3753.28V161.86H3765.96V161.86H3778.64V161.82H3791.32V161.82H3804V161.77H3816.68V161.77H3829.36V161.77H3842.04V161.73H3854.72V161.69H3867.4V161.64H3880.08V161.64H3892.76V161.64H3905.44V161.64H3918.12V161.64H3930.8V161.64H3943.48V161.6H3956.16V161.6H3968.84V161.6H3981.52V161.6H3994.2V161.6H4006.88V161.6H4019.56V161.6H4032.24V161.55H4044.92V161.55H4057.6V161.51H4070.28V161.51H4082.96V161.51H4095.64V161.51H4108.32V161.51H4121V161.51H4133.68V161.51H4146.36V161.51H4159.04V161.46H4171.72V161.46H4184.4V161.46H4197.08V161.42H4209.76V161.37H4222.44V161.37H4235.12V161.37H4247.8V161.37H4260.48V161.37H4273.16V161.37H4285.84V161.37H4298.52V161.37H4311.2V161.37H4323.88V161.37H4336.56V161.37H4349.24V161.37H4361.92V161.37H4374.6V161.37H4387.28V161.37H4399.96V161.37H4412.64V161.37H4425.32V161.37H4438V161.33H4450.68V161.33H4463.36V161.33H4476.04V161.33H4488.72V161.33H4501.4V161.33H4514.08V161.33H4526.76V161.33H4539.44V161.33H4552.12V161.33H4564.8V161.33H4577.48V161.33H4590.16V161.29H4602.84V161.29H4615.52V161.24H4628.2V161.24H4640.88V161.24H4653.56V161.24H4666.24V161.2H4678.92V161.2H4691.6V161.2H4704.28V161.2H4716.96V161.15H4729.64V161.15H4742.32V161.11H4755V161.11H4767.68V161.06H4780.36V161.06H4793.04V161.06H4805.72V161.02H4818.4V160.98H4831.08V160.98H4843.76V160.93H4856.44V160.93H4869.12V160.93H4881.8V160.93H4894.48V160.93H4907.16V160.93H4919.84V160.93H4932.52V160.93H4945.2V160.93H4957.88V160.93H4970.56V160.93H4983.24V160.93H4995.92V160.93H5008.6V160.93H5021.28V160.93H5033.96V160.93H5046.64V160.93H5059.32V160.93H5072V160.93H5084.68V160.89H5097.36V160.89H5110.04V160.89H5122.72V160.89H5135.4V160.89H5148.08V160.89H5160.76V160.84H5173.44V160.8H5186.12V160.8H5198.8V160.75H5211.48V160.75H5224.16V160.75H5236.84V160.75H5249.52V160.75H5262.2V160.75H5274.88V160.75H5287.56V160.75H5300.24V160.75H5312.92V160.75H5325.6V160.75H5338.28V160.71H5350.96V160.71H5363.64V160.71H5376.32V160.71H5389V160.71H5401.68V160.71H5414.36V160.71H5427.04V160.71H5439.72V160.71H5452.4V160.71H5465.08V160.71H5477.76V160.71H5490.44V160.71H5503.12V160.71H5515.8V160.67H5528.48V160.67H5541.16V160.67H5553.84V160.67H5566.52V160.67H5579.2V160.67H5591.88V160.67H5604.56V160.67H5617.24V160.67H5629.92V160.67H5642.6V160.67H5655.28V160.67H5667.96V160.58H5680.64V160.58H5693.32V160.58H5706V160.58H5718.68V160.58H5731.36V160.58H5744.04V160.53H5756.72V160.53H5769.4V160.53H5782.08V160.53H5794.76V160.53H5807.44V160.53H5820.12V160.53H5832.8V160.53H5845.48V160.53H5858.16V160.53H5870.84V160.53H5883.52V160.53H5896.2V160.53H5908.88V160.53H5921.56V160.53H5934.24V160.53H5946.92V160.53H5959.6V160.53H5972.28V160.53H5984.96V160.53H5997.64V160.53H6010.32V160.53H6023V160.53H6035.68V160.53H6048.36V160.53H6061.04V160.53H6073.72V160.53H6086.4V160.53H6099.08V160.53H6111.76V160.49H6124.44V160.49H6137.12V160.49H6149.8V160.49H6162.48V160.49H6175.16V160.49H6187.84V160.49H6200.52V160.49H6213.2V160.49H6225.88V160.44H6238.56V160.44H6251.24V160.44H6263.92V160.44H6276.6V160.44H6289.28V160.44H6301.96V160.44H6314.64V160.44H6327.32V160.44H6340V160.44" class="js-line" style="vector-effect:non-scaling-stroke;fill:none;stroke:#d71d62;stroke-opacity:1;stroke-width:2px;opacity:1"/></g></g><g class="trace scatter trace9ccca9" style="stroke-miterlimit:2;opacity:1"><g class="lines"><path d="M12.68,413.25H12.68V261.56H25.36V228.24H38.04V216.75H50.72V210.13H63.4V204.77H76.08V201.13H88.76V197.45H101.44V194.21H114.12V191.59H126.8V189.77H139.48V187.51H152.16V186.35H164.84V185.29H177.52V184.18H190.2V183.16H202.88V182.01H215.56V180.94H228.24V180.05H240.92V179.52H253.6V179.03H266.28V178.06H278.96V177.44H291.64V176.86H304.32V176.28H317V175.84H329.68V175.57H342.36V175.13H355.04V174.51H367.72V174.02H380.4V173.8H393.08V173.35H405.76V172.95H418.44V172.64H431.12V172.29H443.8V171.89H456.48V171.71H469.16V171.22H481.84V170.87H494.52V170.83H507.2V170.56H519.88V170.43H532.56V170.29H545.24V169.94H557.92V169.63H570.6V169.49H583.28V169.36H595.96V169.14H608.64V168.7H621.32V168.52H634V168.25H646.68V168.12H659.36V168.12H672.04V168.03H684.72V167.85H697.4V167.68H710.08V167.5H722.76V167.28H735.44V167.1H748.12V166.92H760.8V166.88H773.48V166.83H786.16V166.79H798.84V166.61H811.52V166.57H824.2V166.43H836.88V166.3H849.56V166.26H862.24V166.17H874.92V166.08H887.6V165.94H900.28V165.86H912.96V165.77H925.64V165.68H938.32V165.55H951V165.37H963.68V165.37H976.36V165.15H989.04V165.01H1001.72V164.97H1014.4V164.97H1027.08V164.92H1039.76V164.88H1052.44V164.75H1065.12V164.61H1077.8V164.61H1090.48V164.61H1103.16V164.57H1115.84V164.57H1128.52V164.48H1141.2V164.35H1153.88V164.26H1166.56V164.13H1179.24V164.13H1191.92V164.08H1204.6V164.08H1217.28V164.08H1229.96V164.04H1242.64V163.99H1255.32V163.95H1268V163.86H1280.68V163.86H1293.36V163.82H1306.04V163.82H1318.72V163.82H1331.4V163.77H1344.08V163.77H1356.76V163.73H1369.44V163.73H1382.12V163.68H1394.8V163.68H1407.48V163.64H1420.16V163.59H1432.84V163.55H1445.52V163.55H1458.2V163.55H1470.88V163.46H1483.56V163.37H1496.24V163.37H1508.92V163.33H1521.6V163.28H1534.28V163.28H1546.96V163.24H1559.64V163.19H1572.32V163.15H1585V163.15H1597.68V163.15H1610.36V163.11H1623.04V163.06H1635.72V163.02H1648.4V162.93H1661.08V162.93H1673.76V162.93H1686.44V162.93H1699.12V162.88H1711.8V162.84H1724.48V162.84H1737.16V162.75H1749.84V162.75H1762.52V162.75H1775.2V162.75H1787.88V162.75H1800.56V162.66H1813.24V162.66H1825.92V162.57H1838.6V162.57H1851.28V162.57H1863.96V162.57H1876.64V162.57H1889.32V162.57H1902V162.57H1914.68V162.53H1927.36V162.48H1940.04V162.44H1952.72V162.4H1965.4V162.4H1978.08V162.4H1990.76V162.35H2003.44V162.35H2016.12V162.35H2028.8V162.35H2041.48V162.26H2054.16V162.22H2066.84V162.17H2079.52V162.17H2092.2V162.17H2104.88V162.17H2117.56V162.13H2130.24V162.13H2142.92V162.13H2155.6V162.08H2168.28V162.08H2180.96V162H2193.64V161.95H2206.32V161.95H2219V161.91H2231.68V161.91H2244.36V161.91H2257.04V161.91H2269.72V161.91H2282.4V161.86H2295.08V161.86H2307.76V161.86H2320.44V161.86H2333.12V161.86H2345.8V161.82H2358.48V161.82H2371.16V161.82H2383.84V161.77H2396.52V161.73H2409.2V161.69H2421.88V161.64H2434.56V161.55H2447.24V161.55H2459.92V161.55H2472.6V161.55H2485.28V161.55H2497.96V161.55H2510.64V161.55H2523.32V161.55H2536V161.55H2548.68V161.51H2561.36V161.51H2574.04V161.51H2586.72V161.51H2599.4V161.46H2612.08V161.42H2624.76V161.42H2637.44V161.42H2650.12V161.37H2662.8V161.37H2675.48V161.37H2688.16V161.37H2700.84V161.33H2713.52V161.33H2726.2V161.33H2738.88V161.29H2751.56V161.29H2764.24V161.29H2776.92V161.29H2789.6V161.29H2802.28V161.29H2814.96V161.29H2827.64V161.29H2840.32V161.29H2853V161.29H2865.68V161.29H2878.36V161.24H2891.04V161.24H2903.72V161.24H2916.4V161.24H2929.08V161.24H2941.76V161.2H2954.44V161.2H2967.12V161.2H2979.8V161.2H2992.48V161.2H3005.16V161.2H3017.84V161.2H3030.52V161.2H3043.2V161.2H3055.88V161.2H3068.56V161.2H3081.24V161.2H3093.92V161.2H3106.6V161.2H3119.28V161.2H3131.96V161.2H3144.64V161.2H3157.32V161.2H3170V161.2H3182.68V161.2H3195.36V161.2H3208.04V161.2H3220.72V161.2H3233.4V161.2H3246.08V161.15H3258.76V161.06H3271.44V161.06H3284.12V161.02H3296.8V161.02H3309.48V161.02H3322.16V161.02H3334.84V161.02H3347.52V161.02H3360.2V161.02H3372.88V160.98H3385.56V160.98H3398.24V160.98H3410.92V160.98H3423.6V160.98H3436.28V160.98H3448.96V160.98H3461.64V160.98H3474.32V160.98H3487V160.98H3499.68V160.98H3512.36V160.98H3525.04V160.98H3537.72V160.98H3550.4V160.98H3563.08V160.98H3575.76V160.98H3588.44V160.98H3601.12V160.98H3613.8V160.98H3626.48V160.98H3639.16V160.98H3651.84V160.98H3664.52V160.98H3677.2V160.98H3689.88V160.98H3702.56V160.98H3715.24V160.98H3727.92V160.89H3740.6V160.89H3753.28V160.89H3765.96V160.89H3778.64V160.84H3791.32V160.84H3804V160.84H3816.68V160.84H3829.36V160.84H3842.04V160.84H3854.72V160.84H3867.4V160.84H3880.08V160.84H3892.76V160.84H3905.44V160.84H3918.12V160.84H3930.8V160.84H3943.48V160.8H3956.16V160.8H3968.84V160.8H3981.52V160.8H3994.2V160.8H4006.88V160.8H4019.56V160.8H4032.24V160.8H4044.92V160.8H4057.6V160.8H4070.28V160.8H4082.96V160.8H4095.64V160.8H4108.32V160.8H4121V160.8H4133.68V160.8H4146.36V160.8H4159.04V160.8H4171.72V160.8H4184.4V160.8H4197.08V160.8H4209.76V160.8H4222.44V160.8H4235.12V160.8H4247.8V160.8H4260.48V160.8H4273.16V160.8H4285.84V160.8H4298.52V160.75H4311.2V160.75H4323.88V160.75H4336.56V160.75H4349.24V160.75H4361.92V160.75H4374.6V160.75H4387.28V160.75H4399.96V160.75H4412.64V160.75H4425.32V160.75H4438V160.71H4450.68V160.71H4463.36V160.71H4476.04V160.71H4488.72V160.71H4501.4V160.71H4514.08V160.71H4526.76V160.71H4539.44V160.71H4552.12V160.71H4564.8V160.71H4577.48V160.71H4590.16V160.71H4602.84V160.71H4615.52V160.71H4628.2V160.71H4640.88V160.71H4653.56V160.71H4666.24V160.67H4678.92V160.67H4691.6V160.67H4704.28V160.67H4716.96V160.67H4729.64V160.67H4742.32V160.67H4755V160.67H4767.68V160.62H4780.36V160.62H4793.04V160.62H4805.72V160.62H4818.4V160.62H4831.08V160.62H4843.76V160.62H4856.44V160.62H4869.12V160.62H4881.8V160.62H4894.48V160.62H4907.16V160.62H4919.84V160.62H4932.52V160.62H4945.2V160.62H4957.88V160.62H4970.56V160.62H4983.24V160.62H4995.92V160.62H5008.6V160.62H5021.28V160.62H5033.96V160.62H5046.64V160.62H5059.32V160.62H5072V160.62H5084.68V160.62H5097.36V160.62H5110.04V160.62H5122.72V160.62H5135.4V160.62H5148.08V160.62H5160.76V160.62H5173.44V160.62H5186.12V160.62H5198.8V160.58H5211.48V160.58H5224.16V160.58H5236.84V160.58H5249.52V160.58H5262.2V160.58H5274.88V160.58H5287.56V160.58H5300.24V160.58H5312.92V160.53H5325.6V160.53H5338.28V160.53H5350.96V160.53H5363.64V160.53H5376.32V160.53H5389V160.53H5401.68V160.53H5414.36V160.53H5427.04V160.53H5439.72V160.53H5452.4V160.53H5465.08V160.53H5477.76V160.53H5490.44V160.53H5503.12V160.53H5515.8V160.49H5528.48V160.49H5541.16V160.49H5553.84V160.49H5566.52V160.49H5579.2V160.49H5591.88V160.49H5604.56V160.49H5617.24V160.49H5629.92V160.49H5642.6V160.49H5655.28V160.49H5667.96V160.49H5680.64V160.49H5693.32V160.49H5706V160.49H5718.68V160.49H5731.36V160.49H5744.04V160.49H5756.72V160.49H5769.4V160.49H5782.08V160.49H5794.76V160.49H5807.44V160.49H5820.12V160.49H5832.8V160.49H5845.48V160.49H5858.16V160.49H5870.84V160.49H5883.52V160.49H5896.2V160.49H5908.88V160.49H5921.56V160.49H5934.24V160.49H5946.92V160.49H5959.6V160.49H5972.28V160.49H5984.96V160.49H5997.64V160.49H6010.32V160.49H6023V160.49H6035.68V160.49H6048.36V160.49H6061.04V160.49H6073.72V160.49H6086.4V160.49H6099.08V160.49H6111.76V160.49H6124.44V160.49H6137.12V160.49H6149.8V160.49H6162.48V160.49H6175.16V160.49H6187.84V160.49H6200.52V160.49H6213.2V160.49H6225.88V160.44H6238.56V160.44H6251.24V160.44H6263.92V160.44H6276.6V160.44H6289.28V160.44H6301.96V160.44H6314.64V160.44H6327.32V160.44H6340V160.44" class="js-line" style="vector-effect:non-scaling-stroke;fill:none;stroke:#08589b;stroke-opacity:1;stroke-width:2px;opacity:1"/></g></g><g class="trace scatter trace134a5f" style="stroke-miterlimit:2;opacity:1"><g class="lines"><path d="M12.68,413.25H12.68V249.18H25.36V214.84H38.04V204.06H50.72V198.33H63.4V193.67H76.08V190.48H88.76V187.33H101.44V184.8H114.12V182.98H126.8V181.34H139.48V179.57H152.16V178.55H164.84V177.79H177.52V177.08H190.2V176.24H202.88V175.53H215.56V174.69H228.24V173.93H240.92V173.53H253.6V173.13H266.28V172.51H278.96V171.98H291.64V171.54H304.32V171.22H317V170.87H329.68V170.65H342.36V170.34H355.04V169.85H367.72V169.36H380.4V169.27H393.08V168.96H405.76V168.65H418.44V168.43H431.12V168.12H443.8V167.76H456.48V167.63H469.16V167.23H481.84V167.01H494.52V166.97H507.2V166.74H519.88V166.65H532.56V166.61H545.24V166.39H557.92V166.17H570.6V166.08H583.28V165.94H595.96V165.77H608.64V165.5H621.32V165.32H634V165.1H646.68V165.01H659.36V165.01H672.04V164.97H684.72V164.84H697.4V164.7H710.08V164.7H722.76V164.57H735.44V164.48H748.12V164.39H760.8V164.35H773.48V164.3H786.16V164.3H798.84V164.21H811.52V164.17H824.2V164.17H836.88V164.08H849.56V164.08H862.24V163.99H874.92V163.99H887.6V163.9H900.28V163.86H912.96V163.82H925.64V163.77H938.32V163.77H951V163.68H963.68V163.68H976.36V163.59H989.04V163.55H1001.72V163.5H1014.4V163.5H1027.08V163.46H1039.76V163.42H1052.44V163.28H1065.12V163.19H1077.8V163.19H1090.48V163.19H1103.16V163.15H1115.84V163.15H1128.52V163.11H1141.2V163.02H1153.88V162.93H1166.56V162.88H1179.24V162.88H1191.92V162.88H1204.6V162.88H1217.28V162.88H1229.96V162.88H1242.64V162.84H1255.32V162.79H1268V162.75H1280.68V162.75H1293.36V162.71H1306.04V162.71H1318.72V162.71H1331.4V162.71H1344.08V162.71H1356.76V162.71H1369.44V162.71H1382.12V162.66H1394.8V162.66H1407.48V162.66H1420.16V162.66H1432.84V162.62H1445.52V162.62H1458.2V162.62H1470.88V162.57H1483.56V162.57H1496.24V162.57H1508.92V162.53H1521.6V162.53H1534.28V162.53H1546.96V162.48H1559.64V162.44H1572.32V162.4H1585V162.4H1597.68V162.4H1610.36V162.4H1623.04V162.4H1635.72V162.4H1648.4V162.35H1661.08V162.35H1673.76V162.35H1686.44V162.35H1699.12V162.35H1711.8V162.31H1724.48V162.31H1737.16V162.26H1749.84V162.26H1762.52V162.26H1775.2V162.26H1787.88V162.26H1800.56V162.22H1813.24V162.22H1825.92V162.17H1838.6V162.17H1851.28V162.17H1863.96V162.17H1876.64V162.17H1889.32V162.17H1902V162.17H1914.68V162.13H1927.36V162.08H1940.04V162.04H1952.72V162H1965.4V162H1978.08V162H1990.76V161.95H2003.44V161.95H2016.12V161.95H2028.8V161.95H2041.48V161.91H2054.16V161.86H2066.84V161.82H2079.52V161.82H2092.2V161.82H2104.88V161.82H2117.56V161.77H2130.24V161.77H2142.92V161.77H2155.6V161.73H2168.28V161.73H2180.96V161.69H2193.64V161.64H2206.32V161.64H2219V161.6H2231.68V161.6H2244.36V161.6H2257.04V161.6H2269.72V161.6H2282.4V161.55H2295.08V161.55H2307.76V161.55H2320.44V161.55H2333.12V161.55H2345.8V161.51H2358.48V161.51H2371.16V161.51H2383.84V161.46H2396.52V161.42H2409.2V161.37H2421.88V161.37H2434.56V161.29H2447.24V161.29H2459.92V161.29H2472.6V161.29H2485.28V161.29H2497.96V161.29H2510.64V161.29H2523.32V161.29H2536V161.29H2548.68V161.24H2561.36V161.24H2574.04V161.24H2586.72V161.24H2599.4V161.2H2612.08V161.15H2624.76V161.15H2637.44V161.15H2650.12V161.11H2662.8V161.11H2675.48V161.11H2688.16V161.11H2700.84V161.11H2713.52V161.11H2726.2V161.11H2738.88V161.06H2751.56V161.06H2764.24V161.06H2776.92V161.06H2789.6V161.06H2802.28V161.06H2814.96V161.06H2827.64V161.06H2840.32V161.06H2853V161.06H2865.68V161.06H2878.36V161.02H2891.04V161.02H2903.72V161.02H2916.4V161.02H2929.08V161.02H2941.76V161.02H2954.44V161.02H2967.12V161.02H2979.8V161.02H2992.48V161.02H3005.16V161.02H3017.84V161.02H3030.52V161.02H3043.2V161.02H3055.88V161.02H3068.56V161.02H3081.24V161.02H3093.92V161.02H3106.6V161.02H3119.28V161.02H3131.96V161.02H3144.64V161.02H3157.32V161.02H3170V161.02H3182.68V161.02H3195.36V161.02H3208.04V161.02H3220.72V161.02H3233.4V161.02H3246.08V160.98H3258.76V160.98H3271.44V160.98H3284.12V160.93H3296.8V160.93H3309.48V160.93H3322.16V160.93H3334.84V160.93H3347.52V160.93H3360.2V160.93H3372.88V160.89H3385.56V160.89H3398.24V160.89H3410.92V160.89H3423.6V160.89H3436.28V160.89H3448.96V160.89H3461.64V160.89H3474.32V160.89H3487V160.89H3499.68V160.89H3512.36V160.89H3525.04V160.89H3537.72V160.89H3550.4V160.89H3563.08V160.89H3575.76V160.89H3588.44V160.89H3601.12V160.89H3613.8V160.89H3626.48V160.89H3639.16V160.89H3651.84V160.89H3664.52V160.89H3677.2V160.89H3689.88V160.89H3702.56V160.89H3715.24V160.89H3727.92V160.8H3740.6V160.8H3753.28V160.8H3765.96V160.8H3778.64V160.75H3791.32V160.75H3804V160.75H3816.68V160.75H3829.36V160.75H3842.04V160.75H3854.72V160.75H3867.4V160.75H3880.08V160.75H3892.76V160.75H3905.44V160.75H3918.12V160.75H3930.8V160.75H3943.48V160.71H3956.16V160.71H3968.84V160.71H3981.52V160.71H3994.2V160.71H4006.88V160.71H4019.56V160.71H4032.24V160.71H4044.92V160.71H4057.6V160.71H4070.28V160.71H4082.96V160.71H4095.64V160.71H4108.32V160.71H4121V160.71H4133.68V160.71H4146.36V160.71H4159.04V160.71H4171.72V160.71H4184.4V160.71H4197.08V160.71H4209.76V160.71H4222.44V160.71H4235.12V160.71H4247.8V160.71H4260.48V160.71H4273.16V160.71H4285.84V160.71H4298.52V160.71H4311.2V160.71H4323.88V160.71H4336.56V160.71H4349.24V160.71H4361.92V160.71H4374.6V160.71H4387.28V160.71H4399.96V160.71H4412.64V160.71H4425.32V160.71H4438V160.67H4450.68V160.67H4463.36V160.67H4476.04V160.67H4488.72V160.67H4501.4V160.67H4514.08V160.67H4526.76V160.67H4539.44V160.67H4552.12V160.67H4564.8V160.67H4577.48V160.67H4590.16V160.67H4602.84V160.67H4615.52V160.67H4628.2V160.67H4640.88V160.67H4653.56V160.67H4666.24V160.62H4678.92V160.62H4691.6V160.62H4704.28V160.62H4716.96V160.62H4729.64V160.62H4742.32V160.62H4755V160.62H4767.68V160.58H4780.36V160.58H4793.04V160.58H4805.72V160.58H4818.4V160.58H4831.08V160.58H4843.76V160.58H4856.44V160.58H4869.12V160.58H4881.8V160.58H4894.48V160.58H4907.16V160.58H4919.84V160.58H4932.52V160.58H4945.2V160.58H4957.88V160.58H4970.56V160.58H4983.24V160.58H4995.92V160.58H5008.6V160.58H5021.28V160.58H5033.96V160.58H5046.64V160.58H5059.32V160.58H5072V160.58H5084.68V160.58H5097.36V160.58H5110.04V160.58H5122.72V160.58H5135.4V160.58H5148.08V160.58H5160.76V160.58H5173.44V160.58H5186.12V160.58H5198.8V160.53H5211.48V160.53H5224.16V160.53H5236.84V160.53H5249.52V160.53H5262.2V160.53H5274.88V160.53H5287.56V160.53H5300.24V160.53H5312.92V160.53H5325.6V160.53H5338.28V160.53H5350.96V160.53H5363.64V160.53H5376.32V160.53H5389V160.53H5401.68V160.53H5414.36V160.53H5427.04V160.53H5439.72V160.53H5452.4V160.53H5465.08V160.53H5477.76V160.53H5490.44V160.53H5503.12V160.53H5515.8V160.49H5528.48V160.49H5541.16V160.49H5553.84V160.49H5566.52V160.49H5579.2V160.49H5591.88V160.49H5604.56V160.49H5617.24V160.49H5629.92V160.49H5642.6V160.49H5655.28V160.49H5667.96V160.49H5680.64V160.49H5693.32V160.49H5706V160.49H5718.68V160.49H5731.36V160.49H5744.04V160.49H5756.72V160.49H5769.4V160.49H5782.08V160.49H5794.76V160.49H5807.44V160.49H5820.12V160.49H5832.8V160.49H5845.48V160.49H5858.16V160.49H5870.84V160.49H5883.52V160.49H5896.2V160.49H5908.88V160.49H5921.56V160.49H5934.24V160.49H5946.92V160.49H5959.6V160.49H5972.28V160.49H5984.96V160.49H5997.64V160.49H6010.32V160.49H6023V160.49H6035.68V160.49H6048.36V160.49H6061.04V160.49H6073.72V160.49H6086.4V160.49H6099.08V160.49H6111.76V160.49H6124.44V160.49H6137.12V160.49H6149.8V160.49H6162.48V160.49H6175.16V160.49H6187.84V160.49H6200.52V160.49H6213.2V160.49H6225.88V160.44H6238.56V160.44H6251.24V160.44H6263.92V160.44H6276.6V160.44H6289.28V160.44H6301.96V160.44H6314.64V160.44H6327.32V160.44H6340V160.44" class="js-line" style="vector-effect:non-scaling-stroke;fill:none;stroke:#08589b;stroke-opacity:1;stroke-width:2px;opacity:1;stroke-dasharray:3px,3px"/></g></g><g class="trace scatter traceb01da5" style="stroke-miterlimit:2;opacity:1"><g class="lines"><path d="M12.68,413.25H12.68V164.66H25.36V120.91H38.04V105.29H50.72V96.29H63.4V89.41H76.08V83.95H88.76V79.69H101.44V75.83H114.12V73.53H126.8V71.49H139.48V69.13H152.16V67.54H164.84V66.34H177.52V64.96H190.2V63.77H202.88V62.66H215.56V61.59H228.24V60.57H240.92V59.82H253.6V59.11H266.28V57.78H278.96V57.16H291.64V56.45H304.32V55.96H317V55.38H329.68V54.8H342.36V54.4H355.04V53.83H367.72V53.38H380.4V53.07H393.08V52.72H405.76V52.5H418.44V52.14H431.12V51.57H443.8V51.25H456.48V50.99H469.16V50.41H481.84V50.01H494.52V49.97H507.2V49.75H519.88V49.66H532.56V49.39H545.24V49.08H557.92V48.68H570.6V48.5H583.28V48.24H595.96V48.02H608.64V47.79H621.32V47.53H634V47.17H646.68V47.08H659.36V47.08H672.04V46.95H684.72V46.77H697.4V46.68H710.08V46.51H722.76V46.33H735.44V46.29H748.12V46.06H760.8V45.93H773.48V45.8H786.16V45.8H798.84V45.62H811.52V45.49H824.2V45.4H836.88V45.26H849.56V45.09H862.24V44.95H874.92V44.91H887.6V44.78H900.28V44.64H912.96V44.6H925.64V44.6H938.32V44.47H951V44.38H963.68V44.24H976.36V44.11H989.04V44.02H1001.72V43.93H1014.4V43.89H1027.08V43.85H1039.76V43.76H1052.44V43.62H1065.12V43.58H1077.8V43.58H1090.48V43.58H1103.16V43.49H1115.84V43.49H1128.52V43.45H1141.2V43.4H1153.88V43.18H1166.56V43.09H1179.24V43.09H1191.92V43.09H1204.6V43.09H1217.28V43.05H1229.96V42.91H1242.64V42.82H1255.32V42.78H1268V42.74H1280.68V42.69H1293.36V42.65H1306.04V42.6H1318.72V42.6H1331.4V42.6H1344.08V42.6H1356.76V42.6H1369.44V42.6H1382.12V42.56H1394.8V42.51H1407.48V42.47H1420.16V42.43H1432.84V42.34H1445.52V42.34H1458.2V42.34H1470.88V42.29H1483.56V42.29H1496.24V42.29H1508.92V42.16H1521.6V42.11H1534.28V42.07H1546.96V42.07H1559.64V42.07H1572.32V41.98H1585V41.98H1597.68V41.98H1610.36V41.94H1623.04V41.89H1635.72V41.85H1648.4V41.76H1661.08V41.72H1673.76V41.72H1686.44V41.72H1699.12V41.72H1711.8V41.67H1724.48V41.67H1737.16V41.58H1749.84V41.58H1762.52V41.54H1775.2V41.54H1787.88V41.54H1800.56V41.45H1813.24V41.4H1825.92V41.36H1838.6V41.36H1851.28V41.36H1863.96V41.32H1876.64V41.32H1889.32V41.32H1902V41.32H1914.68V41.32H1927.36V41.27H1940.04V41.23H1952.72V41.23H1965.4V41.23H1978.08V41.23H1990.76V41.18H2003.44V41.18H2016.12V41.18H2028.8V41.18H2041.48V41.18H2054.16V41.14H2066.84V41.09H2079.52V41.09H2092.2V41.09H2104.88V41.09H2117.56V41.05H2130.24V41.05H2142.92V41.05H2155.6V41.01H2168.28V41.01H2180.96V40.96H2193.64V40.96H2206.32V40.92H2219V40.87H2231.68V40.87H2244.36V40.87H2257.04V40.87H2269.72V40.87H2282.4V40.83H2295.08V40.83H2307.76V40.83H2320.44V40.83H2333.12V40.78H2345.8V40.78H2358.48V40.78H2371.16V40.74H2383.84V40.74H2396.52V40.69H2409.2V40.69H2421.88V40.69H2434.56V40.61H2447.24V40.61H2459.92V40.56H2472.6V40.56H2485.28V40.56H2497.96V40.56H2510.64V40.52H2523.32V40.52H2536V40.52H2548.68V40.52H2561.36V40.52H2574.04V40.47H2586.72V40.47H2599.4V40.47H2612.08V40.43H2624.76V40.43H2637.44V40.43H2650.12V40.38H2662.8V40.3H2675.48V40.3H2688.16V40.3H2700.84V40.3H2713.52V40.3H2726.2V40.3H2738.88V40.25H2751.56V40.25H2764.24V40.25H2776.92V40.25H2789.6V40.25H2802.28V40.25H2814.96V40.25H2827.64V40.25H2840.32V40.25H2853V40.25H2865.68V40.25H2878.36V40.25H2891.04V40.25H2903.72V40.25H2916.4V40.25H2929.08V40.21H2941.76V40.21H2954.44V40.21H2967.12V40.16H2979.8V40.16H2992.48V40.16H3005.16V40.16H3017.84V40.16H3030.52V40.16H3043.2V40.16H3055.88V40.16H3068.56V40.16H3081.24V40.16H3093.92V40.16H3106.6V40.16H3119.28V40.16H3131.96V40.16H3144.64V40.16H3157.32V40.16H3170V40.16H3182.68V40.16H3195.36V40.16H3208.04V40.12H3220.72V40.12H3233.4V40.12H3246.08V40.07H3258.76V40.03H3271.44V40.03H3284.12V40.03H3296.8V40.03H3309.48V40.03H3322.16V40.03H3334.84V40.03H3347.52V40.03H3360.2V39.99H3372.88V39.94H3385.56V39.94H3398.24V39.94H3410.92V39.94H3423.6V39.94H3436.28V39.94H3448.96V39.94H3461.64V39.94H3474.32V39.94H3487V39.94H3499.68V39.94H3512.36V39.94H3525.04V39.94H3537.72V39.94H3550.4V39.94H3563.08V39.94H3575.76V39.94H3588.44V39.94H3601.12V39.94H3613.8V39.94H3626.48V39.94H3639.16V39.94H3651.84V39.94H3664.52V39.94H3677.2V39.94H3689.88V39.94H3702.56V39.94H3715.24V39.94H3727.92V39.94H3740.6V39.94H3753.28V39.94H3765.96V39.94H3778.64V39.94H3791.32V39.94H3804V39.94H3816.68V39.94H3829.36V39.94H3842.04V39.94H3854.72V39.94H3867.4V39.94H3880.08V39.94H3892.76V39.9H3905.44V39.9H3918.12V39.9H3930.8V39.9H3943.48V39.85H3956.16V39.85H3968.84V39.85H3981.52V39.85H3994.2V39.81H4006.88V39.81H4019.56V39.81H4032.24V39.81H4044.92V39.81H4057.6V39.81H4070.28V39.81H4082.96V39.81H4095.64V39.81H4108.32V39.81H4121V39.81H4133.68V39.81H4146.36V39.81H4159.04V39.81H4171.72V39.81H4184.4V39.81H4197.08V39.81H4209.76V39.81H4222.44V39.81H4235.12V39.81H4247.8V39.81H4260.48V39.81H4273.16V39.81H4285.84V39.81H4298.52V39.76H4311.2V39.76H4323.88V39.76H4336.56V39.76H4349.24V39.76H4361.92V39.76H4374.6V39.76H4387.28V39.76H4399.96V39.76H4412.64V39.76H4425.32V39.76H4438V39.76H4450.68V39.76H4463.36V39.76H4476.04V39.76H4488.72V39.76H4501.4V39.76H4514.08V39.76H4526.76V39.76H4539.44V39.76H4552.12V39.76H4564.8V39.76H4577.48V39.76H4590.16V39.76H4602.84V39.76H4615.52V39.76H4628.2V39.76H4640.88V39.76H4653.56V39.76H4666.24V39.72H4678.92V39.72H4691.6V39.72H4704.28V39.67H4716.96V39.67H4729.64V39.67H4742.32V39.67H4755V39.67H4767.68V39.67H4780.36V39.67H4793.04V39.67H4805.72V39.67H4818.4V39.67H4831.08V39.67H4843.76V39.67H4856.44V39.67H4869.12V39.67H4881.8V39.67H4894.48V39.67H4907.16V39.67H4919.84V39.67H4932.52V39.67H4945.2V39.67H4957.88V39.67H4970.56V39.67H4983.24V39.67H4995.92V39.67H5008.6V39.67H5021.28V39.67H5033.96V39.67H5046.64V39.67H5059.32V39.67H5072V39.67H5084.68V39.67H5097.36V39.67H5110.04V39.67H5122.72V39.67H5135.4V39.67H5148.08V39.67H5160.76V39.67H5173.44V39.67H5186.12V39.67H5198.8V39.67H5211.48V39.67H5224.16V39.67H5236.84V39.67H5249.52V39.67H5262.2V39.67H5274.88V39.67H5287.56V39.67H5300.24V39.67H5312.92V39.63H5325.6V39.63H5338.28V39.63H5350.96V39.63H5363.64V39.63H5376.32V39.63H5389V39.63H5401.68V39.63H5414.36V39.63H5427.04V39.63H5439.72V39.63H5452.4V39.63H5465.08V39.63H5477.76V39.63H5490.44V39.63H5503.12V39.63H5515.8V39.59H5528.48V39.59H5541.16V39.59H5553.84V39.59H5566.52V39.59H5579.2V39.59H5591.88V39.59H5604.56V39.59H5617.24V39.59H5629.92V39.59H5642.6V39.59H5655.28V39.59H5667.96V39.59H5680.64V39.59H5693.32V39.59H5706V39.59H5718.68V39.59H5731.36V39.59H5744.04V39.59H5756.72V39.59H5769.4V39.59H5782.08V39.59H5794.76V39.59H5807.44V39.59H5820.12V39.59H5832.8V39.59H5845.48V39.59H5858.16V39.59H5870.84V39.59H5883.52V39.59H5896.2V39.59H5908.88V39.59H5921.56V39.59H5934.24V39.59H5946.92V39.59H5959.6V39.59H5972.28V39.59H5984.96V39.59H5997.64V39.59H6010.32V39.59H6023V39.59H6035.68V39.59H6048.36V39.59H6061.04V39.59H6073.72V39.59H6086.4V39.59H6099.08V39.59H6111.76V39.59H6124.44V39.59H6137.12V39.59H6149.8V39.59H6162.48V39.59H6175.16V39.59H6187.84V39.59H6200.52V39.59H6213.2V39.59H6225.88V39.54H6238.56V39.54H6251.24V39.54H6263.92V39.54H6276.6V39.54H6289.28V39.54H6301.96V39.54H6314.64V39.54H6327.32V39.54H6340V39.54" class="js-line" style="vector-effect:non-scaling-stroke;fill:none;stroke:#336a2d;stroke-opacity:1;stroke-width:2px;opacity:1"/></g></g><g class="trace scatter trace4d0afd" style="stroke-miterlimit:2;opacity:1"><g class="lines"><path d="M12.68,413.25H12.68V137.9H25.36V93.27H38.04V76.59H50.72V68.2H63.4V61.5H76.08V56.36H88.76V52.76H101.44V49.57H114.12V47.08H126.8V45.26H139.48V43.27H152.16V41.72H164.84V40.56H177.52V39.5H190.2V38.48H202.88V37.86H215.56V37.23H228.24V36.52H240.92V35.9H253.6V35.37H266.28V34.66H278.96V33.73H291.64V33.24H304.32V33.06H317V32.75H329.68V32.44H342.36V32.13H355.04V31.51H367.72V31.16H380.4V31.02H393.08V30.71H405.76V30.49H418.44V30.22H431.12V29.78H443.8V29.56H456.48V29.38H469.16V29.03H481.84V28.8H494.52V28.63H507.2V28.41H519.88V28.18H532.56V28.14H545.24V27.96H557.92V27.78H570.6V27.65H583.28V27.47H595.96V27.34H608.64V27.07H621.32V26.94H634V26.72H646.68V26.59H659.36V26.54H672.04V26.45H684.72V26.36H697.4V26.19H710.08V26.19H722.76V26.14H735.44V26.01H748.12V25.88H760.8V25.79H773.48V25.74H786.16V25.74H798.84V25.65H811.52V25.61H824.2V25.61H836.88V25.52H849.56V25.48H862.24V25.39H874.92V25.39H887.6V25.3H900.28V25.21H912.96V25.21H925.64V25.21H938.32V25.21H951V25.17H963.68V25.08H976.36V25.03H989.04V24.94H1001.72V24.9H1014.4V24.9H1027.08V24.9H1039.76V24.86H1052.44V24.72H1065.12V24.72H1077.8V24.72H1090.48V24.72H1103.16V24.68H1115.84V24.63H1128.52V24.63H1141.2V24.55H1153.88V24.46H1166.56V24.41H1179.24V24.37H1191.92V24.37H1204.6V24.37H1217.28V24.37H1229.96V24.32H1242.64V24.28H1255.32V24.28H1268V24.23H1280.68V24.19H1293.36V24.15H1306.04V24.1H1318.72V24.1H1331.4V24.1H1344.08V24.1H1356.76V24.1H1369.44V24.1H1382.12V24.06H1394.8V24.06H1407.48V24.06H1420.16V24.01H1432.84V23.97H1445.52V23.97H1458.2V23.97H1470.88V23.92H1483.56V23.92H1496.24V23.92H1508.92V23.88H1521.6V23.88H1534.28V23.88H1546.96V23.88H1559.64V23.88H1572.32V23.84H1585V23.79H1597.68V23.79H1610.36V23.75H1623.04V23.75H1635.72V23.7H1648.4V23.66H1661.08V23.66H1673.76V23.66H1686.44V23.66H1699.12V23.57H1711.8V23.52H1724.48V23.52H1737.16V23.48H1749.84V23.48H1762.52V23.44H1775.2V23.39H1787.88V23.39H1800.56V23.35H1813.24V23.35H1825.92V23.26H1838.6V23.26H1851.28V23.26H1863.96V23.26H1876.64V23.26H1889.32V23.26H1902V23.26H1914.68V23.26H1927.36V23.21H1940.04V23.21H1952.72V23.21H1965.4V23.21H1978.08V23.21H1990.76V23.17H2003.44V23.17H2016.12V23.17H2028.8V23.17H2041.48V23.17H2054.16V23.13H2066.84V23.08H2079.52V23.08H2092.2V23.04H2104.88V23.04H2117.56V22.99H2130.24V22.99H2142.92V22.99H2155.6V22.9H2168.28V22.9H2180.96V22.86H2193.64V22.86H2206.32V22.86H2219V22.86H2231.68V22.86H2244.36V22.86H2257.04V22.86H2269.72V22.86H2282.4V22.81H2295.08V22.81H2307.76V22.81H2320.44V22.81H2333.12V22.81H2345.8V22.81H2358.48V22.81H2371.16V22.81H2383.84V22.81H2396.52V22.77H2409.2V22.77H2421.88V22.77H2434.56V22.64H2447.24V22.64H2459.92V22.64H2472.6V22.64H2485.28V22.64H2497.96V22.64H2510.64V22.64H2523.32V22.64H2536V22.64H2548.68V22.64H2561.36V22.64H2574.04V22.59H2586.72V22.59H2599.4V22.55H2612.08V22.5H2624.76V22.5H2637.44V22.5H2650.12V22.5H2662.8V22.5H2675.48V22.5H2688.16V22.5H2700.84V22.5H2713.52V22.46H2726.2V22.46H2738.88V22.42H2751.56V22.42H2764.24V22.42H2776.92V22.42H2789.6V22.42H2802.28V22.42H2814.96V22.42H2827.64V22.42H2840.32V22.42H2853V22.42H2865.68V22.42H2878.36V22.42H2891.04V22.42H2903.72V22.42H2916.4V22.42H2929.08V22.42H2941.76V22.42H2954.44V22.42H2967.12V22.42H2979.8V22.37H2992.48V22.37H3005.16V22.37H3017.84V22.33H3030.52V22.33H3043.2V22.33H3055.88V22.33H3068.56V22.33H3081.24V22.33H3093.92V22.33H3106.6V22.33H3119.28V22.33H3131.96V22.33H3144.64V22.33H3157.32V22.33H3170V22.33H3182.68V22.33H3195.36V22.33H3208.04V22.33H3220.72V22.33H3233.4V22.33H3246.08V22.28H3258.76V22.28H3271.44V22.28H3284.12V22.28H3296.8V22.28H3309.48V22.28H3322.16V22.28H3334.84V22.28H3347.52V22.24H3360.2V22.24H3372.88V22.19H3385.56V22.19H3398.24V22.19H3410.92V22.19H3423.6V22.19H3436.28V22.19H3448.96V22.19H3461.64V22.19H3474.32V22.19H3487V22.19H3499.68V22.19H3512.36V22.19H3525.04V22.19H3537.72V22.19H3550.4V22.15H3563.08V22.15H3575.76V22.15H3588.44V22.15H3601.12V22.1H3613.8V22.1H3626.48V22.1H3639.16V22.1H3651.84V22.1H3664.52V22.1H3677.2V22.1H3689.88V22.1H3702.56V22.1H3715.24V22.1H3727.92V22.1H3740.6V22.1H3753.28V22.1H3765.96V22.1H3778.64V22.1H3791.32V22.1H3804V22.1H3816.68V22.1H3829.36V22.1H3842.04V22.1H3854.72V22.1H3867.4V22.1H3880.08V22.1H3892.76V22.1H3905.44V22.1H3918.12V22.1H3930.8V22.1H3943.48V22.06H3956.16V22.06H3968.84V22.06H3981.52V22.06H3994.2V22.06H4006.88V22.06H4019.56V22.06H4032.24V22.06H4044.92V22.06H4057.6V22.06H4070.28V22.06H4082.96V22.06H4095.64V22.06H4108.32V22.02H4121V22.02H4133.68V22.02H4146.36V22.02H4159.04V21.97H4171.72V21.97H4184.4V21.97H4197.08V21.97H4209.76V21.97H4222.44V21.97H4235.12V21.97H4247.8V21.97H4260.48V21.97H4273.16V21.97H4285.84V21.97H4298.52V21.97H4311.2V21.97H4323.88V21.97H4336.56V21.97H4349.24V21.97H4361.92V21.97H4374.6V21.97H4387.28V21.97H4399.96V21.97H4412.64V21.97H4425.32V21.97H4438V21.97H4450.68V21.97H4463.36V21.97H4476.04V21.97H4488.72V21.97H4501.4V21.97H4514.08V21.97H4526.76V21.97H4539.44V21.97H4552.12V21.93H4564.8V21.93H4577.48V21.93H4590.16V21.93H4602.84V21.93H4615.52V21.93H4628.2V21.93H4640.88V21.93H4653.56V21.93H4666.24V21.88H4678.92V21.88H4691.6V21.88H4704.28V21.88H4716.96V21.88H4729.64V21.88H4742.32V21.88H4755V21.88H4767.68V21.88H4780.36V21.88H4793.04V21.88H4805.72V21.88H4818.4V21.88H4831.08V21.88H4843.76V21.88H4856.44V21.88H4869.12V21.88H4881.8V21.88H4894.48V21.88H4907.16V21.88H4919.84V21.88H4932.52V21.88H4945.2V21.88H4957.88V21.88H4970.56V21.88H4983.24V21.88H4995.92V21.88H5008.6V21.88H5021.28V21.88H5033.96V21.88H5046.64V21.88H5059.32V21.88H5072V21.88H5084.68V21.88H5097.36V21.88H5110.04V21.88H5122.72V21.88H5135.4V21.88H5148.08V21.88H5160.76V21.84H5173.44V21.84H5186.12V21.84H5198.8V21.84H5211.48V21.84H5224.16V21.84H5236.84V21.84H5249.52V21.84H5262.2V21.84H5274.88V21.84H5287.56V21.84H5300.24V21.84H5312.92V21.84H5325.6V21.84H5338.28V21.84H5350.96V21.84H5363.64V21.84H5376.32V21.84H5389V21.84H5401.68V21.84H5414.36V21.84H5427.04V21.84H5439.72V21.84H5452.4V21.84H5465.08V21.84H5477.76V21.84H5490.44V21.84H5503.12V21.84H5515.8V21.79H5528.48V21.79H5541.16V21.79H5553.84V21.79H5566.52V21.79H5579.2V21.79H5591.88V21.79H5604.56V21.79H5617.24V21.79H5629.92V21.79H5642.6V21.79H5655.28V21.79H5667.96V21.79H5680.64V21.79H5693.32V21.79H5706V21.79H5718.68V21.79H5731.36V21.79H5744.04V21.79H5756.72V21.79H5769.4V21.79H5782.08V21.79H5794.76V21.79H5807.44V21.79H5820.12V21.79H5832.8V21.79H5845.48V21.79H5858.16V21.79H5870.84V21.79H5883.52V21.79H5896.2V21.79H5908.88V21.79H5921.56V21.79H5934.24V21.79H5946.92V21.79H5959.6V21.79H5972.28V21.79H5984.96V21.79H5997.64V21.79H6010.32V21.79H6023V21.79H6035.68V21.79H6048.36V21.79H6061.04V21.79H6073.72V21.79H6086.4V21.79H6099.08V21.79H6111.76V21.79H6124.44V21.79H6137.12V21.79H6149.8V21.79H6162.48V21.79H6175.16V21.79H6187.84V21.79H6200.52V21.79H6213.2V21.79H6225.88V21.75H6238.56V21.75H6251.24V21.75H6263.92V21.75H6276.6V21.75H6289.28V21.75H6301.96V21.75H6314.64V21.75H6327.32V21.75H6340V21.75" class="js-line" style="vector-effect:non-scaling-stroke;fill:none;stroke:#336a2d;stroke-opacity:1;stroke-width:2px;opacity:1;stroke-dasharray:3px,3px"/></g></g></g></g><path d="M0,0" class="xlines-above crisp" style="fill:none"/><path d="M0,0" class="ylines-above crisp" style="fill:none"/><g class="xaxislayer-above"><g class="xtick"><text x="0" y="473" text-anchor="middle" transform="translate(60,0)" style="font-family:'Open Sans',verdana,arial,sans-serif;font-size:12px;fill:#444;fill-opacity:1;white-space:pre;opacity:1">0</text></g><g class="xtick"><text x="0" y="473" text-anchor="middle" transform="translate(186.8,0)" style="font-family:'Open Sans',verdana,arial,sans-serif;font-size:12px;fill:#444;fill-opacity:1;white-space:pre;opacity:1">10</text></g><g class="xtick"><text x="0" y="473" text-anchor="middle" transform="translate(313.6,0)" style="font-family:'Open Sans',verdana,arial,sans-serif;font-size:12px;fill:#444;fill-opacity:1;white-space:pre;opacity:1">20</text></g></g><g class="yaxislayer-above"><g class="ytick"><text x="59" y="4.2" text-anchor="end" transform="translate(0,438.25)" style="font-family:'Open Sans',verdana,arial,sans-serif;font-size:12px;fill:#444;fill-opacity:1;white-space:pre;opacity:1">0</text></g><g class="ytick"><text x="59" y="4.2" text-anchor="end" transform="translate(0,388.89)" style="font-family:'Open Sans',verdana,arial,sans-serif;font-size:12px;fill:#444;fill-opacity:1;white-space:pre;opacity:1">5</text></g><g class="ytick"><text x="59" y="4.2" text-anchor="end" transform="translate(0,339.53)" style="font-family:'Open Sans',verdana,arial,sans-serif;font-size:12px;fill:#444;fill-opacity:1;white-space:pre;opacity:1">10</text></g><g class="ytick"><text x="59" y="4.2" text-anchor="end" transform="translate(0,290.17)" style="font-family:'Open Sans',verdana,arial,sans-serif;font-size:12px;fill:#444;fill-opacity:1;white-space:pre;opacity:1">15</text></g><g class="ytick"><text x="59" y="4.2" text-anchor="end" transform="translate(0,240.81)" style="font-family:'Open Sans',verdana,arial,sans-serif;font-size:12px;fill:#444;fill-opacity:1;white-space:pre;opacity:1">20</text></g><g class="ytick"><text x="59" y="4.2" text-anchor="end" transform="translate(0,191.44)" style="font-family:'Open Sans',verdana,arial,sans-serif;font-size:12px;fill:#444;fill-opacity:1;white-space:pre;opacity:1">25</text></g><g class="ytick"><text x="59" y="4.2" text-anchor="end" transform="translate(0,142.07999999999998)" style="font-family:'Open Sans',verdana,arial,sans-serif;font-size:12px;fill:#444;fill-opacity:1;white-space:pre;opacity:1">30</text></g><g class="ytick"><text x="59" y="4.2" text-anchor="end" transform="translate(0,92.72)" style="font-family:'Open Sans',verdana,arial,sans-serif;font-size:12px;fill:#444;fill-opacity:1;white-space:pre;opacity:1">35</text></g><g class="ytick"><text x="59" y="4.2" text-anchor="end" transform="translate(0,43.36)" style="font-family:'Open Sans',verdana,arial,sans-serif;font-size:12px;fill:#444;fill-opacity:1;white-space:pre;opacity:1">40</text></g></g></g></g><defs id="topdefs-d168b8"><clipPath id="legendd168b8"><rect width="307" height="105" x="0" y="0"/></clipPath></defs><g class="infolayer"><g class="legend" pointer-events="all" transform="translate(383.34000000000003,190)"><rect style="stroke:#444;stroke-opacity:1;fill:#fff;fill-opacity:1;stroke-width:0" width="307" height="105" x="0" y="0" class="bg" shape-rendering="crispEdges"/><g class="scrollbox" clip-path="url(#legendd168b8)"><g class="groups"><g class="traces" transform="translate(0,14.5)" style="opacity:1"><text x="40" y="4.68" class="legendtext" text-anchor="start" style="font-family:'Open Sans',verdana,arial,sans-serif;font-size:12px;fill:#444;fill-opacity:1;white-space:pre">ISDB only</text><g class="layers" style="opacity:1"><g class="legendlines"><path d="M5,0h30" class="js-line" style="fill:none;stroke:#d71d62;stroke-opacity:1;stroke-width:2px"/></g></g><rect width="301.781" height="19" x="0" y="-9.5" class="legendtoggle" style="fill:#000;fill-opacity:0"/></g><g class="traces" transform="translate(0,33.5)" style="opacity:1"><text x="40" y="4.68" class="legendtext" text-anchor="start" style="font-family:'Open Sans',verdana,arial,sans-serif;font-size:12px;fill:#444;fill-opacity:1;white-space:pre">ISDB + weighting (LOTUS)</text><g class="layers" style="opacity:1"><g class="legendlines"><path d="M5,0h30" class="js-line" style="fill:none;stroke:#08589b;stroke-opacity:1;stroke-width:2px"/></g></g><rect width="301.781" height="19" x="0" y="-9.5" class="legendtoggle" style="fill:#000;fill-opacity:0"/></g><g class="traces" transform="translate(0,52.5)" style="opacity:1"><text x="40" y="4.68" class="legendtext" text-anchor="start" style="font-family:'Open Sans',verdana,arial,sans-serif;font-size:12px;fill:#444;fill-opacity:1;white-space:pre">ISDB + weighting (in-house library)</text><g class="layers" style="opacity:1"><g class="legendlines"><path d="M5,0h30" class="js-line" style="fill:none;stroke:#08589b;stroke-opacity:1;stroke-dasharray:3px,3px;stroke-width:2px"/></g></g><rect width="301.781" height="19" x="0" y="-9.5" class="legendtoggle" style="fill:#000;fill-opacity:0"/></g><g class="traces" transform="translate(0,71.5)" style="opacity:1"><text x="40" y="4.68" class="legendtext" text-anchor="start" style="font-family:'Open Sans',verdana,arial,sans-serif;font-size:12px;fill:#444;fill-opacity:1;white-space:pre">ISDB + MS1 + weighting (LOTUS)</text><g class="layers" style="opacity:1"><g class="legendlines"><path d="M5,0h30" class="js-line" style="fill:none;stroke:#336a2d;stroke-opacity:1;stroke-width:2px"/></g></g><rect width="301.781" height="19" x="0" y="-9.5" class="legendtoggle" style="fill:#000;fill-opacity:0"/></g><g class="traces" transform="translate(0,90.5)" style="opacity:1"><text x="40" y="4.68" class="legendtext" text-anchor="start" style="font-family:'Open Sans',verdana,arial,sans-serif;font-size:12px;fill:#444;fill-opacity:1;white-space:pre">ISDB + MS1 + weighting (in-house library)</text><g class="layers" style="opacity:1"><g class="legendlines"><path d="M5,0h30" class="js-line" style="fill:none;stroke:#336a2d;stroke-opacity:1;stroke-dasharray:3px,3px;stroke-width:2px"/></g></g><rect width="301.781" height="19" x="0" y="-9.5" class="legendtoggle" style="fill:#000;fill-opacity:0"/></g></g></g><rect width="0" height="0" x="0" y="0" class="scrollbar" rx="20" ry="3" style="fill:#808ba4;fill-opacity:1"/></g><g class="g-xtitle"><text x="218.5" y="512" class="xtitle" text-anchor="middle" transform="translate(0,-15)" style="font-family:'Open Sans',verdana,arial,sans-serif;font-size:14px;fill:#444;opacity:1;font-weight:400;white-space:pre"><tspan style="font-weight:700">Rank</tspan></text></g><g class="g-ytitle"><text x="22" y="242.5" class="ytitle" text-anchor="middle" transform="rotate(-90,22,242.5)" style="font-family:'Open Sans',verdana,arial,sans-serif;font-size:14px;fill:#444;opacity:1;font-weight:400;white-space:pre"><tspan style="font-weight:700">Correct short IK annotations [%]</tspan></text></g></g></svg>