<svg class="main-svg" xmlns="http://www.w3.org/2000/svg" xmlns:xlink="http://www.w3.org/1999/xlink" width="700" height="500" style="" viewBox="0 0 700 500"><rect x="0" y="0" width="700" height="500" style="fill: rgb(255, 255, 255); fill-opacity: 1;"/><defs id="defs-964dc8"><g class="clips"><clipPath id="clip964dc8xyplot" class="plotclip"><rect width="317" height="435"/></clipPath><clipPath class="axesclip" id="clip964dc8x"><rect x="60" y="0" width="317" height="500"/></clipPath><clipPath class="axesclip" id="clip964dc8y"><rect x="0" y="25" width="700" height="435"/></clipPath><clipPath class="axesclip" id="clip964dc8xy"><rect x="60" y="25" width="317" height="435"/></clipPath></g><g class="gradients"/><g class="patterns"/></defs><g class="bglayer"/><g class="layer-below"><g class="imagelayer"/><g class="shapelayer"/></g><g class="cartesianlayer"><g class="subplot xy"><g class="layer-subplot"><g class="shapelayer"/><g class="imagelayer"/></g><g class="gridlayer"><g class="x"/><g class="y"/></g><g class="zerolinelayer"/><path class="xlines-below"/><path class="ylines-below"/><g class="overlines-below"/><g class="xaxislayer-below"/><g class="yaxislayer-below"/><g class="overaxes-below"/><g class="plot" transform="translate(60,25)" clip-path="url(#clip964dc8xyplot)"><g class="scatterlayer mlayer"><g class="trace scatter trace1f36a8" style="stroke-miterlimit: 2; opacity: 1;"><g class="fills"/><g class="errorbars"/><g class="lines"><path class="js-line" d="M0,435H0V402.35H0.64V387.2H1.27V379.09H1.91V373.4H2.54V368.39H3.18V365.15H3.81V362.06H4.45V359.24H5.08V357.13H5.72V354.9H6.35V352.99H6.99V351.33H7.62V350.21H8.26V349.14H8.89V348.02H9.53V347.01H10.16V346.13H10.8V345.21H11.43V344.52H12.07V343.8H12.71V343.04H13.34V342.41H13.98V341.81H14.61V341.14H15.25V340.59H15.88V340.14H16.52V339.46H17.15V338.91H17.79V338.46H18.42V338.07H19.06V337.66H19.69V337.29H20.33V336.88H20.96V336.33H21.6V335.86H22.23V335.53H22.87V335.16H23.51V334.89H24.14V334.61H24.78V334.16H25.41V333.97H26.05V333.81H26.68V333.54H27.32V333.3H27.95V333.17H28.59V332.93H29.22V332.6H29.86V332.25H30.49V332.11H31.13V331.93H31.76V331.82H32.4V331.68H33.03V331.62H33.67V331.45H34.3V331.25H34.94V331.13H35.58V330.94H36.21V330.76H36.85V330.66H37.48V330.6H38.12V330.51H38.75V330.45H39.39V330.31H40.02V330.27H40.66V330.14H41.29V330.08H41.93V330.04H42.56V329.94H43.2V329.88H43.83V329.8H44.47V329.74H45.1V329.69H45.74V329.61H46.37V329.57H47.01V329.47H47.65V329.41H48.28V329.26H48.92V329.18H49.55V329.14H50.19V329.12H50.82V329.04H51.46V328.98H52.09V328.86H52.73V328.69H53.36V328.53H54V328.47H54.63V328.42H55.27V328.38H55.9V328.3H56.54V328.26H57.17V328.2H57.81V328.1H58.44V328.04H59.08V327.97H59.72V327.89H60.35V327.77H60.99V327.73H61.62V327.63H62.26V327.59H62.89V327.54H63.53V327.46H64.16V327.44H64.8V327.42H65.43V327.38H66.07V327.3H66.7V327.3H67.34V327.22H67.97V327.18H68.61V327.12H69.24V327.11H69.88V327.07H70.52V327.07H71.15V327.03H71.79V327.03H72.42V327.01H73.06V326.93H73.69V326.93H74.33V326.91H74.96V326.85H75.6V326.79H76.23V326.77H76.87V326.73H77.5V326.68H78.14V326.6H78.77V326.6H79.41V326.6H80.04V326.54H80.68V326.5H81.31V326.44H81.95V326.4H82.59V326.36H83.22V326.34H83.86V326.28H84.49V326.28H85.13V326.26H85.76V326.25H86.4V326.21H87.03V326.21H87.67V326.21H88.3V326.19H88.94V326.19H89.57V326.15H90.21V326.15H90.84V326.11H91.48V326.07H92.11V326.03H92.75V325.99H93.38V325.97H94.02V325.97H94.66V325.95H95.29V325.91H95.93V325.85H96.56V325.82H97.2V325.8H97.83V325.8H98.47V325.8H99.1V325.74H99.74V325.74H100.37V325.74H101.01V325.72H101.64V325.7H102.28V325.68H102.91V325.62H103.55V325.62H104.18V325.6H104.82V325.58H105.45V325.56H106.09V325.56H106.73V325.54H107.36V325.52H108V325.52H108.63V325.48H109.27V325.44H109.9V325.42H110.54V325.4H111.17V325.4H111.81V325.38H112.44V325.37H113.08V325.35H113.71V325.31H114.35V325.31H114.98V325.31H115.62V325.31H116.25V325.27H116.89V325.23H117.53V325.21H118.16V325.19H118.8V325.17H119.43V325.15H120.07V325.09H120.7V325.09H121.34V325.05H121.97V325.05H122.61V325.05H123.24V325.05H123.88V325.05H124.51V325.05H125.15V325.03H125.78V325.01H126.42V324.97H127.05V324.95H127.69V324.95H128.32V324.94H128.96V324.94H129.6V324.92H130.23V324.9H130.87V324.88H131.5V324.88H132.14V324.84H132.77V324.84H133.41V324.84H134.04V324.84H134.68V324.84H135.31V324.84H135.95V324.84H136.58V324.8H137.22V324.78H137.85V324.78H138.49V324.76H139.12V324.72H139.76V324.7H140.39V324.7H141.03V324.7H141.67V324.7H142.3V324.7H142.94V324.7H143.57V324.68H144.21V324.68H144.84V324.68H145.48V324.68H146.11V324.68H146.75V324.68H147.38V324.66H148.02V324.66H148.65V324.66H149.29V324.62H149.92V324.62H150.56V324.58H151.19V324.58H151.83V324.58H152.46V324.58H153.1V324.58H153.74V324.58H154.37V324.58H155.01V324.58H155.64V324.56H156.28V324.54H156.91V324.54H157.55V324.54H158.18V324.54H158.82V324.51H159.45V324.51H160.09V324.51H160.72V324.51H161.36V324.51H161.99V324.47H162.63V324.45H163.26V324.45H163.9V324.43H164.54V324.43H165.17V324.43H165.81V324.43H166.44V324.41H167.08V324.39H167.71V324.39H168.35V324.37H168.98V324.37H169.62V324.37H170.25V324.37H170.89V324.37H171.52V324.37H172.16V324.37H172.79V324.37H173.43V324.37H174.06V324.37H174.7V324.37H175.33V324.37H175.97V324.35H176.61V324.35H177.24V324.35H177.88V324.33H178.51V324.33H179.15V324.31H179.78V324.31H180.42V324.31H181.05V324.31H181.69V324.31H182.32V324.31H182.96V324.29H183.59V324.29H184.23V324.29H184.86V324.27H185.5V324.27H186.13V324.23H186.77V324.23H187.4V324.23H188.04V324.23H188.68V324.21H189.31V324.21H189.95V324.19H190.58V324.19H191.22V324.19H191.85V324.17H192.49V324.15H193.12V324.13H193.76V324.13H194.39V324.13H195.03V324.13H195.66V324.13H196.3V324.13H196.93V324.11H197.57V324.11H198.2V324.11H198.84V324.11H199.47V324.11H200.11V324.11H200.75V324.11H201.38V324.09H202.02V324.09H202.65V324.08H203.29V324.08H203.92V324.08H204.56V324.08H205.19V324.08H205.83V324.08H206.46V324.08H207.1V324.08H207.73V324.06H208.37V324.06H209V324.06H209.64V324.04H210.27V324.02H210.91V324.02H211.55V324.02H212.18V324.02H212.82V324.02H213.45V324.02H214.09V324.02H214.72V324.02H215.36V324.02H215.99V324.02H216.63V324.02H217.26V324.02H217.9V324.02H218.53V324.02H219.17V324.02H219.8V324.02H220.44V324.02H221.07V324.02H221.71V324H222.34V324H222.98V324H223.62V324H224.25V324H224.89V324H225.52V324H226.16V324H226.79V324H227.43V324H228.06V324H228.7V324H229.33V323.98H229.97V323.98H230.6V323.96H231.24V323.96H231.87V323.96H232.51V323.96H233.14V323.94H233.78V323.94H234.41V323.94H235.05V323.94H235.69V323.92H236.32V323.92H236.96V323.9H237.59V323.9H238.23V323.88H238.86V323.88H239.5V323.88H240.13V323.86H240.77V323.84H241.4V323.84H242.04V323.82H242.67V323.82H243.31V323.82H243.94V323.82H244.58V323.82H245.21V323.82H245.85V323.82H246.48V323.82H247.12V323.82H247.76V323.82H248.39V323.82H249.03V323.82H249.66V323.82H250.3V323.82H250.93V323.82H251.57V323.82H252.2V323.82H252.84V323.82H253.47V323.82H254.11V323.8H254.74V323.8H255.38V323.8H256.01V323.8H256.65V323.8H257.28V323.8H257.92V323.78H258.56V323.76H259.19V323.76H259.83V323.74H260.46V323.74H261.1V323.74H261.73V323.74H262.37V323.74H263V323.74H263.64V323.74H264.27V323.74H264.91V323.74H265.54V323.74H266.18V323.74H266.81V323.72H267.45V323.72H268.08V323.72H268.72V323.72H269.35V323.72H269.99V323.72H270.63V323.72H271.26V323.72H271.9V323.72H272.53V323.72H273.17V323.72H273.8V323.72H274.44V323.72H275.07V323.72H275.71V323.7H276.34V323.7H276.98V323.7H277.61V323.7H278.25V323.7H278.88V323.7H279.52V323.7H280.15V323.7H280.79V323.7H281.42V323.7H282.06V323.7H282.7V323.7H283.33V323.66H283.97V323.66H284.6V323.66H285.24V323.66H285.87V323.66H286.51V323.66H287.14V323.65H287.78V323.65H288.41V323.65H289.05V323.65H289.68V323.65H290.32V323.65H290.95V323.65H291.59V323.65H292.22V323.65H292.86V323.65H293.49V323.65H294.13V323.65H294.77V323.65H295.4V323.65H296.04V323.65H296.67V323.65H297.31V323.65H297.94V323.65H298.58V323.65H299.21V323.65H299.85V323.65H300.48V323.65H301.12V323.65H301.75V323.65H302.39V323.65H303.02V323.65H303.66V323.65H304.29V323.65H304.93V323.65H305.57V323.63H306.2V323.63H306.84V323.63H307.47V323.63H308.11V323.63H308.74V323.63H309.38V323.63H310.01V323.63H310.65V323.63H311.28V323.61H311.92V323.61H312.55V323.61H313.19V323.61H313.82V323.61H314.46V323.61H315.09V323.61H315.73V323.61H316.36V323.61H317V323.61" style="vector-effect: non-scaling-stroke; fill: none; stroke: rgb(215, 29, 98); stroke-opacity: 1; stroke-width: 2px; opacity: 1;"/></g><g class="points"/><g class="text"/></g><g class="trace scatter trace323c56" style="stroke-miterlimit: 2; opacity: 1;"><g class="fills"/><g class="errorbars"/><g class="lines"><path class="js-line" d="M0,435H0V368.16H0.64V353.48H1.27V348.41H1.91V345.5H2.54V343.14H3.18V341.53H3.81V339.91H4.45V338.48H5.08V337.33H5.72V336.53H6.35V335.53H6.99V335.02H7.62V334.55H8.26V334.06H8.89V333.62H9.53V333.11H10.16V332.64H10.8V332.25H11.43V332.01H12.07V331.8H12.71V331.37H13.34V331.09H13.98V330.84H14.61V330.59H15.25V330.39H15.88V330.27H16.52V330.08H17.15V329.8H17.79V329.59H18.42V329.49H19.06V329.29H19.69V329.12H20.33V328.98H20.96V328.83H21.6V328.65H22.23V328.57H22.87V328.36H23.51V328.2H24.14V328.18H24.78V328.06H25.41V328H26.05V327.95H26.68V327.79H27.32V327.65H27.95V327.59H28.59V327.54H29.22V327.44H29.86V327.24H30.49V327.16H31.13V327.05H31.76V326.99H32.4V326.99H33.03V326.95H33.67V326.87H34.3V326.79H34.94V326.71H35.58V326.62H36.21V326.54H36.85V326.46H37.48V326.44H38.12V326.42H38.75V326.4H39.39V326.32H40.02V326.3H40.66V326.25H41.29V326.19H41.93V326.17H42.56V326.13H43.2V326.09H43.83V326.03H44.47V325.99H45.1V325.95H45.74V325.91H46.37V325.85H47.01V325.78H47.65V325.78H48.28V325.68H48.92V325.62H49.55V325.6H50.19V325.6H50.82V325.58H51.46V325.56H52.09V325.5H52.73V325.44H53.36V325.44H54V325.44H54.63V325.42H55.27V325.42H55.9V325.38H56.54V325.33H57.17V325.29H57.81V325.23H58.44V325.23H59.08V325.21H59.72V325.21H60.35V325.21H60.99V325.19H61.62V325.17H62.26V325.15H62.89V325.11H63.53V325.11H64.16V325.09H64.8V325.09H65.43V325.09H66.07V325.07H66.7V325.07H67.34V325.05H67.97V325.05H68.61V325.03H69.24V325.03H69.88V325.01H70.52V324.99H71.15V324.97H71.79V324.97H72.42V324.97H73.06V324.94H73.69V324.9H74.33V324.9H74.96V324.88H75.6V324.86H76.23V324.86H76.87V324.84H77.5V324.82H78.14V324.8H78.77V324.8H79.41V324.8H80.04V324.78H80.68V324.76H81.31V324.74H81.95V324.7H82.59V324.7H83.22V324.7H83.86V324.7H84.49V324.68H85.13V324.66H85.76V324.66H86.4V324.62H87.03V324.62H87.67V324.62H88.3V324.62H88.94V324.62H89.57V324.58H90.21V324.58H90.84V324.54H91.48V324.54H92.11V324.54H92.75V324.54H93.38V324.54H94.02V324.54H94.66V324.54H95.29V324.52H95.93V324.51H96.56V324.49H97.2V324.47H97.83V324.47H98.47V324.47H99.1V324.45H99.74V324.45H100.37V324.45H101.01V324.45H101.64V324.41H102.28V324.39H102.91V324.37H103.55V324.37H104.18V324.37H104.82V324.37H105.45V324.35H106.09V324.35H106.73V324.35H107.36V324.33H108V324.33H108.63V324.29H109.27V324.27H109.9V324.27H110.54V324.25H111.17V324.25H111.81V324.25H112.44V324.25H113.08V324.25H113.71V324.23H114.35V324.23H114.98V324.23H115.62V324.23H116.25V324.23H116.89V324.21H117.53V324.21H118.16V324.21H118.8V324.19H119.43V324.17H120.07V324.15H120.7V324.13H121.34V324.09H121.97V324.09H122.61V324.09H123.24V324.09H123.88V324.09H124.51V324.09H125.15V324.09H125.78V324.09H126.42V324.09H127.05V324.08H127.69V324.08H128.32V324.08H128.96V324.08H129.6V324.06H130.23V324.04H130.87V324.04H131.5V324.04H132.14V324.02H132.77V324.02H133.41V324.02H134.04V324.02H134.68V324H135.31V324H135.95V324H136.58V323.98H137.22V323.98H137.85V323.98H138.49V323.98H139.12V323.98H139.76V323.98H140.39V323.98H141.03V323.98H141.67V323.98H142.3V323.98H142.94V323.98H143.57V323.96H144.21V323.96H144.84V323.96H145.48V323.96H146.11V323.96H146.75V323.94H147.38V323.94H148.02V323.94H148.65V323.94H149.29V323.94H149.92V323.94H150.56V323.94H151.19V323.94H151.83V323.94H152.46V323.94H153.1V323.94H153.74V323.94H154.37V323.94H155.01V323.94H155.64V323.94H156.28V323.94H156.91V323.94H157.55V323.94H158.18V323.94H158.82V323.94H159.45V323.94H160.09V323.94H160.72V323.94H161.36V323.94H161.99V323.92H162.63V323.88H163.26V323.88H163.9V323.86H164.54V323.86H165.17V323.86H165.81V323.86H166.44V323.86H167.08V323.86H167.71V323.86H168.35V323.84H168.98V323.84H169.62V323.84H170.25V323.84H170.89V323.84H171.52V323.84H172.16V323.84H172.79V323.84H173.43V323.84H174.06V323.84H174.7V323.84H175.33V323.84H175.97V323.84H176.61V323.84H177.24V323.84H177.88V323.84H178.51V323.84H179.15V323.84H179.78V323.84H180.42V323.84H181.05V323.84H181.69V323.84H182.32V323.84H182.96V323.84H183.59V323.84H184.23V323.84H184.86V323.84H185.5V323.84H186.13V323.8H186.77V323.8H187.4V323.8H188.04V323.8H188.68V323.78H189.31V323.78H189.95V323.78H190.58V323.78H191.22V323.78H191.85V323.78H192.49V323.78H193.12V323.78H193.76V323.78H194.39V323.78H195.03V323.78H195.66V323.78H196.3V323.78H196.93V323.76H197.57V323.76H198.2V323.76H198.84V323.76H199.47V323.76H200.11V323.76H200.75V323.76H201.38V323.76H202.02V323.76H202.65V323.76H203.29V323.76H203.92V323.76H204.56V323.76H205.19V323.76H205.83V323.76H206.46V323.76H207.1V323.76H207.73V323.76H208.37V323.76H209V323.76H209.64V323.76H210.27V323.76H210.91V323.76H211.55V323.76H212.18V323.76H212.82V323.76H213.45V323.76H214.09V323.76H214.72V323.74H215.36V323.74H215.99V323.74H216.63V323.74H217.26V323.74H217.9V323.74H218.53V323.74H219.17V323.74H219.8V323.74H220.44V323.74H221.07V323.74H221.71V323.72H222.34V323.72H222.98V323.72H223.62V323.72H224.25V323.72H224.89V323.72H225.52V323.72H226.16V323.72H226.79V323.72H227.43V323.72H228.06V323.72H228.7V323.72H229.33V323.72H229.97V323.72H230.6V323.72H231.24V323.72H231.87V323.72H232.51V323.72H233.14V323.7H233.78V323.7H234.41V323.7H235.05V323.7H235.69V323.7H236.32V323.7H236.96V323.7H237.59V323.7H238.23V323.68H238.86V323.68H239.5V323.68H240.13V323.68H240.77V323.68H241.4V323.68H242.04V323.68H242.67V323.68H243.31V323.68H243.94V323.68H244.58V323.68H245.21V323.68H245.85V323.68H246.48V323.68H247.12V323.68H247.76V323.68H248.39V323.68H249.03V323.68H249.66V323.68H250.3V323.68H250.93V323.68H251.57V323.68H252.2V323.68H252.84V323.68H253.47V323.68H254.11V323.68H254.74V323.68H255.38V323.68H256.01V323.68H256.65V323.68H257.28V323.68H257.92V323.68H258.56V323.68H259.19V323.68H259.83V323.66H260.46V323.66H261.1V323.66H261.73V323.66H262.37V323.66H263V323.66H263.64V323.66H264.27V323.66H264.91V323.66H265.54V323.65H266.18V323.65H266.81V323.65H267.45V323.65H268.08V323.65H268.72V323.65H269.35V323.65H269.99V323.65H270.63V323.65H271.26V323.65H271.9V323.65H272.53V323.65H273.17V323.65H273.8V323.65H274.44V323.65H275.07V323.65H275.71V323.63H276.34V323.63H276.98V323.63H277.61V323.63H278.25V323.63H278.88V323.63H279.52V323.63H280.15V323.63H280.79V323.63H281.42V323.63H282.06V323.63H282.7V323.63H283.33V323.63H283.97V323.63H284.6V323.63H285.24V323.63H285.87V323.63H286.51V323.63H287.14V323.63H287.78V323.63H288.41V323.63H289.05V323.63H289.68V323.63H290.32V323.63H290.95V323.63H291.59V323.63H292.22V323.63H292.86V323.63H293.49V323.63H294.13V323.63H294.77V323.63H295.4V323.63H296.04V323.63H296.67V323.63H297.31V323.63H297.94V323.63H298.58V323.63H299.21V323.63H299.85V323.63H300.48V323.63H301.12V323.63H301.75V323.63H302.39V323.63H303.02V323.63H303.66V323.63H304.29V323.63H304.93V323.63H305.57V323.63H306.2V323.63H306.84V323.63H307.47V323.63H308.11V323.63H308.74V323.63H309.38V323.63H310.01V323.63H310.65V323.63H311.28V323.61H311.92V323.61H312.55V323.61H313.19V323.61H313.82V323.61H314.46V323.61H315.09V323.61H315.73V323.61H316.36V323.61H317V323.61" style="vector-effect: non-scaling-stroke; fill: none; stroke: rgb(8, 88, 155); stroke-opacity: 1; stroke-width: 2px; opacity: 1;"/></g><g class="points"/><g class="text"/></g><g class="trace scatter trace9745c1" style="stroke-miterlimit: 2; opacity: 1;"><g class="fills"/><g class="errorbars"/><g class="lines"><path class="js-line" d="M0,435H0V362.71H0.64V347.57H1.27V342.82H1.91V340.3H2.54V338.25H3.18V336.84H3.81V335.45H4.45V334.34H5.08V333.54H5.72V332.81H6.35V332.03H6.99V331.58H7.62V331.25H8.26V330.94H8.89V330.57H9.53V330.25H10.16V329.88H10.8V329.55H11.43V329.37H12.07V329.2H12.71V328.92H13.34V328.69H13.98V328.49H14.61V328.36H15.25V328.2H15.88V328.1H16.52V327.97H17.15V327.75H17.79V327.54H18.42V327.5H19.06V327.36H19.69V327.22H20.33V327.12H20.96V326.99H21.6V326.83H22.23V326.77H22.87V326.6H23.51V326.5H24.14V326.48H24.78V326.38H25.41V326.34H26.05V326.32H26.68V326.23H27.32V326.13H27.95V326.09H28.59V326.03H29.22V325.95H29.86V325.83H30.49V325.76H31.13V325.66H31.76V325.62H32.4V325.62H33.03V325.6H33.67V325.54H34.3V325.48H34.94V325.48H35.58V325.42H36.21V325.38H36.85V325.35H37.48V325.33H38.12V325.31H38.75V325.31H39.39V325.27H40.02V325.25H40.66V325.25H41.29V325.21H41.93V325.21H42.56V325.17H43.2V325.17H43.83V325.13H44.47V325.11H45.1V325.09H45.74V325.07H46.37V325.07H47.01V325.03H47.65V325.03H48.28V324.99H48.92V324.97H49.55V324.95H50.19V324.95H50.82V324.94H51.46V324.92H52.09V324.86H52.73V324.82H53.36V324.82H54V324.82H54.63V324.8H55.27V324.8H55.9V324.78H56.54V324.74H57.17V324.7H57.81V324.68H58.44V324.68H59.08V324.68H59.72V324.68H60.35V324.68H60.99V324.68H61.62V324.66H62.26V324.64H62.89V324.62H63.53V324.62H64.16V324.6H64.8V324.6H65.43V324.6H66.07V324.6H66.7V324.6H67.34V324.6H67.97V324.6H68.61V324.58H69.24V324.58H69.88V324.58H70.52V324.58H71.15V324.56H71.79V324.56H72.42V324.56H73.06V324.54H73.69V324.54H74.33V324.54H74.96V324.52H75.6V324.52H76.23V324.52H76.87V324.51H77.5V324.49H78.14V324.47H78.77V324.47H79.41V324.47H80.04V324.47H80.68V324.47H81.31V324.47H81.95V324.45H82.59V324.45H83.22V324.45H83.86V324.45H84.49V324.45H85.13V324.43H85.76V324.43H86.4V324.41H87.03V324.41H87.67V324.41H88.3V324.41H88.94V324.41H89.57V324.39H90.21V324.39H90.84V324.37H91.48V324.37H92.11V324.37H92.75V324.37H93.38V324.37H94.02V324.37H94.66V324.37H95.29V324.35H95.93V324.33H96.56V324.31H97.2V324.29H97.83V324.29H98.47V324.29H99.1V324.27H99.74V324.27H100.37V324.27H101.01V324.27H101.64V324.25H102.28V324.23H102.91V324.21H103.55V324.21H104.18V324.21H104.82V324.21H105.45V324.19H106.09V324.19H106.73V324.19H107.36V324.17H108V324.17H108.63V324.15H109.27V324.13H109.9V324.13H110.54V324.11H111.17V324.11H111.81V324.11H112.44V324.11H113.08V324.11H113.71V324.09H114.35V324.09H114.98V324.09H115.62V324.09H116.25V324.09H116.89V324.08H117.53V324.08H118.16V324.08H118.8V324.06H119.43V324.04H120.07V324.02H120.7V324.02H121.34V323.98H121.97V323.98H122.61V323.98H123.24V323.98H123.88V323.98H124.51V323.98H125.15V323.98H125.78V323.98H126.42V323.98H127.05V323.96H127.69V323.96H128.32V323.96H128.96V323.96H129.6V323.94H130.23V323.92H130.87V323.92H131.5V323.92H132.14V323.9H132.77V323.9H133.41V323.9H134.04V323.9H134.68V323.9H135.31V323.9H135.95V323.9H136.58V323.88H137.22V323.88H137.85V323.88H138.49V323.88H139.12V323.88H139.76V323.88H140.39V323.88H141.03V323.88H141.67V323.88H142.3V323.88H142.94V323.88H143.57V323.86H144.21V323.86H144.84V323.86H145.48V323.86H146.11V323.86H146.75V323.86H147.38V323.86H148.02V323.86H148.65V323.86H149.29V323.86H149.92V323.86H150.56V323.86H151.19V323.86H151.83V323.86H152.46V323.86H153.1V323.86H153.74V323.86H154.37V323.86H155.01V323.86H155.64V323.86H156.28V323.86H156.91V323.86H157.55V323.86H158.18V323.86H158.82V323.86H159.45V323.86H160.09V323.86H160.72V323.86H161.36V323.86H161.99V323.84H162.63V323.84H163.26V323.84H163.9V323.82H164.54V323.82H165.17V323.82H165.81V323.82H166.44V323.82H167.08V323.82H167.71V323.82H168.35V323.8H168.98V323.8H169.62V323.8H170.25V323.8H170.89V323.8H171.52V323.8H172.16V323.8H172.79V323.8H173.43V323.8H174.06V323.8H174.7V323.8H175.33V323.8H175.97V323.8H176.61V323.8H177.24V323.8H177.88V323.8H178.51V323.8H179.15V323.8H179.78V323.8H180.42V323.8H181.05V323.8H181.69V323.8H182.32V323.8H182.96V323.8H183.59V323.8H184.23V323.8H184.86V323.8H185.5V323.8H186.13V323.76H186.77V323.76H187.4V323.76H188.04V323.76H188.68V323.74H189.31V323.74H189.95V323.74H190.58V323.74H191.22V323.74H191.85V323.74H192.49V323.74H193.12V323.74H193.76V323.74H194.39V323.74H195.03V323.74H195.66V323.74H196.3V323.74H196.93V323.72H197.57V323.72H198.2V323.72H198.84V323.72H199.47V323.72H200.11V323.72H200.75V323.72H201.38V323.72H202.02V323.72H202.65V323.72H203.29V323.72H203.92V323.72H204.56V323.72H205.19V323.72H205.83V323.72H206.46V323.72H207.1V323.72H207.73V323.72H208.37V323.72H209V323.72H209.64V323.72H210.27V323.72H210.91V323.72H211.55V323.72H212.18V323.72H212.82V323.72H213.45V323.72H214.09V323.72H214.72V323.72H215.36V323.72H215.99V323.72H216.63V323.72H217.26V323.72H217.9V323.72H218.53V323.72H219.17V323.72H219.8V323.72H220.44V323.72H221.07V323.72H221.71V323.7H222.34V323.7H222.98V323.7H223.62V323.7H224.25V323.7H224.89V323.7H225.52V323.7H226.16V323.7H226.79V323.7H227.43V323.7H228.06V323.7H228.7V323.7H229.33V323.7H229.97V323.7H230.6V323.7H231.24V323.7H231.87V323.7H232.51V323.7H233.14V323.68H233.78V323.68H234.41V323.68H235.05V323.68H235.69V323.68H236.32V323.68H236.96V323.68H237.59V323.68H238.23V323.66H238.86V323.66H239.5V323.66H240.13V323.66H240.77V323.66H241.4V323.66H242.04V323.66H242.67V323.66H243.31V323.66H243.94V323.66H244.58V323.66H245.21V323.66H245.85V323.66H246.48V323.66H247.12V323.66H247.76V323.66H248.39V323.66H249.03V323.66H249.66V323.66H250.3V323.66H250.93V323.66H251.57V323.66H252.2V323.66H252.84V323.66H253.47V323.66H254.11V323.66H254.74V323.66H255.38V323.66H256.01V323.66H256.65V323.66H257.28V323.66H257.92V323.66H258.56V323.66H259.19V323.66H259.83V323.65H260.46V323.65H261.1V323.65H261.73V323.65H262.37V323.65H263V323.65H263.64V323.65H264.27V323.65H264.91V323.65H265.54V323.65H266.18V323.65H266.81V323.65H267.45V323.65H268.08V323.65H268.72V323.65H269.35V323.65H269.99V323.65H270.63V323.65H271.26V323.65H271.9V323.65H272.53V323.65H273.17V323.65H273.8V323.65H274.44V323.65H275.07V323.65H275.71V323.63H276.34V323.63H276.98V323.63H277.61V323.63H278.25V323.63H278.88V323.63H279.52V323.63H280.15V323.63H280.79V323.63H281.42V323.63H282.06V323.63H282.7V323.63H283.33V323.63H283.97V323.63H284.6V323.63H285.24V323.63H285.87V323.63H286.51V323.63H287.14V323.63H287.78V323.63H288.41V323.63H289.05V323.63H289.68V323.63H290.32V323.63H290.95V323.63H291.59V323.63H292.22V323.63H292.86V323.63H293.49V323.63H294.13V323.63H294.77V323.63H295.4V323.63H296.04V323.63H296.67V323.63H297.31V323.63H297.94V323.63H298.58V323.63H299.21V323.63H299.85V323.63H300.48V323.63H301.12V323.63H301.75V323.63H302.39V323.63H303.02V323.63H303.66V323.63H304.29V323.63H304.93V323.63H305.57V323.63H306.2V323.63H306.84V323.63H307.47V323.63H308.11V323.63H308.74V323.63H309.38V323.63H310.01V323.63H310.65V323.63H311.28V323.61H311.92V323.61H312.55V323.61H313.19V323.61H313.82V323.61H314.46V323.61H315.09V323.61H315.73V323.61H316.36V323.61H317V323.61" style="vector-effect: non-scaling-stroke; fill: none; stroke: rgb(8, 88, 155); stroke-opacity: 1; stroke-width: 2px; opacity: 1; stroke-dasharray: 3px, 3px;"/></g><g class="points"/><g class="text"/></g><g class="trace scatter trace4ccdbc" style="stroke-miterlimit: 2; opacity: 1;"><g class="fills"/><g class="errorbars"/><g class="lines"><path class="js-line" d="M0,435H0V325.46H0.64V306.19H1.27V299.31H1.91V295.34H2.54V292.31H3.18V289.9H3.81V288.03H4.45V286.32H5.08V285.31H5.72V284.41H6.35V283.37H6.99V282.67H7.62V282.14H8.26V281.53H8.89V281.01H9.53V280.52H10.16V280.05H10.8V279.6H11.43V279.27H12.07V278.95H12.71V278.37H13.34V278.09H13.98V277.78H14.61V277.57H15.25V277.31H15.88V277.06H16.52V276.88H17.15V276.63H17.79V276.43H18.42V276.3H19.06V276.14H19.69V276.04H20.33V275.89H20.96V275.63H21.6V275.49H22.23V275.38H22.87V275.12H23.51V274.95H24.14V274.93H24.78V274.83H25.41V274.79H26.05V274.67H26.68V274.54H27.32V274.36H27.95V274.28H28.59V274.16H29.22V274.07H29.86V273.97H30.49V273.85H31.13V273.7H31.76V273.66H32.4V273.66H33.03V273.6H33.67V273.52H34.3V273.48H34.94V273.4H35.58V273.32H36.21V273.3H36.85V273.21H37.48V273.15H38.12V273.09H38.75V273.09H39.39V273.01H40.02V272.95H40.66V272.91H41.29V272.85H41.93V272.78H42.56V272.72H43.2V272.7H43.83V272.64H44.47V272.58H45.1V272.56H45.74V272.56H46.37V272.5H47.01V272.46H47.65V272.41H48.28V272.35H48.92V272.31H49.55V272.27H50.19V272.25H50.82V272.23H51.46V272.19H52.09V272.13H52.73V272.11H53.36V272.11H54V272.11H54.63V272.07H55.27V272.07H55.9V272.05H56.54V272.03H57.17V271.94H57.81V271.9H58.44V271.9H59.08V271.9H59.72V271.9H60.35V271.88H60.99V271.82H61.62V271.78H62.26V271.76H62.89V271.74H63.53V271.72H64.16V271.7H64.8V271.68H65.43V271.68H66.07V271.68H66.7V271.68H67.34V271.68H67.97V271.68H68.61V271.66H69.24V271.64H69.88V271.62H70.52V271.6H71.15V271.56H71.79V271.56H72.42V271.56H73.06V271.55H73.69V271.55H74.33V271.55H74.96V271.49H75.6V271.47H76.23V271.45H76.87V271.45H77.5V271.45H78.14V271.41H78.77V271.41H79.41V271.41H80.04V271.39H80.68V271.37H81.31V271.35H81.95V271.31H82.59V271.29H83.22V271.29H83.86V271.29H84.49V271.29H85.13V271.27H85.76V271.27H86.4V271.23H87.03V271.23H87.67V271.21H88.3V271.21H88.94V271.21H89.57V271.17H90.21V271.15H90.84V271.13H91.48V271.13H92.11V271.13H92.75V271.12H93.38V271.12H94.02V271.12H94.66V271.12H95.29V271.12H95.93V271.1H96.56V271.08H97.2V271.08H97.83V271.08H98.47V271.08H99.1V271.06H99.74V271.06H100.37V271.06H101.01V271.06H101.64V271.06H102.28V271.04H102.91V271.02H103.55V271.02H104.18V271.02H104.82V271.02H105.45V271H106.09V271H106.73V271H107.36V270.98H108V270.98H108.63V270.96H109.27V270.96H109.9V270.94H110.54V270.92H111.17V270.92H111.81V270.92H112.44V270.92H113.08V270.92H113.71V270.9H114.35V270.9H114.98V270.9H115.62V270.9H116.25V270.88H116.89V270.88H117.53V270.88H118.16V270.86H118.8V270.86H119.43V270.84H120.07V270.84H120.7V270.84H121.34V270.8H121.97V270.8H122.61V270.78H123.24V270.78H123.88V270.78H124.51V270.78H125.15V270.76H125.78V270.76H126.42V270.76H127.05V270.76H127.69V270.76H128.32V270.74H128.96V270.74H129.6V270.74H130.23V270.72H130.87V270.72H131.5V270.72H132.14V270.7H132.77V270.67H133.41V270.67H134.04V270.67H134.68V270.67H135.31V270.67H135.95V270.67H136.58V270.65H137.22V270.65H137.85V270.65H138.49V270.65H139.12V270.65H139.76V270.65H140.39V270.65H141.03V270.65H141.67V270.65H142.3V270.65H142.94V270.65H143.57V270.65H144.21V270.65H144.84V270.65H145.48V270.65H146.11V270.63H146.75V270.63H147.38V270.63H148.02V270.61H148.65V270.61H149.29V270.61H149.92V270.61H150.56V270.61H151.19V270.61H151.83V270.61H152.46V270.61H153.1V270.61H153.74V270.61H154.37V270.61H155.01V270.61H155.64V270.61H156.28V270.61H156.91V270.61H157.55V270.61H158.18V270.61H158.82V270.61H159.45V270.61H160.09V270.59H160.72V270.59H161.36V270.59H161.99V270.57H162.63V270.55H163.26V270.55H163.9V270.55H164.54V270.55H165.17V270.55H165.81V270.55H166.44V270.55H167.08V270.55H167.71V270.53H168.35V270.51H168.98V270.51H169.62V270.51H170.25V270.51H170.89V270.51H171.52V270.51H172.16V270.51H172.79V270.51H173.43V270.51H174.06V270.51H174.7V270.51H175.33V270.51H175.97V270.51H176.61V270.51H177.24V270.51H177.88V270.51H178.51V270.51H179.15V270.51H179.78V270.51H180.42V270.51H181.05V270.51H181.69V270.51H182.32V270.51H182.96V270.51H183.59V270.51H184.23V270.51H184.86V270.51H185.5V270.51H186.13V270.51H186.77V270.51H187.4V270.51H188.04V270.51H188.68V270.51H189.31V270.51H189.95V270.51H190.58V270.51H191.22V270.51H191.85V270.51H192.49V270.51H193.12V270.51H193.76V270.51H194.39V270.49H195.03V270.49H195.66V270.49H196.3V270.49H196.93V270.47H197.57V270.47H198.2V270.47H198.84V270.47H199.47V270.45H200.11V270.45H200.75V270.45H201.38V270.45H202.02V270.45H202.65V270.45H203.29V270.45H203.92V270.45H204.56V270.45H205.19V270.45H205.83V270.45H206.46V270.45H207.1V270.45H207.73V270.45H208.37V270.45H209V270.45H209.64V270.45H210.27V270.45H210.91V270.45H211.55V270.45H212.18V270.45H212.82V270.45H213.45V270.45H214.09V270.45H214.72V270.43H215.36V270.43H215.99V270.43H216.63V270.43H217.26V270.43H217.9V270.43H218.53V270.43H219.17V270.43H219.8V270.43H220.44V270.43H221.07V270.43H221.71V270.43H222.34V270.43H222.98V270.43H223.62V270.43H224.25V270.43H224.89V270.43H225.52V270.43H226.16V270.43H226.79V270.43H227.43V270.43H228.06V270.43H228.7V270.43H229.33V270.43H229.97V270.43H230.6V270.43H231.24V270.43H231.87V270.43H232.51V270.43H233.14V270.41H233.78V270.41H234.41V270.41H235.05V270.39H235.69V270.39H236.32V270.39H236.96V270.39H237.59V270.39H238.23V270.39H238.86V270.39H239.5V270.39H240.13V270.39H240.77V270.39H241.4V270.39H242.04V270.39H242.67V270.39H243.31V270.39H243.94V270.39H244.58V270.39H245.21V270.39H245.85V270.39H246.48V270.39H247.12V270.39H247.76V270.39H248.39V270.39H249.03V270.39H249.66V270.39H250.3V270.39H250.93V270.39H251.57V270.39H252.2V270.39H252.84V270.39H253.47V270.39H254.11V270.39H254.74V270.39H255.38V270.39H256.01V270.39H256.65V270.39H257.28V270.39H257.92V270.39H258.56V270.39H259.19V270.39H259.83V270.39H260.46V270.39H261.1V270.39H261.73V270.39H262.37V270.39H263V270.39H263.64V270.39H264.27V270.39H264.91V270.39H265.54V270.37H266.18V270.37H266.81V270.37H267.45V270.37H268.08V270.37H268.72V270.37H269.35V270.37H269.99V270.37H270.63V270.37H271.26V270.37H271.9V270.37H272.53V270.37H273.17V270.37H273.8V270.37H274.44V270.37H275.07V270.37H275.71V270.35H276.34V270.35H276.98V270.35H277.61V270.35H278.25V270.35H278.88V270.35H279.52V270.35H280.15V270.35H280.79V270.35H281.42V270.35H282.06V270.35H282.7V270.35H283.33V270.35H283.97V270.35H284.6V270.35H285.24V270.35H285.87V270.35H286.51V270.35H287.14V270.35H287.78V270.35H288.41V270.35H289.05V270.35H289.68V270.35H290.32V270.35H290.95V270.35H291.59V270.35H292.22V270.35H292.86V270.35H293.49V270.35H294.13V270.35H294.77V270.35H295.4V270.35H296.04V270.35H296.67V270.35H297.31V270.35H297.94V270.35H298.58V270.35H299.21V270.35H299.85V270.35H300.48V270.35H301.12V270.35H301.75V270.35H302.39V270.35H303.02V270.35H303.66V270.35H304.29V270.35H304.93V270.35H305.57V270.35H306.2V270.35H306.84V270.35H307.47V270.35H308.11V270.35H308.74V270.35H309.38V270.35H310.01V270.35H310.65V270.35H311.28V270.33H311.92V270.33H312.55V270.33H313.19V270.33H313.82V270.33H314.46V270.33H315.09V270.33H315.73V270.33H316.36V270.33H317V270.33" style="vector-effect: non-scaling-stroke; fill: none; stroke: rgb(51, 106, 45); stroke-opacity: 1; stroke-width: 2px; opacity: 1;"/></g><g class="points"/><g class="text"/></g><g class="trace scatter traceae6a80" style="stroke-miterlimit: 2; opacity: 1;"><g class="fills"/><g class="errorbars"/><g class="lines"><path class="js-line" d="M0,435H0V313.67H0.64V294.01H1.27V286.66H1.91V282.96H2.54V280.01H3.18V277.74H3.81V276.16H4.45V274.75H5.08V273.66H5.72V272.85H6.35V271.98H6.99V271.29H7.62V270.78H8.26V270.31H8.89V269.86H9.53V269.59H10.16V269.32H10.8V269H11.43V268.73H12.07V268.5H12.71V268.18H13.34V267.77H13.98V267.56H14.61V267.48H15.25V267.34H15.88V267.21H16.52V267.07H17.15V266.79H17.79V266.64H18.42V266.58H19.06V266.44H19.69V266.34H20.33V266.23H20.96V266.03H21.6V265.93H22.23V265.86H22.87V265.7H23.51V265.6H24.14V265.52H24.78V265.43H25.41V265.33H26.05V265.31H26.68V265.23H27.32V265.15H27.95V265.09H28.59V265.02H29.22V264.96H29.86V264.84H30.49V264.78H31.13V264.68H31.76V264.62H32.4V264.6H33.03V264.57H33.67V264.53H34.3V264.45H34.94V264.45H35.58V264.43H36.21V264.37H36.85V264.31H37.48V264.27H38.12V264.25H38.75V264.25H39.39V264.21H40.02V264.19H40.66V264.19H41.29V264.16H41.93V264.14H42.56V264.1H43.2V264.1H43.83V264.06H44.47V264.02H45.1V264.02H45.74V264.02H46.37V264.02H47.01V264H47.65V263.96H48.28V263.94H48.92V263.9H49.55V263.88H50.19V263.88H50.82V263.88H51.46V263.86H52.09V263.8H52.73V263.8H53.36V263.8H54V263.8H54.63V263.78H55.27V263.76H55.9V263.76H56.54V263.73H57.17V263.69H57.81V263.67H58.44V263.65H59.08V263.65H59.72V263.65H60.35V263.65H60.99V263.63H61.62V263.61H62.26V263.61H62.89V263.59H63.53V263.57H64.16V263.55H64.8V263.53H65.43V263.53H66.07V263.53H66.7V263.53H67.34V263.53H67.97V263.53H68.61V263.51H69.24V263.51H69.88V263.51H70.52V263.49H71.15V263.47H71.79V263.47H72.42V263.47H73.06V263.45H73.69V263.45H74.33V263.45H74.96V263.43H75.6V263.43H76.23V263.43H76.87V263.43H77.5V263.43H78.14V263.41H78.77V263.39H79.41V263.39H80.04V263.37H80.68V263.37H81.31V263.35H81.95V263.33H82.59V263.33H83.22V263.33H83.86V263.33H84.49V263.3H85.13V263.28H85.76V263.28H86.4V263.26H87.03V263.26H87.67V263.24H88.3V263.22H88.94V263.22H89.57V263.2H90.21V263.2H90.84V263.16H91.48V263.16H92.11V263.16H92.75V263.16H93.38V263.16H94.02V263.16H94.66V263.16H95.29V263.16H95.93V263.14H96.56V263.14H97.2V263.14H97.83V263.14H98.47V263.14H99.1V263.12H99.74V263.12H100.37V263.12H101.01V263.12H101.64V263.12H102.28V263.1H102.91V263.08H103.55V263.08H104.18V263.06H104.82V263.06H105.45V263.04H106.09V263.04H106.73V263.04H107.36V263H108V263H108.63V262.98H109.27V262.98H109.9V262.98H110.54V262.98H111.17V262.98H111.81V262.98H112.44V262.98H113.08V262.98H113.71V262.96H114.35V262.96H114.98V262.96H115.62V262.96H116.25V262.96H116.89V262.96H117.53V262.96H118.16V262.96H118.8V262.96H119.43V262.94H120.07V262.94H120.7V262.94H121.34V262.88H121.97V262.88H122.61V262.88H123.24V262.88H123.88V262.88H124.51V262.88H125.15V262.88H125.78V262.88H126.42V262.88H127.05V262.88H127.69V262.88H128.32V262.87H128.96V262.87H129.6V262.85H130.23V262.83H130.87V262.83H131.5V262.83H132.14V262.83H132.77V262.83H133.41V262.83H134.04V262.83H134.68V262.83H135.31V262.81H135.95V262.81H136.58V262.79H137.22V262.79H137.85V262.79H138.49V262.79H139.12V262.79H139.76V262.79H140.39V262.79H141.03V262.79H141.67V262.79H142.3V262.79H142.94V262.79H143.57V262.79H144.21V262.79H144.84V262.79H145.48V262.79H146.11V262.79H146.75V262.79H147.38V262.79H148.02V262.79H148.65V262.77H149.29V262.77H149.92V262.77H150.56V262.75H151.19V262.75H151.83V262.75H152.46V262.75H153.1V262.75H153.74V262.75H154.37V262.75H155.01V262.75H155.64V262.75H156.28V262.75H156.91V262.75H157.55V262.75H158.18V262.75H158.82V262.75H159.45V262.75H160.09V262.75H160.72V262.75H161.36V262.75H161.99V262.73H162.63V262.73H163.26V262.73H163.9V262.73H164.54V262.73H165.17V262.73H165.81V262.73H166.44V262.73H167.08V262.71H167.71V262.71H168.35V262.69H168.98V262.69H169.62V262.69H170.25V262.69H170.89V262.69H171.52V262.69H172.16V262.69H172.79V262.69H173.43V262.69H174.06V262.69H174.7V262.69H175.33V262.69H175.97V262.69H176.61V262.69H177.24V262.67H177.88V262.67H178.51V262.67H179.15V262.67H179.78V262.65H180.42V262.65H181.05V262.65H181.69V262.65H182.32V262.65H182.96V262.65H183.59V262.65H184.23V262.65H184.86V262.65H185.5V262.65H186.13V262.65H186.77V262.65H187.4V262.65H188.04V262.65H188.68V262.65H189.31V262.65H189.95V262.65H190.58V262.65H191.22V262.65H191.85V262.65H192.49V262.65H193.12V262.65H193.76V262.65H194.39V262.65H195.03V262.65H195.66V262.65H196.3V262.65H196.93V262.63H197.57V262.63H198.2V262.63H198.84V262.63H199.47V262.63H200.11V262.63H200.75V262.63H201.38V262.63H202.02V262.63H202.65V262.63H203.29V262.63H203.92V262.63H204.56V262.63H205.19V262.61H205.83V262.61H206.46V262.61H207.1V262.61H207.73V262.59H208.37V262.59H209V262.59H209.64V262.59H210.27V262.59H210.91V262.59H211.55V262.59H212.18V262.59H212.82V262.59H213.45V262.59H214.09V262.59H214.72V262.59H215.36V262.59H215.99V262.59H216.63V262.59H217.26V262.59H217.9V262.59H218.53V262.59H219.17V262.59H219.8V262.59H220.44V262.59H221.07V262.59H221.71V262.59H222.34V262.59H222.98V262.59H223.62V262.59H224.25V262.59H224.89V262.59H225.52V262.59H226.16V262.59H226.79V262.59H227.43V262.57H228.06V262.57H228.7V262.57H229.33V262.57H229.97V262.57H230.6V262.57H231.24V262.57H231.87V262.57H232.51V262.57H233.14V262.55H233.78V262.55H234.41V262.55H235.05V262.55H235.69V262.55H236.32V262.55H236.96V262.55H237.59V262.55H238.23V262.55H238.86V262.55H239.5V262.55H240.13V262.55H240.77V262.55H241.4V262.55H242.04V262.55H242.67V262.55H243.31V262.55H243.94V262.55H244.58V262.55H245.21V262.55H245.85V262.55H246.48V262.55H247.12V262.55H247.76V262.55H248.39V262.55H249.03V262.55H249.66V262.55H250.3V262.55H250.93V262.55H251.57V262.55H252.2V262.55H252.84V262.55H253.47V262.55H254.11V262.55H254.74V262.55H255.38V262.55H256.01V262.55H256.65V262.55H257.28V262.55H257.92V262.53H258.56V262.53H259.19V262.53H259.83V262.53H260.46V262.53H261.1V262.53H261.73V262.53H262.37V262.53H263V262.53H263.64V262.53H264.27V262.53H264.91V262.53H265.54V262.53H266.18V262.53H266.81V262.53H267.45V262.53H268.08V262.53H268.72V262.53H269.35V262.53H269.99V262.53H270.63V262.53H271.26V262.53H271.9V262.53H272.53V262.53H273.17V262.53H273.8V262.53H274.44V262.53H275.07V262.53H275.71V262.51H276.34V262.51H276.98V262.51H277.61V262.51H278.25V262.51H278.88V262.51H279.52V262.51H280.15V262.51H280.79V262.51H281.42V262.51H282.06V262.51H282.7V262.51H283.33V262.51H283.97V262.51H284.6V262.51H285.24V262.51H285.87V262.51H286.51V262.51H287.14V262.51H287.78V262.51H288.41V262.51H289.05V262.51H289.68V262.51H290.32V262.51H290.95V262.51H291.59V262.51H292.22V262.51H292.86V262.51H293.49V262.51H294.13V262.51H294.77V262.51H295.4V262.51H296.04V262.51H296.67V262.51H297.31V262.51H297.94V262.51H298.58V262.51H299.21V262.51H299.85V262.51H300.48V262.51H301.12V262.51H301.75V262.51H302.39V262.51H303.02V262.51H303.66V262.51H304.29V262.51H304.93V262.51H305.57V262.51H306.2V262.51H306.84V262.51H307.47V262.51H308.11V262.51H308.74V262.51H309.38V262.51H310.01V262.51H310.65V262.51H311.28V262.49H311.92V262.49H312.55V262.49H313.19V262.49H313.82V262.49H314.46V262.49H315.09V262.49H315.73V262.49H316.36V262.49H317V262.49" style="vector-effect: non-scaling-stroke; fill: none; stroke: rgb(51, 106, 45); stroke-opacity: 1; stroke-width: 2px; opacity: 1; stroke-dasharray: 3px, 3px;"/></g><g class="points"/><g class="text"/></g></g></g><g class="overplot"/><path class="xlines-above crisp" d="M0,0" style="fill: none;"/><path class="ylines-above crisp" d="M0,0" style="fill: none;"/><g class="overlines-above"/><g class="xaxislayer-above"><g class="xtick"><text text-anchor="middle" x="0" y="473" transform="translate(122.89,0)" style="font-family: 'Open Sans', verdana, arial, sans-serif; font-size: 12px; fill: rgb(68, 68, 68); fill-opacity: 1; white-space: pre; opacity: 1;">100</text></g><g class="xtick"><text text-anchor="middle" x="0" y="473" style="font-family: 'Open Sans', verdana, arial, sans-serif; font-size: 12px; fill: rgb(68, 68, 68); fill-opacity: 1; white-space: pre; opacity: 1;" transform="translate(186.42000000000002,0)">200</text></g><g class="xtick"><text text-anchor="middle" x="0" y="473" style="font-family: 'Open Sans', verdana, arial, sans-serif; font-size: 12px; fill: rgb(68, 68, 68); fill-opacity: 1; white-space: pre; opacity: 1;" transform="translate(249.95,0)">300</text></g><g class="xtick"><text text-anchor="middle" x="0" y="473" style="font-family: 'Open Sans', verdana, arial, sans-serif; font-size: 12px; fill: rgb(68, 68, 68); fill-opacity: 1; white-space: pre; opacity: 1;" transform="translate(313.47,0)">400</text></g><g class="xtick"><text text-anchor="middle" x="0" y="473" style="font-family: 'Open Sans', verdana, arial, sans-serif; font-size: 12px; fill: rgb(68, 68, 68); fill-opacity: 1; white-space: pre; opacity: 1;" transform="translate(377,0)">500</text></g></g><g class="yaxislayer-above"><g class="ytick"><text text-anchor="end" x="59" y="4.199999999999999" transform="translate(0,460)" style="font-family: 'Open Sans', verdana, arial, sans-serif; font-size: 12px; fill: rgb(68, 68, 68); fill-opacity: 1; white-space: pre; opacity: 1;">0</text></g><g class="ytick"><text text-anchor="end" x="59" y="4.199999999999999" style="font-family: 'Open Sans', verdana, arial, sans-serif; font-size: 12px; fill: rgb(68, 68, 68); fill-opacity: 1; white-space: pre; opacity: 1;" transform="translate(0,373)">20</text></g><g class="ytick"><text text-anchor="end" x="59" y="4.199999999999999" style="font-family: 'Open Sans', verdana, arial, sans-serif; font-size: 12px; fill: rgb(68, 68, 68); fill-opacity: 1; white-space: pre; opacity: 1;" transform="translate(0,286)">40</text></g><g class="ytick"><text text-anchor="end" x="59" y="4.199999999999999" style="font-family: 'Open Sans', verdana, arial, sans-serif; font-size: 12px; fill: rgb(68, 68, 68); fill-opacity: 1; white-space: pre; opacity: 1;" transform="translate(0,199)">60</text></g><g class="ytick"><text text-anchor="end" x="59" y="4.199999999999999" style="font-family: 'Open Sans', verdana, arial, sans-serif; font-size: 12px; fill: rgb(68, 68, 68); fill-opacity: 1; white-space: pre; opacity: 1;" transform="translate(0,112)">80</text></g><g class="ytick"><text text-anchor="end" x="59" y="4.199999999999999" style="font-family: 'Open Sans', verdana, arial, sans-serif; font-size: 12px; fill: rgb(68, 68, 68); fill-opacity: 1; white-space: pre; opacity: 1;" transform="translate(0,25)">100</text></g></g><g class="overaxes-above"/></g></g><g class="polarlayer"/><g class="ternarylayer"/><g class="geolayer"/><g class="funnelarealayer"/><g class="pielayer"/><g class="iciclelayer"/><g class="treemaplayer"/><g class="sunburstlayer"/><g class="glimages"/><defs id="topdefs-964dc8"><g class="clips"/><clipPath id="legend964dc8"><rect width="307" height="105" x="0" y="0"/></clipPath></defs><g class="layer-above"><g class="imagelayer"/><g class="shapelayer"/></g><g class="infolayer"><g class="legend" pointer-events="all" transform="translate(383.34000000000003,190)"><rect class="bg" shape-rendering="crispEdges" style="stroke: rgb(68, 68, 68); stroke-opacity: 1; fill: rgb(255, 255, 255); fill-opacity: 1; stroke-width: 0px;" width="307" height="105" x="0" y="0"/><g class="scrollbox" transform="" clip-path="url(#legend964dc8)"><g class="groups"><g class="traces" transform="translate(0,14.5)" style="opacity: 1;"><text class="legendtext" text-anchor="start" x="40" y="4.680000000000001" style="font-family: 'Open Sans', verdana, arial, sans-serif; font-size: 12px; fill: rgb(68, 68, 68); fill-opacity: 1; white-space: pre;">ISDB only</text><g class="layers" style="opacity: 1;"><g class="legendfill"/><g class="legendlines"><path class="js-line" d="M5,0h30" style="fill: none; stroke: rgb(215, 29, 98); stroke-opacity: 1; stroke-width: 2px;"/></g><g class="legendsymbols"><g class="legendpoints"/></g></g><rect class="legendtoggle" x="0" y="-9.5" width="301.78125" height="19" style="fill: rgb(0, 0, 0); fill-opacity: 0;"/></g><g class="traces" transform="translate(0,33.5)" style="opacity: 1;"><text class="legendtext" text-anchor="start" x="40" y="4.680000000000001" style="font-family: 'Open Sans', verdana, arial, sans-serif; font-size: 12px; fill: rgb(68, 68, 68); fill-opacity: 1; white-space: pre;">ISDB + weighting (LOTUS)</text><g class="layers" style="opacity: 1;"><g class="legendfill"/><g class="legendlines"><path class="js-line" d="M5,0h30" style="fill: none; stroke: rgb(8, 88, 155); stroke-opacity: 1; stroke-width: 2px;"/></g><g class="legendsymbols"><g class="legendpoints"/></g></g><rect class="legendtoggle" x="0" y="-9.5" width="301.78125" height="19" style="fill: rgb(0, 0, 0); fill-opacity: 0;"/></g><g class="traces" transform="translate(0,52.5)" style="opacity: 1;"><text class="legendtext" text-anchor="start" x="40" y="4.680000000000001" style="font-family: 'Open Sans', verdana, arial, sans-serif; font-size: 12px; fill: rgb(68, 68, 68); fill-opacity: 1; white-space: pre;">ISDB + weighting (in-house library)</text><g class="layers" style="opacity: 1;"><g class="legendfill"/><g class="legendlines"><path class="js-line" d="M5,0h30" style="fill: none; stroke: rgb(8, 88, 155); stroke-opacity: 1; stroke-dasharray: 3px, 3px; stroke-width: 2px;"/></g><g class="legendsymbols"><g class="legendpoints"/></g></g><rect class="legendtoggle" x="0" y="-9.5" width="301.78125" height="19" style="fill: rgb(0, 0, 0); fill-opacity: 0;"/></g><g class="traces" transform="translate(0,71.5)" style="opacity: 1;"><text class="legendtext" text-anchor="start" x="40" y="4.680000000000001" style="font-family: 'Open Sans', verdana, arial, sans-serif; font-size: 12px; fill: rgb(68, 68, 68); fill-opacity: 1; white-space: pre;">ISDB + MS1 + weighting (LOTUS)</text><g class="layers" style="opacity: 1;"><g class="legendfill"/><g class="legendlines"><path class="js-line" d="M5,0h30" style="fill: none; stroke: rgb(51, 106, 45); stroke-opacity: 1; stroke-width: 2px;"/></g><g class="legendsymbols"><g class="legendpoints"/></g></g><rect class="legendtoggle" x="0" y="-9.5" width="301.78125" height="19" style="fill: rgb(0, 0, 0); fill-opacity: 0;"/></g><g class="traces" transform="translate(0,90.5)" style="opacity: 1;"><text class="legendtext" text-anchor="start" x="40" y="4.680000000000001" style="font-family: 'Open Sans', verdana, arial, sans-serif; font-size: 12px; fill: rgb(68, 68, 68); fill-opacity: 1; white-space: pre;">ISDB + MS1 + weighting (in-house library)</text><g class="layers" style="opacity: 1;"><g class="legendfill"/><g class="legendlines"><path class="js-line" d="M5,0h30" style="fill: none; stroke: rgb(51, 106, 45); stroke-opacity: 1; stroke-dasharray: 3px, 3px; stroke-width: 2px;"/></g><g class="legendsymbols"><g class="legendpoints"/></g></g><rect class="legendtoggle" x="0" y="-9.5" width="301.78125" height="19" style="fill: rgb(0, 0, 0); fill-opacity: 0;"/></g></g></g><rect class="scrollbar" rx="20" ry="3" width="0" height="0" style="fill: rgb(128, 139, 164); fill-opacity: 1;" x="0" y="0"/></g><g class="g-gtitle"/><g class="g-xtitle" transform="translate(0,-15)"><text class="xtitle" x="218.5" y="512" text-anchor="middle" style="font-family: 'Open Sans', verdana, arial, sans-serif; font-size: 14px; fill: rgb(68, 68, 68); opacity: 1; font-weight: normal; white-space: pre;"><tspan style="font-weight:bold"> Rank </tspan></text></g><g class="g-ytitle"><text class="ytitle" transform="rotate(-90,22,242.5)" x="22" y="242.5" text-anchor="middle" style="font-family: 'Open Sans', verdana, arial, sans-serif; font-size: 14px; fill: rgb(68, 68, 68); opacity: 1; font-weight: normal; white-space: pre;"><tspan style="font-weight:bold"> Correct short IK annotations [%] </tspan></text></g></g></svg>