<svg class="main-svg" xmlns="http://www.w3.org/2000/svg" xmlns:xlink="http://www.w3.org/1999/xlink" width="700" height="500" style="" viewBox="0 0 700 500"><rect x="0" y="0" width="700" height="500" style="fill: rgb(255, 255, 255); fill-opacity: 1;"/><defs id="defs-4d4c36"><g class="clips"><clipPath id="clip4d4c36xyplot" class="plotclip"><rect width="310" height="435"/></clipPath><clipPath class="axesclip" id="clip4d4c36x"><rect x="60" y="0" width="310" height="500"/></clipPath><clipPath class="axesclip" id="clip4d4c36y"><rect x="0" y="25" width="700" height="435"/></clipPath><clipPath class="axesclip" id="clip4d4c36xy"><rect x="60" y="25" width="310" height="435"/></clipPath></g><g class="gradients"/><g class="patterns"/></defs><g class="bglayer"/><g class="layer-below"><g class="imagelayer"/><g class="shapelayer"/></g><g class="cartesianlayer"><g class="subplot xy"><g class="layer-subplot"><g class="shapelayer"/><g class="imagelayer"/></g><g class="gridlayer"><g class="x"/><g class="y"/></g><g class="zerolinelayer"/><path class="xlines-below"/><path class="ylines-below"/><g class="overlines-below"/><g class="xaxislayer-below"/><g class="yaxislayer-below"/><g class="overaxes-below"/><g class="plot" transform="translate(60,25)" clip-path="url(#clip4d4c36xyplot)"><g class="scatterlayer mlayer"><g class="trace scatter tracee79ccd" style="stroke-miterlimit: 2; opacity: 1;"><g class="fills"/><g class="errorbars"/><g class="lines"><path class="js-line" d="M0,435H0V411.72H0.62V398.47H1.24V389.34H1.86V381.65H2.48V374.81H3.11V368.8H3.73V364.45H4.35V360.89H4.97V357.49H5.59V354.17H6.21V350.71H6.83V348.5H7.45V345.97H8.08V343.56H8.7V341.89H9.32V340.55H9.94V339.29H10.56V337.99H11.18V336.65H11.8V335.27H12.42V333.89H13.05V332.93H13.67V331.94H14.29V331.2H14.91V330.37H15.53V329.57H16.15V328.48H16.77V327.84H17.39V326.6H18.02V326.06H18.64V325.28H19.26V324.68H19.88V323.98H20.5V323.26H21.12V322.44H21.74V321.72H22.36V321.3H22.99V320.79H23.61V320.34H24.23V319.86H24.85V319.27H25.47V318.92H26.09V318.5H26.71V318.13H27.33V317.74H27.96V317.39H28.58V316.92H29.2V316.59H29.82V316.2H30.44V315.87H31.06V315.62H31.68V315.29H32.3V315.1H32.93V314.9H33.55V314.69H34.17V314.49H34.79V314.24H35.41V313.95H36.03V313.56H36.65V313.39H37.27V313.13H37.9V312.8H38.52V312.45H39.14V312.2H39.76V311.93H40.38V311.81H41V311.48H41.62V311.29H42.24V311.15H42.87V310.84H43.49V310.63H44.11V310.43H44.73V310.3H45.35V310.1H45.97V309.95H46.59V309.72H47.21V309.48H47.84V309.25H48.46V309.09H49.08V308.9H49.7V308.67H50.32V308.51H50.94V308.35H51.56V308.24H52.18V308.08H52.81V307.93H53.43V307.73H54.05V307.6H54.67V307.29H55.29V307.07H55.91V306.98H56.53V306.7H57.15V306.63H57.78V306.43H58.4V306.33H59.02V306.2H59.64V306.12H60.26V306.04H60.88V305.98H61.5V305.87H62.12V305.67H62.75V305.58H63.37V305.52H63.99V305.36H64.61V305.27H65.23V305.19H65.85V305.05H66.47V305.01H67.09V304.9H67.72V304.82H68.34V304.76H68.96V304.53H69.58V304.45H70.2V304.41H70.82V304.31H71.44V304.26H72.06V304.2H72.69V304.06H73.31V303.98H73.93V303.92H74.55V303.89H75.17V303.85H75.79V303.81H76.41V303.79H77.03V303.73H77.66V303.65H78.28V303.58H78.9V303.54H79.52V303.46H80.14V303.38H80.76V303.32H81.38V303.28H82V303.28H82.63V303.19H83.25V303.15H83.87V303.15H84.49V303.07H85.11V303.05H85.73V303.03H86.35V302.97H86.97V302.88H87.6V302.86H88.22V302.78H88.84V302.78H89.46V302.78H90.08V302.74H90.7V302.74H91.32V302.74H91.94V302.68H92.57V302.62H93.19V302.62H93.81V302.6H94.43V302.6H95.05V302.6H95.67V302.56H96.29V302.55H96.91V302.53H97.54V302.53H98.16V302.53H98.78V302.49H99.4V302.41H100.02V302.37H100.64V302.35H101.26V302.33H101.88V302.29H102.51V302.29H103.13V302.22H103.75V302.2H104.37V302.16H104.99V302.14H105.61V302.14H106.23V302.08H106.85V302.08H107.47V302.02H108.1V302.02H108.72V301.92H109.34V301.92H109.96V301.9H110.58V301.85H111.2V301.81H111.82V301.75H112.44V301.71H113.07V301.71H113.69V301.59H114.31V301.57H114.93V301.57H115.55V301.55H116.17V301.52H116.79V301.52H117.41V301.5H118.04V301.46H118.66V301.36H119.28V301.36H119.9V301.36H120.52V301.34H121.14V301.32H121.76V301.32H122.38V301.28H123.01V301.26H123.63V301.24H124.25V301.19H124.87V301.17H125.49V301.17H126.11V301.15H126.73V301.09H127.35V301.03H127.98V301.01H128.6V300.95H129.22V300.95H129.84V300.95H130.46V300.93H131.08V300.89H131.7V300.84H132.32V300.82H132.95V300.78H133.57V300.76H134.19V300.74H134.81V300.74H135.43V300.72H136.05V300.72H136.67V300.7H137.29V300.68H137.92V300.66H138.54V300.66H139.16V300.64H139.78V300.64H140.4V300.62H141.02V300.6H141.64V300.6H142.26V300.6H142.89V300.6H143.51V300.54H144.13V300.52H144.75V300.52H145.37V300.51H145.99V300.49H146.61V300.47H147.23V300.45H147.86V300.43H148.48V300.43H149.1V300.43H149.72V300.41H150.34V300.41H150.96V300.39H151.58V300.39H152.2V300.39H152.83V300.39H153.45V300.37H154.07V300.35H154.69V300.35H155.31V300.35H155.93V300.35H156.55V300.33H157.17V300.31H157.8V300.31H158.42V300.31H159.04V300.31H159.66V300.31H160.28V300.31H160.9V300.27H161.52V300.27H162.14V300.27H162.77V300.27H163.39V300.27H164.01V300.25H164.63V300.25H165.25V300.25H165.87V300.23H166.49V300.23H167.11V300.23H167.74V300.23H168.36V300.23H168.98V300.21H169.6V300.21H170.22V300.19H170.84V300.17H171.46V300.17H172.08V300.14H172.71V300.14H173.33V300.14H173.95V300.14H174.57V300.14H175.19V300.14H175.81V300.14H176.43V300.14H177.05V300.14H177.68V300.14H178.3V300.14H178.92V300.14H179.54V300.1H180.16V300.1H180.78V300.1H181.4V300.1H182.02V300.1H182.65V300.1H183.27V300.06H183.89V300.06H184.51V300.06H185.13V300.06H185.75V300.06H186.37V300.06H186.99V300.06H187.62V300.04H188.24V300.04H188.86V300.04H189.48V300.04H190.1V300.04H190.72V300.02H191.34V300.02H191.96V300.02H192.59V300.02H193.21V300.02H193.83V300.02H194.45V300.02H195.07V300.02H195.69V300H196.31V300H196.93V300H197.56V300H198.18V300H198.8V300H199.42V299.98H200.04V299.98H200.66V299.98H201.28V299.96H201.9V299.96H202.53V299.96H203.15V299.96H203.77V299.96H204.39V299.96H205.01V299.96H205.63V299.94H206.25V299.94H206.87V299.94H207.49V299.94H208.12V299.94H208.74V299.94H209.36V299.94H209.98V299.94H210.6V299.94H211.22V299.92H211.84V299.92H212.46V299.92H213.09V299.92H213.71V299.92H214.33V299.9H214.95V299.9H215.57V299.9H216.19V299.9H216.81V299.9H217.43V299.88H218.06V299.88H218.68V299.88H219.3V299.88H219.92V299.88H220.54V299.84H221.16V299.84H221.78V299.84H222.4V299.84H223.03V299.84H223.65V299.84H224.27V299.84H224.89V299.84H225.51V299.83H226.13V299.83H226.75V299.83H227.37V299.83H228V299.83H228.62V299.83H229.24V299.83H229.86V299.81H230.48V299.81H231.1V299.81H231.72V299.81H232.34V299.81H232.97V299.81H233.59V299.79H234.21V299.79H234.83V299.79H235.45V299.79H236.07V299.77H236.69V299.77H237.31V299.77H237.94V299.77H238.56V299.75H239.18V299.75H239.8V299.75H240.42V299.75H241.04V299.75H241.66V299.75H242.28V299.75H242.91V299.75H243.53V299.73H244.15V299.73H244.77V299.73H245.39V299.73H246.01V299.73H246.63V299.73H247.25V299.73H247.88V299.73H248.5V299.73H249.12V299.73H249.74V299.71H250.36V299.71H250.98V299.71H251.6V299.71H252.22V299.71H252.85V299.71H253.47V299.71H254.09V299.67H254.71V299.65H255.33V299.63H255.95V299.63H256.57V299.63H257.19V299.63H257.82V299.63H258.44V299.63H259.06V299.63H259.68V299.63H260.3V299.61H260.92V299.61H261.54V299.61H262.16V299.61H262.79V299.61H263.41V299.61H264.03V299.61H264.65V299.61H265.27V299.61H265.89V299.61H266.51V299.61H267.13V299.59H267.76V299.59H268.38V299.59H269V299.59H269.62V299.59H270.24V299.57H270.86V299.57H271.48V299.57H272.1V299.57H272.73V299.57H273.35V299.57H273.97V299.57H274.59V299.57H275.21V299.57H275.83V299.57H276.45V299.57H277.07V299.57H277.7V299.57H278.32V299.57H278.94V299.57H279.56V299.57H280.18V299.57H280.8V299.57H281.42V299.57H282.04V299.57H282.67V299.57H283.29V299.57H283.91V299.55H284.53V299.55H285.15V299.53H285.77V299.51H286.39V299.51H287.01V299.51H287.64V299.51H288.26V299.49H288.88V299.49H289.5V299.49H290.12V299.49H290.74V299.49H291.36V299.49H291.98V299.49H292.61V299.49H293.23V299.49H293.85V299.49H294.47V299.49H295.09V299.49H295.71V299.49H296.33V299.49H296.95V299.49H297.58V299.49H298.2V299.49H298.82V299.49H299.44V299.49H300.06V299.49H300.68V299.49H301.3V299.49H301.92V299.48H302.55V299.48H303.17V299.48H303.79V299.48H304.41V299.48H305.03V299.48H305.65V299.48H306.27V299.48H306.89V299.46H307.52V299.44H308.14V299.44H308.76V299.44H309.38V299.44H310V299.44" style="vector-effect: non-scaling-stroke; fill: none; stroke: rgb(215, 29, 98); stroke-opacity: 1; stroke-width: 2px; opacity: 1;"/></g><g class="points"/><g class="text"/></g><g class="trace scatter trace250d7a" style="stroke-miterlimit: 2; opacity: 1;"><g class="fills"/><g class="errorbars"/><g class="lines"><path class="js-line" d="M0,435H0V349.37H0.62V329.88H1.24V323.9H1.86V320.69H2.48V318.46H3.11V316.88H3.73V315.72H4.35V314.79H4.97V313.95H5.59V313.12H6.21V312.47H6.83V312.07H7.45V311.77H8.08V310.88H8.7V310.59H9.32V310.1H9.94V309.6H10.56V309.27H11.18V308.92H11.8V308.7H12.42V308.43H13.05V308.3H13.67V308.08H14.29V307.58H14.91V307.34H15.53V307.09H16.15V306.86H16.77V306.61H17.39V306.45H18.02V306.26H18.64V306.08H19.26V305.98H19.88V305.87H20.5V305.69H21.12V305.48H21.74V305.42H22.36V305.28H22.99V305.23H23.61V305.13H24.23V304.95H24.85V304.84H25.47V304.7H26.09V304.55H26.71V304.53H27.33V304.43H27.96V304.33H28.58V304.18H29.2V304.1H29.82V304H30.44V303.89H31.06V303.77H31.68V303.67H32.3V303.65H32.93V303.54H33.55V303.4H34.17V303.24H34.79V303.17H35.41V302.95H36.03V302.76H36.65V302.58H37.27V302.45H37.9V302.33H38.52V302.16H39.14V302.1H39.76V302.04H40.38V302H41V301.9H41.62V301.83H42.24V301.77H42.87V301.71H43.49V301.67H44.11V301.61H44.73V301.59H45.35V301.57H45.97V301.57H46.59V301.53H47.21V301.5H47.84V301.48H48.46V301.44H49.08V301.44H49.7V301.38H50.32V301.36H50.94V301.32H51.56V301.32H52.18V301.26H52.81V301.22H53.43V301.19H54.05V301.11H54.67V301.07H55.29V301.03H55.91V300.99H56.53V300.89H57.15V300.85H57.78V300.78H58.4V300.74H59.02V300.74H59.64V300.74H60.26V300.7H60.88V300.7H61.5V300.68H62.12V300.64H62.75V300.6H63.37V300.58H63.99V300.58H64.61V300.58H65.23V300.58H65.85V300.52H66.47V300.52H67.09V300.52H67.72V300.51H68.34V300.51H68.96V300.45H69.58V300.41H70.2V300.41H70.82V300.39H71.44V300.37H72.06V300.35H72.69V300.33H73.31V300.29H73.93V300.27H74.55V300.25H75.17V300.25H75.79V300.23H76.41V300.23H77.03V300.19H77.66V300.19H78.28V300.17H78.9V300.16H79.52V300.16H80.14V300.12H80.76V300.12H81.38V300.12H82V300.06H82.63V300.06H83.25V300.04H83.87V300.04H84.49V300.02H85.11V300H85.73V300H86.35V300H86.97V300H87.6V300H88.22V300H88.84V300H89.46V300H90.08V299.98H90.7V299.98H91.32V299.98H91.94V299.98H92.57V299.96H93.19V299.96H93.81V299.94H94.43V299.94H95.05V299.94H95.67V299.94H96.29V299.94H96.91V299.94H97.54V299.94H98.16V299.94H98.78V299.94H99.4V299.92H100.02V299.92H100.64V299.92H101.26V299.92H101.88V299.9H102.51V299.88H103.13V299.88H103.75V299.86H104.37V299.86H104.99V299.86H105.61V299.84H106.23V299.84H106.85V299.83H107.47V299.81H108.1V299.81H108.72V299.81H109.34V299.81H109.96V299.81H110.58V299.79H111.2V299.79H111.82V299.77H112.44V299.77H113.07V299.75H113.69V299.75H114.31V299.75H114.93V299.75H115.55V299.75H116.17V299.73H116.79V299.73H117.41V299.71H118.04V299.71H118.66V299.71H119.28V299.71H119.9V299.71H120.52V299.69H121.14V299.69H121.76V299.69H122.38V299.69H123.01V299.69H123.63V299.69H124.25V299.69H124.87V299.69H125.49V299.69H126.11V299.69H126.73V299.69H127.35V299.69H127.98V299.69H128.6V299.69H129.22V299.69H129.84V299.69H130.46V299.69H131.08V299.69H131.7V299.69H132.32V299.69H132.95V299.69H133.57V299.69H134.19V299.69H134.81V299.69H135.43V299.67H136.05V299.67H136.67V299.67H137.29V299.67H137.92V299.67H138.54V299.67H139.16V299.65H139.78V299.65H140.4V299.65H141.02V299.65H141.64V299.65H142.26V299.65H142.89V299.65H143.51V299.65H144.13V299.65H144.75V299.65H145.37V299.63H145.99V299.63H146.61V299.63H147.23V299.63H147.86V299.63H148.48V299.63H149.1V299.63H149.72V299.61H150.34V299.61H150.96V299.61H151.58V299.61H152.2V299.61H152.83V299.61H153.45V299.61H154.07V299.61H154.69V299.61H155.31V299.61H155.93V299.61H156.55V299.61H157.17V299.61H157.8V299.61H158.42V299.61H159.04V299.61H159.66V299.61H160.28V299.61H160.9V299.61H161.52V299.61H162.14V299.61H162.77V299.61H163.39V299.61H164.01V299.61H164.63V299.61H165.25V299.61H165.87V299.61H166.49V299.61H167.11V299.61H167.74V299.61H168.36V299.61H168.98V299.61H169.6V299.61H170.22V299.61H170.84V299.61H171.46V299.61H172.08V299.61H172.71V299.61H173.33V299.61H173.95V299.61H174.57V299.59H175.19V299.59H175.81V299.59H176.43V299.59H177.05V299.59H177.68V299.59H178.3V299.59H178.92V299.59H179.54V299.59H180.16V299.59H180.78V299.59H181.4V299.59H182.02V299.59H182.65V299.59H183.27V299.59H183.89V299.59H184.51V299.59H185.13V299.59H185.75V299.59H186.37V299.59H186.99V299.59H187.62V299.59H188.24V299.59H188.86V299.59H189.48V299.59H190.1V299.59H190.72V299.59H191.34V299.59H191.96V299.59H192.59V299.59H193.21V299.59H193.83V299.59H194.45V299.59H195.07V299.59H195.69V299.59H196.31V299.59H196.93V299.59H197.56V299.59H198.18V299.59H198.8V299.59H199.42V299.59H200.04V299.59H200.66V299.59H201.28V299.59H201.9V299.59H202.53V299.59H203.15V299.59H203.77V299.59H204.39V299.59H205.01V299.59H205.63V299.59H206.25V299.59H206.87V299.59H207.49V299.57H208.12V299.57H208.74V299.57H209.36V299.57H209.98V299.57H210.6V299.55H211.22V299.55H211.84V299.55H212.46V299.55H213.09V299.55H213.71V299.55H214.33V299.55H214.95V299.55H215.57V299.55H216.19V299.55H216.81V299.55H217.43V299.55H218.06V299.55H218.68V299.55H219.3V299.53H219.92V299.53H220.54V299.53H221.16V299.53H221.78V299.51H222.4V299.51H223.03V299.51H223.65V299.51H224.27V299.51H224.89V299.51H225.51V299.51H226.13V299.51H226.75V299.51H227.37V299.51H228V299.51H228.62V299.51H229.24V299.51H229.86V299.51H230.48V299.51H231.1V299.51H231.72V299.49H232.34V299.49H232.97V299.48H233.59V299.48H234.21V299.48H234.83V299.48H235.45V299.48H236.07V299.48H236.69V299.48H237.31V299.48H237.94V299.46H238.56V299.46H239.18V299.46H239.8V299.46H240.42V299.46H241.04V299.46H241.66V299.46H242.28V299.46H242.91V299.46H243.53V299.46H244.15V299.46H244.77V299.46H245.39V299.46H246.01V299.46H246.63V299.46H247.25V299.46H247.88V299.46H248.5V299.46H249.12V299.46H249.74V299.46H250.36V299.46H250.98V299.46H251.6V299.46H252.22V299.46H252.85V299.46H253.47V299.46H254.09V299.46H254.71V299.46H255.33V299.46H255.95V299.46H256.57V299.46H257.19V299.46H257.82V299.46H258.44V299.46H259.06V299.46H259.68V299.46H260.3V299.46H260.92V299.46H261.54V299.46H262.16V299.46H262.79V299.46H263.41V299.46H264.03V299.46H264.65V299.46H265.27V299.46H265.89V299.46H266.51V299.46H267.13V299.46H267.76V299.46H268.38V299.46H269V299.46H269.62V299.46H270.24V299.46H270.86V299.46H271.48V299.46H272.1V299.46H272.73V299.46H273.35V299.46H273.97V299.46H274.59V299.46H275.21V299.46H275.83V299.46H276.45V299.46H277.07V299.46H277.7V299.46H278.32V299.46H278.94V299.46H279.56V299.46H280.18V299.46H280.8V299.46H281.42V299.46H282.04V299.46H282.67V299.46H283.29V299.46H283.91V299.46H284.53V299.46H285.15V299.46H285.77V299.46H286.39V299.46H287.01V299.46H287.64V299.46H288.26V299.46H288.88V299.46H289.5V299.46H290.12V299.46H290.74V299.46H291.36V299.46H291.98V299.46H292.61V299.46H293.23V299.46H293.85V299.46H294.47V299.46H295.09V299.46H295.71V299.46H296.33V299.46H296.95V299.46H297.58V299.46H298.2V299.46H298.82V299.46H299.44V299.46H300.06V299.46H300.68V299.46H301.3V299.46H301.92V299.44H302.55V299.44H303.17V299.44H303.79V299.44H304.41V299.44H305.03V299.44H305.65V299.44H306.27V299.44H306.89V299.44H307.52V299.44H308.14V299.44H308.76V299.44H309.38V299.44H310V299.44" style="vector-effect: non-scaling-stroke; fill: none; stroke: rgb(8, 88, 155); stroke-opacity: 1; stroke-width: 2px; opacity: 1;"/></g><g class="points"/><g class="text"/></g><g class="trace scatter trace866ce8" style="stroke-miterlimit: 2; opacity: 1;"><g class="fills"/><g class="errorbars"/><g class="lines"><path class="js-line" d="M0,435H0V331.69H0.62V313.56H1.24V307.91H1.86V305.77H2.48V304.49H3.11V303.63H3.73V302.9H4.35V302.43H4.97V302.1H5.59V301.77H6.21V301.67H6.83V301.53H7.45V301.48H8.08V301.24H8.7V301.24H9.32V301.2H9.94V301.19H10.56V301.11H11.18V300.99H11.8V300.93H12.42V300.84H13.05V300.74H13.67V300.72H14.29V300.62H14.91V300.51H15.53V300.51H16.15V300.49H16.77V300.41H17.39V300.35H18.02V300.33H18.64V300.33H19.26V300.31H19.88V300.31H20.5V300.27H21.12V300.16H21.74V300.12H22.36V300.12H22.99V300.12H23.61V300.08H24.23V300.08H24.85V300.06H25.47V300H26.09V299.98H26.71V299.96H27.33V299.9H27.96V299.88H28.58V299.86H29.2V299.84H29.82V299.83H30.44V299.83H31.06V299.81H31.68V299.79H32.3V299.79H32.93V299.75H33.55V299.73H34.17V299.73H34.79V299.73H35.41V299.73H36.03V299.73H36.65V299.73H37.27V299.73H37.9V299.73H38.52V299.73H39.14V299.71H39.76V299.67H40.38V299.67H41V299.67H41.62V299.67H42.24V299.65H42.87V299.63H43.49V299.63H44.11V299.63H44.73V299.61H45.35V299.61H45.97V299.59H46.59V299.59H47.21V299.57H47.84V299.57H48.46V299.57H49.08V299.57H49.7V299.57H50.32V299.57H50.94V299.57H51.56V299.57H52.18V299.55H52.81V299.55H53.43V299.53H54.05V299.53H54.67V299.53H55.29V299.53H55.91V299.53H56.53V299.51H57.15V299.51H57.78V299.51H58.4V299.51H59.02V299.51H59.64V299.51H60.26V299.51H60.88V299.51H61.5V299.51H62.12V299.51H62.75V299.51H63.37V299.51H63.99V299.51H64.61V299.51H65.23V299.51H65.85V299.51H66.47V299.51H67.09V299.51H67.72V299.51H68.34V299.51H68.96V299.51H69.58V299.51H70.2V299.51H70.82V299.51H71.44V299.51H72.06V299.51H72.69V299.51H73.31V299.51H73.93V299.51H74.55V299.51H75.17V299.51H75.79V299.51H76.41V299.51H77.03V299.51H77.66V299.51H78.28V299.51H78.9V299.51H79.52V299.51H80.14V299.49H80.76V299.49H81.38V299.49H82V299.49H82.63V299.49H83.25V299.49H83.87V299.49H84.49V299.49H85.11V299.49H85.73V299.49H86.35V299.49H86.97V299.49H87.6V299.49H88.22V299.49H88.84V299.49H89.46V299.49H90.08V299.49H90.7V299.49H91.32V299.49H91.94V299.49H92.57V299.49H93.19V299.49H93.81V299.49H94.43V299.49H95.05V299.49H95.67V299.49H96.29V299.49H96.91V299.49H97.54V299.49H98.16V299.49H98.78V299.49H99.4V299.49H100.02V299.49H100.64V299.49H101.26V299.49H101.88V299.49H102.51V299.49H103.13V299.49H103.75V299.49H104.37V299.49H104.99V299.49H105.61V299.49H106.23V299.49H106.85V299.49H107.47V299.49H108.1V299.49H108.72V299.49H109.34V299.49H109.96V299.49H110.58V299.49H111.2V299.49H111.82V299.49H112.44V299.49H113.07V299.49H113.69V299.49H114.31V299.49H114.93V299.49H115.55V299.49H116.17V299.49H116.79V299.49H117.41V299.49H118.04V299.49H118.66V299.49H119.28V299.49H119.9V299.49H120.52V299.49H121.14V299.49H121.76V299.49H122.38V299.49H123.01V299.49H123.63V299.49H124.25V299.49H124.87V299.49H125.49V299.49H126.11V299.49H126.73V299.49H127.35V299.49H127.98V299.49H128.6V299.49H129.22V299.49H129.84V299.49H130.46V299.49H131.08V299.49H131.7V299.49H132.32V299.49H132.95V299.49H133.57V299.49H134.19V299.49H134.81V299.49H135.43V299.49H136.05V299.49H136.67V299.49H137.29V299.49H137.92V299.49H138.54V299.49H139.16V299.48H139.78V299.48H140.4V299.48H141.02V299.48H141.64V299.48H142.26V299.48H142.89V299.48H143.51V299.48H144.13V299.48H144.75V299.48H145.37V299.46H145.99V299.46H146.61V299.46H147.23V299.46H147.86V299.46H148.48V299.46H149.1V299.46H149.72V299.44H150.34V299.44H150.96V299.44H151.58V299.44H152.2V299.44H152.83V299.44H153.45V299.44H154.07V299.44H154.69V299.44H155.31V299.44H155.93V299.44H156.55V299.44H157.17V299.44H157.8V299.44H158.42V299.44H159.04V299.44H159.66V299.44H160.28V299.44H160.9V299.44H161.52V299.44H162.14V299.44H162.77V299.44H163.39V299.44H164.01V299.44H164.63V299.44H165.25V299.44H165.87V299.44H166.49V299.44H167.11V299.44H167.74V299.44H168.36V299.44H168.98V299.44H169.6V299.44H170.22V299.44H170.84V299.44H171.46V299.44H172.08V299.44H172.71V299.44H173.33V299.44H173.95V299.44H174.57V299.44H175.19V299.44H175.81V299.44H176.43V299.44H177.05V299.44H177.68V299.44H178.3V299.44H178.92V299.44H179.54V299.44H180.16V299.44H180.78V299.44H181.4V299.44H182.02V299.44H182.65V299.44H183.27V299.44H183.89V299.44H184.51V299.44H185.13V299.44H185.75V299.44H186.37V299.44H186.99V299.44H187.62V299.44H188.24V299.44H188.86V299.44H189.48V299.44H190.1V299.44H190.72V299.44H191.34V299.44H191.96V299.44H192.59V299.44H193.21V299.44H193.83V299.44H194.45V299.44H195.07V299.44H195.69V299.44H196.31V299.44H196.93V299.44H197.56V299.44H198.18V299.44H198.8V299.44H199.42V299.44H200.04V299.44H200.66V299.44H201.28V299.44H201.9V299.44H202.53V299.44H203.15V299.44H203.77V299.44H204.39V299.44H205.01V299.44H205.63V299.44H206.25V299.44H206.87V299.44H207.49V299.44H208.12V299.44H208.74V299.44H209.36V299.44H209.98V299.44H210.6V299.44H211.22V299.44H211.84V299.44H212.46V299.44H213.09V299.44H213.71V299.44H214.33V299.44H214.95V299.44H215.57V299.44H216.19V299.44H216.81V299.44H217.43V299.44H218.06V299.44H218.68V299.44H219.3V299.44H219.92V299.44H220.54V299.44H221.16V299.44H221.78V299.44H222.4V299.44H223.03V299.44H223.65V299.44H224.27V299.44H224.89V299.44H225.51V299.44H226.13V299.44H226.75V299.44H227.37V299.44H228V299.44H228.62V299.44H229.24V299.44H229.86V299.44H230.48V299.44H231.1V299.44H231.72V299.44H232.34V299.44H232.97V299.44H233.59V299.44H234.21V299.44H234.83V299.44H235.45V299.44H236.07V299.44H236.69V299.44H237.31V299.44H237.94V299.44H238.56V299.44H239.18V299.44H239.8V299.44H240.42V299.44H241.04V299.44H241.66V299.44H242.28V299.44H242.91V299.44H243.53V299.44H244.15V299.44H244.77V299.44H245.39V299.44H246.01V299.44H246.63V299.44H247.25V299.44H247.88V299.44H248.5V299.44H249.12V299.44H249.74V299.44H250.36V299.44H250.98V299.44H251.6V299.44H252.22V299.44H252.85V299.44H253.47V299.44H254.09V299.44H254.71V299.44H255.33V299.44H255.95V299.44H256.57V299.44H257.19V299.44H257.82V299.44H258.44V299.44H259.06V299.44H259.68V299.44H260.3V299.44H260.92V299.44H261.54V299.44H262.16V299.44H262.79V299.44H263.41V299.44H264.03V299.44H264.65V299.44H265.27V299.44H265.89V299.44H266.51V299.44H267.13V299.44H267.76V299.44H268.38V299.44H269V299.44H269.62V299.44H270.24V299.44H270.86V299.44H271.48V299.44H272.1V299.44H272.73V299.44H273.35V299.44H273.97V299.44H274.59V299.44H275.21V299.44H275.83V299.44H276.45V299.44H277.07V299.44H277.7V299.44H278.32V299.44H278.94V299.44H279.56V299.44H280.18V299.44H280.8V299.44H281.42V299.44H282.04V299.44H282.67V299.44H283.29V299.44H283.91V299.44H284.53V299.44H285.15V299.44H285.77V299.44H286.39V299.44H287.01V299.44H287.64V299.44H288.26V299.44H288.88V299.44H289.5V299.44H290.12V299.44H290.74V299.44H291.36V299.44H291.98V299.44H292.61V299.44H293.23V299.44H293.85V299.44H294.47V299.44H295.09V299.44H295.71V299.44H296.33V299.44H296.95V299.44H297.58V299.44H298.2V299.44H298.82V299.44H299.44V299.44H300.06V299.44H300.68V299.44H301.3V299.44H301.92V299.44H302.55V299.44H303.17V299.44H303.79V299.44H304.41V299.44H305.03V299.44H305.65V299.44H306.27V299.44H306.89V299.44H307.52V299.44H308.14V299.44H308.76V299.44H309.38V299.44H310V299.44" style="vector-effect: non-scaling-stroke; fill: none; stroke: rgb(8, 88, 155); stroke-opacity: 1; stroke-width: 2px; opacity: 1; stroke-dasharray: 3px, 3px;"/></g><g class="points"/><g class="text"/></g><g class="trace scatter trace2ed153" style="stroke-miterlimit: 2; opacity: 1;"><g class="fills"/><g class="errorbars"/><g class="lines"><path class="js-line" d="M0,435H0V236.68H0.62V206.64H1.24V196.52H1.86V191.52H2.48V188.08H3.11V186.41H3.73V185.05H4.35V183.75H4.97V182.84H5.59V182.02H6.21V181.22H6.83V180.37H7.45V180H8.08V179.51H8.7V179.18H9.32V178.68H9.94V178.19H10.56V177.69H11.18V177.34H11.8V177.05H12.42V176.74H13.05V176.39H13.67V176.11H14.29V175.84H14.91V175.61H15.53V175.38H16.15V175.2H16.77V174.95H17.39V174.66H18.02V174.4H18.64V174.29H19.26V174.15H19.88V173.98H20.5V173.88H21.12V173.76H21.74V173.67H22.36V173.53H22.99V173.41H23.61V173.32H24.23V173.16H24.85V173.06H25.47V172.89H26.09V172.71H26.71V172.62H27.33V172.52H27.96V172.44H28.58V172.38H29.2V172.27H29.82V172.15H30.44V172.07H31.06V172.05H31.68V171.94H32.3V171.86H32.93V171.74H33.55V171.65H34.17V171.55H34.79V171.43H35.41V171.3H36.03V171.08H36.65V170.73H37.27V170.67H37.9V170.48H38.52V170.38H39.14V170.15H39.76V170.07H40.38V170.05H41V170.05H41.62V170.03H42.24V169.94H42.87V169.82H43.49V169.78H44.11V169.76H44.73V169.7H45.35V169.66H45.97V169.59H46.59V169.55H47.21V169.51H47.84V169.43H48.46V169.37H49.08V169.31H49.7V169.29H50.32V169.27H50.94V169.26H51.56V169.22H52.18V169.18H52.81V169.16H53.43V169.06H54.05V169.06H54.67V169.04H55.29V169.02H55.91V168.92H56.53V168.89H57.15V168.81H57.78V168.75H58.4V168.71H59.02V168.63H59.64V168.63H60.26V168.58H60.88V168.52H61.5V168.48H62.12V168.42H62.75V168.36H63.37V168.32H63.99V168.32H64.61V168.3H65.23V168.3H65.85V168.28H66.47V168.26H67.09V168.23H67.72V168.23H68.34V168.21H68.96V168.21H69.58V168.19H70.2V168.17H70.82V168.11H71.44V168.09H72.06V168.07H72.69V168.07H73.31V168.05H73.93V168.01H74.55V167.95H75.17V167.93H75.79V167.91H76.41V167.9H77.03V167.9H77.66V167.88H78.28V167.88H78.9V167.84H79.52V167.82H80.14V167.8H80.76V167.78H81.38V167.78H82V167.76H82.63V167.76H83.25V167.74H83.87V167.72H84.49V167.72H85.11V167.7H85.73V167.66H86.35V167.66H86.97V167.64H87.6V167.64H88.22V167.64H88.84V167.64H89.46V167.62H90.08V167.62H90.7V167.6H91.32V167.6H91.94V167.6H92.57V167.6H93.19V167.6H93.81V167.6H94.43V167.6H95.05V167.58H95.67V167.58H96.29V167.58H96.91V167.58H97.54V167.56H98.16V167.56H98.78V167.56H99.4V167.55H100.02V167.55H100.64V167.55H101.26V167.55H101.88V167.55H102.51V167.53H103.13V167.53H103.75V167.53H104.37V167.51H104.99V167.51H105.61V167.51H106.23V167.49H106.85V167.47H107.47V167.47H108.1V167.45H108.72V167.43H109.34V167.43H109.96V167.41H110.58V167.41H111.2V167.39H111.82V167.39H112.44V167.39H113.07V167.39H113.69V167.39H114.31V167.37H114.93V167.35H115.55V167.33H116.17V167.33H116.79V167.33H117.41V167.33H118.04V167.33H118.66V167.31H119.28V167.31H119.9V167.29H120.52V167.29H121.14V167.29H121.76V167.27H122.38V167.27H123.01V167.27H123.63V167.27H124.25V167.27H124.87V167.27H125.49V167.27H126.11V167.27H126.73V167.27H127.35V167.27H127.98V167.27H128.6V167.27H129.22V167.27H129.84V167.27H130.46V167.27H131.08V167.27H131.7V167.27H132.32V167.27H132.95V167.27H133.57V167.27H134.19V167.27H134.81V167.27H135.43V167.27H136.05V167.27H136.67V167.25H137.29V167.25H137.92V167.25H138.54V167.25H139.16V167.25H139.78V167.25H140.4V167.23H141.02V167.23H141.64V167.23H142.26V167.23H142.89V167.23H143.51V167.23H144.13V167.23H144.75V167.23H145.37V167.22H145.99V167.22H146.61V167.22H147.23V167.22H147.86V167.22H148.48V167.22H149.1V167.22H149.72V167.22H150.34V167.22H150.96V167.22H151.58V167.22H152.2V167.22H152.83V167.22H153.45V167.22H154.07V167.22H154.69V167.22H155.31V167.22H155.93V167.22H156.55V167.22H157.17V167.22H157.8V167.22H158.42V167.22H159.04V167.22H159.66V167.22H160.28V167.22H160.9V167.22H161.52V167.22H162.14V167.22H162.77V167.22H163.39V167.22H164.01V167.22H164.63V167.22H165.25V167.22H165.87V167.22H166.49V167.22H167.11V167.22H167.74V167.22H168.36V167.22H168.98V167.22H169.6V167.22H170.22V167.22H170.84V167.22H171.46V167.22H172.08V167.22H172.71V167.22H173.33V167.22H173.95V167.22H174.57V167.22H175.19V167.22H175.81V167.22H176.43V167.22H177.05V167.2H177.68V167.2H178.3V167.2H178.92V167.2H179.54V167.2H180.16V167.2H180.78V167.2H181.4V167.2H182.02V167.2H182.65V167.2H183.27V167.2H183.89V167.2H184.51V167.2H185.13V167.2H185.75V167.2H186.37V167.2H186.99V167.2H187.62V167.2H188.24V167.2H188.86V167.2H189.48V167.2H190.1V167.2H190.72V167.2H191.34V167.2H191.96V167.2H192.59V167.2H193.21V167.2H193.83V167.2H194.45V167.2H195.07V167.2H195.69V167.2H196.31V167.2H196.93V167.2H197.56V167.2H198.18V167.2H198.8V167.2H199.42V167.2H200.04V167.2H200.66V167.2H201.28V167.2H201.9V167.2H202.53V167.2H203.15V167.2H203.77V167.2H204.39V167.2H205.01V167.2H205.63V167.2H206.25V167.2H206.87V167.2H207.49V167.2H208.12V167.2H208.74V167.18H209.36V167.18H209.98V167.18H210.6V167.18H211.22V167.16H211.84V167.16H212.46V167.16H213.09V167.16H213.71V167.16H214.33V167.16H214.95V167.16H215.57V167.16H216.19V167.16H216.81V167.16H217.43V167.16H218.06V167.16H218.68V167.16H219.3V167.16H219.92V167.16H220.54V167.14H221.16V167.14H221.78V167.14H222.4V167.12H223.03V167.12H223.65V167.12H224.27V167.12H224.89V167.12H225.51V167.12H226.13V167.12H226.75V167.12H227.37V167.12H228V167.12H228.62V167.12H229.24V167.12H229.86V167.12H230.48V167.12H231.1V167.12H231.72V167.12H232.34V167.12H232.97V167.08H233.59V167.08H234.21V167.08H234.83V167.08H235.45V167.08H236.07V167.08H236.69V167.08H237.31V167.08H237.94V167.08H238.56V167.06H239.18V167.06H239.8V167.06H240.42V167.06H241.04V167.06H241.66V167.06H242.28V167.06H242.91V167.06H243.53V167.06H244.15V167.06H244.77V167.06H245.39V167.06H246.01V167.06H246.63V167.06H247.25V167.06H247.88V167.06H248.5V167.06H249.12V167.06H249.74V167.06H250.36V167.06H250.98V167.06H251.6V167.06H252.22V167.06H252.85V167.06H253.47V167.06H254.09V167.06H254.71V167.06H255.33V167.06H255.95V167.06H256.57V167.06H257.19V167.06H257.82V167.06H258.44V167.06H259.06V167.06H259.68V167.06H260.3V167.06H260.92V167.06H261.54V167.06H262.16V167.06H262.79V167.06H263.41V167.06H264.03V167.06H264.65V167.06H265.27V167.06H265.89V167.06H266.51V167.06H267.13V167.06H267.76V167.06H268.38V167.06H269V167.06H269.62V167.06H270.24V167.06H270.86V167.06H271.48V167.06H272.1V167.06H272.73V167.06H273.35V167.06H273.97V167.06H274.59V167.06H275.21V167.06H275.83V167.06H276.45V167.06H277.07V167.06H277.7V167.06H278.32V167.06H278.94V167.06H279.56V167.06H280.18V167.06H280.8V167.06H281.42V167.06H282.04V167.06H282.67V167.06H283.29V167.06H283.91V167.06H284.53V167.06H285.15V167.06H285.77V167.06H286.39V167.06H287.01V167.06H287.64V167.06H288.26V167.06H288.88V167.06H289.5V167.06H290.12V167.06H290.74V167.06H291.36V167.06H291.98V167.06H292.61V167.06H293.23V167.06H293.85V167.06H294.47V167.06H295.09V167.06H295.71V167.06H296.33V167.06H296.95V167.06H297.58V167.06H298.2V167.06H298.82V167.06H299.44V167.06H300.06V167.06H300.68V167.06H301.3V167.06H301.92V167.04H302.55V167.04H303.17V167.04H303.79V167.04H304.41V167.04H305.03V167.04H305.65V167.04H306.27V167.04H306.89V167.04H307.52V167.04H308.14V167.04H308.76V167.04H309.38V167.04H310V167.04" style="vector-effect: non-scaling-stroke; fill: none; stroke: rgb(51, 106, 45); stroke-opacity: 1; stroke-width: 2px; opacity: 1;"/></g><g class="points"/><g class="text"/></g><g class="trace scatter trace826588" style="stroke-miterlimit: 2; opacity: 1;"><g class="fills"/><g class="errorbars"/><g class="lines"><path class="js-line" d="M0,435H0V182.04H0.62V156.22H1.24V148.06H1.86V145.32H2.48V143.53H3.11V142.34H3.73V141.66H4.35V141.12H4.97V140.75H5.59V140.25H6.21V140.15H6.83V139.95H7.45V139.88H8.08V139.7H8.7V139.62H9.32V139.57H9.94V139.51H10.56V139.47H11.18V139.41H11.8V139.35H12.42V139.26H13.05V139.12H13.67V139.04H14.29V138.96H14.91V138.92H15.53V138.89H16.15V138.73H16.77V138.65H17.39V138.5H18.02V138.44H18.64V138.42H19.26V138.38H19.88V138.34H20.5V138.32H21.12V138.23H21.74V138.19H22.36V138.19H22.99V138.19H23.61V138.19H24.23V138.17H24.85V138.15H25.47V138.15H26.09V138.09H26.71V138.09H27.33V138.09H27.96V138.03H28.58V137.97H29.2V137.95H29.82V137.95H30.44V137.95H31.06V137.95H31.68V137.91H32.3V137.91H32.93V137.9H33.55V137.9H34.17V137.88H34.79V137.88H35.41V137.88H36.03V137.84H36.65V137.82H37.27V137.82H37.9V137.8H38.52V137.8H39.14V137.8H39.76V137.78H40.38V137.78H41V137.78H41.62V137.78H42.24V137.78H42.87V137.72H43.49V137.72H44.11V137.72H44.73V137.7H45.35V137.7H45.97V137.68H46.59V137.68H47.21V137.66H47.84V137.66H48.46V137.66H49.08V137.66H49.7V137.66H50.32V137.66H50.94V137.66H51.56V137.66H52.18V137.66H52.81V137.66H53.43V137.64H54.05V137.64H54.67V137.64H55.29V137.62H55.91V137.62H56.53V137.6H57.15V137.6H57.78V137.6H58.4V137.6H59.02V137.6H59.64V137.6H60.26V137.6H60.88V137.6H61.5V137.6H62.12V137.6H62.75V137.6H63.37V137.6H63.99V137.6H64.61V137.6H65.23V137.6H65.85V137.6H66.47V137.6H67.09V137.6H67.72V137.6H68.34V137.6H68.96V137.6H69.58V137.6H70.2V137.6H70.82V137.6H71.44V137.6H72.06V137.6H72.69V137.6H73.31V137.6H73.93V137.58H74.55V137.58H75.17V137.58H75.79V137.58H76.41V137.58H77.03V137.58H77.66V137.58H78.28V137.58H78.9V137.58H79.52V137.58H80.14V137.56H80.76V137.56H81.38V137.56H82V137.56H82.63V137.56H83.25V137.56H83.87V137.56H84.49V137.56H85.11V137.56H85.73V137.56H86.35V137.56H86.97V137.56H87.6V137.56H88.22V137.56H88.84V137.56H89.46V137.56H90.08V137.56H90.7V137.56H91.32V137.56H91.94V137.56H92.57V137.56H93.19V137.56H93.81V137.56H94.43V137.56H95.05V137.56H95.67V137.56H96.29V137.56H96.91V137.56H97.54V137.56H98.16V137.56H98.78V137.56H99.4V137.56H100.02V137.56H100.64V137.56H101.26V137.56H101.88V137.56H102.51V137.56H103.13V137.56H103.75V137.56H104.37V137.56H104.99V137.56H105.61V137.56H106.23V137.56H106.85V137.56H107.47V137.56H108.1V137.56H108.72V137.56H109.34V137.56H109.96V137.56H110.58V137.56H111.2V137.56H111.82V137.56H112.44V137.56H113.07V137.56H113.69V137.56H114.31V137.56H114.93V137.56H115.55V137.56H116.17V137.56H116.79V137.56H117.41V137.56H118.04V137.56H118.66V137.56H119.28V137.56H119.9V137.56H120.52V137.56H121.14V137.56H121.76V137.56H122.38V137.56H123.01V137.56H123.63V137.56H124.25V137.56H124.87V137.56H125.49V137.56H126.11V137.56H126.73V137.56H127.35V137.56H127.98V137.56H128.6V137.56H129.22V137.56H129.84V137.56H130.46V137.56H131.08V137.56H131.7V137.55H132.32V137.53H132.95V137.53H133.57V137.53H134.19V137.53H134.81V137.53H135.43V137.53H136.05V137.53H136.67V137.53H137.29V137.53H137.92V137.53H138.54V137.53H139.16V137.53H139.78V137.53H140.4V137.53H141.02V137.53H141.64V137.53H142.26V137.53H142.89V137.53H143.51V137.53H144.13V137.53H144.75V137.53H145.37V137.51H145.99V137.51H146.61V137.51H147.23V137.51H147.86V137.51H148.48V137.51H149.1V137.51H149.72V137.51H150.34V137.51H150.96V137.51H151.58V137.51H152.2V137.51H152.83V137.51H153.45V137.51H154.07V137.51H154.69V137.51H155.31V137.51H155.93V137.51H156.55V137.51H157.17V137.51H157.8V137.51H158.42V137.51H159.04V137.51H159.66V137.51H160.28V137.51H160.9V137.51H161.52V137.51H162.14V137.51H162.77V137.51H163.39V137.51H164.01V137.51H164.63V137.51H165.25V137.51H165.87V137.51H166.49V137.51H167.11V137.51H167.74V137.51H168.36V137.51H168.98V137.51H169.6V137.51H170.22V137.51H170.84V137.51H171.46V137.51H172.08V137.51H172.71V137.51H173.33V137.51H173.95V137.51H174.57V137.51H175.19V137.51H175.81V137.51H176.43V137.51H177.05V137.51H177.68V137.51H178.3V137.51H178.92V137.51H179.54V137.51H180.16V137.51H180.78V137.51H181.4V137.51H182.02V137.51H182.65V137.51H183.27V137.51H183.89V137.51H184.51V137.51H185.13V137.51H185.75V137.51H186.37V137.51H186.99V137.51H187.62V137.51H188.24V137.51H188.86V137.51H189.48V137.51H190.1V137.51H190.72V137.51H191.34V137.51H191.96V137.51H192.59V137.51H193.21V137.51H193.83V137.51H194.45V137.51H195.07V137.51H195.69V137.51H196.31V137.51H196.93V137.51H197.56V137.51H198.18V137.51H198.8V137.51H199.42V137.51H200.04V137.51H200.66V137.51H201.28V137.51H201.9V137.51H202.53V137.51H203.15V137.51H203.77V137.51H204.39V137.51H205.01V137.51H205.63V137.51H206.25V137.51H206.87V137.51H207.49V137.51H208.12V137.51H208.74V137.51H209.36V137.51H209.98V137.51H210.6V137.51H211.22V137.51H211.84V137.51H212.46V137.51H213.09V137.51H213.71V137.51H214.33V137.51H214.95V137.51H215.57V137.51H216.19V137.51H216.81V137.51H217.43V137.51H218.06V137.51H218.68V137.51H219.3V137.51H219.92V137.51H220.54V137.51H221.16V137.51H221.78V137.51H222.4V137.51H223.03V137.51H223.65V137.51H224.27V137.51H224.89V137.51H225.51V137.51H226.13V137.51H226.75V137.51H227.37V137.51H228V137.51H228.62V137.51H229.24V137.51H229.86V137.51H230.48V137.51H231.1V137.51H231.72V137.51H232.34V137.51H232.97V137.51H233.59V137.51H234.21V137.51H234.83V137.51H235.45V137.51H236.07V137.51H236.69V137.51H237.31V137.51H237.94V137.51H238.56V137.51H239.18V137.51H239.8V137.51H240.42V137.51H241.04V137.51H241.66V137.51H242.28V137.51H242.91V137.51H243.53V137.51H244.15V137.51H244.77V137.51H245.39V137.51H246.01V137.51H246.63V137.51H247.25V137.51H247.88V137.51H248.5V137.51H249.12V137.51H249.74V137.51H250.36V137.51H250.98V137.51H251.6V137.51H252.22V137.51H252.85V137.51H253.47V137.51H254.09V137.51H254.71V137.51H255.33V137.51H255.95V137.51H256.57V137.51H257.19V137.51H257.82V137.51H258.44V137.51H259.06V137.51H259.68V137.51H260.3V137.51H260.92V137.51H261.54V137.51H262.16V137.51H262.79V137.51H263.41V137.51H264.03V137.51H264.65V137.51H265.27V137.51H265.89V137.51H266.51V137.51H267.13V137.51H267.76V137.51H268.38V137.51H269V137.51H269.62V137.51H270.24V137.51H270.86V137.51H271.48V137.51H272.1V137.51H272.73V137.51H273.35V137.51H273.97V137.51H274.59V137.51H275.21V137.51H275.83V137.51H276.45V137.51H277.07V137.51H277.7V137.51H278.32V137.51H278.94V137.51H279.56V137.51H280.18V137.51H280.8V137.51H281.42V137.51H282.04V137.51H282.67V137.51H283.29V137.51H283.91V137.51H284.53V137.51H285.15V137.51H285.77V137.51H286.39V137.51H287.01V137.51H287.64V137.51H288.26V137.51H288.88V137.51H289.5V137.51H290.12V137.51H290.74V137.51H291.36V137.51H291.98V137.51H292.61V137.51H293.23V137.51H293.85V137.51H294.47V137.51H295.09V137.51H295.71V137.51H296.33V137.51H296.95V137.51H297.58V137.51H298.2V137.51H298.82V137.51H299.44V137.51H300.06V137.51H300.68V137.51H301.3V137.51H301.92V137.51H302.55V137.51H303.17V137.51H303.79V137.51H304.41V137.51H305.03V137.51H305.65V137.51H306.27V137.51H306.89V137.51H307.52V137.51H308.14V137.51H308.76V137.51H309.38V137.51H310V137.51" style="vector-effect: non-scaling-stroke; fill: none; stroke: rgb(51, 106, 45); stroke-opacity: 1; stroke-width: 2px; opacity: 1; stroke-dasharray: 3px, 3px;"/></g><g class="points"/><g class="text"/></g></g></g><g class="overplot"/><path class="xlines-above crisp" d="M0,0" style="fill: none;"/><path class="ylines-above crisp" d="M0,0" style="fill: none;"/><g class="overlines-above"/><g class="xaxislayer-above"><g class="xtick"><text text-anchor="middle" x="0" y="473" transform="translate(121.5,0)" style="font-family: 'Open Sans', verdana, arial, sans-serif; font-size: 12px; fill: rgb(68, 68, 68); fill-opacity: 1; white-space: pre; opacity: 1;">100</text></g><g class="xtick"><text text-anchor="middle" x="0" y="473" style="font-family: 'Open Sans', verdana, arial, sans-serif; font-size: 12px; fill: rgb(68, 68, 68); fill-opacity: 1; white-space: pre; opacity: 1;" transform="translate(183.63,0)">200</text></g><g class="xtick"><text text-anchor="middle" x="0" y="473" style="font-family: 'Open Sans', verdana, arial, sans-serif; font-size: 12px; fill: rgb(68, 68, 68); fill-opacity: 1; white-space: pre; opacity: 1;" transform="translate(245.75,0)">300</text></g><g class="xtick"><text text-anchor="middle" x="0" y="473" style="font-family: 'Open Sans', verdana, arial, sans-serif; font-size: 12px; fill: rgb(68, 68, 68); fill-opacity: 1; white-space: pre; opacity: 1;" transform="translate(307.88,0)">400</text></g><g class="xtick"><text text-anchor="middle" x="0" y="473" style="font-family: 'Open Sans', verdana, arial, sans-serif; font-size: 12px; fill: rgb(68, 68, 68); fill-opacity: 1; white-space: pre; opacity: 1;" transform="translate(370,0)">500</text></g></g><g class="yaxislayer-above"><g class="ytick"><text text-anchor="end" x="59" y="4.199999999999999" transform="translate(0,460)" style="font-family: 'Open Sans', verdana, arial, sans-serif; font-size: 12px; fill: rgb(68, 68, 68); fill-opacity: 1; white-space: pre; opacity: 1;">0</text></g><g class="ytick"><text text-anchor="end" x="59" y="4.199999999999999" style="font-family: 'Open Sans', verdana, arial, sans-serif; font-size: 12px; fill: rgb(68, 68, 68); fill-opacity: 1; white-space: pre; opacity: 1;" transform="translate(0,373)">20</text></g><g class="ytick"><text text-anchor="end" x="59" y="4.199999999999999" style="font-family: 'Open Sans', verdana, arial, sans-serif; font-size: 12px; fill: rgb(68, 68, 68); fill-opacity: 1; white-space: pre; opacity: 1;" transform="translate(0,286)">40</text></g><g class="ytick"><text text-anchor="end" x="59" y="4.199999999999999" style="font-family: 'Open Sans', verdana, arial, sans-serif; font-size: 12px; fill: rgb(68, 68, 68); fill-opacity: 1; white-space: pre; opacity: 1;" transform="translate(0,199)">60</text></g><g class="ytick"><text text-anchor="end" x="59" y="4.199999999999999" style="font-family: 'Open Sans', verdana, arial, sans-serif; font-size: 12px; fill: rgb(68, 68, 68); fill-opacity: 1; white-space: pre; opacity: 1;" transform="translate(0,112)">80</text></g><g class="ytick"><text text-anchor="end" x="59" y="4.199999999999999" style="font-family: 'Open Sans', verdana, arial, sans-serif; font-size: 12px; fill: rgb(68, 68, 68); fill-opacity: 1; white-space: pre; opacity: 1;" transform="translate(0,25)">100</text></g></g><g class="overaxes-above"/></g></g><g class="polarlayer"/><g class="ternarylayer"/><g class="geolayer"/><g class="funnelarealayer"/><g class="pielayer"/><g class="iciclelayer"/><g class="treemaplayer"/><g class="sunburstlayer"/><g class="glimages"/><defs id="topdefs-4d4c36"><g class="clips"/><clipPath id="legend4d4c36"><rect width="314" height="198" x="0" y="0"/></clipPath></defs><g class="layer-above"><g class="imagelayer"/><g class="shapelayer"/></g><g class="infolayer"><g class="legend" pointer-events="all" transform="translate(376.2,143.5)"><rect class="bg" shape-rendering="crispEdges" style="stroke: rgb(68, 68, 68); stroke-opacity: 1; fill: rgb(255, 255, 255); fill-opacity: 1; stroke-width: 0px;" width="314" height="198" x="0" y="0"/><g class="scrollbox" transform="" clip-path="url(#legend4d4c36)"><g class="groups"><g class="traces" transform="translate(0,14.5)" style="opacity: 1;"><text class="legendtext" text-anchor="start" x="40" y="4.680000000000001" style="font-family: 'Open Sans', verdana, arial, sans-serif; font-size: 12px; fill: rgb(68, 68, 68); fill-opacity: 1; white-space: pre;">Original MS2 results (ISDB)</text><g class="layers" style="opacity: 1;"><g class="legendfill"/><g class="legendlines"><path class="js-line" d="M5,0h30" style="fill: none; stroke: rgb(215, 29, 98); stroke-opacity: 1; stroke-width: 2px;"/></g><g class="legendsymbols"><g class="legendpoints"/></g></g><rect class="legendtoggle" x="0" y="-9.5" width="308.796875" height="19" style="fill: rgb(0, 0, 0); fill-opacity: 0;"/></g><g class="traces" transform="translate(0,41.1)" style="opacity: 1;"><text class="legendtext" text-anchor="start" x="40" y="-3.1200000000000006" style="font-family: 'Open Sans', verdana, arial, sans-serif; font-size: 12px; fill: rgb(68, 68, 68); fill-opacity: 1; white-space: pre;"><tspan class="line" dy="0em" x="40" y="-3.1200000000000006">Original MS2 results (ISDB) +</tspan><tspan class="line" dy="1.3em" x="40" y="-3.1200000000000006">    Taxonomic weighting (LOTUS)</tspan></text><g class="layers" style="opacity: 1;"><g class="legendfill"/><g class="legendlines"><path class="js-line" d="M5,0h30" style="fill: none; stroke: rgb(8, 88, 155); stroke-opacity: 1; stroke-width: 2px;"/></g><g class="legendsymbols"><g class="legendpoints"/></g></g><rect class="legendtoggle" x="0" y="-17.1" width="308.796875" height="34.2" style="fill: rgb(0, 0, 0); fill-opacity: 0;"/></g><g class="traces" transform="translate(0,75.30000000000001)" style="opacity: 1;"><text class="legendtext" text-anchor="start" x="40" y="-3.1200000000000006" style="font-family: 'Open Sans', verdana, arial, sans-serif; font-size: 12px; fill: rgb(68, 68, 68); fill-opacity: 1; white-space: pre;"><tspan class="line" dy="0em" x="40" y="-3.1200000000000006">Original MS2 results (ISDB) +</tspan><tspan class="line" dy="1.3em" x="40" y="-3.1200000000000006">    Taxonomic weighting (LOTUS and closed)</tspan></text><g class="layers" style="opacity: 1;"><g class="legendfill"/><g class="legendlines"><path class="js-line" d="M5,0h30" style="fill: none; stroke: rgb(8, 88, 155); stroke-opacity: 1; stroke-dasharray: 3px, 3px; stroke-width: 2px;"/></g><g class="legendsymbols"><g class="legendpoints"/></g></g><rect class="legendtoggle" x="0" y="-17.1" width="308.796875" height="34.2" style="fill: rgb(0, 0, 0); fill-opacity: 0;"/></g><g class="traces" transform="translate(0,117.30000000000001)" style="opacity: 1;"><text class="legendtext" text-anchor="start" x="40" y="-10.92" style="font-family: 'Open Sans', verdana, arial, sans-serif; font-size: 12px; fill: rgb(68, 68, 68); fill-opacity: 1; white-space: pre;"><tspan class="line" dy="0em" x="40" y="-10.92">Original MS2 results (ISDB) +</tspan><tspan class="line" dy="1.3em" x="40" y="-10.92">    Library MS1 match (LOTUS) +</tspan><tspan class="line" dy="2.6em" x="40" y="-10.92">    Taxonomic weighting</tspan></text><g class="layers" style="opacity: 1;"><g class="legendfill"/><g class="legendlines"><path class="js-line" d="M5,0h30" style="fill: none; stroke: rgb(51, 106, 45); stroke-opacity: 1; stroke-width: 2px;"/></g><g class="legendsymbols"><g class="legendpoints"/></g></g><rect class="legendtoggle" x="0" y="-24.900000000000002" width="308.796875" height="49.800000000000004" style="fill: rgb(0, 0, 0); fill-opacity: 0;"/></g><g class="traces" transform="translate(0,167.10000000000002)" style="opacity: 1;"><text class="legendtext" text-anchor="start" x="40" y="-10.92" style="font-family: 'Open Sans', verdana, arial, sans-serif; font-size: 12px; fill: rgb(68, 68, 68); fill-opacity: 1; white-space: pre;"><tspan class="line" dy="0em" x="40" y="-10.92">Original MS2 results (ISDB) +</tspan><tspan class="line" dy="1.3em" x="40" y="-10.92">    Library MS1 match (LOTUS and closed) +</tspan><tspan class="line" dy="2.6em" x="40" y="-10.92">    Taxonomic weighting</tspan></text><g class="layers" style="opacity: 1;"><g class="legendfill"/><g class="legendlines"><path class="js-line" d="M5,0h30" style="fill: none; stroke: rgb(51, 106, 45); stroke-opacity: 1; stroke-dasharray: 3px, 3px; stroke-width: 2px;"/></g><g class="legendsymbols"><g class="legendpoints"/></g></g><rect class="legendtoggle" x="0" y="-24.900000000000002" width="308.796875" height="49.800000000000004" style="fill: rgb(0, 0, 0); fill-opacity: 0;"/></g></g></g><rect class="scrollbar" rx="20" ry="3" width="0" height="0" style="fill: rgb(128, 139, 164); fill-opacity: 1;" x="0" y="0"/></g><g class="g-gtitle"><text class="gtitle" x="350" y="12.5" text-anchor="middle" dy="0em" style="font-family: 'Open Sans', verdana, arial, sans-serif; font-size: 17px; fill: rgb(68, 68, 68); opacity: 1; font-weight: normal; white-space: pre;"><tspan class="line" dy="0em" x="350" y="12.5"></tspan><tspan class="line" dy="1.3em" x="350" y="12.5">    <tspan style="font-weight:bold"> Benchmark performed on 22,388 features </tspan></tspan></text></g><g class="g-xtitle" transform="translate(0,-15)"><text class="xtitle" x="215" y="512" text-anchor="middle" style="font-family: 'Open Sans', verdana, arial, sans-serif; font-size: 14px; fill: rgb(68, 68, 68); opacity: 1; font-weight: normal; white-space: pre;"><tspan style="font-weight:bold"> Rank </tspan></text></g><g class="g-ytitle"><text class="ytitle" transform="rotate(-90,22,242.5)" x="22" y="242.5" text-anchor="middle" style="font-family: 'Open Sans', verdana, arial, sans-serif; font-size: 14px; fill: rgb(68, 68, 68); opacity: 1; font-weight: normal; white-space: pre;"><tspan style="font-weight:bold"> Correct short IK annotations [%] </tspan></text></g></g></svg>