<svg xmlns="http://www.w3.org/2000/svg" xmlns:xlink="http://www.w3.org/1999/xlink" width="700" height="500" class="main-svg" viewBox="0 0 700 500"><rect width="700" height="500" x="0" y="0" style="fill:#fff;fill-opacity:1"/><defs id="defs-fcdea7"><g class="clips"><clipPath id="clipfcdea7xyplot" class="plotclip"><rect width="310" height="435"/></clipPath><clipPath id="clipfcdea7x" class="axesclip"><rect width="310" height="500" x="60" y="0"/></clipPath><clipPath id="clipfcdea7y" class="axesclip"><rect width="700" height="435" x="0" y="25"/></clipPath><clipPath id="clipfcdea7xy" class="axesclip"><rect width="310" height="435" x="60" y="25"/></clipPath></g></defs><g class="cartesianlayer"><g class="subplot xy"><path class="xlines-below"/><path class="ylines-below"/><g class="plot" clip-path="url(#clipfcdea7xyplot)" transform="translate(60,25)"><g class="scatterlayer mlayer"><g class="trace scatter trace15afbd" style="stroke-miterlimit:2;opacity:1"><g class="lines"><path d="M12.4,413.25H12.4V382.62H24.8V365.18H37.2V353.16H49.6V343.04H62V334.03H74.4V326.13H86.8V320.41H99.2V315.73H111.6V311.25H124V306.88H136.4V302.33H148.8V299.41H161.2V296.09H173.6V292.92H186V290.72H198.4V288.95H210.8V287.29H223.2V285.58H235.6V283.82H248V282H260.4V280.18H272.8V278.93H285.2V277.63H297.6V276.66H310V275.56H322.4V274.51H334.8V273.08H347.2V272.23H359.6V270.6H372V269.88H384.4V268.86H396.8V268.06H409.2V267.14H421.6V266.2H434V265.12H446.4V264.18H458.8V263.62H471.2V262.95H483.6V262.36H496V261.72H508.4V260.96H520.8V260.5H533.2V259.93H545.6V259.45H558V258.94H570.4V258.48H582.8V257.86H595.2V257.43H607.6V256.92H620V256.48H632.4V256.15H644.8V255.71H657.2V255.46H669.6V255.2H682V254.92H694.4V254.67H706.8V254.33H719.2V253.95H731.6V253.44H744V253.21H756.4V252.88H768.8V252.44H781.2V251.98H793.6V251.65H806V251.29H818.4V251.14H830.8V250.7H843.2V250.45H855.6V250.27H868V249.86H880.4V249.58H892.8V249.32H905.2V249.14H917.6V248.89H930V248.68H942.4V248.38H954.8V248.07H967.2V247.76H979.6V247.56H992V247.3H1004.4V246.99H1016.8V246.79H1029.2V246.59H1041.6V246.43H1054V246.23H1066.4V246.02H1078.8V245.77H1091.2V245.59H1103.6V245.18H1116V244.9H1128.4V244.77H1140.8V244.41H1153.2V244.31H1165.6V244.05H1178V243.93H1190.4V243.75H1202.8V243.65H1215.2V243.54H1227.6V243.47H1240V243.31H1252.4V243.06H1264.8V242.93H1277.2V242.85H1289.6V242.65H1302V242.52H1314.4V242.42H1326.8V242.24H1339.2V242.19H1351.6V242.03H1364V241.93H1376.4V241.86H1388.8V241.55H1401.2V241.45H1413.6V241.4H1426V241.27H1438.4V241.19H1450.8V241.11H1463.2V240.93H1475.6V240.83H1488V240.76H1500.4V240.7H1512.8V240.65H1525.2V240.6H1537.6V240.58H1550V240.5H1562.4V240.4H1574.8V240.3H1587.2V240.24H1599.6V240.14H1612V240.04H1624.4V239.96H1636.8V239.91H1649.2V239.91H1661.6V239.78H1674V239.73H1686.4V239.73H1698.8V239.63H1711.2V239.61H1723.6V239.58H1736V239.5H1748.4V239.38H1760.8V239.35H1773.2V239.25H1785.6V239.25H1798V239.25H1810.4V239.2H1822.8V239.2H1835.2V239.2H1847.6V239.12H1860V239.04H1872.4V239.04H1884.8V239.02H1897.2V239.02H1909.6V239.02H1922V238.97H1934.4V238.94H1946.8V238.91H1959.2V238.91H1971.6V238.91H1984V238.86H1996.4V238.76H2008.8V238.71H2021.2V238.68H2033.6V238.66H2046V238.61H2058.4V238.61H2070.8V238.51H2083.2V238.48H2095.6V238.43H2108V238.4H2120.4V238.4H2132.8V238.33H2145.2V238.33H2157.6V238.25H2170V238.25H2182.4V238.12H2194.8V238.12H2207.2V238.1H2219.6V238.02H2232V237.97H2244.4V237.89H2256.8V237.84H2269.2V237.84H2281.6V237.69H2294V237.66H2306.4V237.66H2318.8V237.64H2331.2V237.59H2343.6V237.59H2356V237.56H2368.4V237.51H2380.8V237.38H2393.2V237.38H2405.6V237.38H2418V237.35H2430.4V237.33H2442.8V237.33H2455.2V237.28H2467.6V237.25H2480V237.23H2492.4V237.15H2504.8V237.12H2517.2V237.12H2529.6V237.1H2542V237.02H2554.4V236.95H2566.8V236.92H2579.2V236.84H2591.6V236.84H2604V236.84H2616.4V236.82H2628.8V236.77H2641.2V236.69H2653.6V236.66H2666V236.61H2678.4V236.59H2690.8V236.56H2703.2V236.56H2715.6V236.54H2728V236.54H2740.4V236.51H2752.8V236.49H2765.2V236.46H2777.6V236.46H2790V236.43H2802.4V236.43H2814.8V236.41H2827.2V236.38H2839.6V236.38H2852V236.38H2864.4V236.38H2876.8V236.31H2889.2V236.28H2901.6V236.28H2914V236.26H2926.4V236.23H2938.8V236.2H2951.2V236.18H2963.6V236.15H2976V236.15H2988.4V236.15H3000.8V236.13H3013.2V236.13H3025.6V236.1H3038V236.1H3050.4V236.1H3062.8V236.1H3075.2V236.08H3087.6V236.05H3100V236.05H3112.4V236.05H3124.8V236.05H3137.2V236.03H3149.6V236H3162V236H3174.4V236H3186.8V236H3199.2V236H3211.6V236H3224V235.95H3236.4V235.95H3248.8V235.95H3261.2V235.95H3273.6V235.95H3286V235.92H3298.4V235.92H3310.8V235.92H3323.2V235.9H3335.6V235.9H3348V235.9H3360.4V235.9H3372.8V235.9H3385.2V235.87H3397.6V235.87H3410V235.85H3422.4V235.82H3434.8V235.82H3447.2V235.77H3459.6V235.77H3472V235.77H3484.4V235.77H3496.8V235.77H3509.2V235.77H3521.6V235.77H3534V235.77H3546.4V235.77H3558.8V235.77H3571.2V235.77H3583.6V235.77H3596V235.72H3608.4V235.72H3620.8V235.72H3633.2V235.72H3645.6V235.72H3658V235.72H3670.4V235.67H3682.8V235.67H3695.2V235.67H3707.6V235.67H3720V235.67H3732.4V235.67H3744.8V235.67H3757.2V235.64H3769.6V235.64H3782V235.64H3794.4V235.64H3806.8V235.64H3819.2V235.62H3831.6V235.62H3844V235.62H3856.4V235.62H3868.8V235.62H3881.2V235.62H3893.6V235.62H3906V235.62H3918.4V235.59H3930.8V235.59H3943.2V235.59H3955.6V235.59H3968V235.59H3980.4V235.59H3992.8V235.57H4005.2V235.57H4017.6V235.57H4030V235.54H4042.4V235.54H4054.8V235.54H4067.2V235.54H4079.6V235.54H4092V235.54H4104.4V235.54H4116.8V235.51H4129.2V235.51H4141.6V235.51H4154V235.51H4166.4V235.51H4178.8V235.51H4191.2V235.51H4203.6V235.51H4216V235.51H4228.4V235.49H4240.8V235.49H4253.2V235.49H4265.6V235.49H4278V235.49H4290.4V235.46H4302.8V235.46H4315.2V235.46H4327.6V235.46H4340V235.46H4352.4V235.44H4364.8V235.44H4377.2V235.44H4389.6V235.44H4402V235.44H4414.4V235.39H4426.8V235.39H4439.2V235.39H4451.6V235.39H4464V235.39H4476.4V235.39H4488.8V235.39H4501.2V235.39H4513.6V235.36H4526V235.36H4538.4V235.36H4550.8V235.36H4563.2V235.36H4575.6V235.36H4588V235.36H4600.4V235.33H4612.8V235.33H4625.2V235.33H4637.6V235.33H4650V235.33H4662.4V235.33H4674.8V235.31H4687.2V235.31H4699.6V235.31H4712V235.31H4724.4V235.28H4736.8V235.28H4749.2V235.28H4761.6V235.28H4774V235.26H4786.4V235.26H4798.8V235.26H4811.2V235.26H4823.6V235.26H4836V235.26H4848.4V235.26H4860.8V235.26H4873.2V235.23H4885.6V235.23H4898V235.23H4910.4V235.23H4922.8V235.23H4935.2V235.23H4947.6V235.23H4960V235.23H4972.4V235.23H4984.8V235.23H4997.2V235.21H5009.6V235.21H5022V235.21H5034.4V235.21H5046.8V235.21H5059.2V235.21H5071.6V235.21H5084V235.16H5096.4V235.13H5108.8V235.1H5121.2V235.1H5133.6V235.1H5146V235.1H5158.4V235.1H5170.8V235.1H5183.2V235.1H5195.6V235.1H5208V235.08H5220.4V235.08H5232.8V235.08H5245.2V235.08H5257.6V235.08H5270V235.08H5282.4V235.08H5294.8V235.08H5307.2V235.08H5319.6V235.08H5332V235.08H5344.4V235.05H5356.8V235.05H5369.2V235.05H5381.6V235.05H5394V235.05H5406.4V235.03H5418.8V235.03H5431.2V235.03H5443.6V235.03H5456V235.03H5468.4V235.03H5480.8V235.03H5493.2V235.03H5505.6V235.03H5518V235.03H5530.4V235.03H5542.8V235.03H5555.2V235.03H5567.6V235.03H5580V235.03H5592.4V235.03H5604.8V235.03H5617.2V235.03H5629.6V235.03H5642V235.03H5654.4V235.03H5666.8V235.03H5679.2V235H5691.6V235H5704V234.98H5716.4V234.95H5728.8V234.95H5741.2V234.95H5753.6V234.95H5766V234.93H5778.4V234.93H5790.8V234.93H5803.2V234.93H5815.6V234.93H5828V234.93H5840.4V234.93H5852.8V234.93H5865.2V234.93H5877.6V234.93H5890V234.93H5902.4V234.93H5914.8V234.93H5927.2V234.93H5939.6V234.93H5952V234.93H5964.4V234.93H5976.8V234.93H5989.2V234.93H6001.6V234.93H6014V234.93H6026.4V234.93H6038.8V234.9H6051.2V234.9H6063.6V234.9H6076V234.9H6088.4V234.9H6100.8V234.9H6113.2V234.9H6125.6V234.9H6138V234.87H6150.4V234.85H6162.8V234.85H6175.2V234.85H6187.6V234.85H6200V234.85" class="js-line" style="vector-effect:non-scaling-stroke;fill:none;stroke:#d71d62;stroke-opacity:1;stroke-width:2px;opacity:1"/></g></g><g class="trace scatter trace07e02c" style="stroke-miterlimit:2;opacity:1"><g class="lines"><path d="M12.4,413.25H12.4V300.56H24.8V274.92H37.2V267.04H49.6V262.82H62V259.88H74.4V257.81H86.8V256.28H99.2V255.05H111.6V253.95H124V252.85H136.4V252.01H148.8V251.47H161.2V251.09H173.6V249.91H186V249.53H198.4V248.89H210.8V248.22H223.2V247.79H235.6V247.33H248V247.05H260.4V246.69H272.8V246.51H285.2V246.23H297.6V245.56H310V245.26H322.4V244.92H334.8V244.62H347.2V244.28H359.6V244.08H372V243.82H384.4V243.59H396.8V243.47H409.2V243.31H421.6V243.08H434V242.8H446.4V242.72H458.8V242.55H471.2V242.47H483.6V242.34H496V242.11H508.4V241.96H520.8V241.78H533.2V241.57H545.6V241.55H558V241.42H570.4V241.29H582.8V241.09H595.2V240.99H607.6V240.86H620V240.7H632.4V240.55H644.8V240.42H657.2V240.4H669.6V240.24H682V240.07H694.4V239.86H706.8V239.76H719.2V239.48H731.6V239.22H744V238.99H756.4V238.81H768.8V238.66H781.2V238.43H793.6V238.35H806V238.28H818.4V238.22H830.8V238.1H843.2V237.99H855.6V237.92H868V237.84H880.4V237.79H892.8V237.71H905.2V237.69H917.6V237.66H930V237.66H942.4V237.61H954.8V237.56H967.2V237.53H979.6V237.48H992V237.48H1004.4V237.41H1016.8V237.38H1029.2V237.33H1041.6V237.33H1054V237.25H1066.4V237.2H1078.8V237.15H1091.2V237.05H1103.6V237H1116V236.95H1128.4V236.89H1140.8V236.77H1153.2V236.72H1165.6V236.61H1178V236.56H1190.4V236.56H1202.8V236.56H1215.2V236.51H1227.6V236.51H1240V236.49H1252.4V236.43H1264.8V236.38H1277.2V236.36H1289.6V236.36H1302V236.36H1314.4V236.36H1326.8V236.28H1339.2V236.28H1351.6V236.28H1364V236.26H1376.4V236.26H1388.8V236.18H1401.2V236.13H1413.6V236.13H1426V236.1H1438.4V236.08H1450.8V236.05H1463.2V236.03H1475.6V235.97H1488V235.95H1500.4V235.92H1512.8V235.92H1525.2V235.9H1537.6V235.9H1550V235.85H1562.4V235.85H1574.8V235.82H1587.2V235.8H1599.6V235.8H1612V235.74H1624.4V235.74H1636.8V235.74H1649.2V235.67H1661.6V235.67H1674V235.64H1686.4V235.64H1698.8V235.62H1711.2V235.59H1723.6V235.59H1736V235.59H1748.4V235.59H1760.8V235.59H1773.2V235.59H1785.6V235.59H1798V235.59H1810.4V235.57H1822.8V235.57H1835.2V235.57H1847.6V235.57H1860V235.54H1872.4V235.54H1884.8V235.51H1897.2V235.51H1909.6V235.51H1922V235.51H1934.4V235.51H1946.8V235.51H1959.2V235.51H1971.6V235.51H1984V235.51H1996.4V235.49H2008.8V235.49H2021.2V235.49H2033.6V235.49H2046V235.46H2058.4V235.44H2070.8V235.44H2083.2V235.41H2095.6V235.41H2108V235.41H2120.4V235.39H2132.8V235.39H2145.2V235.36H2157.6V235.33H2170V235.33H2182.4V235.33H2194.8V235.33H2207.2V235.33H2219.6V235.31H2232V235.31H2244.4V235.28H2256.8V235.28H2269.2V235.26H2281.6V235.26H2294V235.26H2306.4V235.26H2318.8V235.26H2331.2V235.23H2343.6V235.23H2356V235.21H2368.4V235.21H2380.8V235.21H2393.2V235.21H2405.6V235.21H2418V235.18H2430.4V235.18H2442.8V235.18H2455.2V235.18H2467.6V235.18H2480V235.18H2492.4V235.18H2504.8V235.18H2517.2V235.18H2529.6V235.18H2542V235.18H2554.4V235.18H2566.8V235.18H2579.2V235.18H2591.6V235.18H2604V235.18H2616.4V235.18H2628.8V235.18H2641.2V235.18H2653.6V235.18H2666V235.18H2678.4V235.18H2690.8V235.18H2703.2V235.18H2715.6V235.16H2728V235.16H2740.4V235.16H2752.8V235.16H2765.2V235.16H2777.6V235.16H2790V235.13H2802.4V235.13H2814.8V235.13H2827.2V235.13H2839.6V235.13H2852V235.13H2864.4V235.13H2876.8V235.13H2889.2V235.13H2901.6V235.13H2914V235.1H2926.4V235.1H2938.8V235.1H2951.2V235.1H2963.6V235.1H2976V235.1H2988.4V235.1H3000.8V235.08H3013.2V235.08H3025.6V235.08H3038V235.08H3050.4V235.08H3062.8V235.08H3075.2V235.08H3087.6V235.08H3100V235.08H3112.4V235.08H3124.8V235.08H3137.2V235.08H3149.6V235.08H3162V235.08H3174.4V235.08H3186.8V235.08H3199.2V235.08H3211.6V235.08H3224V235.08H3236.4V235.08H3248.8V235.08H3261.2V235.08H3273.6V235.08H3286V235.08H3298.4V235.08H3310.8V235.08H3323.2V235.08H3335.6V235.08H3348V235.08H3360.4V235.08H3372.8V235.08H3385.2V235.08H3397.6V235.08H3410V235.08H3422.4V235.08H3434.8V235.08H3447.2V235.08H3459.6V235.08H3472V235.08H3484.4V235.08H3496.8V235.05H3509.2V235.05H3521.6V235.05H3534V235.05H3546.4V235.05H3558.8V235.05H3571.2V235.05H3583.6V235.05H3596V235.05H3608.4V235.05H3620.8V235.05H3633.2V235.05H3645.6V235.05H3658V235.05H3670.4V235.05H3682.8V235.05H3695.2V235.05H3707.6V235.05H3720V235.05H3732.4V235.05H3744.8V235.05H3757.2V235.05H3769.6V235.05H3782V235.05H3794.4V235.05H3806.8V235.05H3819.2V235.05H3831.6V235.05H3844V235.05H3856.4V235.05H3868.8V235.05H3881.2V235.05H3893.6V235.05H3906V235.05H3918.4V235.05H3930.8V235.05H3943.2V235.05H3955.6V235.05H3968V235.05H3980.4V235.05H3992.8V235.05H4005.2V235.05H4017.6V235.05H4030V235.05H4042.4V235.05H4054.8V235.05H4067.2V235.05H4079.6V235.05H4092V235.05H4104.4V235.05H4116.8V235.05H4129.2V235.05H4141.6V235.05H4154V235.03H4166.4V235.03H4178.8V235.03H4191.2V235.03H4203.6V235.03H4216V235H4228.4V235H4240.8V235H4253.2V235H4265.6V235H4278V235H4290.4V235H4302.8V235H4315.2V235H4327.6V235H4340V235H4352.4V235H4364.8V235H4377.2V235H4389.6V234.98H4402V234.98H4414.4V234.98H4426.8V234.98H4439.2V234.95H4451.6V234.95H4464V234.95H4476.4V234.95H4488.8V234.95H4501.2V234.95H4513.6V234.95H4526V234.95H4538.4V234.95H4550.8V234.95H4563.2V234.95H4575.6V234.95H4588V234.95H4600.4V234.95H4612.8V234.95H4625.2V234.95H4637.6V234.93H4650V234.93H4662.4V234.9H4674.8V234.9H4687.2V234.9H4699.6V234.9H4712V234.9H4724.4V234.9H4736.8V234.9H4749.2V234.9H4761.6V234.87H4774V234.87H4786.4V234.87H4798.8V234.87H4811.2V234.87H4823.6V234.87H4836V234.87H4848.4V234.87H4860.8V234.87H4873.2V234.87H4885.6V234.87H4898V234.87H4910.4V234.87H4922.8V234.87H4935.2V234.87H4947.6V234.87H4960V234.87H4972.4V234.87H4984.8V234.87H4997.2V234.87H5009.6V234.87H5022V234.87H5034.4V234.87H5046.8V234.87H5059.2V234.87H5071.6V234.87H5084V234.87H5096.4V234.87H5108.8V234.87H5121.2V234.87H5133.6V234.87H5146V234.87H5158.4V234.87H5170.8V234.87H5183.2V234.87H5195.6V234.87H5208V234.87H5220.4V234.87H5232.8V234.87H5245.2V234.87H5257.6V234.87H5270V234.87H5282.4V234.87H5294.8V234.87H5307.2V234.87H5319.6V234.87H5332V234.87H5344.4V234.87H5356.8V234.87H5369.2V234.87H5381.6V234.87H5394V234.87H5406.4V234.87H5418.8V234.87H5431.2V234.87H5443.6V234.87H5456V234.87H5468.4V234.87H5480.8V234.87H5493.2V234.87H5505.6V234.87H5518V234.87H5530.4V234.87H5542.8V234.87H5555.2V234.87H5567.6V234.87H5580V234.87H5592.4V234.87H5604.8V234.87H5617.2V234.87H5629.6V234.87H5642V234.87H5654.4V234.87H5666.8V234.87H5679.2V234.87H5691.6V234.87H5704V234.87H5716.4V234.87H5728.8V234.87H5741.2V234.87H5753.6V234.87H5766V234.87H5778.4V234.87H5790.8V234.87H5803.2V234.87H5815.6V234.87H5828V234.87H5840.4V234.87H5852.8V234.87H5865.2V234.87H5877.6V234.87H5890V234.87H5902.4V234.87H5914.8V234.87H5927.2V234.87H5939.6V234.87H5952V234.87H5964.4V234.87H5976.8V234.87H5989.2V234.87H6001.6V234.87H6014V234.87H6026.4V234.87H6038.8V234.85H6051.2V234.85H6063.6V234.85H6076V234.85H6088.4V234.85H6100.8V234.85H6113.2V234.85H6125.6V234.85H6138V234.85H6150.4V234.85H6162.8V234.85H6175.2V234.85H6187.6V234.85H6200V234.85" class="js-line" style="vector-effect:non-scaling-stroke;fill:none;stroke:#08589b;stroke-opacity:1;stroke-width:2px;opacity:1"/></g></g><g class="trace scatter tracec78ef5" style="stroke-miterlimit:2;opacity:1"><g class="lines"><path d="M12.4,413.25H12.4V277.3H24.8V253.44H37.2V246H49.6V243.18H62V241.5H74.4V240.37H86.8V239.4H99.2V238.79H111.6V238.35H124V237.92H136.4V237.79H148.8V237.61H161.2V237.53H173.6V237.23H186V237.23H198.4V237.18H210.8V237.15H223.2V237.05H235.6V236.89H248V236.82H260.4V236.69H272.8V236.56H285.2V236.54H297.6V236.41H310V236.26H322.4V236.26H334.8V236.23H347.2V236.13H359.6V236.05H372V236.03H384.4V236.03H396.8V236H409.2V236H421.6V235.95H434V235.8H446.4V235.74H458.8V235.74H471.2V235.74H483.6V235.69H496V235.69H508.4V235.67H520.8V235.59H533.2V235.57H545.6V235.54H558V235.46H570.4V235.44H582.8V235.41H595.2V235.39H607.6V235.36H620V235.36H632.4V235.33H644.8V235.31H657.2V235.31H669.6V235.26H682V235.23H694.4V235.23H706.8V235.23H719.2V235.23H731.6V235.23H744V235.23H756.4V235.23H768.8V235.23H781.2V235.23H793.6V235.21H806V235.16H818.4V235.16H830.8V235.16H843.2V235.16H855.6V235.13H868V235.1H880.4V235.1H892.8V235.1H905.2V235.08H917.6V235.08H930V235.05H942.4V235.05H954.8V235.03H967.2V235.03H979.6V235.03H992V235.03H1004.4V235.03H1016.8V235.03H1029.2V235.03H1041.6V235.03H1054V235H1066.4V235H1078.8V234.98H1091.2V234.98H1103.6V234.98H1116V234.98H1128.4V234.98H1140.8V234.95H1153.2V234.95H1165.6V234.95H1178V234.95H1190.4V234.95H1202.8V234.95H1215.2V234.95H1227.6V234.95H1240V234.95H1252.4V234.95H1264.8V234.95H1277.2V234.95H1289.6V234.95H1302V234.95H1314.4V234.95H1326.8V234.95H1339.2V234.95H1351.6V234.95H1364V234.95H1376.4V234.95H1388.8V234.95H1401.2V234.95H1413.6V234.95H1426V234.95H1438.4V234.95H1450.8V234.95H1463.2V234.95H1475.6V234.95H1488V234.95H1500.4V234.95H1512.8V234.95H1525.2V234.95H1537.6V234.95H1550V234.95H1562.4V234.95H1574.8V234.95H1587.2V234.95H1599.6V234.95H1612V234.93H1624.4V234.93H1636.8V234.93H1649.2V234.93H1661.6V234.93H1674V234.93H1686.4V234.93H1698.8V234.93H1711.2V234.93H1723.6V234.93H1736V234.93H1748.4V234.93H1760.8V234.93H1773.2V234.93H1785.6V234.93H1798V234.93H1810.4V234.93H1822.8V234.93H1835.2V234.93H1847.6V234.93H1860V234.93H1872.4V234.93H1884.8V234.93H1897.2V234.93H1909.6V234.93H1922V234.93H1934.4V234.93H1946.8V234.93H1959.2V234.93H1971.6V234.93H1984V234.93H1996.4V234.93H2008.8V234.93H2021.2V234.93H2033.6V234.93H2046V234.93H2058.4V234.93H2070.8V234.93H2083.2V234.93H2095.6V234.93H2108V234.93H2120.4V234.93H2132.8V234.93H2145.2V234.93H2157.6V234.93H2170V234.93H2182.4V234.93H2194.8V234.93H2207.2V234.93H2219.6V234.93H2232V234.93H2244.4V234.93H2256.8V234.93H2269.2V234.93H2281.6V234.93H2294V234.93H2306.4V234.93H2318.8V234.93H2331.2V234.93H2343.6V234.93H2356V234.93H2368.4V234.93H2380.8V234.93H2393.2V234.93H2405.6V234.93H2418V234.93H2430.4V234.93H2442.8V234.93H2455.2V234.93H2467.6V234.93H2480V234.93H2492.4V234.93H2504.8V234.93H2517.2V234.93H2529.6V234.93H2542V234.93H2554.4V234.93H2566.8V234.93H2579.2V234.93H2591.6V234.93H2604V234.93H2616.4V234.93H2628.8V234.93H2641.2V234.93H2653.6V234.93H2666V234.93H2678.4V234.93H2690.8V234.93H2703.2V234.93H2715.6V234.93H2728V234.93H2740.4V234.93H2752.8V234.93H2765.2V234.93H2777.6V234.93H2790V234.9H2802.4V234.9H2814.8V234.9H2827.2V234.9H2839.6V234.9H2852V234.9H2864.4V234.9H2876.8V234.9H2889.2V234.9H2901.6V234.9H2914V234.87H2926.4V234.87H2938.8V234.87H2951.2V234.87H2963.6V234.87H2976V234.87H2988.4V234.87H3000.8V234.85H3013.2V234.85H3025.6V234.85H3038V234.85H3050.4V234.85H3062.8V234.85H3075.2V234.85H3087.6V234.85H3100V234.85H3112.4V234.85H3124.8V234.85H3137.2V234.85H3149.6V234.85H3162V234.85H3174.4V234.85H3186.8V234.85H3199.2V234.85H3211.6V234.85H3224V234.85H3236.4V234.85H3248.8V234.85H3261.2V234.85H3273.6V234.85H3286V234.85H3298.4V234.85H3310.8V234.85H3323.2V234.85H3335.6V234.85H3348V234.85H3360.4V234.85H3372.8V234.85H3385.2V234.85H3397.6V234.85H3410V234.85H3422.4V234.85H3434.8V234.85H3447.2V234.85H3459.6V234.85H3472V234.85H3484.4V234.85H3496.8V234.85H3509.2V234.85H3521.6V234.85H3534V234.85H3546.4V234.85H3558.8V234.85H3571.2V234.85H3583.6V234.85H3596V234.85H3608.4V234.85H3620.8V234.85H3633.2V234.85H3645.6V234.85H3658V234.85H3670.4V234.85H3682.8V234.85H3695.2V234.85H3707.6V234.85H3720V234.85H3732.4V234.85H3744.8V234.85H3757.2V234.85H3769.6V234.85H3782V234.85H3794.4V234.85H3806.8V234.85H3819.2V234.85H3831.6V234.85H3844V234.85H3856.4V234.85H3868.8V234.85H3881.2V234.85H3893.6V234.85H3906V234.85H3918.4V234.85H3930.8V234.85H3943.2V234.85H3955.6V234.85H3968V234.85H3980.4V234.85H3992.8V234.85H4005.2V234.85H4017.6V234.85H4030V234.85H4042.4V234.85H4054.8V234.85H4067.2V234.85H4079.6V234.85H4092V234.85H4104.4V234.85H4116.8V234.85H4129.2V234.85H4141.6V234.85H4154V234.85H4166.4V234.85H4178.8V234.85H4191.2V234.85H4203.6V234.85H4216V234.85H4228.4V234.85H4240.8V234.85H4253.2V234.85H4265.6V234.85H4278V234.85H4290.4V234.85H4302.8V234.85H4315.2V234.85H4327.6V234.85H4340V234.85H4352.4V234.85H4364.8V234.85H4377.2V234.85H4389.6V234.85H4402V234.85H4414.4V234.85H4426.8V234.85H4439.2V234.85H4451.6V234.85H4464V234.85H4476.4V234.85H4488.8V234.85H4501.2V234.85H4513.6V234.85H4526V234.85H4538.4V234.85H4550.8V234.85H4563.2V234.85H4575.6V234.85H4588V234.85H4600.4V234.85H4612.8V234.85H4625.2V234.85H4637.6V234.85H4650V234.85H4662.4V234.85H4674.8V234.85H4687.2V234.85H4699.6V234.85H4712V234.85H4724.4V234.85H4736.8V234.85H4749.2V234.85H4761.6V234.85H4774V234.85H4786.4V234.85H4798.8V234.85H4811.2V234.85H4823.6V234.85H4836V234.85H4848.4V234.85H4860.8V234.85H4873.2V234.85H4885.6V234.85H4898V234.85H4910.4V234.85H4922.8V234.85H4935.2V234.85H4947.6V234.85H4960V234.85H4972.4V234.85H4984.8V234.85H4997.2V234.85H5009.6V234.85H5022V234.85H5034.4V234.85H5046.8V234.85H5059.2V234.85H5071.6V234.85H5084V234.85H5096.4V234.85H5108.8V234.85H5121.2V234.85H5133.6V234.85H5146V234.85H5158.4V234.85H5170.8V234.85H5183.2V234.85H5195.6V234.85H5208V234.85H5220.4V234.85H5232.8V234.85H5245.2V234.85H5257.6V234.85H5270V234.85H5282.4V234.85H5294.8V234.85H5307.2V234.85H5319.6V234.85H5332V234.85H5344.4V234.85H5356.8V234.85H5369.2V234.85H5381.6V234.85H5394V234.85H5406.4V234.85H5418.8V234.85H5431.2V234.85H5443.6V234.85H5456V234.85H5468.4V234.85H5480.8V234.85H5493.2V234.85H5505.6V234.85H5518V234.85H5530.4V234.85H5542.8V234.85H5555.2V234.85H5567.6V234.85H5580V234.85H5592.4V234.85H5604.8V234.85H5617.2V234.85H5629.6V234.85H5642V234.85H5654.4V234.85H5666.8V234.85H5679.2V234.85H5691.6V234.85H5704V234.85H5716.4V234.85H5728.8V234.85H5741.2V234.85H5753.6V234.85H5766V234.85H5778.4V234.85H5790.8V234.85H5803.2V234.85H5815.6V234.85H5828V234.85H5840.4V234.85H5852.8V234.85H5865.2V234.85H5877.6V234.85H5890V234.85H5902.4V234.85H5914.8V234.85H5927.2V234.85H5939.6V234.85H5952V234.85H5964.4V234.85H5976.8V234.85H5989.2V234.85H6001.6V234.85H6014V234.85H6026.4V234.85H6038.8V234.85H6051.2V234.85H6063.6V234.85H6076V234.85H6088.4V234.85H6100.8V234.85H6113.2V234.85H6125.6V234.85H6138V234.85H6150.4V234.85H6162.8V234.85H6175.2V234.85H6187.6V234.85H6200V234.85" class="js-line" style="vector-effect:non-scaling-stroke;fill:none;stroke:#08589b;stroke-opacity:1;stroke-width:2px;opacity:1;stroke-dasharray:3px,3px"/></g></g><g class="trace scatter trace91bc0b" style="stroke-miterlimit:2;opacity:1"><g class="lines"><path d="M12.4,413.25H12.4V152.26H24.8V112.73H37.2V99.41H49.6V92.83H62V88.31H74.4V86.11H86.8V84.32H99.2V82.61H111.6V81.4H124V80.33H136.4V79.28H148.8V78.16H161.2V77.67H173.6V77.03H186V76.6H198.4V75.93H210.8V75.29H223.2V74.63H235.6V74.17H248V73.78H260.4V73.38H272.8V72.92H285.2V72.56H297.6V72.2H310V71.89H322.4V71.59H334.8V71.36H347.2V71.02H359.6V70.64H372V70.31H384.4V70.15H396.8V69.97H409.2V69.74H421.6V69.62H434V69.46H446.4V69.34H458.8V69.16H471.2V69H483.6V68.88H496V68.67H508.4V68.54H520.8V68.31H533.2V68.08H545.6V67.95H558V67.83H570.4V67.72H582.8V67.65H595.2V67.49H607.6V67.34H620V67.24H632.4V67.21H644.8V67.06H657.2V66.96H669.6V66.8H682V66.68H694.4V66.55H706.8V66.39H719.2V66.22H731.6V65.93H744V65.47H756.4V65.4H768.8V65.14H781.2V65.01H793.6V64.71H806V64.61H818.4V64.58H830.8V64.58H843.2V64.55H855.6V64.43H868V64.27H880.4V64.22H892.8V64.2H905.2V64.12H917.6V64.07H930V63.97H942.4V63.91H954.8V63.86H967.2V63.76H979.6V63.68H992V63.61H1004.4V63.58H1016.8V63.56H1029.2V63.53H1041.6V63.48H1054V63.43H1066.4V63.4H1078.8V63.28H1091.2V63.28H1103.6V63.25H1116V63.22H1128.4V63.1H1140.8V63.05H1153.2V62.94H1165.6V62.87H1178V62.82H1190.4V62.71H1202.8V62.71H1215.2V62.64H1227.6V62.56H1240V62.51H1252.4V62.43H1264.8V62.35H1277.2V62.3H1289.6V62.3H1302V62.28H1314.4V62.28H1326.8V62.25H1339.2V62.23H1351.6V62.18H1364V62.18H1376.4V62.15H1388.8V62.15H1401.2V62.12H1413.6V62.1H1426V62.02H1438.4V62H1450.8V61.97H1463.2V61.97H1475.6V61.95H1488V61.89H1500.4V61.82H1512.8V61.79H1525.2V61.77H1537.6V61.74H1550V61.74H1562.4V61.72H1574.8V61.72H1587.2V61.66H1599.6V61.64H1612V61.61H1624.4V61.59H1636.8V61.59H1649.2V61.56H1661.6V61.56H1674V61.54H1686.4V61.51H1698.8V61.51H1711.2V61.49H1723.6V61.43H1736V61.43H1748.4V61.41H1760.8V61.41H1773.2V61.41H1785.6V61.41H1798V61.38H1810.4V61.38H1822.8V61.36H1835.2V61.36H1847.6V61.36H1860V61.36H1872.4V61.36H1884.8V61.36H1897.2V61.36H1909.6V61.33H1922V61.33H1934.4V61.33H1946.8V61.33H1959.2V61.31H1971.6V61.31H1984V61.31H1996.4V61.28H2008.8V61.28H2021.2V61.28H2033.6V61.28H2046V61.28H2058.4V61.26H2070.8V61.26H2083.2V61.26H2095.6V61.23H2108V61.23H2120.4V61.23H2132.8V61.2H2145.2V61.18H2157.6V61.18H2170V61.15H2182.4V61.13H2194.8V61.13H2207.2V61.1H2219.6V61.1H2232V61.08H2244.4V61.08H2256.8V61.08H2269.2V61.08H2281.6V61.08H2294V61.05H2306.4V61.03H2318.8V61H2331.2V61H2343.6V61H2356V61H2368.4V61H2380.8V60.97H2393.2V60.97H2405.6V60.95H2418V60.95H2430.4V60.95H2442.8V60.92H2455.2V60.92H2467.6V60.92H2480V60.92H2492.4V60.92H2504.8V60.92H2517.2V60.92H2529.6V60.92H2542V60.92H2554.4V60.92H2566.8V60.92H2579.2V60.92H2591.6V60.92H2604V60.92H2616.4V60.92H2628.8V60.92H2641.2V60.92H2653.6V60.92H2666V60.92H2678.4V60.92H2690.8V60.92H2703.2V60.92H2715.6V60.92H2728V60.92H2740.4V60.9H2752.8V60.9H2765.2V60.9H2777.6V60.9H2790V60.9H2802.4V60.9H2814.8V60.87H2827.2V60.87H2839.6V60.87H2852V60.87H2864.4V60.87H2876.8V60.87H2889.2V60.87H2901.6V60.87H2914V60.85H2926.4V60.85H2938.8V60.85H2951.2V60.85H2963.6V60.85H2976V60.85H2988.4V60.85H3000.8V60.85H3013.2V60.85H3025.6V60.85H3038V60.85H3050.4V60.85H3062.8V60.85H3075.2V60.85H3087.6V60.85H3100V60.85H3112.4V60.85H3124.8V60.85H3137.2V60.85H3149.6V60.85H3162V60.85H3174.4V60.85H3186.8V60.85H3199.2V60.85H3211.6V60.85H3224V60.85H3236.4V60.85H3248.8V60.85H3261.2V60.85H3273.6V60.85H3286V60.85H3298.4V60.85H3310.8V60.85H3323.2V60.85H3335.6V60.85H3348V60.85H3360.4V60.85H3372.8V60.85H3385.2V60.85H3397.6V60.85H3410V60.85H3422.4V60.85H3434.8V60.85H3447.2V60.85H3459.6V60.85H3472V60.85H3484.4V60.85H3496.8V60.85H3509.2V60.85H3521.6V60.85H3534V60.85H3546.4V60.82H3558.8V60.82H3571.2V60.82H3583.6V60.82H3596V60.82H3608.4V60.82H3620.8V60.82H3633.2V60.82H3645.6V60.82H3658V60.82H3670.4V60.82H3682.8V60.82H3695.2V60.82H3707.6V60.82H3720V60.82H3732.4V60.82H3744.8V60.82H3757.2V60.82H3769.6V60.82H3782V60.82H3794.4V60.82H3806.8V60.82H3819.2V60.82H3831.6V60.82H3844V60.82H3856.4V60.82H3868.8V60.82H3881.2V60.82H3893.6V60.82H3906V60.82H3918.4V60.82H3930.8V60.82H3943.2V60.82H3955.6V60.82H3968V60.82H3980.4V60.82H3992.8V60.82H4005.2V60.82H4017.6V60.82H4030V60.82H4042.4V60.82H4054.8V60.82H4067.2V60.82H4079.6V60.82H4092V60.82H4104.4V60.82H4116.8V60.82H4129.2V60.82H4141.6V60.82H4154V60.82H4166.4V60.82H4178.8V60.8H4191.2V60.8H4203.6V60.8H4216V60.8H4228.4V60.77H4240.8V60.77H4253.2V60.77H4265.6V60.77H4278V60.77H4290.4V60.77H4302.8V60.77H4315.2V60.77H4327.6V60.77H4340V60.77H4352.4V60.77H4364.8V60.77H4377.2V60.77H4389.6V60.77H4402V60.77H4414.4V60.74H4426.8V60.74H4439.2V60.74H4451.6V60.72H4464V60.72H4476.4V60.72H4488.8V60.72H4501.2V60.72H4513.6V60.72H4526V60.72H4538.4V60.72H4550.8V60.72H4563.2V60.72H4575.6V60.72H4588V60.72H4600.4V60.72H4612.8V60.72H4625.2V60.72H4637.6V60.72H4650V60.72H4662.4V60.67H4674.8V60.67H4687.2V60.67H4699.6V60.67H4712V60.67H4724.4V60.67H4736.8V60.67H4749.2V60.67H4761.6V60.67H4774V60.64H4786.4V60.64H4798.8V60.64H4811.2V60.64H4823.6V60.64H4836V60.64H4848.4V60.64H4860.8V60.64H4873.2V60.64H4885.6V60.64H4898V60.64H4910.4V60.64H4922.8V60.64H4935.2V60.64H4947.6V60.64H4960V60.64H4972.4V60.64H4984.8V60.64H4997.2V60.64H5009.6V60.64H5022V60.64H5034.4V60.64H5046.8V60.64H5059.2V60.64H5071.6V60.64H5084V60.64H5096.4V60.64H5108.8V60.64H5121.2V60.64H5133.6V60.64H5146V60.64H5158.4V60.64H5170.8V60.64H5183.2V60.64H5195.6V60.64H5208V60.64H5220.4V60.64H5232.8V60.64H5245.2V60.64H5257.6V60.64H5270V60.64H5282.4V60.64H5294.8V60.64H5307.2V60.64H5319.6V60.64H5332V60.64H5344.4V60.64H5356.8V60.64H5369.2V60.64H5381.6V60.64H5394V60.64H5406.4V60.64H5418.8V60.64H5431.2V60.64H5443.6V60.64H5456V60.64H5468.4V60.64H5480.8V60.64H5493.2V60.64H5505.6V60.64H5518V60.64H5530.4V60.64H5542.8V60.64H5555.2V60.64H5567.6V60.64H5580V60.64H5592.4V60.64H5604.8V60.64H5617.2V60.64H5629.6V60.64H5642V60.64H5654.4V60.64H5666.8V60.64H5679.2V60.64H5691.6V60.64H5704V60.64H5716.4V60.64H5728.8V60.64H5741.2V60.64H5753.6V60.64H5766V60.64H5778.4V60.64H5790.8V60.64H5803.2V60.64H5815.6V60.64H5828V60.64H5840.4V60.64H5852.8V60.64H5865.2V60.64H5877.6V60.64H5890V60.64H5902.4V60.64H5914.8V60.64H5927.2V60.64H5939.6V60.64H5952V60.64H5964.4V60.64H5976.8V60.64H5989.2V60.64H6001.6V60.64H6014V60.64H6026.4V60.64H6038.8V60.62H6051.2V60.62H6063.6V60.62H6076V60.62H6088.4V60.62H6100.8V60.62H6113.2V60.62H6125.6V60.62H6138V60.62H6150.4V60.62H6162.8V60.62H6175.2V60.62H6187.6V60.62H6200V60.62" class="js-line" style="vector-effect:non-scaling-stroke;fill:none;stroke:#336a2d;stroke-opacity:1;stroke-width:2px;opacity:1"/></g></g><g class="trace scatter tracefe9175" style="stroke-miterlimit:2;opacity:1"><g class="lines"><path d="M12.4,413.25H12.4V80.36H24.8V46.37H37.2V35.63H49.6V32.03H62V29.68H74.4V28.12H86.8V27.22H99.2V26.51H111.6V26.02H124V25.36H136.4V25.23H148.8V24.97H161.2V24.87H173.6V24.64H186V24.54H198.4V24.46H210.8V24.38H223.2V24.33H235.6V24.26H248V24.18H260.4V24.05H272.8V23.87H285.2V23.77H297.6V23.67H310V23.62H322.4V23.57H334.8V23.36H347.2V23.26H359.6V23.05H372V22.98H384.4V22.95H396.8V22.9H409.2V22.85H421.6V22.82H434V22.7H446.4V22.64H458.8V22.64H471.2V22.64H483.6V22.64H496V22.62H508.4V22.59H520.8V22.59H533.2V22.52H545.6V22.52H558V22.52H570.4V22.44H582.8V22.36H595.2V22.34H607.6V22.34H620V22.34H632.4V22.34H644.8V22.29H657.2V22.29H669.6V22.26H682V22.26H694.4V22.24H706.8V22.24H719.2V22.24H731.6V22.18H744V22.16H756.4V22.16H768.8V22.13H781.2V22.13H793.6V22.13H806V22.11H818.4V22.11H830.8V22.11H843.2V22.11H855.6V22.11H868V22.03H880.4V22.03H892.8V22.03H905.2V22.01H917.6V22.01H930V21.98H942.4V21.98H954.8V21.95H967.2V21.95H979.6V21.95H992V21.95H1004.4V21.95H1016.8V21.95H1029.2V21.95H1041.6V21.95H1054V21.95H1066.4V21.95H1078.8V21.93H1091.2V21.93H1103.6V21.93H1116V21.9H1128.4V21.9H1140.8V21.88H1153.2V21.88H1165.6V21.88H1178V21.88H1190.4V21.88H1202.8V21.88H1215.2V21.88H1227.6V21.88H1240V21.88H1252.4V21.88H1264.8V21.88H1277.2V21.88H1289.6V21.88H1302V21.88H1314.4V21.88H1326.8V21.88H1339.2V21.88H1351.6V21.88H1364V21.88H1376.4V21.88H1388.8V21.88H1401.2V21.88H1413.6V21.88H1426V21.88H1438.4V21.88H1450.8V21.88H1463.2V21.88H1475.6V21.88H1488V21.85H1500.4V21.85H1512.8V21.85H1525.2V21.85H1537.6V21.85H1550V21.85H1562.4V21.85H1574.8V21.85H1587.2V21.85H1599.6V21.85H1612V21.83H1624.4V21.83H1636.8V21.83H1649.2V21.83H1661.6V21.83H1674V21.83H1686.4V21.83H1698.8V21.83H1711.2V21.83H1723.6V21.83H1736V21.83H1748.4V21.83H1760.8V21.83H1773.2V21.83H1785.6V21.83H1798V21.83H1810.4V21.83H1822.8V21.83H1835.2V21.83H1847.6V21.83H1860V21.83H1872.4V21.83H1884.8V21.83H1897.2V21.83H1909.6V21.83H1922V21.83H1934.4V21.83H1946.8V21.83H1959.2V21.83H1971.6V21.83H1984V21.83H1996.4V21.83H2008.8V21.83H2021.2V21.83H2033.6V21.83H2046V21.83H2058.4V21.83H2070.8V21.83H2083.2V21.83H2095.6V21.83H2108V21.83H2120.4V21.83H2132.8V21.83H2145.2V21.83H2157.6V21.83H2170V21.83H2182.4V21.83H2194.8V21.83H2207.2V21.83H2219.6V21.83H2232V21.83H2244.4V21.83H2256.8V21.83H2269.2V21.83H2281.6V21.83H2294V21.83H2306.4V21.83H2318.8V21.83H2331.2V21.83H2343.6V21.83H2356V21.83H2368.4V21.83H2380.8V21.83H2393.2V21.83H2405.6V21.83H2418V21.83H2430.4V21.83H2442.8V21.83H2455.2V21.83H2467.6V21.83H2480V21.83H2492.4V21.83H2504.8V21.83H2517.2V21.83H2529.6V21.83H2542V21.83H2554.4V21.83H2566.8V21.83H2579.2V21.83H2591.6V21.83H2604V21.83H2616.4V21.83H2628.8V21.83H2641.2V21.8H2653.6V21.78H2666V21.78H2678.4V21.78H2690.8V21.78H2703.2V21.78H2715.6V21.78H2728V21.78H2740.4V21.78H2752.8V21.78H2765.2V21.78H2777.6V21.78H2790V21.78H2802.4V21.78H2814.8V21.78H2827.2V21.78H2839.6V21.78H2852V21.78H2864.4V21.78H2876.8V21.78H2889.2V21.78H2901.6V21.78H2914V21.75H2926.4V21.75H2938.8V21.75H2951.2V21.75H2963.6V21.75H2976V21.75H2988.4V21.75H3000.8V21.75H3013.2V21.75H3025.6V21.75H3038V21.75H3050.4V21.75H3062.8V21.75H3075.2V21.75H3087.6V21.75H3100V21.75H3112.4V21.75H3124.8V21.75H3137.2V21.75H3149.6V21.75H3162V21.75H3174.4V21.75H3186.8V21.75H3199.2V21.75H3211.6V21.75H3224V21.75H3236.4V21.75H3248.8V21.75H3261.2V21.75H3273.6V21.75H3286V21.75H3298.4V21.75H3310.8V21.75H3323.2V21.75H3335.6V21.75H3348V21.75H3360.4V21.75H3372.8V21.75H3385.2V21.75H3397.6V21.75H3410V21.75H3422.4V21.75H3434.8V21.75H3447.2V21.75H3459.6V21.75H3472V21.75H3484.4V21.75H3496.8V21.75H3509.2V21.75H3521.6V21.75H3534V21.75H3546.4V21.75H3558.8V21.75H3571.2V21.75H3583.6V21.75H3596V21.75H3608.4V21.75H3620.8V21.75H3633.2V21.75H3645.6V21.75H3658V21.75H3670.4V21.75H3682.8V21.75H3695.2V21.75H3707.6V21.75H3720V21.75H3732.4V21.75H3744.8V21.75H3757.2V21.75H3769.6V21.75H3782V21.75H3794.4V21.75H3806.8V21.75H3819.2V21.75H3831.6V21.75H3844V21.75H3856.4V21.75H3868.8V21.75H3881.2V21.75H3893.6V21.75H3906V21.75H3918.4V21.75H3930.8V21.75H3943.2V21.75H3955.6V21.75H3968V21.75H3980.4V21.75H3992.8V21.75H4005.2V21.75H4017.6V21.75H4030V21.75H4042.4V21.75H4054.8V21.75H4067.2V21.75H4079.6V21.75H4092V21.75H4104.4V21.75H4116.8V21.75H4129.2V21.75H4141.6V21.75H4154V21.75H4166.4V21.75H4178.8V21.75H4191.2V21.75H4203.6V21.75H4216V21.75H4228.4V21.75H4240.8V21.75H4253.2V21.75H4265.6V21.75H4278V21.75H4290.4V21.75H4302.8V21.75H4315.2V21.75H4327.6V21.75H4340V21.75H4352.4V21.75H4364.8V21.75H4377.2V21.75H4389.6V21.75H4402V21.75H4414.4V21.75H4426.8V21.75H4439.2V21.75H4451.6V21.75H4464V21.75H4476.4V21.75H4488.8V21.75H4501.2V21.75H4513.6V21.75H4526V21.75H4538.4V21.75H4550.8V21.75H4563.2V21.75H4575.6V21.75H4588V21.75H4600.4V21.75H4612.8V21.75H4625.2V21.75H4637.6V21.75H4650V21.75H4662.4V21.75H4674.8V21.75H4687.2V21.75H4699.6V21.75H4712V21.75H4724.4V21.75H4736.8V21.75H4749.2V21.75H4761.6V21.75H4774V21.75H4786.4V21.75H4798.8V21.75H4811.2V21.75H4823.6V21.75H4836V21.75H4848.4V21.75H4860.8V21.75H4873.2V21.75H4885.6V21.75H4898V21.75H4910.4V21.75H4922.8V21.75H4935.2V21.75H4947.6V21.75H4960V21.75H4972.4V21.75H4984.8V21.75H4997.2V21.75H5009.6V21.75H5022V21.75H5034.4V21.75H5046.8V21.75H5059.2V21.75H5071.6V21.75H5084V21.75H5096.4V21.75H5108.8V21.75H5121.2V21.75H5133.6V21.75H5146V21.75H5158.4V21.75H5170.8V21.75H5183.2V21.75H5195.6V21.75H5208V21.75H5220.4V21.75H5232.8V21.75H5245.2V21.75H5257.6V21.75H5270V21.75H5282.4V21.75H5294.8V21.75H5307.2V21.75H5319.6V21.75H5332V21.75H5344.4V21.75H5356.8V21.75H5369.2V21.75H5381.6V21.75H5394V21.75H5406.4V21.75H5418.8V21.75H5431.2V21.75H5443.6V21.75H5456V21.75H5468.4V21.75H5480.8V21.75H5493.2V21.75H5505.6V21.75H5518V21.75H5530.4V21.75H5542.8V21.75H5555.2V21.75H5567.6V21.75H5580V21.75H5592.4V21.75H5604.8V21.75H5617.2V21.75H5629.6V21.75H5642V21.75H5654.4V21.75H5666.8V21.75H5679.2V21.75H5691.6V21.75H5704V21.75H5716.4V21.75H5728.8V21.75H5741.2V21.75H5753.6V21.75H5766V21.75H5778.4V21.75H5790.8V21.75H5803.2V21.75H5815.6V21.75H5828V21.75H5840.4V21.75H5852.8V21.75H5865.2V21.75H5877.6V21.75H5890V21.75H5902.4V21.75H5914.8V21.75H5927.2V21.75H5939.6V21.75H5952V21.75H5964.4V21.75H5976.8V21.75H5989.2V21.75H6001.6V21.75H6014V21.75H6026.4V21.75H6038.8V21.75H6051.2V21.75H6063.6V21.75H6076V21.75H6088.4V21.75H6100.8V21.75H6113.2V21.75H6125.6V21.75H6138V21.75H6150.4V21.75H6162.8V21.75H6175.2V21.75H6187.6V21.75H6200V21.75" class="js-line" style="vector-effect:non-scaling-stroke;fill:none;stroke:#336a2d;stroke-opacity:1;stroke-width:2px;opacity:1;stroke-dasharray:3px,3px"/></g></g></g></g><path d="M0,0" class="xlines-above crisp" style="fill:none"/><path d="M0,0" class="ylines-above crisp" style="fill:none"/><g class="xaxislayer-above"><g class="xtick"><text x="0" y="473" text-anchor="middle" transform="translate(60,0)" style="font-family:'Open Sans',verdana,arial,sans-serif;font-size:12px;fill:#444;fill-opacity:1;white-space:pre;opacity:1">0</text></g><g class="xtick"><text x="0" y="473" text-anchor="middle" transform="translate(184,0)" style="font-family:'Open Sans',verdana,arial,sans-serif;font-size:12px;fill:#444;fill-opacity:1;white-space:pre;opacity:1">10</text></g><g class="xtick"><text x="0" y="473" text-anchor="middle" transform="translate(308,0)" style="font-family:'Open Sans',verdana,arial,sans-serif;font-size:12px;fill:#444;fill-opacity:1;white-space:pre;opacity:1">20</text></g></g><g class="yaxislayer-above"><g class="ytick"><text x="59" y="4.2" text-anchor="end" transform="translate(0,438.25)" style="font-family:'Open Sans',verdana,arial,sans-serif;font-size:12px;fill:#444;fill-opacity:1;white-space:pre;opacity:1">0</text></g><g class="ytick"><text x="59" y="4.2" text-anchor="end" transform="translate(0,381)" style="font-family:'Open Sans',verdana,arial,sans-serif;font-size:12px;fill:#444;fill-opacity:1;white-space:pre;opacity:1">10</text></g><g class="ytick"><text x="59" y="4.2" text-anchor="end" transform="translate(0,323.76)" style="font-family:'Open Sans',verdana,arial,sans-serif;font-size:12px;fill:#444;fill-opacity:1;white-space:pre;opacity:1">20</text></g><g class="ytick"><text x="59" y="4.2" text-anchor="end" transform="translate(0,266.51)" style="font-family:'Open Sans',verdana,arial,sans-serif;font-size:12px;fill:#444;fill-opacity:1;white-space:pre;opacity:1">30</text></g><g class="ytick"><text x="59" y="4.2" text-anchor="end" transform="translate(0,209.27)" style="font-family:'Open Sans',verdana,arial,sans-serif;font-size:12px;fill:#444;fill-opacity:1;white-space:pre;opacity:1">40</text></g><g class="ytick"><text x="59" y="4.2" text-anchor="end" transform="translate(0,152.01999999999998)" style="font-family:'Open Sans',verdana,arial,sans-serif;font-size:12px;fill:#444;fill-opacity:1;white-space:pre;opacity:1">50</text></g><g class="ytick"><text x="59" y="4.2" text-anchor="end" transform="translate(0,94.78)" style="font-family:'Open Sans',verdana,arial,sans-serif;font-size:12px;fill:#444;fill-opacity:1;white-space:pre;opacity:1">60</text></g><g class="ytick"><text x="59" y="4.2" text-anchor="end" transform="translate(0,37.53)" style="font-family:'Open Sans',verdana,arial,sans-serif;font-size:12px;fill:#444;fill-opacity:1;white-space:pre;opacity:1">70</text></g></g></g></g><defs id="topdefs-fcdea7"><clipPath id="legendfcdea7"><rect width="314" height="198" x="0" y="0"/></clipPath></defs><g class="infolayer"><g class="legend" pointer-events="all" transform="translate(376.2,143.5)"><rect style="stroke:#444;stroke-opacity:1;fill:#fff;fill-opacity:1;stroke-width:0" width="314" height="198" x="0" y="0" class="bg" shape-rendering="crispEdges"/><g class="scrollbox" clip-path="url(#legendfcdea7)"><g class="groups"><g class="traces" transform="translate(0,14.5)" style="opacity:1"><text x="40" y="4.68" class="legendtext" text-anchor="start" style="font-family:'Open Sans',verdana,arial,sans-serif;font-size:12px;fill:#444;fill-opacity:1;white-space:pre">Original MS2 results (ISDB)</text><g class="layers" style="opacity:1"><g class="legendlines"><path d="M5,0h30" class="js-line" style="fill:none;stroke:#d71d62;stroke-opacity:1;stroke-width:2px"/></g></g><rect width="308.797" height="19" x="0" y="-9.5" class="legendtoggle" style="fill:#000;fill-opacity:0"/></g><g class="traces" transform="translate(0,41.1)" style="opacity:1"><text x="40" y="-3.12" class="legendtext" text-anchor="start" style="font-family:'Open Sans',verdana,arial,sans-serif;font-size:12px;fill:#444;fill-opacity:1;white-space:pre"><tspan x="40" y="-3.12" class="line" dy="0em">Original MS2 results (ISDB) +</tspan><tspan x="40" y="-3.12" class="line" dy="1.3em"> Taxonomic weighting (LOTUS)</tspan></text><g class="layers" style="opacity:1"><g class="legendlines"><path d="M5,0h30" class="js-line" style="fill:none;stroke:#08589b;stroke-opacity:1;stroke-width:2px"/></g></g><rect width="308.797" height="34.2" x="0" y="-17.1" class="legendtoggle" style="fill:#000;fill-opacity:0"/></g><g class="traces" transform="translate(0,75.30000000000001)" style="opacity:1"><text x="40" y="-3.12" class="legendtext" text-anchor="start" style="font-family:'Open Sans',verdana,arial,sans-serif;font-size:12px;fill:#444;fill-opacity:1;white-space:pre"><tspan x="40" y="-3.12" class="line" dy="0em">Original MS2 results (ISDB) +</tspan><tspan x="40" y="-3.12" class="line" dy="1.3em"> Taxonomic weighting (LOTUS and closed)</tspan></text><g class="layers" style="opacity:1"><g class="legendlines"><path d="M5,0h30" class="js-line" style="fill:none;stroke:#08589b;stroke-opacity:1;stroke-dasharray:3px,3px;stroke-width:2px"/></g></g><rect width="308.797" height="34.2" x="0" y="-17.1" class="legendtoggle" style="fill:#000;fill-opacity:0"/></g><g class="traces" transform="translate(0,117.30000000000001)" style="opacity:1"><text x="40" y="-10.92" class="legendtext" text-anchor="start" style="font-family:'Open Sans',verdana,arial,sans-serif;font-size:12px;fill:#444;fill-opacity:1;white-space:pre"><tspan x="40" y="-10.92" class="line" dy="0em">Original MS2 results (ISDB) +</tspan><tspan x="40" y="-10.92" class="line" dy="1.3em"> Library MS1 match (LOTUS) +</tspan><tspan x="40" y="-10.92" class="line" dy="2.6em"> Taxonomic weighting</tspan></text><g class="layers" style="opacity:1"><g class="legendlines"><path d="M5,0h30" class="js-line" style="fill:none;stroke:#336a2d;stroke-opacity:1;stroke-width:2px"/></g></g><rect width="308.797" height="49.8" x="0" y="-24.9" class="legendtoggle" style="fill:#000;fill-opacity:0"/></g><g class="traces" transform="translate(0,167.10000000000002)" style="opacity:1"><text x="40" y="-10.92" class="legendtext" text-anchor="start" style="font-family:'Open Sans',verdana,arial,sans-serif;font-size:12px;fill:#444;fill-opacity:1;white-space:pre"><tspan x="40" y="-10.92" class="line" dy="0em">Original MS2 results (ISDB) +</tspan><tspan x="40" y="-10.92" class="line" dy="1.3em"> Library MS1 match (LOTUS and closed) +</tspan><tspan x="40" y="-10.92" class="line" dy="2.6em"> Taxonomic weighting</tspan></text><g class="layers" style="opacity:1"><g class="legendlines"><path d="M5,0h30" class="js-line" style="fill:none;stroke:#336a2d;stroke-opacity:1;stroke-dasharray:3px,3px;stroke-width:2px"/></g></g><rect width="308.797" height="49.8" x="0" y="-24.9" class="legendtoggle" style="fill:#000;fill-opacity:0"/></g></g></g><rect width="0" height="0" x="0" y="0" class="scrollbar" rx="20" ry="3" style="fill:#808ba4;fill-opacity:1"/></g><g class="g-gtitle"><text x="350" y="12.5" class="gtitle" dy="0em" text-anchor="middle" style="font-family:'Open Sans',verdana,arial,sans-serif;font-size:17px;fill:#444;opacity:1;font-weight:400;white-space:pre"><tspan x="350" y="12.5" class="line" dy="1.3em"><tspan style="font-weight:700">Benchmark performed on 22,388 features</tspan></tspan></text></g><g class="g-xtitle"><text x="215" y="512" class="xtitle" text-anchor="middle" transform="translate(0,-15)" style="font-family:'Open Sans',verdana,arial,sans-serif;font-size:14px;fill:#444;opacity:1;font-weight:400;white-space:pre"><tspan style="font-weight:700">Rank</tspan></text></g><g class="g-ytitle"><text x="22" y="242.5" class="ytitle" text-anchor="middle" transform="rotate(-90,22,242.5)" style="font-family:'Open Sans',verdana,arial,sans-serif;font-size:14px;fill:#444;opacity:1;font-weight:400;white-space:pre"><tspan style="font-weight:700">Correct short IK annotations [%]</tspan></text></g></g></svg>