<svg class="main-svg" xmlns="http://www.w3.org/2000/svg" xmlns:xlink="http://www.w3.org/1999/xlink" width="700" height="500" style="" viewBox="0 0 700 500"><rect x="0" y="0" width="700" height="500" style="fill: rgb(255, 255, 255); fill-opacity: 1;"/><defs id="defs-c6b345"><g class="clips"><clipPath id="clipc6b345xyplot" class="plotclip"><rect width="322" height="435"/></clipPath><clipPath class="axesclip" id="clipc6b345x"><rect x="60" y="0" width="322" height="500"/></clipPath><clipPath class="axesclip" id="clipc6b345y"><rect x="0" y="25" width="700" height="435"/></clipPath><clipPath class="axesclip" id="clipc6b345xy"><rect x="60" y="25" width="322" height="435"/></clipPath></g><g class="gradients"/><g class="patterns"/></defs><g class="bglayer"/><g class="layer-below"><g class="imagelayer"/><g class="shapelayer"/></g><g class="cartesianlayer"><g class="subplot xy"><g class="layer-subplot"><g class="shapelayer"/><g class="imagelayer"/></g><g class="gridlayer"><g class="x"/><g class="y"/></g><g class="zerolinelayer"/><path class="xlines-below"/><path class="ylines-below"/><g class="overlines-below"/><g class="xaxislayer-below"/><g class="yaxislayer-below"/><g class="overaxes-below"/><g class="plot" transform="translate(60,25)" clip-path="url(#clipc6b345xyplot)"><g class="scatterlayer mlayer"><g class="trace scatter tracefffeb6" style="stroke-miterlimit: 2; opacity: 1;"><g class="fills"/><g class="errorbars"/><g class="lines"><path class="js-line" d="M0,435H0V402.35H0.65V387.2H1.29V379.09H1.94V373.4H2.58V368.39H3.23V365.15H3.87V362.06H4.52V359.24H5.16V357.13H5.81V354.9H6.45V352.99H7.1V351.33H7.74V350.21H8.39V349.14H9.03V348.02H9.68V347.01H10.32V346.13H10.97V345.21H11.62V344.52H12.26V343.8H12.91V343.04H13.55V342.41H14.2V341.81H14.84V341.14H15.49V340.59H16.13V340.14H16.78V339.46H17.42V338.91H18.07V338.46H18.71V338.07H19.36V337.66H20V337.29H20.65V336.88H21.29V336.33H21.94V335.86H22.59V335.53H23.23V335.16H23.88V334.89H24.52V334.61H25.17V334.16H25.81V333.97H26.46V333.81H27.1V333.54H27.75V333.3H28.39V333.17H29.04V332.93H29.68V332.6H30.33V332.25H30.97V332.11H31.62V331.93H32.26V331.82H32.91V331.68H33.56V331.62H34.2V331.45H34.85V331.25H35.49V331.13H36.14V330.94H36.78V330.76H37.43V330.66H38.07V330.6H38.72V330.51H39.36V330.45H40.01V330.31H40.65V330.27H41.3V330.14H41.94V330.08H42.59V330.04H43.23V329.94H43.88V329.88H44.53V329.8H45.17V329.74H45.82V329.69H46.46V329.61H47.11V329.57H47.75V329.47H48.4V329.41H49.04V329.26H49.69V329.18H50.33V329.14H50.98V329.12H51.62V329.04H52.27V328.98H52.91V328.86H53.56V328.69H54.2V328.53H54.85V328.47H55.49V328.42H56.14V328.38H56.79V328.3H57.43V328.26H58.08V328.2H58.72V328.1H59.37V328.04H60.01V327.97H60.66V327.89H61.3V327.77H61.95V327.73H62.59V327.63H63.24V327.59H63.88V327.54H64.53V327.46H65.17V327.44H65.82V327.42H66.46V327.38H67.11V327.3H67.76V327.3H68.4V327.22H69.05V327.18H69.69V327.12H70.34V327.11H70.98V327.07H71.63V327.07H72.27V327.03H72.92V327.03H73.56V327.01H74.21V326.93H74.85V326.93H75.5V326.91H76.14V326.85H76.79V326.79H77.43V326.77H78.08V326.73H78.73V326.68H79.37V326.6H80.02V326.6H80.66V326.6H81.31V326.54H81.95V326.5H82.6V326.44H83.24V326.4H83.89V326.36H84.53V326.34H85.18V326.28H85.82V326.28H86.47V326.26H87.11V326.25H87.76V326.21H88.4V326.21H89.05V326.21H89.7V326.19H90.34V326.19H90.99V326.15H91.63V326.15H92.28V326.11H92.92V326.07H93.57V326.03H94.21V325.99H94.86V325.97H95.5V325.97H96.15V325.95H96.79V325.91H97.44V325.85H98.08V325.82H98.73V325.8H99.37V325.8H100.02V325.8H100.67V325.74H101.31V325.74H101.96V325.74H102.6V325.72H103.25V325.7H103.89V325.68H104.54V325.62H105.18V325.62H105.83V325.6H106.47V325.58H107.12V325.56H107.76V325.56H108.41V325.54H109.05V325.52H109.7V325.52H110.34V325.48H110.99V325.44H111.64V325.42H112.28V325.4H112.93V325.4H113.57V325.38H114.22V325.37H114.86V325.35H115.51V325.31H116.15V325.31H116.8V325.31H117.44V325.31H118.09V325.27H118.73V325.23H119.38V325.21H120.02V325.19H120.67V325.17H121.31V325.15H121.96V325.09H122.61V325.09H123.25V325.05H123.9V325.05H124.54V325.05H125.19V325.05H125.83V325.05H126.48V325.05H127.12V325.03H127.77V325.01H128.41V324.97H129.06V324.95H129.7V324.95H130.35V324.94H130.99V324.94H131.64V324.92H132.28V324.9H132.93V324.88H133.58V324.88H134.22V324.84H134.87V324.84H135.51V324.84H136.16V324.84H136.8V324.84H137.45V324.84H138.09V324.84H138.74V324.8H139.38V324.78H140.03V324.78H140.67V324.76H141.32V324.72H141.96V324.7H142.61V324.7H143.25V324.7H143.9V324.7H144.55V324.7H145.19V324.7H145.84V324.68H146.48V324.68H147.13V324.68H147.77V324.68H148.42V324.68H149.06V324.68H149.71V324.66H150.35V324.66H151V324.66H151.64V324.62H152.29V324.62H152.93V324.58H153.58V324.58H154.22V324.58H154.87V324.58H155.52V324.58H156.16V324.58H156.81V324.58H157.45V324.58H158.1V324.56H158.74V324.54H159.39V324.54H160.03V324.54H160.68V324.54H161.32V324.51H161.97V324.51H162.61V324.51H163.26V324.51H163.9V324.51H164.55V324.47H165.19V324.45H165.84V324.45H166.48V324.43H167.13V324.43H167.78V324.43H168.42V324.43H169.07V324.41H169.71V324.39H170.36V324.39H171V324.37H171.65V324.37H172.29V324.37H172.94V324.37H173.58V324.37H174.23V324.37H174.87V324.37H175.52V324.37H176.16V324.37H176.81V324.37H177.45V324.37H178.1V324.37H178.75V324.35H179.39V324.35H180.04V324.35H180.68V324.33H181.33V324.33H181.97V324.31H182.62V324.31H183.26V324.31H183.91V324.31H184.55V324.31H185.2V324.31H185.84V324.29H186.49V324.29H187.13V324.29H187.78V324.27H188.42V324.27H189.07V324.23H189.72V324.23H190.36V324.23H191.01V324.23H191.65V324.21H192.3V324.21H192.94V324.19H193.59V324.19H194.23V324.19H194.88V324.17H195.52V324.15H196.17V324.13H196.81V324.13H197.46V324.13H198.1V324.13H198.75V324.13H199.39V324.13H200.04V324.11H200.69V324.11H201.33V324.11H201.98V324.11H202.62V324.11H203.27V324.11H203.91V324.11H204.56V324.09H205.2V324.09H205.85V324.08H206.49V324.08H207.14V324.08H207.78V324.08H208.43V324.08H209.07V324.08H209.72V324.08H210.36V324.08H211.01V324.06H211.66V324.06H212.3V324.06H212.95V324.04H213.59V324.02H214.24V324.02H214.88V324.02H215.53V324.02H216.17V324.02H216.82V324.02H217.46V324.02H218.11V324.02H218.75V324.02H219.4V324.02H220.04V324.02H220.69V324.02H221.33V324.02H221.98V324.02H222.63V324.02H223.27V324.02H223.92V324.02H224.56V324.02H225.21V324H225.85V324H226.5V324H227.14V324H227.79V324H228.43V324H229.08V324H229.72V324H230.37V324H231.01V324H231.66V324H232.3V324H232.95V323.98H233.6V323.98H234.24V323.96H234.89V323.96H235.53V323.96H236.18V323.96H236.82V323.94H237.47V323.94H238.11V323.94H238.76V323.94H239.4V323.92H240.05V323.92H240.69V323.9H241.34V323.9H241.98V323.88H242.63V323.88H243.27V323.88H243.92V323.86H244.57V323.84H245.21V323.84H245.86V323.82H246.5V323.82H247.15V323.82H247.79V323.82H248.44V323.82H249.08V323.82H249.73V323.82H250.37V323.82H251.02V323.82H251.66V323.82H252.31V323.82H252.95V323.82H253.6V323.82H254.24V323.82H254.89V323.82H255.54V323.82H256.18V323.82H256.83V323.82H257.47V323.82H258.12V323.8H258.76V323.8H259.41V323.8H260.05V323.8H260.7V323.8H261.34V323.8H261.99V323.78H262.63V323.76H263.28V323.76H263.92V323.74H264.57V323.74H265.21V323.74H265.86V323.74H266.51V323.74H267.15V323.74H267.8V323.74H268.44V323.74H269.09V323.74H269.73V323.74H270.38V323.74H271.02V323.72H271.67V323.72H272.31V323.72H272.96V323.72H273.6V323.72H274.25V323.72H274.89V323.72H275.54V323.72H276.18V323.72H276.83V323.72H277.47V323.72H278.12V323.72H278.77V323.72H279.41V323.72H280.06V323.7H280.7V323.7H281.35V323.7H281.99V323.7H282.64V323.7H283.28V323.7H283.93V323.7H284.57V323.7H285.22V323.7H285.86V323.7H286.51V323.7H287.15V323.7H287.8V323.66H288.44V323.66H289.09V323.66H289.74V323.66H290.38V323.66H291.03V323.66H291.67V323.65H292.32V323.65H292.96V323.65H293.61V323.65H294.25V323.65H294.9V323.65H295.54V323.65H296.19V323.65H296.83V323.65H297.48V323.65H298.12V323.65H298.77V323.65H299.41V323.65H300.06V323.65H300.71V323.65H301.35V323.65H302V323.65H302.64V323.65H303.29V323.65H303.93V323.65H304.58V323.65H305.22V323.65H305.87V323.65H306.51V323.65H307.16V323.65H307.8V323.65H308.45V323.65H309.09V323.65H309.74V323.65H310.38V323.63H311.03V323.63H311.68V323.63H312.32V323.63H312.97V323.63H313.61V323.63H314.26V323.63H314.9V323.63H315.55V323.63H316.19V323.61H316.84V323.61H317.48V323.61H318.13V323.61H318.77V323.61H319.42V323.61H320.06V323.61H320.71V323.61H321.35V323.61H322V323.61" style="vector-effect: non-scaling-stroke; fill: none; stroke: rgb(215, 29, 98); stroke-opacity: 1; stroke-width: 2px; opacity: 1;"/></g><g class="points"/><g class="text"/></g><g class="trace scatter trace4feba0" style="stroke-miterlimit: 2; opacity: 1;"><g class="fills"/><g class="errorbars"/><g class="lines"><path class="js-line" d="M0,435H0V368.16H0.65V353.48H1.29V348.41H1.94V345.5H2.58V343.14H3.23V341.53H3.87V339.91H4.52V338.48H5.16V337.33H5.81V336.53H6.45V335.53H7.1V335.02H7.74V334.55H8.39V334.06H9.03V333.62H9.68V333.11H10.32V332.64H10.97V332.25H11.62V332.01H12.26V331.8H12.91V331.37H13.55V331.09H14.2V330.84H14.84V330.59H15.49V330.39H16.13V330.27H16.78V330.08H17.42V329.8H18.07V329.59H18.71V329.49H19.36V329.29H20V329.12H20.65V328.98H21.29V328.83H21.94V328.65H22.59V328.57H23.23V328.36H23.88V328.2H24.52V328.18H25.17V328.06H25.81V328H26.46V327.95H27.1V327.79H27.75V327.65H28.39V327.59H29.04V327.54H29.68V327.44H30.33V327.24H30.97V327.16H31.62V327.05H32.26V326.99H32.91V326.99H33.56V326.95H34.2V326.87H34.85V326.79H35.49V326.71H36.14V326.62H36.78V326.54H37.43V326.46H38.07V326.44H38.72V326.42H39.36V326.4H40.01V326.32H40.65V326.3H41.3V326.25H41.94V326.19H42.59V326.17H43.23V326.13H43.88V326.09H44.53V326.03H45.17V325.99H45.82V325.95H46.46V325.91H47.11V325.85H47.75V325.78H48.4V325.78H49.04V325.68H49.69V325.62H50.33V325.6H50.98V325.6H51.62V325.58H52.27V325.56H52.91V325.5H53.56V325.44H54.2V325.44H54.85V325.44H55.49V325.42H56.14V325.42H56.79V325.38H57.43V325.33H58.08V325.29H58.72V325.23H59.37V325.23H60.01V325.21H60.66V325.21H61.3V325.21H61.95V325.19H62.59V325.17H63.24V325.15H63.88V325.11H64.53V325.11H65.17V325.09H65.82V325.09H66.46V325.09H67.11V325.07H67.76V325.07H68.4V325.05H69.05V325.05H69.69V325.03H70.34V325.03H70.98V325.01H71.63V324.99H72.27V324.97H72.92V324.97H73.56V324.97H74.21V324.94H74.85V324.9H75.5V324.9H76.14V324.88H76.79V324.86H77.43V324.86H78.08V324.84H78.73V324.82H79.37V324.8H80.02V324.8H80.66V324.8H81.31V324.78H81.95V324.76H82.6V324.74H83.24V324.7H83.89V324.7H84.53V324.7H85.18V324.7H85.82V324.68H86.47V324.66H87.11V324.66H87.76V324.62H88.4V324.62H89.05V324.62H89.7V324.62H90.34V324.62H90.99V324.58H91.63V324.58H92.28V324.54H92.92V324.54H93.57V324.54H94.21V324.54H94.86V324.54H95.5V324.54H96.15V324.54H96.79V324.52H97.44V324.51H98.08V324.49H98.73V324.47H99.37V324.47H100.02V324.47H100.67V324.45H101.31V324.45H101.96V324.45H102.6V324.45H103.25V324.41H103.89V324.39H104.54V324.37H105.18V324.37H105.83V324.37H106.47V324.37H107.12V324.35H107.76V324.35H108.41V324.35H109.05V324.33H109.7V324.33H110.34V324.29H110.99V324.27H111.64V324.27H112.28V324.25H112.93V324.25H113.57V324.25H114.22V324.25H114.86V324.25H115.51V324.23H116.15V324.23H116.8V324.23H117.44V324.23H118.09V324.23H118.73V324.21H119.38V324.21H120.02V324.21H120.67V324.19H121.31V324.17H121.96V324.15H122.61V324.13H123.25V324.09H123.9V324.09H124.54V324.09H125.19V324.09H125.83V324.09H126.48V324.09H127.12V324.09H127.77V324.09H128.41V324.09H129.06V324.08H129.7V324.08H130.35V324.08H130.99V324.08H131.64V324.06H132.28V324.04H132.93V324.04H133.58V324.04H134.22V324.02H134.87V324.02H135.51V324.02H136.16V324.02H136.8V324H137.45V324H138.09V324H138.74V323.98H139.38V323.98H140.03V323.98H140.67V323.98H141.32V323.98H141.96V323.98H142.61V323.98H143.25V323.98H143.9V323.98H144.55V323.98H145.19V323.98H145.84V323.96H146.48V323.96H147.13V323.96H147.77V323.96H148.42V323.96H149.06V323.94H149.71V323.94H150.35V323.94H151V323.94H151.64V323.94H152.29V323.94H152.93V323.94H153.58V323.94H154.22V323.94H154.87V323.94H155.52V323.94H156.16V323.94H156.81V323.94H157.45V323.94H158.1V323.94H158.74V323.94H159.39V323.94H160.03V323.94H160.68V323.94H161.32V323.94H161.97V323.94H162.61V323.94H163.26V323.94H163.9V323.94H164.55V323.92H165.19V323.88H165.84V323.88H166.48V323.86H167.13V323.86H167.78V323.86H168.42V323.86H169.07V323.86H169.71V323.86H170.36V323.86H171V323.84H171.65V323.84H172.29V323.84H172.94V323.84H173.58V323.84H174.23V323.84H174.87V323.84H175.52V323.84H176.16V323.84H176.81V323.84H177.45V323.84H178.1V323.84H178.75V323.84H179.39V323.84H180.04V323.84H180.68V323.84H181.33V323.84H181.97V323.84H182.62V323.84H183.26V323.84H183.91V323.84H184.55V323.84H185.2V323.84H185.84V323.84H186.49V323.84H187.13V323.84H187.78V323.84H188.42V323.84H189.07V323.8H189.72V323.8H190.36V323.8H191.01V323.8H191.65V323.78H192.3V323.78H192.94V323.78H193.59V323.78H194.23V323.78H194.88V323.78H195.52V323.78H196.17V323.78H196.81V323.78H197.46V323.78H198.1V323.78H198.75V323.78H199.39V323.78H200.04V323.76H200.69V323.76H201.33V323.76H201.98V323.76H202.62V323.76H203.27V323.76H203.91V323.76H204.56V323.76H205.2V323.76H205.85V323.76H206.49V323.76H207.14V323.76H207.78V323.76H208.43V323.76H209.07V323.76H209.72V323.76H210.36V323.76H211.01V323.76H211.66V323.76H212.3V323.76H212.95V323.76H213.59V323.76H214.24V323.76H214.88V323.76H215.53V323.76H216.17V323.76H216.82V323.76H217.46V323.76H218.11V323.74H218.75V323.74H219.4V323.74H220.04V323.74H220.69V323.74H221.33V323.74H221.98V323.74H222.63V323.74H223.27V323.74H223.92V323.74H224.56V323.74H225.21V323.72H225.85V323.72H226.5V323.72H227.14V323.72H227.79V323.72H228.43V323.72H229.08V323.72H229.72V323.72H230.37V323.72H231.01V323.72H231.66V323.72H232.3V323.72H232.95V323.72H233.6V323.72H234.24V323.72H234.89V323.72H235.53V323.72H236.18V323.72H236.82V323.7H237.47V323.7H238.11V323.7H238.76V323.7H239.4V323.7H240.05V323.7H240.69V323.7H241.34V323.7H241.98V323.68H242.63V323.68H243.27V323.68H243.92V323.68H244.57V323.68H245.21V323.68H245.86V323.68H246.5V323.68H247.15V323.68H247.79V323.68H248.44V323.68H249.08V323.68H249.73V323.68H250.37V323.68H251.02V323.68H251.66V323.68H252.31V323.68H252.95V323.68H253.6V323.68H254.24V323.68H254.89V323.68H255.54V323.68H256.18V323.68H256.83V323.68H257.47V323.68H258.12V323.68H258.76V323.68H259.41V323.68H260.05V323.68H260.7V323.68H261.34V323.68H261.99V323.68H262.63V323.68H263.28V323.68H263.92V323.66H264.57V323.66H265.21V323.66H265.86V323.66H266.51V323.66H267.15V323.66H267.8V323.66H268.44V323.66H269.09V323.66H269.73V323.65H270.38V323.65H271.02V323.65H271.67V323.65H272.31V323.65H272.96V323.65H273.6V323.65H274.25V323.65H274.89V323.65H275.54V323.65H276.18V323.65H276.83V323.65H277.47V323.65H278.12V323.65H278.77V323.65H279.41V323.65H280.06V323.63H280.7V323.63H281.35V323.63H281.99V323.63H282.64V323.63H283.28V323.63H283.93V323.63H284.57V323.63H285.22V323.63H285.86V323.63H286.51V323.63H287.15V323.63H287.8V323.63H288.44V323.63H289.09V323.63H289.74V323.63H290.38V323.63H291.03V323.63H291.67V323.63H292.32V323.63H292.96V323.63H293.61V323.63H294.25V323.63H294.9V323.63H295.54V323.63H296.19V323.63H296.83V323.63H297.48V323.63H298.12V323.63H298.77V323.63H299.41V323.63H300.06V323.63H300.71V323.63H301.35V323.63H302V323.63H302.64V323.63H303.29V323.63H303.93V323.63H304.58V323.63H305.22V323.63H305.87V323.63H306.51V323.63H307.16V323.63H307.8V323.63H308.45V323.63H309.09V323.63H309.74V323.63H310.38V323.63H311.03V323.63H311.68V323.63H312.32V323.63H312.97V323.63H313.61V323.63H314.26V323.63H314.9V323.63H315.55V323.63H316.19V323.61H316.84V323.61H317.48V323.61H318.13V323.61H318.77V323.61H319.42V323.61H320.06V323.61H320.71V323.61H321.35V323.61H322V323.61" style="vector-effect: non-scaling-stroke; fill: none; stroke: rgb(8, 88, 155); stroke-opacity: 1; stroke-width: 2px; opacity: 1;"/></g><g class="points"/><g class="text"/></g><g class="trace scatter trace1f95b0" style="stroke-miterlimit: 2; opacity: 1;"><g class="fills"/><g class="errorbars"/><g class="lines"><path class="js-line" d="M0,435H0V362.71H0.65V347.57H1.29V342.82H1.94V340.3H2.58V338.25H3.23V336.84H3.87V335.45H4.52V334.34H5.16V333.54H5.81V332.81H6.45V332.03H7.1V331.58H7.74V331.25H8.39V330.94H9.03V330.57H9.68V330.25H10.32V329.88H10.97V329.55H11.62V329.37H12.26V329.2H12.91V328.92H13.55V328.69H14.2V328.49H14.84V328.36H15.49V328.2H16.13V328.1H16.78V327.97H17.42V327.75H18.07V327.54H18.71V327.5H19.36V327.36H20V327.22H20.65V327.12H21.29V326.99H21.94V326.83H22.59V326.77H23.23V326.6H23.88V326.5H24.52V326.48H25.17V326.38H25.81V326.34H26.46V326.32H27.1V326.23H27.75V326.13H28.39V326.09H29.04V326.03H29.68V325.95H30.33V325.83H30.97V325.76H31.62V325.66H32.26V325.62H32.91V325.62H33.56V325.6H34.2V325.54H34.85V325.48H35.49V325.48H36.14V325.42H36.78V325.38H37.43V325.35H38.07V325.33H38.72V325.31H39.36V325.31H40.01V325.27H40.65V325.25H41.3V325.25H41.94V325.21H42.59V325.21H43.23V325.17H43.88V325.17H44.53V325.13H45.17V325.11H45.82V325.09H46.46V325.07H47.11V325.07H47.75V325.03H48.4V325.03H49.04V324.99H49.69V324.97H50.33V324.95H50.98V324.95H51.62V324.94H52.27V324.92H52.91V324.86H53.56V324.82H54.2V324.82H54.85V324.82H55.49V324.8H56.14V324.8H56.79V324.78H57.43V324.74H58.08V324.7H58.72V324.68H59.37V324.68H60.01V324.68H60.66V324.68H61.3V324.68H61.95V324.68H62.59V324.66H63.24V324.64H63.88V324.62H64.53V324.62H65.17V324.6H65.82V324.6H66.46V324.6H67.11V324.6H67.76V324.6H68.4V324.6H69.05V324.6H69.69V324.58H70.34V324.58H70.98V324.58H71.63V324.58H72.27V324.56H72.92V324.56H73.56V324.56H74.21V324.54H74.85V324.54H75.5V324.54H76.14V324.52H76.79V324.52H77.43V324.52H78.08V324.51H78.73V324.49H79.37V324.47H80.02V324.47H80.66V324.47H81.31V324.47H81.95V324.47H82.6V324.47H83.24V324.45H83.89V324.45H84.53V324.45H85.18V324.45H85.82V324.45H86.47V324.43H87.11V324.43H87.76V324.41H88.4V324.41H89.05V324.41H89.7V324.41H90.34V324.41H90.99V324.39H91.63V324.39H92.28V324.37H92.92V324.37H93.57V324.37H94.21V324.37H94.86V324.37H95.5V324.37H96.15V324.37H96.79V324.35H97.44V324.33H98.08V324.31H98.73V324.29H99.37V324.29H100.02V324.29H100.67V324.27H101.31V324.27H101.96V324.27H102.6V324.27H103.25V324.25H103.89V324.23H104.54V324.21H105.18V324.21H105.83V324.21H106.47V324.21H107.12V324.19H107.76V324.19H108.41V324.19H109.05V324.17H109.7V324.17H110.34V324.15H110.99V324.13H111.64V324.13H112.28V324.11H112.93V324.11H113.57V324.11H114.22V324.11H114.86V324.11H115.51V324.09H116.15V324.09H116.8V324.09H117.44V324.09H118.09V324.09H118.73V324.08H119.38V324.08H120.02V324.08H120.67V324.06H121.31V324.04H121.96V324.02H122.61V324.02H123.25V323.98H123.9V323.98H124.54V323.98H125.19V323.98H125.83V323.98H126.48V323.98H127.12V323.98H127.77V323.98H128.41V323.98H129.06V323.96H129.7V323.96H130.35V323.96H130.99V323.96H131.64V323.94H132.28V323.92H132.93V323.92H133.58V323.92H134.22V323.9H134.87V323.9H135.51V323.9H136.16V323.9H136.8V323.9H137.45V323.9H138.09V323.9H138.74V323.88H139.38V323.88H140.03V323.88H140.67V323.88H141.32V323.88H141.96V323.88H142.61V323.88H143.25V323.88H143.9V323.88H144.55V323.88H145.19V323.88H145.84V323.86H146.48V323.86H147.13V323.86H147.77V323.86H148.42V323.86H149.06V323.86H149.71V323.86H150.35V323.86H151V323.86H151.64V323.86H152.29V323.86H152.93V323.86H153.58V323.86H154.22V323.86H154.87V323.86H155.52V323.86H156.16V323.86H156.81V323.86H157.45V323.86H158.1V323.86H158.74V323.86H159.39V323.86H160.03V323.86H160.68V323.86H161.32V323.86H161.97V323.86H162.61V323.86H163.26V323.86H163.9V323.86H164.55V323.84H165.19V323.84H165.84V323.84H166.48V323.82H167.13V323.82H167.78V323.82H168.42V323.82H169.07V323.82H169.71V323.82H170.36V323.82H171V323.8H171.65V323.8H172.29V323.8H172.94V323.8H173.58V323.8H174.23V323.8H174.87V323.8H175.52V323.8H176.16V323.8H176.81V323.8H177.45V323.8H178.1V323.8H178.75V323.8H179.39V323.8H180.04V323.8H180.68V323.8H181.33V323.8H181.97V323.8H182.62V323.8H183.26V323.8H183.91V323.8H184.55V323.8H185.2V323.8H185.84V323.8H186.49V323.8H187.13V323.8H187.78V323.8H188.42V323.8H189.07V323.76H189.72V323.76H190.36V323.76H191.01V323.76H191.65V323.74H192.3V323.74H192.94V323.74H193.59V323.74H194.23V323.74H194.88V323.74H195.52V323.74H196.17V323.74H196.81V323.74H197.46V323.74H198.1V323.74H198.75V323.74H199.39V323.74H200.04V323.72H200.69V323.72H201.33V323.72H201.98V323.72H202.62V323.72H203.27V323.72H203.91V323.72H204.56V323.72H205.2V323.72H205.85V323.72H206.49V323.72H207.14V323.72H207.78V323.72H208.43V323.72H209.07V323.72H209.72V323.72H210.36V323.72H211.01V323.72H211.66V323.72H212.3V323.72H212.95V323.72H213.59V323.72H214.24V323.72H214.88V323.72H215.53V323.72H216.17V323.72H216.82V323.72H217.46V323.72H218.11V323.72H218.75V323.72H219.4V323.72H220.04V323.72H220.69V323.72H221.33V323.72H221.98V323.72H222.63V323.72H223.27V323.72H223.92V323.72H224.56V323.72H225.21V323.7H225.85V323.7H226.5V323.7H227.14V323.7H227.79V323.7H228.43V323.7H229.08V323.7H229.72V323.7H230.37V323.7H231.01V323.7H231.66V323.7H232.3V323.7H232.95V323.7H233.6V323.7H234.24V323.7H234.89V323.7H235.53V323.7H236.18V323.7H236.82V323.68H237.47V323.68H238.11V323.68H238.76V323.68H239.4V323.68H240.05V323.68H240.69V323.68H241.34V323.68H241.98V323.66H242.63V323.66H243.27V323.66H243.92V323.66H244.57V323.66H245.21V323.66H245.86V323.66H246.5V323.66H247.15V323.66H247.79V323.66H248.44V323.66H249.08V323.66H249.73V323.66H250.37V323.66H251.02V323.66H251.66V323.66H252.31V323.66H252.95V323.66H253.6V323.66H254.24V323.66H254.89V323.66H255.54V323.66H256.18V323.66H256.83V323.66H257.47V323.66H258.12V323.66H258.76V323.66H259.41V323.66H260.05V323.66H260.7V323.66H261.34V323.66H261.99V323.66H262.63V323.66H263.28V323.66H263.92V323.65H264.57V323.65H265.21V323.65H265.86V323.65H266.51V323.65H267.15V323.65H267.8V323.65H268.44V323.65H269.09V323.65H269.73V323.65H270.38V323.65H271.02V323.65H271.67V323.65H272.31V323.65H272.96V323.65H273.6V323.65H274.25V323.65H274.89V323.65H275.54V323.65H276.18V323.65H276.83V323.65H277.47V323.65H278.12V323.65H278.77V323.65H279.41V323.65H280.06V323.63H280.7V323.63H281.35V323.63H281.99V323.63H282.64V323.63H283.28V323.63H283.93V323.63H284.57V323.63H285.22V323.63H285.86V323.63H286.51V323.63H287.15V323.63H287.8V323.63H288.44V323.63H289.09V323.63H289.74V323.63H290.38V323.63H291.03V323.63H291.67V323.63H292.32V323.63H292.96V323.63H293.61V323.63H294.25V323.63H294.9V323.63H295.54V323.63H296.19V323.63H296.83V323.63H297.48V323.63H298.12V323.63H298.77V323.63H299.41V323.63H300.06V323.63H300.71V323.63H301.35V323.63H302V323.63H302.64V323.63H303.29V323.63H303.93V323.63H304.58V323.63H305.22V323.63H305.87V323.63H306.51V323.63H307.16V323.63H307.8V323.63H308.45V323.63H309.09V323.63H309.74V323.63H310.38V323.63H311.03V323.63H311.68V323.63H312.32V323.63H312.97V323.63H313.61V323.63H314.26V323.63H314.9V323.63H315.55V323.63H316.19V323.61H316.84V323.61H317.48V323.61H318.13V323.61H318.77V323.61H319.42V323.61H320.06V323.61H320.71V323.61H321.35V323.61H322V323.61" style="vector-effect: non-scaling-stroke; fill: none; stroke: rgb(8, 88, 155); stroke-opacity: 1; stroke-width: 2px; opacity: 1; stroke-dasharray: 3px, 3px;"/></g><g class="points"/><g class="text"/></g><g class="trace scatter trace01d299" style="stroke-miterlimit: 2; opacity: 1;"><g class="fills"/><g class="errorbars"/><g class="lines"><path class="js-line" d="M0,435H0V325.46H0.65V306.19H1.29V299.31H1.94V295.34H2.58V292.31H3.23V289.9H3.87V288.03H4.52V286.32H5.16V285.31H5.81V284.41H6.45V283.37H7.1V282.67H7.74V282.14H8.39V281.53H9.03V281.01H9.68V280.52H10.32V280.05H10.97V279.6H11.62V279.27H12.26V278.95H12.91V278.37H13.55V278.09H14.2V277.78H14.84V277.57H15.49V277.31H16.13V277.06H16.78V276.88H17.42V276.63H18.07V276.43H18.71V276.3H19.36V276.14H20V276.04H20.65V275.89H21.29V275.63H21.94V275.49H22.59V275.38H23.23V275.12H23.88V274.95H24.52V274.93H25.17V274.83H25.81V274.79H26.46V274.67H27.1V274.54H27.75V274.36H28.39V274.28H29.04V274.16H29.68V274.07H30.33V273.97H30.97V273.85H31.62V273.7H32.26V273.66H32.91V273.66H33.56V273.6H34.2V273.52H34.85V273.48H35.49V273.4H36.14V273.32H36.78V273.3H37.43V273.21H38.07V273.15H38.72V273.09H39.36V273.09H40.01V273.01H40.65V272.95H41.3V272.91H41.94V272.85H42.59V272.78H43.23V272.72H43.88V272.7H44.53V272.64H45.17V272.58H45.82V272.56H46.46V272.56H47.11V272.5H47.75V272.46H48.4V272.41H49.04V272.35H49.69V272.31H50.33V272.27H50.98V272.25H51.62V272.23H52.27V272.19H52.91V272.13H53.56V272.11H54.2V272.11H54.85V272.11H55.49V272.07H56.14V272.07H56.79V272.05H57.43V272.03H58.08V271.94H58.72V271.9H59.37V271.9H60.01V271.9H60.66V271.9H61.3V271.88H61.95V271.82H62.59V271.78H63.24V271.76H63.88V271.74H64.53V271.72H65.17V271.7H65.82V271.68H66.46V271.68H67.11V271.68H67.76V271.68H68.4V271.68H69.05V271.68H69.69V271.66H70.34V271.64H70.98V271.62H71.63V271.6H72.27V271.56H72.92V271.56H73.56V271.56H74.21V271.55H74.85V271.55H75.5V271.55H76.14V271.49H76.79V271.47H77.43V271.45H78.08V271.45H78.73V271.45H79.37V271.41H80.02V271.41H80.66V271.41H81.31V271.39H81.95V271.37H82.6V271.35H83.24V271.31H83.89V271.29H84.53V271.29H85.18V271.29H85.82V271.29H86.47V271.27H87.11V271.27H87.76V271.23H88.4V271.23H89.05V271.21H89.7V271.21H90.34V271.21H90.99V271.17H91.63V271.15H92.28V271.13H92.92V271.13H93.57V271.13H94.21V271.12H94.86V271.12H95.5V271.12H96.15V271.12H96.79V271.12H97.44V271.1H98.08V271.08H98.73V271.08H99.37V271.08H100.02V271.08H100.67V271.06H101.31V271.06H101.96V271.06H102.6V271.06H103.25V271.06H103.89V271.04H104.54V271.02H105.18V271.02H105.83V271.02H106.47V271.02H107.12V271H107.76V271H108.41V271H109.05V270.98H109.7V270.98H110.34V270.96H110.99V270.96H111.64V270.94H112.28V270.92H112.93V270.92H113.57V270.92H114.22V270.92H114.86V270.92H115.51V270.9H116.15V270.9H116.8V270.9H117.44V270.9H118.09V270.88H118.73V270.88H119.38V270.88H120.02V270.86H120.67V270.86H121.31V270.84H121.96V270.84H122.61V270.84H123.25V270.8H123.9V270.8H124.54V270.78H125.19V270.78H125.83V270.78H126.48V270.78H127.12V270.76H127.77V270.76H128.41V270.76H129.06V270.76H129.7V270.76H130.35V270.74H130.99V270.74H131.64V270.74H132.28V270.72H132.93V270.72H133.58V270.72H134.22V270.7H134.87V270.67H135.51V270.67H136.16V270.67H136.8V270.67H137.45V270.67H138.09V270.67H138.74V270.65H139.38V270.65H140.03V270.65H140.67V270.65H141.32V270.65H141.96V270.65H142.61V270.65H143.25V270.65H143.9V270.65H144.55V270.65H145.19V270.65H145.84V270.65H146.48V270.65H147.13V270.65H147.77V270.65H148.42V270.63H149.06V270.63H149.71V270.63H150.35V270.61H151V270.61H151.64V270.61H152.29V270.61H152.93V270.61H153.58V270.61H154.22V270.61H154.87V270.61H155.52V270.61H156.16V270.61H156.81V270.61H157.45V270.61H158.1V270.61H158.74V270.61H159.39V270.61H160.03V270.61H160.68V270.61H161.32V270.61H161.97V270.61H162.61V270.59H163.26V270.59H163.9V270.59H164.55V270.57H165.19V270.55H165.84V270.55H166.48V270.55H167.13V270.55H167.78V270.55H168.42V270.55H169.07V270.55H169.71V270.55H170.36V270.53H171V270.51H171.65V270.51H172.29V270.51H172.94V270.51H173.58V270.51H174.23V270.51H174.87V270.51H175.52V270.51H176.16V270.51H176.81V270.51H177.45V270.51H178.1V270.51H178.75V270.51H179.39V270.51H180.04V270.51H180.68V270.51H181.33V270.51H181.97V270.51H182.62V270.51H183.26V270.51H183.91V270.51H184.55V270.51H185.2V270.51H185.84V270.51H186.49V270.51H187.13V270.51H187.78V270.51H188.42V270.51H189.07V270.51H189.72V270.51H190.36V270.51H191.01V270.51H191.65V270.51H192.3V270.51H192.94V270.51H193.59V270.51H194.23V270.51H194.88V270.51H195.52V270.51H196.17V270.51H196.81V270.51H197.46V270.49H198.1V270.49H198.75V270.49H199.39V270.49H200.04V270.47H200.69V270.47H201.33V270.47H201.98V270.47H202.62V270.45H203.27V270.45H203.91V270.45H204.56V270.45H205.2V270.45H205.85V270.45H206.49V270.45H207.14V270.45H207.78V270.45H208.43V270.45H209.07V270.45H209.72V270.45H210.36V270.45H211.01V270.45H211.66V270.45H212.3V270.45H212.95V270.45H213.59V270.45H214.24V270.45H214.88V270.45H215.53V270.45H216.17V270.45H216.82V270.45H217.46V270.45H218.11V270.43H218.75V270.43H219.4V270.43H220.04V270.43H220.69V270.43H221.33V270.43H221.98V270.43H222.63V270.43H223.27V270.43H223.92V270.43H224.56V270.43H225.21V270.43H225.85V270.43H226.5V270.43H227.14V270.43H227.79V270.43H228.43V270.43H229.08V270.43H229.72V270.43H230.37V270.43H231.01V270.43H231.66V270.43H232.3V270.43H232.95V270.43H233.6V270.43H234.24V270.43H234.89V270.43H235.53V270.43H236.18V270.43H236.82V270.41H237.47V270.41H238.11V270.41H238.76V270.39H239.4V270.39H240.05V270.39H240.69V270.39H241.34V270.39H241.98V270.39H242.63V270.39H243.27V270.39H243.92V270.39H244.57V270.39H245.21V270.39H245.86V270.39H246.5V270.39H247.15V270.39H247.79V270.39H248.44V270.39H249.08V270.39H249.73V270.39H250.37V270.39H251.02V270.39H251.66V270.39H252.31V270.39H252.95V270.39H253.6V270.39H254.24V270.39H254.89V270.39H255.54V270.39H256.18V270.39H256.83V270.39H257.47V270.39H258.12V270.39H258.76V270.39H259.41V270.39H260.05V270.39H260.7V270.39H261.34V270.39H261.99V270.39H262.63V270.39H263.28V270.39H263.92V270.39H264.57V270.39H265.21V270.39H265.86V270.39H266.51V270.39H267.15V270.39H267.8V270.39H268.44V270.39H269.09V270.39H269.73V270.37H270.38V270.37H271.02V270.37H271.67V270.37H272.31V270.37H272.96V270.37H273.6V270.37H274.25V270.37H274.89V270.37H275.54V270.37H276.18V270.37H276.83V270.37H277.47V270.37H278.12V270.37H278.77V270.37H279.41V270.37H280.06V270.35H280.7V270.35H281.35V270.35H281.99V270.35H282.64V270.35H283.28V270.35H283.93V270.35H284.57V270.35H285.22V270.35H285.86V270.35H286.51V270.35H287.15V270.35H287.8V270.35H288.44V270.35H289.09V270.35H289.74V270.35H290.38V270.35H291.03V270.35H291.67V270.35H292.32V270.35H292.96V270.35H293.61V270.35H294.25V270.35H294.9V270.35H295.54V270.35H296.19V270.35H296.83V270.35H297.48V270.35H298.12V270.35H298.77V270.35H299.41V270.35H300.06V270.35H300.71V270.35H301.35V270.35H302V270.35H302.64V270.35H303.29V270.35H303.93V270.35H304.58V270.35H305.22V270.35H305.87V270.35H306.51V270.35H307.16V270.35H307.8V270.35H308.45V270.35H309.09V270.35H309.74V270.35H310.38V270.35H311.03V270.35H311.68V270.35H312.32V270.35H312.97V270.35H313.61V270.35H314.26V270.35H314.9V270.35H315.55V270.35H316.19V270.33H316.84V270.33H317.48V270.33H318.13V270.33H318.77V270.33H319.42V270.33H320.06V270.33H320.71V270.33H321.35V270.33H322V270.33" style="vector-effect: non-scaling-stroke; fill: none; stroke: rgb(51, 106, 45); stroke-opacity: 1; stroke-width: 2px; opacity: 1;"/></g><g class="points"/><g class="text"/></g><g class="trace scatter trace2f4f85" style="stroke-miterlimit: 2; opacity: 1;"><g class="fills"/><g class="errorbars"/><g class="lines"><path class="js-line" d="M0,435H0V313.67H0.65V294.01H1.29V286.66H1.94V282.96H2.58V280.01H3.23V277.74H3.87V276.16H4.52V274.75H5.16V273.66H5.81V272.85H6.45V271.98H7.1V271.29H7.74V270.78H8.39V270.31H9.03V269.86H9.68V269.59H10.32V269.32H10.97V269H11.62V268.73H12.26V268.5H12.91V268.18H13.55V267.77H14.2V267.56H14.84V267.48H15.49V267.34H16.13V267.21H16.78V267.07H17.42V266.79H18.07V266.64H18.71V266.58H19.36V266.44H20V266.34H20.65V266.23H21.29V266.03H21.94V265.93H22.59V265.86H23.23V265.7H23.88V265.6H24.52V265.52H25.17V265.43H25.81V265.33H26.46V265.31H27.1V265.23H27.75V265.15H28.39V265.09H29.04V265.02H29.68V264.96H30.33V264.84H30.97V264.78H31.62V264.68H32.26V264.62H32.91V264.6H33.56V264.57H34.2V264.53H34.85V264.45H35.49V264.45H36.14V264.43H36.78V264.37H37.43V264.31H38.07V264.27H38.72V264.25H39.36V264.25H40.01V264.21H40.65V264.19H41.3V264.19H41.94V264.16H42.59V264.14H43.23V264.1H43.88V264.1H44.53V264.06H45.17V264.02H45.82V264.02H46.46V264.02H47.11V264.02H47.75V264H48.4V263.96H49.04V263.94H49.69V263.9H50.33V263.88H50.98V263.88H51.62V263.88H52.27V263.86H52.91V263.8H53.56V263.8H54.2V263.8H54.85V263.8H55.49V263.78H56.14V263.76H56.79V263.76H57.43V263.73H58.08V263.69H58.72V263.67H59.37V263.65H60.01V263.65H60.66V263.65H61.3V263.65H61.95V263.63H62.59V263.61H63.24V263.61H63.88V263.59H64.53V263.57H65.17V263.55H65.82V263.53H66.46V263.53H67.11V263.53H67.76V263.53H68.4V263.53H69.05V263.53H69.69V263.51H70.34V263.51H70.98V263.51H71.63V263.49H72.27V263.47H72.92V263.47H73.56V263.47H74.21V263.45H74.85V263.45H75.5V263.45H76.14V263.43H76.79V263.43H77.43V263.43H78.08V263.43H78.73V263.43H79.37V263.41H80.02V263.39H80.66V263.39H81.31V263.37H81.95V263.37H82.6V263.35H83.24V263.33H83.89V263.33H84.53V263.33H85.18V263.33H85.82V263.3H86.47V263.28H87.11V263.28H87.76V263.26H88.4V263.26H89.05V263.24H89.7V263.22H90.34V263.22H90.99V263.2H91.63V263.2H92.28V263.16H92.92V263.16H93.57V263.16H94.21V263.16H94.86V263.16H95.5V263.16H96.15V263.16H96.79V263.16H97.44V263.14H98.08V263.14H98.73V263.14H99.37V263.14H100.02V263.14H100.67V263.12H101.31V263.12H101.96V263.12H102.6V263.12H103.25V263.12H103.89V263.1H104.54V263.08H105.18V263.08H105.83V263.06H106.47V263.06H107.12V263.04H107.76V263.04H108.41V263.04H109.05V263H109.7V263H110.34V262.98H110.99V262.98H111.64V262.98H112.28V262.98H112.93V262.98H113.57V262.98H114.22V262.98H114.86V262.98H115.51V262.96H116.15V262.96H116.8V262.96H117.44V262.96H118.09V262.96H118.73V262.96H119.38V262.96H120.02V262.96H120.67V262.96H121.31V262.94H121.96V262.94H122.61V262.94H123.25V262.88H123.9V262.88H124.54V262.88H125.19V262.88H125.83V262.88H126.48V262.88H127.12V262.88H127.77V262.88H128.41V262.88H129.06V262.88H129.7V262.88H130.35V262.87H130.99V262.87H131.64V262.85H132.28V262.83H132.93V262.83H133.58V262.83H134.22V262.83H134.87V262.83H135.51V262.83H136.16V262.83H136.8V262.83H137.45V262.81H138.09V262.81H138.74V262.79H139.38V262.79H140.03V262.79H140.67V262.79H141.32V262.79H141.96V262.79H142.61V262.79H143.25V262.79H143.9V262.79H144.55V262.79H145.19V262.79H145.84V262.79H146.48V262.79H147.13V262.79H147.77V262.79H148.42V262.79H149.06V262.79H149.71V262.79H150.35V262.79H151V262.77H151.64V262.77H152.29V262.77H152.93V262.75H153.58V262.75H154.22V262.75H154.87V262.75H155.52V262.75H156.16V262.75H156.81V262.75H157.45V262.75H158.1V262.75H158.74V262.75H159.39V262.75H160.03V262.75H160.68V262.75H161.32V262.75H161.97V262.75H162.61V262.75H163.26V262.75H163.9V262.75H164.55V262.73H165.19V262.73H165.84V262.73H166.48V262.73H167.13V262.73H167.78V262.73H168.42V262.73H169.07V262.73H169.71V262.71H170.36V262.71H171V262.69H171.65V262.69H172.29V262.69H172.94V262.69H173.58V262.69H174.23V262.69H174.87V262.69H175.52V262.69H176.16V262.69H176.81V262.69H177.45V262.69H178.1V262.69H178.75V262.69H179.39V262.69H180.04V262.67H180.68V262.67H181.33V262.67H181.97V262.67H182.62V262.65H183.26V262.65H183.91V262.65H184.55V262.65H185.2V262.65H185.84V262.65H186.49V262.65H187.13V262.65H187.78V262.65H188.42V262.65H189.07V262.65H189.72V262.65H190.36V262.65H191.01V262.65H191.65V262.65H192.3V262.65H192.94V262.65H193.59V262.65H194.23V262.65H194.88V262.65H195.52V262.65H196.17V262.65H196.81V262.65H197.46V262.65H198.1V262.65H198.75V262.65H199.39V262.65H200.04V262.63H200.69V262.63H201.33V262.63H201.98V262.63H202.62V262.63H203.27V262.63H203.91V262.63H204.56V262.63H205.2V262.63H205.85V262.63H206.49V262.63H207.14V262.63H207.78V262.63H208.43V262.61H209.07V262.61H209.72V262.61H210.36V262.61H211.01V262.59H211.66V262.59H212.3V262.59H212.95V262.59H213.59V262.59H214.24V262.59H214.88V262.59H215.53V262.59H216.17V262.59H216.82V262.59H217.46V262.59H218.11V262.59H218.75V262.59H219.4V262.59H220.04V262.59H220.69V262.59H221.33V262.59H221.98V262.59H222.63V262.59H223.27V262.59H223.92V262.59H224.56V262.59H225.21V262.59H225.85V262.59H226.5V262.59H227.14V262.59H227.79V262.59H228.43V262.59H229.08V262.59H229.72V262.59H230.37V262.59H231.01V262.57H231.66V262.57H232.3V262.57H232.95V262.57H233.6V262.57H234.24V262.57H234.89V262.57H235.53V262.57H236.18V262.57H236.82V262.55H237.47V262.55H238.11V262.55H238.76V262.55H239.4V262.55H240.05V262.55H240.69V262.55H241.34V262.55H241.98V262.55H242.63V262.55H243.27V262.55H243.92V262.55H244.57V262.55H245.21V262.55H245.86V262.55H246.5V262.55H247.15V262.55H247.79V262.55H248.44V262.55H249.08V262.55H249.73V262.55H250.37V262.55H251.02V262.55H251.66V262.55H252.31V262.55H252.95V262.55H253.6V262.55H254.24V262.55H254.89V262.55H255.54V262.55H256.18V262.55H256.83V262.55H257.47V262.55H258.12V262.55H258.76V262.55H259.41V262.55H260.05V262.55H260.7V262.55H261.34V262.55H261.99V262.53H262.63V262.53H263.28V262.53H263.92V262.53H264.57V262.53H265.21V262.53H265.86V262.53H266.51V262.53H267.15V262.53H267.8V262.53H268.44V262.53H269.09V262.53H269.73V262.53H270.38V262.53H271.02V262.53H271.67V262.53H272.31V262.53H272.96V262.53H273.6V262.53H274.25V262.53H274.89V262.53H275.54V262.53H276.18V262.53H276.83V262.53H277.47V262.53H278.12V262.53H278.77V262.53H279.41V262.53H280.06V262.51H280.7V262.51H281.35V262.51H281.99V262.51H282.64V262.51H283.28V262.51H283.93V262.51H284.57V262.51H285.22V262.51H285.86V262.51H286.51V262.51H287.15V262.51H287.8V262.51H288.44V262.51H289.09V262.51H289.74V262.51H290.38V262.51H291.03V262.51H291.67V262.51H292.32V262.51H292.96V262.51H293.61V262.51H294.25V262.51H294.9V262.51H295.54V262.51H296.19V262.51H296.83V262.51H297.48V262.51H298.12V262.51H298.77V262.51H299.41V262.51H300.06V262.51H300.71V262.51H301.35V262.51H302V262.51H302.64V262.51H303.29V262.51H303.93V262.51H304.58V262.51H305.22V262.51H305.87V262.51H306.51V262.51H307.16V262.51H307.8V262.51H308.45V262.51H309.09V262.51H309.74V262.51H310.38V262.51H311.03V262.51H311.68V262.51H312.32V262.51H312.97V262.51H313.61V262.51H314.26V262.51H314.9V262.51H315.55V262.51H316.19V262.49H316.84V262.49H317.48V262.49H318.13V262.49H318.77V262.49H319.42V262.49H320.06V262.49H320.71V262.49H321.35V262.49H322V262.49" style="vector-effect: non-scaling-stroke; fill: none; stroke: rgb(51, 106, 45); stroke-opacity: 1; stroke-width: 2px; opacity: 1; stroke-dasharray: 3px, 3px;"/></g><g class="points"/><g class="text"/></g></g></g><g class="overplot"/><path class="xlines-above crisp" d="M0,0" style="fill: none;"/><path class="ylines-above crisp" d="M0,0" style="fill: none;"/><g class="overlines-above"/><g class="xaxislayer-above"><g class="xtick"><text text-anchor="middle" x="0" y="473" transform="translate(123.88,0)" style="font-family: 'Open Sans', verdana, arial, sans-serif; font-size: 12px; fill: rgb(68, 68, 68); fill-opacity: 1; white-space: pre; opacity: 1;">100</text></g><g class="xtick"><text text-anchor="middle" x="0" y="473" style="font-family: 'Open Sans', verdana, arial, sans-serif; font-size: 12px; fill: rgb(68, 68, 68); fill-opacity: 1; white-space: pre; opacity: 1;" transform="translate(188.41,0)">200</text></g><g class="xtick"><text text-anchor="middle" x="0" y="473" style="font-family: 'Open Sans', verdana, arial, sans-serif; font-size: 12px; fill: rgb(68, 68, 68); fill-opacity: 1; white-space: pre; opacity: 1;" transform="translate(252.94,0)">300</text></g><g class="xtick"><text text-anchor="middle" x="0" y="473" style="font-family: 'Open Sans', verdana, arial, sans-serif; font-size: 12px; fill: rgb(68, 68, 68); fill-opacity: 1; white-space: pre; opacity: 1;" transform="translate(317.47,0)">400</text></g><g class="xtick"><text text-anchor="middle" x="0" y="473" style="font-family: 'Open Sans', verdana, arial, sans-serif; font-size: 12px; fill: rgb(68, 68, 68); fill-opacity: 1; white-space: pre; opacity: 1;" transform="translate(382,0)">500</text></g></g><g class="yaxislayer-above"><g class="ytick"><text text-anchor="end" x="59" y="4.199999999999999" transform="translate(0,460)" style="font-family: 'Open Sans', verdana, arial, sans-serif; font-size: 12px; fill: rgb(68, 68, 68); fill-opacity: 1; white-space: pre; opacity: 1;">0</text></g><g class="ytick"><text text-anchor="end" x="59" y="4.199999999999999" style="font-family: 'Open Sans', verdana, arial, sans-serif; font-size: 12px; fill: rgb(68, 68, 68); fill-opacity: 1; white-space: pre; opacity: 1;" transform="translate(0,373)">20</text></g><g class="ytick"><text text-anchor="end" x="59" y="4.199999999999999" style="font-family: 'Open Sans', verdana, arial, sans-serif; font-size: 12px; fill: rgb(68, 68, 68); fill-opacity: 1; white-space: pre; opacity: 1;" transform="translate(0,286)">40</text></g><g class="ytick"><text text-anchor="end" x="59" y="4.199999999999999" style="font-family: 'Open Sans', verdana, arial, sans-serif; font-size: 12px; fill: rgb(68, 68, 68); fill-opacity: 1; white-space: pre; opacity: 1;" transform="translate(0,199)">60</text></g><g class="ytick"><text text-anchor="end" x="59" y="4.199999999999999" style="font-family: 'Open Sans', verdana, arial, sans-serif; font-size: 12px; fill: rgb(68, 68, 68); fill-opacity: 1; white-space: pre; opacity: 1;" transform="translate(0,112)">80</text></g><g class="ytick"><text text-anchor="end" x="59" y="4.199999999999999" style="font-family: 'Open Sans', verdana, arial, sans-serif; font-size: 12px; fill: rgb(68, 68, 68); fill-opacity: 1; white-space: pre; opacity: 1;" transform="translate(0,25)">100</text></g></g><g class="overaxes-above"/></g></g><g class="polarlayer"/><g class="ternarylayer"/><g class="geolayer"/><g class="funnelarealayer"/><g class="pielayer"/><g class="iciclelayer"/><g class="treemaplayer"/><g class="sunburstlayer"/><g class="glimages"/><defs id="topdefs-c6b345"><g class="clips"/><clipPath id="legendc6b345"><rect width="302" height="105" x="0" y="0"/></clipPath></defs><g class="layer-above"><g class="imagelayer"/><g class="shapelayer"/></g><g class="infolayer"><g class="legend" pointer-events="all" transform="translate(388.44,190)"><rect class="bg" shape-rendering="crispEdges" style="stroke: rgb(68, 68, 68); stroke-opacity: 1; fill: rgb(255, 255, 255); fill-opacity: 1; stroke-width: 0px;" width="302" height="105" x="0" y="0"/><g class="scrollbox" transform="" clip-path="url(#legendc6b345)"><g class="groups"><g class="traces" transform="translate(0,14.5)" style="opacity: 1;"><text class="legendtext" text-anchor="start" x="40" y="4.680000000000001" style="font-family: 'Open Sans', verdana, arial, sans-serif; font-size: 12px; fill: rgb(68, 68, 68); fill-opacity: 1; white-space: pre;">ISDB only</text><g class="layers" style="opacity: 1;"><g class="legendfill"/><g class="legendlines"><path class="js-line" d="M5,0h30" style="fill: none; stroke: rgb(215, 29, 98); stroke-opacity: 1; stroke-width: 2px;"/></g><g class="legendsymbols"><g class="legendpoints"/></g></g><rect class="legendtoggle" x="0" y="-9.5" width="296.328125" height="19" style="fill: rgb(0, 0, 0); fill-opacity: 0;"/></g><g class="traces" transform="translate(0,33.5)" style="opacity: 1;"><text class="legendtext" text-anchor="start" x="40" y="4.680000000000001" style="font-family: 'Open Sans', verdana, arial, sans-serif; font-size: 12px; fill: rgb(68, 68, 68); fill-opacity: 1; white-space: pre;">ISDB + weighting (LOTUS)</text><g class="layers" style="opacity: 1;"><g class="legendfill"/><g class="legendlines"><path class="js-line" d="M5,0h30" style="fill: none; stroke: rgb(8, 88, 155); stroke-opacity: 1; stroke-width: 2px;"/></g><g class="legendsymbols"><g class="legendpoints"/></g></g><rect class="legendtoggle" x="0" y="-9.5" width="296.328125" height="19" style="fill: rgb(0, 0, 0); fill-opacity: 0;"/></g><g class="traces" transform="translate(0,52.5)" style="opacity: 1;"><text class="legendtext" text-anchor="start" x="40" y="4.680000000000001" style="font-family: 'Open Sans', verdana, arial, sans-serif; font-size: 12px; fill: rgb(68, 68, 68); fill-opacity: 1; white-space: pre;">ISDB + weighting (inhouse library)</text><g class="layers" style="opacity: 1;"><g class="legendfill"/><g class="legendlines"><path class="js-line" d="M5,0h30" style="fill: none; stroke: rgb(8, 88, 155); stroke-opacity: 1; stroke-dasharray: 3px, 3px; stroke-width: 2px;"/></g><g class="legendsymbols"><g class="legendpoints"/></g></g><rect class="legendtoggle" x="0" y="-9.5" width="296.328125" height="19" style="fill: rgb(0, 0, 0); fill-opacity: 0;"/></g><g class="traces" transform="translate(0,71.5)" style="opacity: 1;"><text class="legendtext" text-anchor="start" x="40" y="4.680000000000001" style="font-family: 'Open Sans', verdana, arial, sans-serif; font-size: 12px; fill: rgb(68, 68, 68); fill-opacity: 1; white-space: pre;">ISDB + MS1 + weighting (LOTUS)</text><g class="layers" style="opacity: 1;"><g class="legendfill"/><g class="legendlines"><path class="js-line" d="M5,0h30" style="fill: none; stroke: rgb(51, 106, 45); stroke-opacity: 1; stroke-width: 2px;"/></g><g class="legendsymbols"><g class="legendpoints"/></g></g><rect class="legendtoggle" x="0" y="-9.5" width="296.328125" height="19" style="fill: rgb(0, 0, 0); fill-opacity: 0;"/></g><g class="traces" transform="translate(0,90.5)" style="opacity: 1;"><text class="legendtext" text-anchor="start" x="40" y="4.680000000000001" style="font-family: 'Open Sans', verdana, arial, sans-serif; font-size: 12px; fill: rgb(68, 68, 68); fill-opacity: 1; white-space: pre;">ISDB + MS1 + weighting (inhouse library)</text><g class="layers" style="opacity: 1;"><g class="legendfill"/><g class="legendlines"><path class="js-line" d="M5,0h30" style="fill: none; stroke: rgb(51, 106, 45); stroke-opacity: 1; stroke-dasharray: 3px, 3px; stroke-width: 2px;"/></g><g class="legendsymbols"><g class="legendpoints"/></g></g><rect class="legendtoggle" x="0" y="-9.5" width="296.328125" height="19" style="fill: rgb(0, 0, 0); fill-opacity: 0;"/></g></g></g><rect class="scrollbar" rx="20" ry="3" width="0" height="0" style="fill: rgb(128, 139, 164); fill-opacity: 1;" x="0" y="0"/></g><g class="g-gtitle"/><g class="g-xtitle" transform="translate(0,-15)"><text class="xtitle" x="221" y="512" text-anchor="middle" style="font-family: 'Open Sans', verdana, arial, sans-serif; font-size: 14px; fill: rgb(68, 68, 68); opacity: 1; font-weight: normal; white-space: pre;"><tspan style="font-weight:bold"> Rank </tspan></text></g><g class="g-ytitle"><text class="ytitle" transform="rotate(-90,22,242.5)" x="22" y="242.5" text-anchor="middle" style="font-family: 'Open Sans', verdana, arial, sans-serif; font-size: 14px; fill: rgb(68, 68, 68); opacity: 1; font-weight: normal; white-space: pre;"><tspan style="font-weight:bold"> Correct short IK annotations [%] </tspan></text></g></g></svg>