<svg xmlns="http://www.w3.org/2000/svg" xmlns:xlink="http://www.w3.org/1999/xlink" width="936" height="585.333" class="svglite" viewBox="0 0 702 439"><defs><style type="text/css">.svglite line,.svglite polyline,.svglite rect{fill:none;stroke:#000;stroke-linecap:round;stroke-linejoin:round;stroke-miterlimit:10}.svglite text{white-space:pre}</style></defs><rect width="100%" height="100%" style="stroke:none;fill:none"/><defs><clipPath id="cpMC4wMHw3MDIuMDB8MC4wMHw0MzkuMDA="><rect width="702" height="439" x="0" y="0"/></clipPath></defs><defs><clipPath id="cpMzguMTl8NDMxLjc1fDUuNDh8NDA3LjIx"><rect width="393.55" height="401.73" x="38.19" y="5.48"/></clipPath></defs><g clip-path="url(#cpMzguMTl8NDMxLjc1fDUuNDh8NDA3LjIx)"><polyline points="56.08 388.95 56.8 388.95 56.8 360.16 57.51 360.16 57.51 347.34 58.23 347.34 58.23 340.3 58.94 340.3 58.94 335.56 59.66 335.56 59.66 331.08 60.37 331.08 60.37 328.09 61.09 328.09 61.09 325.59 61.81 325.59 61.81 323.41 62.52 323.41 62.52 321.34 63.24 321.34 63.24 319.67 63.95 319.67 63.95 317.8 64.67 317.8 64.67 316.34 65.38 316.34 65.38 315.12 66.1 315.12 66.1 314.25 66.81 314.25 66.81 313.4 67.53 313.4 67.53 312.64 68.25 312.64 68.25 311.77 68.96 311.77 68.96 311.04 69.68 311.04 69.68 310.36 70.39 310.36 70.39 309.64 71.11 309.64 71.11 309.21 71.82 309.21 71.82 308.54 72.54 308.54 72.54 308.06 73.25 308.06 73.25 307.52 73.97 307.52 73.97 306.95 74.69 306.95 74.69 306.51 75.4 306.51 75.4 306.08 76.12 306.08 76.12 305.65 76.83 305.65 76.83 305.29 77.55 305.29 77.55 304.88 78.26 304.88 78.26 304.49 78.98 304.49 78.98 304.14 79.69 304.14 79.69 303.83 80.41 303.83 80.41 303.4 81.13 303.4 81.13 302.98 81.84 302.98 81.84 302.8 82.56 302.8 82.56 302.43 83.27 302.43 83.27 302.12 83.99 302.12 83.99 301.84 84.7 301.84 84.7 301.5 85.42 301.5 85.42 301.29 86.13 301.29 86.13 300.97 86.85 300.97 86.85 300.78 87.57 300.78 87.57 300.66 88.28 300.66 88.28 300.43 89 300.43 89 300.35 89.71 300.35 89.71 300.14 90.43 300.14 90.43 299.87 91.14 299.87 91.14 299.73 91.86 299.73 91.86 299.53 92.57 299.53 92.57 299.32 93.29 299.32 93.29 299.23 94.01 299.23 94.01 299.17 94.72 299.17 94.72 299.05 95.44 299.05 95.44 298.84 96.15 298.84 96.15 298.73 96.87 298.73 96.87 298.59 97.58 298.59 97.58 298.51 98.3 298.51 98.3 298.38 99.01 298.38 99.01 298.28 99.73 298.28 99.73 298.23 100.45 298.23 100.45 298.05 101.16 298.05 101.16 297.97 101.88 297.97 101.88 297.92 102.59 297.92 102.59 297.82 103.31 297.82 103.31 297.77 104.02 297.77 104.02 297.72 104.74 297.72 104.74 297.67 105.45 297.67 105.45 297.64 106.17 297.64 106.17 297.56 106.89 297.56 106.89 297.49 107.6 297.49 107.6 297.41 108.32 297.41 108.32 297.41 109.03 297.41 109.03 297.36 109.75 297.36 109.75 297.33 110.46 297.33 110.46 297.25 111.18 297.25 111.18 297.2 111.89 297.2 111.89 297.1 112.61 297.1 112.61 297.02 113.33 297.02 113.33 296.97 114.04 296.97 114.04 296.87 114.76 296.87 114.76 296.79 115.47 296.79 115.47 296.74 116.19 296.74 116.19 296.66 116.9 296.66 116.9 296.61 117.62 296.61 117.62 296.48 118.33 296.48 118.33 296.44 119.05 296.44 119.05 296.38 119.77 296.38 119.77 296.31 120.48 296.31 120.48 296.21 121.2 296.21 121.2 296.18 121.91 296.18 121.91 296.16 122.63 296.16 122.63 296.13 123.34 296.13 123.34 296.03 124.06 296.03 124.06 296 124.77 296 124.77 295.98 125.49 295.98 125.49 295.8 126.21 295.8 126.21 295.79 126.92 295.79 126.92 295.74 127.64 295.74 127.64 295.69 128.35 295.69 128.35 295.66 129.07 295.66 129.07 295.59 129.78 295.59 129.78 295.57 130.5 295.57 130.5 295.54 131.21 295.54 131.21 295.49 131.93 295.49 131.93 295.43 132.65 295.43 132.65 295.38 133.36 295.38 133.36 295.31 134.08 295.31 134.08 295.29 134.79 295.29 134.79 295.26 135.51 295.26 135.51 295.23 136.22 295.23 136.22 295.2 136.94 295.2 136.94 295.13 137.65 295.13 137.65 295.11 138.37 295.11 138.37 295.1 139.09 295.1 139.09 295.08 139.8 295.08 139.8 295.07 140.52 295.07 140.52 295.07 141.23 295.07 141.23 295.05 141.95 295.05 141.95 294.98 142.66 294.98 142.66 294.97 143.38 294.97 143.38 294.95 144.09 294.95 144.09 294.92 144.81 294.92 144.81 294.9 145.53 294.9 145.53 294.87 146.24 294.87 146.24 294.85 146.96 294.85 146.96 294.84 147.67 294.84 147.67 294.82 148.39 294.82 148.39 294.82 149.1 294.82 149.1 294.77 149.82 294.77 149.82 294.74 150.53 294.74 150.53 294.69 151.25 294.69 151.25 294.64 151.97 294.64 151.97 294.61 152.68 294.61 152.68 294.59 153.4 294.59 153.4 294.51 154.11 294.51 154.11 294.51 154.83 294.51 154.83 294.51 155.54 294.51 155.54 294.47 156.26 294.47 156.26 294.47 156.97 294.47 156.97 294.46 157.69 294.46 157.69 294.44 158.41 294.44 158.41 294.41 159.12 294.41 159.12 294.41 159.84 294.41 159.84 294.39 160.55 294.39 160.55 294.38 161.27 294.38 161.27 294.36 161.98 294.36 161.98 294.36 162.7 294.36 162.7 294.31 163.41 294.31 163.41 294.28 164.13 294.28 164.13 294.28 164.85 294.28 164.85 294.26 165.56 294.26 165.56 294.26 166.28 294.26 166.28 294.15 166.99 294.15 166.99 294.13 167.71 294.13 167.71 294.13 168.42 294.13 168.42 294.13 169.14 294.13 169.14 294.08 169.85 294.08 169.85 294.08 170.57 294.08 170.57 294.08 171.29 294.08 171.29 294.05 172 294.05 172 294.03 172.72 294.03 172.72 294.03 173.43 294.03 173.43 294.03 174.15 294.03 174.15 294.01 174.86 294.01 174.86 294 175.58 294 175.58 294 176.29 294 176.29 293.98 177.01 293.98 177.01 293.98 177.73 293.98 177.73 293.9 178.44 293.9 178.44 293.85 179.16 293.85 179.16 293.85 179.87 293.85 179.87 293.85 180.59 293.85 180.59 293.85 181.3 293.85 181.3 293.85 182.02 293.85 182.02 293.85 182.73 293.85 182.73 293.82 183.45 293.82 183.45 293.82 184.17 293.82 184.17 293.78 184.88 293.78 184.88 293.75 185.6 293.75 185.6 293.75 186.31 293.75 186.31 293.75 187.03 293.75 187.03 293.75 187.74 293.75 187.74 293.74 188.46 293.74 188.46 293.72 189.17 293.72 189.17 293.7 189.89 293.7 189.89 293.67 190.61 293.67 190.61 293.67 191.32 293.67 191.32 293.67 192.04 293.67 192.04 293.62 192.75 293.62 192.75 293.57 193.47 293.57 193.47 293.56 194.18 293.56 194.18 293.56 194.9 293.56 194.9 293.56 195.61 293.56 195.61 293.54 196.33 293.54 196.33 293.49 197.05 293.49 197.05 293.47 197.76 293.47 197.76 293.47 198.48 293.47 198.48 293.46 199.19 293.46 199.19 293.44 199.91 293.44 199.91 293.44 200.62 293.44 200.62 293.44 201.34 293.44 201.34 293.42 202.05 293.42 202.05 293.42 202.77 293.42 202.77 293.39 203.49 293.39 203.49 293.37 204.2 293.37 204.2 293.37 204.92 293.37 204.92 293.36 205.63 293.36 205.63 293.36 206.35 293.36 206.35 293.36 207.06 293.36 207.06 293.34 207.78 293.34 207.78 293.34 208.49 293.34 208.49 293.33 209.21 293.33 209.21 293.33 209.93 293.33 209.93 293.33 210.64 293.33 210.64 293.31 211.36 293.31 211.36 293.28 212.07 293.28 212.07 293.28 212.79 293.28 212.79 293.28 213.5 293.28 213.5 293.28 214.22 293.28 214.22 293.24 214.93 293.24 214.93 293.21 215.65 293.21 215.65 293.21 216.37 293.21 216.37 293.19 217.08 293.19 217.08 293.19 217.8 293.19 217.8 293.19 218.51 293.19 218.51 293.19 219.23 293.19 219.23 293.18 219.94 293.18 219.94 293.18 220.66 293.18 220.66 293.18 221.37 293.18 221.37 293.18 222.09 293.18 222.09 293.18 222.8 293.18 222.8 293.18 223.52 293.18 223.52 293.16 224.24 293.16 224.24 293.16 224.95 293.16 224.95 293.16 225.67 293.16 225.67 293.16 226.38 293.16 226.38 293.16 227.1 293.16 227.1 293.14 227.81 293.14 227.81 293.13 228.53 293.13 228.53 293.13 229.24 293.13 229.24 293.11 229.96 293.11 229.96 293.11 230.68 293.11 230.68 293.11 231.39 293.11 231.39 293.11 232.11 293.11 232.11 293.11 232.82 293.11 232.82 293.1 233.54 293.1 233.54 293.1 234.25 293.1 234.25 293.1 234.97 293.1 234.97 293.08 235.68 293.08 235.68 293.08 236.4 293.08 236.4 293.08 237.12 293.08 237.12 293.08 237.83 293.08 237.83 293.08 238.55 293.08 238.55 293.08 239.26 293.08 239.26 293.03 239.98 293.03 239.98 293.03 240.69 293.03 240.69 293.03 241.41 293.03 241.41 293.01 242.12 293.01 242.12 293.01 242.84 293.01 242.84 293 243.56 293 243.56 292.96 244.27 292.96 244.27 292.96 244.99 292.96 244.99 292.96 245.7 292.96 245.7 292.95 246.42 292.95 246.42 292.95 247.13 292.95 247.13 292.93 247.85 292.93 247.85 292.93 248.56 292.93 248.56 292.9 249.28 292.9 249.28 292.9 250 292.9 250 292.9 250.71 292.9 250.71 292.9 251.43 292.9 251.43 292.9 252.14 292.9 252.14 292.9 252.86 292.9 252.86 292.9 253.57 292.9 253.57 292.9 254.29 292.9 254.29 292.9 255 292.9 255 292.9 255.72 292.9 255.72 292.9 256.44 292.9 256.44 292.9 257.15 292.9 257.15 292.9 257.87 292.9 257.87 292.9 258.58 292.9 258.58 292.87 259.3 292.87 259.3 292.87 260.01 292.87 260.01 292.87 260.73 292.87 260.73 292.87 261.44 292.87 261.44 292.87 262.16 292.87 262.16 292.87 262.88 292.87 262.88 292.87 263.59 292.87 263.59 292.87 264.31 292.87 264.31 292.87 265.02 292.87 265.02 292.87 265.74 292.87 265.74 292.87 266.45 292.87 266.45 292.83 267.17 292.83 267.17 292.83 267.88 292.83 267.88 292.83 268.6 292.83 268.6 292.83 269.32 292.83 269.32 292.83 270.03 292.83 270.03 292.83 270.75 292.83 270.75 292.83 271.46 292.83 271.46 292.83 272.18 292.83 272.18 292.82 272.89 292.82 272.89 292.8 273.61 292.8 273.61 292.78 274.32 292.78 274.32 292.78 275.04 292.78 275.04 292.77 275.76 292.77 275.76 292.75 276.47 292.75 276.47 292.75 277.19 292.75 277.19 292.75 277.9 292.75 277.9 292.75 278.62 292.75 278.62 292.75 279.33 292.75 279.33 292.72 280.05 292.72 280.05 292.7 280.76 292.7 280.76 292.7 281.48 292.7 281.48 292.7 282.2 292.7 282.2 292.7 282.91 292.7 282.91 292.7 283.63 292.7 283.63 292.7 284.34 292.7 284.34 292.7 285.06 292.7 285.06 292.7 285.77 292.7 285.77 292.7 286.49 292.7 286.49 292.7 287.2 292.7 287.2 292.7 287.92 292.7 287.92 292.7 288.64 292.7 288.64 292.7 289.35 292.7 289.35 292.7 290.07 292.7 290.07 292.69 290.78 292.69 290.78 292.69 291.5 292.69 291.5 292.69 292.21 292.69 292.21 292.69 292.93 292.69 292.93 292.65 293.64 292.65 293.64 292.65 294.36 292.65 294.36 292.65 295.08 292.65 295.08 292.65 295.79 292.65 295.79 292.65 296.51 292.65 296.51 292.64 297.22 292.64 297.22 292.64 297.94 292.64 297.94 292.62 298.65 292.62 298.65 292.62 299.37 292.62 299.37 292.62 300.08 292.62 300.08 292.62 300.8 292.62 300.8 292.62 301.52 292.62 301.52 292.62 302.23 292.62 302.23 292.62 302.95 292.62 302.95 292.62 303.66 292.62 303.66 292.62 304.38 292.62 304.38 292.62 305.09 292.62 305.09 292.62 305.81 292.62 305.81 292.62 306.52 292.62 306.52 292.62 307.24 292.62 307.24 292.62 307.96 292.62 307.96 292.6 308.67 292.6 308.67 292.6 309.39 292.6 309.39 292.6 310.1 292.6 310.1 292.6 310.82 292.6 310.82 292.6 311.53 292.6 311.53 292.6 312.25 292.6 312.25 292.59 312.96 292.59 312.96 292.59 313.68 292.59 313.68 292.59 314.4 292.59 314.4 292.59 315.11 292.59 315.11 292.59 315.83 292.59 315.83 292.59 316.54 292.59 316.54 292.59 317.26 292.59 317.26 292.59 317.97 292.59 317.97 292.59 318.69 292.59 318.69 292.57 319.4 292.57 319.4 292.57 320.12 292.57 320.12 292.57 320.84 292.57 320.84 292.55 321.55 292.55 321.55 292.55 322.27 292.55 322.27 292.55 322.98 292.55 322.98 292.55 323.7 292.55 323.7 292.55 324.41 292.55 324.41 292.55 325.13 292.55 325.13 292.55 325.84 292.55 325.84 292.55 326.56 292.55 326.56 292.55 327.28 292.55 327.28 292.54 327.99 292.54 327.99 292.54 328.71 292.54 328.71 292.54 329.42 292.54 329.42 292.54 330.14 292.54 330.14 292.52 330.85 292.52 330.85 292.5 331.57 292.5 331.57 292.5 332.28 292.5 332.28 292.49 333 292.49 333 292.47 333.72 292.47 333.72 292.46 334.43 292.46 334.43 292.46 335.15 292.46 335.15 292.46 335.86 292.46 335.86 292.46 336.58 292.46 336.58 292.46 337.29 292.46 337.29 292.46 338.01 292.46 338.01 292.46 338.72 292.46 338.72 292.44 339.44 292.44 339.44 292.44 340.16 292.44 340.16 292.44 340.87 292.44 340.87 292.44 341.59 292.44 341.59 292.44 342.3 292.44 342.3 292.44 343.02 292.44 343.02 292.44 343.73 292.44 343.73 292.44 344.45 292.44 344.45 292.44 345.16 292.44 345.16 292.44 345.88 292.44 345.88 292.44 346.6 292.44 346.6 292.44 347.31 292.44 347.31 292.44 348.03 292.44 348.03 292.44 348.74 292.44 348.74 292.44 349.46 292.44 349.46 292.44 350.17 292.44 350.17 292.44 350.89 292.44 350.89 292.44 351.6 292.44 351.6 292.44 352.32 292.44 352.32 292.42 353.04 292.42 353.04 292.42 353.75 292.42 353.75 292.41 354.47 292.41 354.47 292.41 355.18 292.41 355.18 292.39 355.9 292.39 355.9 292.39 356.61 292.39 356.61 292.39 357.33 292.39 357.33 292.39 358.04 292.39 358.04 292.39 358.76 292.39 358.76 292.39 359.48 292.39 359.48 292.39 360.19 292.39 360.19 292.39 360.91 292.39 360.91 292.39 361.62 292.39 361.62 292.39 362.34 292.39 362.34 292.39 363.05 292.39 363.05 292.39 363.77 292.39 363.77 292.39 364.48 292.39 364.48 292.37 365.2 292.37 365.2 292.37 365.92 292.37 365.92 292.37 366.63 292.37 366.63 292.37 367.35 292.37 367.35 292.37 368.06 292.37 368.06 292.37 368.78 292.37 368.78 292.37 369.49 292.37 369.49 292.37 370.21 292.37 370.21 292.37 370.92 292.37 370.92 292.37 371.64 292.37 371.64 292.37 372.36 292.37 372.36 292.37 373.07 292.37 373.07 292.36 373.79 292.36 373.79 292.36 374.5 292.36 374.5 292.36 375.22 292.36 375.22 292.36 375.93 292.36 375.93 292.36 376.65 292.36 376.65 292.36 377.36 292.36 377.36 292.36 378.08 292.36 378.08 292.36 378.8 292.36 378.8 292.36 379.51 292.36 379.51 292.36 380.23 292.36 380.23 292.36 380.94 292.36 380.94 292.34 381.66 292.34 381.66 292.34 382.37 292.34 382.37 292.34 383.09 292.34 383.09 292.34 383.8 292.34 383.8 292.32 384.52 292.32 384.52 292.32 385.24 292.32 385.24 292.32 385.95 292.32 385.95 292.32 386.67 292.32 386.67 292.32 387.38 292.32 387.38 292.32 388.1 292.32 388.1 292.32 388.81 292.32 388.81 292.32 389.53 292.32 389.53 292.32 390.24 292.32 390.24 292.32 390.96 292.32 390.96 292.32 391.68 292.32 391.68 292.32 392.39 292.32 392.39 292.32 393.11 292.32 393.11 292.32 393.82 292.32 393.82 292.32 394.54 292.32 394.54 292.32 395.25 292.32 395.25 292.32 395.97 292.32 395.97 292.32 396.68 292.32 396.68 292.32 397.4 292.32 397.4 292.32 398.12 292.32 398.12 292.32 398.83 292.32 398.83 292.32 399.55 292.32 399.55 292.32 400.26 292.32 400.26 292.32 400.98 292.32 400.98 292.32 401.69 292.32 401.69 292.32 402.41 292.32 402.41 292.32 403.12 292.32 403.12 292.32 403.84 292.32 403.84 292.32 404.56 292.32 404.56 292.32 405.27 292.32 405.27 292.32 405.99 292.32 405.99 292.32 406.7 292.32 406.7 292.32 407.42 292.32 407.42 292.32 408.13 292.32 408.13 292.32 408.85 292.32 408.85 292.32 409.56 292.32 409.56 292.32 410.28 292.32 410.28 292.32 411 292.32 411 292.32 411.71 292.32 411.71 292.29 412.43 292.29 412.43 292.29 413.14 292.29 413.14 292.29 413.86 292.29 413.86 292.29" style="stroke-width:1.07;stroke:#a6cee3;stroke-linecap:butt"/><polyline points="56.08 388.95 56.8 388.95 56.8 325.31 57.51 325.31 57.51 313.78 58.23 313.78 58.23 309.71 58.94 309.71 58.94 307.37 59.66 307.37 59.66 305.86 60.37 305.86 60.37 304.57 61.09 304.57 61.09 303.49 61.81 303.49 61.81 302.65 62.52 302.65 62.52 302.02 63.24 302.02 63.24 301.48 63.95 301.48 63.95 301.06 64.67 301.06 64.67 300.56 65.38 300.56 65.38 300.12 66.1 300.12 66.1 299.76 66.81 299.76 66.81 299.53 67.53 299.53 67.53 299.28 68.25 299.28 68.25 299.04 68.96 299.04 68.96 298.87 69.68 298.87 69.68 298.73 70.39 298.73 70.39 298.46 71.11 298.46 71.11 298.2 71.82 298.2 71.82 298.05 72.54 298.05 72.54 297.87 73.25 297.87 73.25 297.76 73.97 297.76 73.97 297.66 74.69 297.66 74.69 297.51 75.4 297.51 75.4 297.38 76.12 297.38 76.12 297.25 76.83 297.25 76.83 297.1 77.55 297.1 77.55 297.02 78.26 297.02 78.26 296.94 78.98 296.94 78.98 296.74 79.69 296.74 79.69 296.62 80.41 296.62 80.41 296.53 81.13 296.53 81.13 296.44 81.84 296.44 81.84 296.41 82.56 296.41 82.56 296.35 83.27 296.35 83.27 296.28 83.99 296.28 83.99 296.23 84.7 296.23 84.7 296.16 85.42 296.16 85.42 296.08 86.13 296.08 86.13 296.05 86.85 296.05 86.85 295.89 87.57 295.89 87.57 295.77 88.28 295.77 88.28 295.71 89 295.71 89 295.62 89.71 295.62 89.71 295.57 90.43 295.57 90.43 295.49 91.14 295.49 91.14 295.44 91.86 295.44 91.86 295.36 92.57 295.36 92.57 295.25 93.29 295.25 93.29 295.15 94.01 295.15 94.01 295.07 94.72 295.07 94.72 295 95.44 295 95.44 294.88 96.15 294.88 96.15 294.85 96.87 294.85 96.87 294.75 97.58 294.75 97.58 294.7 98.3 294.7 98.3 294.61 99.01 294.61 99.01 294.54 99.73 294.54 99.73 294.47 100.45 294.47 100.45 294.42 101.16 294.42 101.16 294.38 101.88 294.38 101.88 294.31 102.59 294.31 102.59 294.26 103.31 294.26 103.31 294.26 104.02 294.26 104.02 294.23 104.74 294.23 104.74 294.23 105.45 294.23 105.45 294.2 106.17 294.2 106.17 294.18 106.89 294.18 106.89 294.15 107.6 294.15 107.6 294.06 108.32 294.06 108.32 294.01 109.03 294.01 109.03 293.98 109.75 293.98 109.75 293.97 110.46 293.97 110.46 293.92 111.18 293.92 111.18 293.92 111.89 293.92 111.89 293.9 112.61 293.9 112.61 293.88 113.33 293.88 113.33 293.83 114.04 293.83 114.04 293.8 114.76 293.8 114.76 293.77 115.47 293.77 115.47 293.75 116.19 293.75 116.19 293.75 116.9 293.75 116.9 293.75 117.62 293.75 117.62 293.75 118.33 293.75 118.33 293.74 119.05 293.74 119.05 293.7 119.77 293.7 119.77 293.7 120.48 293.7 120.48 293.7 121.2 293.7 121.2 293.67 121.91 293.67 121.91 293.65 122.63 293.65 122.63 293.65 123.34 293.65 123.34 293.56 124.06 293.56 124.06 293.54 124.77 293.54 124.77 293.54 125.49 293.54 125.49 293.52 126.21 293.52 126.21 293.49 126.92 293.49 126.92 293.47 127.64 293.47 127.64 293.44 128.35 293.44 128.35 293.42 129.07 293.42 129.07 293.41 129.78 293.41 129.78 293.41 130.5 293.41 130.5 293.41 131.21 293.41 131.21 293.41 131.93 293.41 131.93 293.41 132.65 293.41 132.65 293.39 133.36 293.39 133.36 293.36 134.08 293.36 134.08 293.36 134.79 293.36 134.79 293.33 135.51 293.33 135.51 293.29 136.22 293.29 136.22 293.29 136.94 293.29 136.94 293.29 137.65 293.29 137.65 293.28 138.37 293.28 138.37 293.24 139.09 293.24 139.09 293.21 139.8 293.21 139.8 293.16 140.52 293.16 140.52 293.11 141.23 293.11 141.23 293.11 141.95 293.11 141.95 293.11 142.66 293.11 142.66 293.11 143.38 293.11 143.38 293.1 144.09 293.1 144.09 293.1 144.81 293.1 144.81 293.1 145.53 293.1 145.53 293.1 146.24 293.1 146.24 293.08 146.96 293.08 146.96 293.06 147.67 293.06 147.67 293.06 148.39 293.06 148.39 293.06 149.1 293.06 149.1 293.03 149.82 293.03 149.82 293 150.53 293 150.53 292.98 151.25 292.98 151.25 292.98 151.97 292.98 151.97 292.98 152.68 292.98 152.68 292.96 153.4 292.96 153.4 292.95 154.11 292.95 154.11 292.95 154.83 292.95 154.83 292.93 155.54 292.93 155.54 292.91 156.26 292.91 156.26 292.91 156.97 292.91 156.97 292.91 157.69 292.91 157.69 292.91 158.41 292.91 158.41 292.9 159.12 292.9 159.12 292.9 159.84 292.9 159.84 292.9 160.55 292.9 160.55 292.88 161.27 292.88 161.27 292.88 161.98 292.88 161.98 292.87 162.7 292.87 162.7 292.85 163.41 292.85 163.41 292.85 164.13 292.85 164.13 292.83 164.85 292.83 164.85 292.83 165.56 292.83 165.56 292.83 166.28 292.83 166.28 292.83 166.99 292.83 166.99 292.83 167.71 292.83 167.71 292.83 168.42 292.83 168.42 292.83 169.14 292.83 169.14 292.83 169.85 292.83 169.85 292.83 170.57 292.83 170.57 292.83 171.29 292.83 171.29 292.83 172 292.83 172 292.82 172.72 292.82 172.72 292.82 173.43 292.82 173.43 292.8 174.15 292.8 174.15 292.8 174.86 292.8 174.86 292.8 175.58 292.8 175.58 292.8 176.29 292.8 176.29 292.8 177.01 292.8 177.01 292.8 177.73 292.8 177.73 292.8 178.44 292.8 178.44 292.78 179.16 292.78 179.16 292.78 179.87 292.78 179.87 292.78 180.59 292.78 180.59 292.78 181.3 292.78 181.3 292.77 182.02 292.77 182.02 292.77 182.73 292.77 182.73 292.75 183.45 292.75 183.45 292.75 184.17 292.75 184.17 292.75 184.88 292.75 184.88 292.75 185.6 292.75 185.6 292.75 186.31 292.75 186.31 292.75 187.03 292.75 187.03 292.75 187.74 292.75 187.74 292.75 188.46 292.75 188.46 292.73 189.17 292.73 189.17 292.72 189.89 292.72 189.89 292.72 190.61 292.72 190.61 292.72 191.32 292.72 191.32 292.7 192.04 292.7 192.04 292.7 192.75 292.7 192.75 292.69 193.47 292.69 193.47 292.65 194.18 292.65 194.18 292.65 194.9 292.65 194.9 292.65 195.61 292.65 195.61 292.65 196.33 292.65 196.33 292.65 197.05 292.65 197.05 292.65 197.76 292.65 197.76 292.65 198.48 292.65 198.48 292.65 199.19 292.65 199.19 292.65 199.91 292.65 199.91 292.65 200.62 292.65 200.62 292.65 201.34 292.65 201.34 292.65 202.05 292.65 202.05 292.65 202.77 292.65 202.77 292.65 203.49 292.65 203.49 292.65 204.2 292.65 204.2 292.65 204.92 292.65 204.92 292.65 205.63 292.65 205.63 292.65 206.35 292.65 206.35 292.65 207.06 292.65 207.06 292.65 207.78 292.65 207.78 292.64 208.49 292.64 208.49 292.64 209.21 292.64 209.21 292.64 209.93 292.64 209.93 292.64 210.64 292.64 210.64 292.64 211.36 292.64 211.36 292.62 212.07 292.62 212.07 292.62 212.79 292.62 212.79 292.62 213.5 292.62 213.5 292.62 214.22 292.62 214.22 292.62 214.93 292.62 214.93 292.62 215.65 292.62 215.65 292.62 216.37 292.62 216.37 292.62 217.08 292.62 217.08 292.62 217.8 292.62 217.8 292.62 218.51 292.62 218.51 292.6 219.23 292.6 219.23 292.6 219.94 292.6 219.94 292.6 220.66 292.6 220.66 292.6 221.37 292.6 221.37 292.6 222.09 292.6 222.09 292.6 222.8 292.6 222.8 292.6 223.52 292.6 223.52 292.59 224.24 292.59 224.24 292.59 224.95 292.59 224.95 292.59 225.67 292.59 225.67 292.57 226.38 292.57 226.38 292.57 227.1 292.57 227.1 292.57 227.81 292.57 227.81 292.57 228.53 292.57 228.53 292.57 229.24 292.57 229.24 292.57 229.96 292.57 229.96 292.57 230.68 292.57 230.68 292.57 231.39 292.57 231.39 292.57 232.11 292.57 232.11 292.57 232.82 292.57 232.82 292.57 233.54 292.57 233.54 292.57 234.25 292.57 234.25 292.57 234.97 292.57 234.97 292.57 235.68 292.57 235.68 292.57 236.4 292.57 236.4 292.57 237.12 292.57 237.12 292.57 237.83 292.57 237.83 292.57 238.55 292.57 238.55 292.55 239.26 292.55 239.26 292.55 239.98 292.55 239.98 292.54 240.69 292.54 240.69 292.54 241.41 292.54 241.41 292.52 242.12 292.52 242.12 292.52 242.84 292.52 242.84 292.52 243.56 292.52 243.56 292.52 244.27 292.52 244.27 292.52 244.99 292.52 244.99 292.52 245.7 292.52 245.7 292.52 246.42 292.52 246.42 292.52 247.13 292.52 247.13 292.52 247.85 292.52 247.85 292.52 248.56 292.52 248.56 292.52 249.28 292.52 249.28 292.52 250 292.52 250 292.52 250.71 292.52 250.71 292.52 251.43 292.52 251.43 292.52 252.14 292.52 252.14 292.52 252.86 292.52 252.86 292.52 253.57 292.52 253.57 292.52 254.29 292.52 254.29 292.52 255 292.52 255 292.5 255.72 292.5 255.72 292.5 256.44 292.5 256.44 292.5 257.15 292.5 257.15 292.5 257.87 292.5 257.87 292.5 258.58 292.5 258.58 292.49 259.3 292.49 259.3 292.49 260.01 292.49 260.01 292.49 260.73 292.49 260.73 292.49 261.44 292.49 261.44 292.49 262.16 292.49 262.16 292.49 262.88 292.49 262.88 292.49 263.59 292.49 263.59 292.49 264.31 292.49 264.31 292.49 265.02 292.49 265.02 292.47 265.74 292.47 265.74 292.47 266.45 292.47 266.45 292.47 267.17 292.47 267.17 292.47 267.88 292.47 267.88 292.47 268.6 292.47 268.6 292.47 269.32 292.47 269.32 292.47 270.03 292.47 270.03 292.47 270.75 292.47 270.75 292.47 271.46 292.47 271.46 292.47 272.18 292.47 272.18 292.46 272.89 292.46 272.89 292.46 273.61 292.46 273.61 292.44 274.32 292.44 274.32 292.44 275.04 292.44 275.04 292.44 275.76 292.44 275.76 292.44 276.47 292.44 276.47 292.42 277.19 292.42 277.19 292.42 277.9 292.42 277.9 292.41 278.62 292.41 278.62 292.41 279.33 292.41 279.33 292.41 280.05 292.41 280.05 292.41 280.76 292.41 280.76 292.41 281.48 292.41 281.48 292.41 282.2 292.41 282.2 292.41 282.91 292.41 282.91 292.41 283.63 292.41 283.63 292.41 284.34 292.41 284.34 292.41 285.06 292.41 285.06 292.41 285.77 292.41 285.77 292.41 286.49 292.41 286.49 292.41 287.2 292.41 287.2 292.41 287.92 292.41 287.92 292.41 288.64 292.41 288.64 292.41 289.35 292.41 289.35 292.41 290.07 292.41 290.07 292.41 290.78 292.41 290.78 292.41 291.5 292.41 291.5 292.41 292.21 292.41 292.21 292.41 292.93 292.41 292.93 292.41 293.64 292.41 293.64 292.41 294.36 292.41 294.36 292.41 295.08 292.41 295.08 292.41 295.79 292.41 295.79 292.41 296.51 292.41 296.51 292.41 297.22 292.41 297.22 292.41 297.94 292.41 297.94 292.39 298.65 292.39 298.65 292.39 299.37 292.39 299.37 292.39 300.08 292.39 300.08 292.39 300.8 292.39 300.8 292.37 301.52 292.37 301.52 292.37 302.23 292.37 302.23 292.37 302.95 292.37 302.95 292.37 303.66 292.37 303.66 292.37 304.38 292.37 304.38 292.36 305.09 292.36 305.09 292.36 305.81 292.36 305.81 292.36 306.52 292.36 306.52 292.36 307.24 292.36 307.24 292.36 307.96 292.36 307.96 292.36 308.67 292.36 308.67 292.36 309.39 292.36 309.39 292.36 310.1 292.36 310.1 292.36 310.82 292.36 310.82 292.36 311.53 292.36 311.53 292.36 312.25 292.36 312.25 292.36 312.96 292.36 312.96 292.36 313.68 292.36 313.68 292.36 314.4 292.36 314.4 292.36 315.11 292.36 315.11 292.36 315.83 292.36 315.83 292.36 316.54 292.36 316.54 292.36 317.26 292.36 317.26 292.36 317.97 292.36 317.97 292.36 318.69 292.36 318.69 292.36 319.4 292.36 319.4 292.36 320.12 292.36 320.12 292.36 320.84 292.36 320.84 292.36 321.55 292.36 321.55 292.36 322.27 292.36 322.27 292.36 322.98 292.36 322.98 292.36 323.7 292.36 323.7 292.36 324.41 292.36 324.41 292.36 325.13 292.36 325.13 292.36 325.84 292.36 325.84 292.36 326.56 292.36 326.56 292.36 327.28 292.36 327.28 292.36 327.99 292.36 327.99 292.36 328.71 292.36 328.71 292.36 329.42 292.36 329.42 292.34 330.14 292.34 330.14 292.34 330.85 292.34 330.85 292.34 331.57 292.34 331.57 292.34 332.28 292.34 332.28 292.34 333 292.34 333 292.34 333.72 292.34 333.72 292.34 334.43 292.34 334.43 292.34 335.15 292.34 335.15 292.34 335.86 292.34 335.86 292.34 336.58 292.34 336.58 292.34 337.29 292.34 337.29 292.34 338.01 292.34 338.01 292.34 338.72 292.34 338.72 292.34 339.44 292.34 339.44 292.34 340.16 292.34 340.16 292.34 340.87 292.34 340.87 292.34 341.59 292.34 341.59 292.34 342.3 292.34 342.3 292.34 343.02 292.34 343.02 292.34 343.73 292.34 343.73 292.34 344.45 292.34 344.45 292.34 345.16 292.34 345.16 292.34 345.88 292.34 345.88 292.34 346.6 292.34 346.6 292.34 347.31 292.34 347.31 292.34 348.03 292.34 348.03 292.34 348.74 292.34 348.74 292.34 349.46 292.34 349.46 292.34 350.17 292.34 350.17 292.34 350.89 292.34 350.89 292.34 351.6 292.34 351.6 292.34 352.32 292.34 352.32 292.34 353.04 292.34 353.04 292.34 353.75 292.34 353.75 292.32 354.47 292.32 354.47 292.32 355.18 292.32 355.18 292.32 355.9 292.32 355.9 292.32 356.61 292.32 356.61 292.32 357.33 292.32 357.33 292.31 358.04 292.31 358.04 292.31 358.76 292.31 358.76 292.31 359.48 292.31 359.48 292.31 360.19 292.31 360.19 292.31 360.91 292.31 360.91 292.31 361.62 292.31 361.62 292.31 362.34 292.31 362.34 292.31 363.05 292.31 363.05 292.31 363.77 292.31 363.77 292.29 364.48 292.29 364.48 292.29 365.2 292.29 365.2 292.29 365.92 292.29 365.92 292.29 366.63 292.29 366.63 292.29 367.35 292.29 367.35 292.29 368.06 292.29 368.06 292.29 368.78 292.29 368.78 292.29 369.49 292.29 369.49 292.29 370.21 292.29 370.21 292.29 370.92 292.29 370.92 292.29 371.64 292.29 371.64 292.29 372.36 292.29 372.36 292.29 373.07 292.29 373.07 292.29 373.79 292.29 373.79 292.29 374.5 292.29 374.5 292.29 375.22 292.29 375.22 292.29 375.93 292.29 375.93 292.29 376.65 292.29 376.65 292.29 377.36 292.29 377.36 292.29 378.08 292.29 378.08 292.29 378.8 292.29 378.8 292.29 379.51 292.29 379.51 292.29 380.23 292.29 380.23 292.29 380.94 292.29 380.94 292.29 381.66 292.29 381.66 292.29 382.37 292.29 382.37 292.29 383.09 292.29 383.09 292.29 383.8 292.29 383.8 292.29 384.52 292.29 384.52 292.29 385.24 292.29 385.24 292.29 385.95 292.29 385.95 292.29 386.67 292.29 386.67 292.29 387.38 292.29 387.38 292.29 388.1 292.29 388.1 292.29 388.81 292.29 388.81 292.29 389.53 292.29 389.53 292.29 390.24 292.29 390.24 292.29 390.96 292.29 390.96 292.29 391.68 292.29 391.68 292.29 392.39 292.29 392.39 292.29 393.11 292.29 393.11 292.29 393.82 292.29 393.82 292.29 394.54 292.29 394.54 292.29 395.25 292.29 395.25 292.29 395.97 292.29 395.97 292.29 396.68 292.29 396.68 292.29 397.4 292.29 397.4 292.29 398.12 292.29 398.12 292.29 398.83 292.29 398.83 292.29 399.55 292.29 399.55 292.29 400.26 292.29 400.26 292.29 400.98 292.29 400.98 292.29 401.69 292.29 401.69 292.29 402.41 292.29 402.41 292.29 403.12 292.29 403.12 292.29 403.84 292.29 403.84 292.29 404.56 292.29 404.56 292.29 405.27 292.29 405.27 292.29 405.99 292.29 405.99 292.29 406.7 292.29 406.7 292.29 407.42 292.29 407.42 292.29 408.13 292.29 408.13 292.29 408.85 292.29 408.85 292.29 409.56 292.29 409.56 292.29 410.28 292.29 410.28 292.29 411 292.29 411 292.29 411.71 292.29 411.71 292.29 412.43 292.29 412.43 292.29 413.14 292.29 413.14 292.29 413.86 292.29 413.86 292.29" style="stroke-width:1.07;stroke:#1f78b4;stroke-linecap:butt"/><polyline points="56.08 388.95 56.8 388.95 56.8 271.5 57.51 271.5 57.51 255.67 58.23 255.67 58.23 250.29 58.94 250.29 58.94 247.43 59.66 247.43 59.66 245.35 60.37 245.35 60.37 243.82 61.09 243.82 61.09 242.58 61.81 242.58 61.81 241.62 62.52 241.62 62.52 240.79 63.24 240.79 63.24 240.1 63.95 240.1 63.95 239.57 64.67 239.57 64.67 239.13 65.38 239.13 65.38 238.65 66.1 238.65 66.1 238.28 66.81 238.28 66.81 237.98 67.53 237.98 67.53 237.78 68.25 237.78 68.25 237.47 68.96 237.47 68.96 237.29 69.68 237.29 69.68 237.11 70.39 237.11 70.39 236.95 71.11 236.95 71.11 236.63 71.82 236.63 71.82 236.45 72.54 236.45 72.54 236.32 73.25 236.32 73.25 236.19 73.97 236.19 73.97 236.06 74.69 236.06 74.69 235.9 75.4 235.9 75.4 235.73 76.12 235.73 76.12 235.6 76.83 235.6 76.83 235.45 77.55 235.45 77.55 235.35 78.26 235.35 78.26 235.3 78.98 235.3 78.98 235.12 79.69 235.12 79.69 235.01 80.41 235.01 80.41 234.91 81.13 234.91 81.13 234.78 81.84 234.78 81.84 234.68 82.56 234.68 82.56 234.65 83.27 234.65 83.27 234.62 83.99 234.62 83.99 234.53 84.7 234.53 84.7 234.47 85.42 234.47 85.42 234.42 86.13 234.42 86.13 234.35 86.85 234.35 86.85 234.22 87.57 234.22 87.57 234.19 88.28 234.19 88.28 234.04 89 234.04 89 233.93 89.71 233.93 89.71 233.86 90.43 233.86 90.43 233.81 91.14 233.81 91.14 233.75 91.86 233.75 91.86 233.71 92.57 233.71 92.57 233.63 93.29 233.63 93.29 233.43 94.01 233.43 94.01 233.38 94.72 233.38 94.72 233.38 95.44 233.38 95.44 233.17 96.15 233.17 96.15 233.11 96.87 233.11 96.87 233.02 97.58 233.02 97.58 232.97 98.3 232.97 98.3 232.93 99.01 232.93 99.01 232.91 99.73 232.91 99.73 232.83 100.45 232.83 100.45 232.73 101.16 232.73 101.16 232.68 101.88 232.68 101.88 232.65 102.59 232.65 102.59 232.6 103.31 232.6 103.31 232.51 104.02 232.51 104.02 232.48 104.74 232.48 104.74 232.48 105.45 232.48 105.45 232.47 106.17 232.47 106.17 232.43 106.89 232.43 106.89 232.42 107.6 232.42 107.6 232.37 108.32 232.37 108.32 232.3 109.03 232.3 109.03 232.25 109.75 232.25 109.75 232.2 110.46 232.2 110.46 232.17 111.18 232.17 111.18 232.15 111.89 232.15 111.89 232.12 112.61 232.12 112.61 232.12 113.33 232.12 113.33 232.09 114.04 232.09 114.04 232.06 114.76 232.06 114.76 232.02 115.47 232.02 115.47 232.01 116.19 232.01 116.19 231.99 116.9 231.99 116.9 231.97 117.62 231.97 117.62 231.97 118.33 231.97 118.33 231.97 119.05 231.97 119.05 231.94 119.77 231.94 119.77 231.92 120.48 231.92 120.48 231.92 121.2 231.92 121.2 231.89 121.91 231.89 121.91 231.87 122.63 231.87 122.63 231.87 123.34 231.87 123.34 231.83 124.06 231.83 124.06 231.79 124.77 231.79 124.77 231.76 125.49 231.76 125.49 231.74 126.21 231.74 126.21 231.71 126.92 231.71 126.92 231.69 127.64 231.69 127.64 231.69 128.35 231.69 128.35 231.66 129.07 231.66 129.07 231.63 129.78 231.63 129.78 231.61 130.5 231.61 130.5 231.61 131.21 231.61 131.21 231.61 131.93 231.61 131.93 231.61 132.65 231.61 132.65 231.61 133.36 231.61 133.36 231.61 134.08 231.61 134.08 231.56 134.79 231.56 134.79 231.55 135.51 231.55 135.51 231.55 136.22 231.55 136.22 231.53 136.94 231.53 136.94 231.51 137.65 231.51 137.65 231.5 138.37 231.5 138.37 231.48 139.09 231.48 139.09 231.43 139.8 231.43 139.8 231.42 140.52 231.42 140.52 231.38 141.23 231.38 141.23 231.37 141.95 231.37 141.95 231.35 142.66 231.35 142.66 231.32 143.38 231.32 143.38 231.32 144.09 231.32 144.09 231.32 144.81 231.32 144.81 231.32 145.53 231.32 145.53 231.32 146.24 231.32 146.24 231.3 146.96 231.3 146.96 231.28 147.67 231.28 147.67 231.27 148.39 231.27 148.39 231.27 149.1 231.27 149.1 231.25 149.82 231.25 149.82 231.23 150.53 231.23 150.53 231.2 151.25 231.2 151.25 231.2 151.97 231.2 151.97 231.19 152.68 231.19 152.68 231.19 153.4 231.19 153.4 231.17 154.11 231.17 154.11 231.17 154.83 231.17 154.83 231.15 155.54 231.15 155.54 231.15 156.26 231.15 156.26 231.12 156.97 231.12 156.97 231.12 157.69 231.12 157.69 231.12 158.41 231.12 158.41 231.1 159.12 231.1 159.12 231.1 159.84 231.1 159.84 231.1 160.55 231.1 160.55 231.1 161.27 231.1 161.27 231.1 161.98 231.1 161.98 231.09 162.7 231.09 162.7 231.07 163.41 231.07 163.41 231.05 164.13 231.05 164.13 231.04 164.85 231.04 164.85 231.04 165.56 231.04 165.56 231.04 166.28 231.04 166.28 231.04 166.99 231.04 166.99 231.04 167.71 231.04 167.71 231.04 168.42 231.04 168.42 231.04 169.14 231.04 169.14 231.04 169.85 231.04 169.85 231.04 170.57 231.04 170.57 231.04 171.29 231.04 171.29 231.04 172 231.04 172 231.02 172.72 231.02 172.72 231.02 173.43 231.02 173.43 231.02 174.15 231.02 174.15 231.02 174.86 231.02 174.86 231 175.58 231 175.58 231 176.29 231 176.29 231 177.01 231 177.01 231 177.73 231 177.73 231 178.44 231 178.44 230.99 179.16 230.99 179.16 230.99 179.87 230.99 179.87 230.99 180.59 230.99 180.59 230.99 181.3 230.99 181.3 230.99 182.02 230.99 182.02 230.97 182.73 230.97 182.73 230.97 183.45 230.97 183.45 230.97 184.17 230.97 184.17 230.96 184.88 230.96 184.88 230.96 185.6 230.96 185.6 230.96 186.31 230.96 186.31 230.96 187.03 230.96 187.03 230.96 187.74 230.96 187.74 230.96 188.46 230.96 188.46 230.96 189.17 230.96 189.17 230.92 189.89 230.92 189.89 230.92 190.61 230.92 190.61 230.92 191.32 230.92 191.32 230.91 192.04 230.91 192.04 230.91 192.75 230.91 192.75 230.89 193.47 230.89 193.47 230.87 194.18 230.87 194.18 230.87 194.9 230.87 194.9 230.87 195.61 230.87 195.61 230.86 196.33 230.86 196.33 230.86 197.05 230.86 197.05 230.86 197.76 230.86 197.76 230.86 198.48 230.86 198.48 230.86 199.19 230.86 199.19 230.86 199.91 230.86 199.91 230.86 200.62 230.86 200.62 230.86 201.34 230.86 201.34 230.86 202.05 230.86 202.05 230.86 202.77 230.86 202.77 230.86 203.49 230.86 203.49 230.86 204.2 230.86 204.2 230.86 204.92 230.86 204.92 230.86 205.63 230.86 205.63 230.86 206.35 230.86 206.35 230.86 207.06 230.86 207.06 230.86 207.78 230.86 207.78 230.86 208.49 230.86 208.49 230.84 209.21 230.84 209.21 230.84 209.93 230.84 209.93 230.84 210.64 230.84 210.64 230.84 211.36 230.84 211.36 230.84 212.07 230.84 212.07 230.82 212.79 230.82 212.79 230.82 213.5 230.82 213.5 230.82 214.22 230.82 214.22 230.82 214.93 230.82 214.93 230.82 215.65 230.82 215.65 230.82 216.37 230.82 216.37 230.82 217.08 230.82 217.08 230.82 217.8 230.82 217.8 230.82 218.51 230.82 218.51 230.82 219.23 230.82 219.23 230.82 219.94 230.82 219.94 230.82 220.66 230.82 220.66 230.81 221.37 230.81 221.37 230.81 222.09 230.81 222.09 230.81 222.8 230.81 222.8 230.81 223.52 230.81 223.52 230.79 224.24 230.79 224.24 230.79 224.95 230.79 224.95 230.79 225.67 230.79 225.67 230.79 226.38 230.79 226.38 230.79 227.1 230.79 227.1 230.77 227.81 230.77 227.81 230.77 228.53 230.77 228.53 230.77 229.24 230.77 229.24 230.77 229.96 230.77 229.96 230.77 230.68 230.77 230.68 230.77 231.39 230.77 231.39 230.77 232.11 230.77 232.11 230.77 232.82 230.77 232.82 230.77 233.54 230.77 233.54 230.77 234.25 230.77 234.25 230.77 234.97 230.77 234.97 230.77 235.68 230.77 235.68 230.77 236.4 230.77 236.4 230.77 237.12 230.77 237.12 230.77 237.83 230.77 237.83 230.77 238.55 230.77 238.55 230.77 239.26 230.77 239.26 230.77 239.98 230.77 239.98 230.74 240.69 230.74 240.69 230.74 241.41 230.74 241.41 230.73 242.12 230.73 242.12 230.73 242.84 230.73 242.84 230.73 243.56 230.73 243.56 230.73 244.27 230.73 244.27 230.73 244.99 230.73 244.99 230.73 245.7 230.73 245.7 230.73 246.42 230.73 246.42 230.73 247.13 230.73 247.13 230.73 247.85 230.73 247.85 230.73 248.56 230.73 248.56 230.73 249.28 230.73 249.28 230.73 250 230.73 250 230.73 250.71 230.73 250.71 230.73 251.43 230.73 251.43 230.73 252.14 230.73 252.14 230.73 252.86 230.73 252.86 230.73 253.57 230.73 253.57 230.73 254.29 230.73 254.29 230.73 255 230.73 255 230.73 255.72 230.73 255.72 230.71 256.44 230.71 256.44 230.71 257.15 230.71 257.15 230.71 257.87 230.71 257.87 230.71 258.58 230.71 258.58 230.69 259.3 230.69 259.3 230.69 260.01 230.69 260.01 230.69 260.73 230.69 260.73 230.69 261.44 230.69 261.44 230.69 262.16 230.69 262.16 230.69 262.88 230.69 262.88 230.69 263.59 230.69 263.59 230.69 264.31 230.69 264.31 230.69 265.02 230.69 265.02 230.69 265.74 230.69 265.74 230.68 266.45 230.68 266.45 230.68 267.17 230.68 267.17 230.68 267.88 230.68 267.88 230.68 268.6 230.68 268.6 230.68 269.32 230.68 269.32 230.68 270.03 230.68 270.03 230.68 270.75 230.68 270.75 230.68 271.46 230.68 271.46 230.68 272.18 230.68 272.18 230.66 272.89 230.66 272.89 230.66 273.61 230.66 273.61 230.64 274.32 230.64 274.32 230.64 275.04 230.64 275.04 230.64 275.76 230.64 275.76 230.64 276.47 230.64 276.47 230.64 277.19 230.64 277.19 230.63 277.9 230.63 277.9 230.61 278.62 230.61 278.62 230.61 279.33 230.61 279.33 230.61 280.05 230.61 280.05 230.61 280.76 230.61 280.76 230.61 281.48 230.61 281.48 230.61 282.2 230.61 282.2 230.61 282.91 230.61 282.91 230.61 283.63 230.61 283.63 230.61 284.34 230.61 284.34 230.61 285.06 230.61 285.06 230.61 285.77 230.61 285.77 230.61 286.49 230.61 286.49 230.61 287.2 230.61 287.2 230.61 287.92 230.61 287.92 230.61 288.64 230.61 288.64 230.61 289.35 230.61 289.35 230.61 290.07 230.61 290.07 230.61 290.78 230.61 290.78 230.61 291.5 230.61 291.5 230.61 292.21 230.61 292.21 230.61 292.93 230.61 292.93 230.61 293.64 230.61 293.64 230.61 294.36 230.61 294.36 230.61 295.08 230.61 295.08 230.61 295.79 230.61 295.79 230.61 296.51 230.61 296.51 230.61 297.22 230.61 297.22 230.61 297.94 230.61 297.94 230.59 298.65 230.59 298.65 230.59 299.37 230.59 299.37 230.59 300.08 230.59 300.08 230.59 300.8 230.59 300.8 230.58 301.52 230.58 301.52 230.58 302.23 230.58 302.23 230.58 302.95 230.58 302.95 230.58 303.66 230.58 303.66 230.58 304.38 230.58 304.38 230.58 305.09 230.58 305.09 230.58 305.81 230.58 305.81 230.56 306.52 230.56 306.52 230.56 307.24 230.56 307.24 230.56 307.96 230.56 307.96 230.56 308.67 230.56 308.67 230.56 309.39 230.56 309.39 230.56 310.1 230.56 310.1 230.56 310.82 230.56 310.82 230.56 311.53 230.56 311.53 230.56 312.25 230.56 312.25 230.56 312.96 230.56 312.96 230.56 313.68 230.56 313.68 230.56 314.4 230.56 314.4 230.56 315.11 230.56 315.11 230.56 315.83 230.56 315.83 230.56 316.54 230.56 316.54 230.56 317.26 230.56 317.26 230.56 317.97 230.56 317.97 230.56 318.69 230.56 318.69 230.56 319.4 230.56 319.4 230.56 320.12 230.56 320.12 230.56 320.84 230.56 320.84 230.56 321.55 230.56 321.55 230.56 322.27 230.56 322.27 230.56 322.98 230.56 322.98 230.56 323.7 230.56 323.7 230.56 324.41 230.56 324.41 230.56 325.13 230.56 325.13 230.56 325.84 230.56 325.84 230.56 326.56 230.56 326.56 230.56 327.28 230.56 327.28 230.56 327.99 230.56 327.99 230.56 328.71 230.56 328.71 230.56 329.42 230.56 329.42 230.55 330.14 230.55 330.14 230.55 330.85 230.55 330.85 230.55 331.57 230.55 331.57 230.55 332.28 230.55 332.28 230.55 333 230.55 333 230.55 333.72 230.55 333.72 230.55 334.43 230.55 334.43 230.55 335.15 230.55 335.15 230.55 335.86 230.55 335.86 230.55 336.58 230.55 336.58 230.55 337.29 230.55 337.29 230.55 338.01 230.55 338.01 230.55 338.72 230.55 338.72 230.55 339.44 230.55 339.44 230.55 340.16 230.55 340.16 230.55 340.87 230.55 340.87 230.55 341.59 230.55 341.59 230.55 342.3 230.55 342.3 230.55 343.02 230.55 343.02 230.55 343.73 230.55 343.73 230.55 344.45 230.55 344.45 230.55 345.16 230.55 345.16 230.55 345.88 230.55 345.88 230.55 346.6 230.55 346.6 230.55 347.31 230.55 347.31 230.55 348.03 230.55 348.03 230.55 348.74 230.55 348.74 230.55 349.46 230.55 349.46 230.55 350.17 230.55 350.17 230.55 350.89 230.55 350.89 230.55 351.6 230.55 351.6 230.55 352.32 230.55 352.32 230.55 353.04 230.55 353.04 230.55 353.75 230.55 353.75 230.53 354.47 230.53 354.47 230.53 355.18 230.53 355.18 230.53 355.9 230.53 355.9 230.53 356.61 230.53 356.61 230.53 357.33 230.53 357.33 230.51 358.04 230.51 358.04 230.51 358.76 230.51 358.76 230.51 359.48 230.51 359.48 230.51 360.19 230.51 360.19 230.51 360.91 230.51 360.91 230.51 361.62 230.51 361.62 230.51 362.34 230.51 362.34 230.51 363.05 230.51 363.05 230.51 363.77 230.51 363.77 230.5 364.48 230.5 364.48 230.5 365.2 230.5 365.2 230.5 365.92 230.5 365.92 230.5 366.63 230.5 366.63 230.5 367.35 230.5 367.35 230.5 368.06 230.5 368.06 230.5 368.78 230.5 368.78 230.5 369.49 230.5 369.49 230.5 370.21 230.5 370.21 230.5 370.92 230.5 370.92 230.5 371.64 230.5 371.64 230.5 372.36 230.5 372.36 230.5 373.07 230.5 373.07 230.5 373.79 230.5 373.79 230.5 374.5 230.5 374.5 230.5 375.22 230.5 375.22 230.5 375.93 230.5 375.93 230.5 376.65 230.5 376.65 230.5 377.36 230.5 377.36 230.5 378.08 230.5 378.08 230.5 378.8 230.5 378.8 230.5 379.51 230.5 379.51 230.5 380.23 230.5 380.23 230.5 380.94 230.5 380.94 230.5 381.66 230.5 381.66 230.5 382.37 230.5 382.37 230.5 383.09 230.5 383.09 230.5 383.8 230.5 383.8 230.5 384.52 230.5 384.52 230.5 385.24 230.5 385.24 230.5 385.95 230.5 385.95 230.5 386.67 230.5 386.67 230.5 387.38 230.5 387.38 230.5 388.1 230.5 388.1 230.5 388.81 230.5 388.81 230.5 389.53 230.5 389.53 230.5 390.24 230.5 390.24 230.5 390.96 230.5 390.96 230.5 391.68 230.5 391.68 230.5 392.39 230.5 392.39 230.5 393.11 230.5 393.11 230.5 393.82 230.5 393.82 230.5 394.54 230.5 394.54 230.5 395.25 230.5 395.25 230.5 395.97 230.5 395.97 230.5 396.68 230.5 396.68 230.5 397.4 230.5 397.4 230.5 398.12 230.5 398.12 230.5 398.83 230.5 398.83 230.5 399.55 230.5 399.55 230.5 400.26 230.5 400.26 230.5 400.98 230.5 400.98 230.5 401.69 230.5 401.69 230.5 402.41 230.5 402.41 230.5 403.12 230.5 403.12 230.5 403.84 230.5 403.84 230.5 404.56 230.5 404.56 230.5 405.27 230.5 405.27 230.5 405.99 230.5 405.99 230.5 406.7 230.5 406.7 230.5 407.42 230.5 407.42 230.5 408.13 230.5 408.13 230.5 408.85 230.5 408.85 230.5 409.56 230.5 409.56 230.5 410.28 230.5 410.28 230.5 411 230.5 411 230.5 411.71 230.5 411.71 230.5 412.43 230.5 412.43 230.5 413.14 230.5 413.14 230.5 413.86 230.5 413.86 230.5" style="stroke-width:1.07;stroke:#b2df8a;stroke-linecap:butt"/><polyline points="56.08 388.95 56.8 388.95 56.8 247.09 57.51 247.09 57.51 231.89 58.23 231.89 58.23 227.08 58.94 227.08 58.94 224.67 59.66 224.67 59.66 223.09 60.37 223.09 60.37 222.17 61.09 222.17 61.09 221.57 61.81 221.57 61.81 220.84 62.52 220.84 62.52 220.43 63.24 220.43 63.24 220.11 63.95 220.11 63.95 219.83 64.67 219.83 64.67 219.61 65.38 219.61 65.38 219.4 66.1 219.4 66.1 219.32 66.81 219.32 66.81 219.24 67.53 219.24 67.53 219.17 68.25 219.17 68.25 219.11 68.96 219.11 68.96 219.01 69.68 219.01 69.68 219.01 70.39 219.01 70.39 218.99 71.11 218.99 71.11 218.91 71.82 218.91 71.82 218.89 72.54 218.89 72.54 218.86 73.25 218.86 73.25 218.86 73.97 218.86 73.97 218.84 74.69 218.84 74.69 218.81 75.4 218.81 75.4 218.78 76.12 218.78 76.12 218.74 76.83 218.74 76.83 218.74 77.55 218.74 77.55 218.71 78.26 218.71 78.26 218.68 78.98 218.68 78.98 218.63 79.69 218.63 79.69 218.61 80.41 218.61 80.41 218.61 81.13 218.61 81.13 218.6 81.84 218.6 81.84 218.6 82.56 218.6 82.56 218.6 83.27 218.6 83.27 218.58 83.99 218.58 83.99 218.58 84.7 218.58 84.7 218.56 85.42 218.56 85.42 218.55 86.13 218.55 86.13 218.55 86.85 218.55 86.85 218.5 87.57 218.5 87.57 218.5 88.28 218.5 88.28 218.48 89 218.48 89 218.48 89.71 218.48 89.71 218.45 90.43 218.45 90.43 218.43 91.14 218.43 91.14 218.42 91.86 218.42 91.86 218.42 92.57 218.42 92.57 218.37 93.29 218.37 93.29 218.35 94.01 218.35 94.01 218.35 94.72 218.35 94.72 218.33 95.44 218.33 95.44 218.32 96.15 218.32 96.15 218.3 96.87 218.3 96.87 218.3 97.58 218.3 97.58 218.3 98.3 218.3 98.3 218.28 99.01 218.28 99.01 218.28 99.73 218.28 99.73 218.28 100.45 218.28 100.45 218.28 101.16 218.28 101.16 218.27 101.88 218.27 101.88 218.27 102.59 218.27 102.59 218.25 103.31 218.25 103.31 218.25 104.02 218.25 104.02 218.25 104.74 218.25 104.74 218.25 105.45 218.25 105.45 218.25 106.17 218.25 106.17 218.25 106.89 218.25 106.89 218.25 107.6 218.25 107.6 218.24 108.32 218.24 108.32 218.24 109.03 218.24 109.03 218.22 109.75 218.22 109.75 218.22 110.46 218.22 110.46 218.2 111.18 218.2 111.18 218.2 111.89 218.2 111.89 218.2 112.61 218.2 112.61 218.2 113.33 218.2 113.33 218.19 114.04 218.19 114.04 218.17 114.76 218.17 114.76 218.17 115.47 218.17 115.47 218.15 116.19 218.15 116.19 218.15 116.9 218.15 116.9 218.15 117.62 218.15 117.62 218.15 118.33 218.15 118.33 218.15 119.05 218.15 119.05 218.15 119.77 218.15 119.77 218.15 120.48 218.15 120.48 218.15 121.2 218.15 121.2 218.15 121.91 218.15 121.91 218.15 122.63 218.15 122.63 218.15 123.34 218.15 123.34 218.14 124.06 218.14 124.06 218.14 124.77 218.14 124.77 218.14 125.49 218.14 125.49 218.14 126.21 218.14 126.21 218.14 126.92 218.14 126.92 218.14 127.64 218.14 127.64 218.12 128.35 218.12 128.35 218.12 129.07 218.12 129.07 218.1 129.78 218.1 129.78 218.1 130.5 218.1 130.5 218.1 131.21 218.1 131.21 218.1 131.93 218.1 131.93 218.1 132.65 218.1 132.65 218.1 133.36 218.1 133.36 218.1 134.08 218.1 134.08 218.1 134.79 218.1 134.79 218.1 135.51 218.1 135.51 218.1 136.22 218.1 136.22 218.1 136.94 218.1 136.94 218.1 137.65 218.1 137.65 218.1 138.37 218.1 138.37 218.1 139.09 218.1 139.09 218.09 139.8 218.09 139.8 218.07 140.52 218.07 140.52 218.07 141.23 218.07 141.23 218.07 141.95 218.07 141.95 218.07 142.66 218.07 142.66 218.07 143.38 218.07 143.38 218.07 144.09 218.07 144.09 218.07 144.81 218.07 144.81 218.07 145.53 218.07 145.53 218.07 146.24 218.07 146.24 218.07 146.96 218.07 146.96 218.07 147.67 218.07 147.67 218.07 148.39 218.07 148.39 218.07 149.1 218.07 149.1 218.05 149.82 218.05 149.82 218.05 150.53 218.05 150.53 218.05 151.25 218.05 151.25 218.05 151.97 218.05 151.97 218.05 152.68 218.05 152.68 218.05 153.4 218.05 153.4 218.04 154.11 218.04 154.11 218.04 154.83 218.04 154.83 218.04 155.54 218.04 155.54 218.04 156.26 218.04 156.26 218.04 156.97 218.04 156.97 218.04 157.69 218.04 157.69 218.04 158.41 218.04 158.41 218.04 159.12 218.04 159.12 218.04 159.84 218.04 159.84 218.04 160.55 218.04 160.55 218.04 161.27 218.04 161.27 218.04 161.98 218.04 161.98 218.04 162.7 218.04 162.7 218.02 163.41 218.02 163.41 218.02 164.13 218.02 164.13 218.02 164.85 218.02 164.85 218.02 165.56 218.02 165.56 218.02 166.28 218.02 166.28 218.02 166.99 218.02 166.99 218.02 167.71 218.02 167.71 218.02 168.42 218.02 168.42 218.02 169.14 218.02 169.14 218.02 169.85 218.02 169.85 218.02 170.57 218.02 170.57 218.02 171.29 218.02 171.29 218.02 172 218.02 172 218.01 172.72 218.01 172.72 218.01 173.43 218.01 173.43 218.01 174.15 218.01 174.15 218.01 174.86 218.01 174.86 218.01 175.58 218.01 175.58 218.01 176.29 218.01 176.29 218.01 177.01 218.01 177.01 218.01 177.73 218.01 177.73 218.01 178.44 218.01 178.44 217.99 179.16 217.99 179.16 217.99 179.87 217.99 179.87 217.99 180.59 217.99 180.59 217.99 181.3 217.99 181.3 217.99 182.02 217.99 182.02 217.99 182.73 217.99 182.73 217.99 183.45 217.99 183.45 217.99 184.17 217.99 184.17 217.99 184.88 217.99 184.88 217.99 185.6 217.99 185.6 217.99 186.31 217.99 186.31 217.99 187.03 217.99 187.03 217.99 187.74 217.99 187.74 217.99 188.46 217.99 188.46 217.99 189.17 217.99 189.17 217.97 189.89 217.97 189.89 217.97 190.61 217.97 190.61 217.97 191.32 217.97 191.32 217.97 192.04 217.97 192.04 217.97 192.75 217.97 192.75 217.96 193.47 217.96 193.47 217.96 194.18 217.96 194.18 217.96 194.9 217.96 194.9 217.96 195.61 217.96 195.61 217.96 196.33 217.96 196.33 217.96 197.05 217.96 197.05 217.96 197.76 217.96 197.76 217.96 198.48 217.96 198.48 217.96 199.19 217.96 199.19 217.96 199.91 217.96 199.91 217.96 200.62 217.96 200.62 217.96 201.34 217.96 201.34 217.96 202.05 217.96 202.05 217.96 202.77 217.96 202.77 217.96 203.49 217.96 203.49 217.96 204.2 217.96 204.2 217.96 204.92 217.96 204.92 217.96 205.63 217.96 205.63 217.96 206.35 217.96 206.35 217.96 207.06 217.96 207.06 217.96 207.78 217.96 207.78 217.96 208.49 217.96 208.49 217.96 209.21 217.96 209.21 217.96 209.93 217.96 209.93 217.96 210.64 217.96 210.64 217.96 211.36 217.96 211.36 217.96 212.07 217.96 212.07 217.96 212.79 217.96 212.79 217.96 213.5 217.96 213.5 217.96 214.22 217.96 214.22 217.96 214.93 217.96 214.93 217.96 215.65 217.96 215.65 217.96 216.37 217.96 216.37 217.96 217.08 217.96 217.08 217.96 217.8 217.96 217.8 217.96 218.51 217.96 218.51 217.96 219.23 217.96 219.23 217.96 219.94 217.96 219.94 217.96 220.66 217.96 220.66 217.96 221.37 217.96 221.37 217.96 222.09 217.96 222.09 217.96 222.8 217.96 222.8 217.96 223.52 217.96 223.52 217.94 224.24 217.94 224.24 217.94 224.95 217.94 224.95 217.94 225.67 217.94 225.67 217.94 226.38 217.94 226.38 217.94 227.1 217.94 227.1 217.94 227.81 217.94 227.81 217.94 228.53 217.94 228.53 217.94 229.24 217.94 229.24 217.94 229.96 217.94 229.96 217.94 230.68 217.94 230.68 217.94 231.39 217.94 231.39 217.94 232.11 217.94 232.11 217.94 232.82 217.94 232.82 217.94 233.54 217.94 233.54 217.94 234.25 217.94 234.25 217.94 234.97 217.94 234.97 217.94 235.68 217.94 235.68 217.94 236.4 217.94 236.4 217.94 237.12 217.94 237.12 217.94 237.83 217.94 237.83 217.94 238.55 217.94 238.55 217.94 239.26 217.94 239.26 217.94 239.98 217.94 239.98 217.94 240.69 217.94 240.69 217.94 241.41 217.94 241.41 217.94 242.12 217.94 242.12 217.94 242.84 217.94 242.84 217.94 243.56 217.94 243.56 217.94 244.27 217.94 244.27 217.94 244.99 217.94 244.99 217.94 245.7 217.94 245.7 217.94 246.42 217.94 246.42 217.94 247.13 217.94 247.13 217.94 247.85 217.94 247.85 217.94 248.56 217.94 248.56 217.94 249.28 217.94 249.28 217.94 250 217.94 250 217.94 250.71 217.94 250.71 217.94 251.43 217.94 251.43 217.94 252.14 217.94 252.14 217.94 252.86 217.94 252.86 217.94 253.57 217.94 253.57 217.94 254.29 217.94 254.29 217.94 255 217.94 255 217.94 255.72 217.94 255.72 217.94 256.44 217.94 256.44 217.94 257.15 217.94 257.15 217.94 257.87 217.94 257.87 217.94 258.58 217.94 258.58 217.94 259.3 217.94 259.3 217.94 260.01 217.94 260.01 217.94 260.73 217.94 260.73 217.94 261.44 217.94 261.44 217.94 262.16 217.94 262.16 217.94 262.88 217.94 262.88 217.94 263.59 217.94 263.59 217.94 264.31 217.94 264.31 217.94 265.02 217.94 265.02 217.94 265.74 217.94 265.74 217.94 266.45 217.94 266.45 217.94 267.17 217.94 267.17 217.94 267.88 217.94 267.88 217.94 268.6 217.94 268.6 217.94 269.32 217.94 269.32 217.94 270.03 217.94 270.03 217.94 270.75 217.94 270.75 217.94 271.46 217.94 271.46 217.94 272.18 217.94 272.18 217.94 272.89 217.94 272.89 217.94 273.61 217.94 273.61 217.92 274.32 217.92 274.32 217.92 275.04 217.92 275.04 217.92 275.76 217.92 275.76 217.92 276.47 217.92 276.47 217.92 277.19 217.92 277.19 217.92 277.9 217.92 277.9 217.92 278.62 217.92 278.62 217.92 279.33 217.92 279.33 217.92 280.05 217.92 280.05 217.92 280.76 217.92 280.76 217.92 281.48 217.92 281.48 217.92 282.2 217.92 282.2 217.92 282.91 217.92 282.91 217.92 283.63 217.92 283.63 217.92 284.34 217.92 284.34 217.92 285.06 217.92 285.06 217.92 285.77 217.92 285.77 217.92 286.49 217.92 286.49 217.92 287.2 217.92 287.2 217.92 287.92 217.92 287.92 217.92 288.64 217.92 288.64 217.92 289.35 217.92 289.35 217.92 290.07 217.92 290.07 217.92 290.78 217.92 290.78 217.92 291.5 217.92 291.5 217.92 292.21 217.92 292.21 217.92 292.93 217.92 292.93 217.92 293.64 217.92 293.64 217.92 294.36 217.92 294.36 217.92 295.08 217.92 295.08 217.92 295.79 217.92 295.79 217.92 296.51 217.92 296.51 217.92 297.22 217.92 297.22 217.92 297.94 217.92 297.94 217.92 298.65 217.92 298.65 217.92 299.37 217.92 299.37 217.92 300.08 217.92 300.08 217.92 300.8 217.92 300.8 217.92 301.52 217.92 301.52 217.92 302.23 217.92 302.23 217.92 302.95 217.92 302.95 217.92 303.66 217.92 303.66 217.92 304.38 217.92 304.38 217.92 305.09 217.92 305.09 217.92 305.81 217.92 305.81 217.92 306.52 217.92 306.52 217.92 307.24 217.92 307.24 217.92 307.96 217.92 307.96 217.92 308.67 217.92 308.67 217.92 309.39 217.92 309.39 217.92 310.1 217.92 310.1 217.92 310.82 217.92 310.82 217.92 311.53 217.92 311.53 217.92 312.25 217.92 312.25 217.92 312.96 217.92 312.96 217.92 313.68 217.92 313.68 217.92 314.4 217.92 314.4 217.92 315.11 217.92 315.11 217.92 315.83 217.92 315.83 217.92 316.54 217.92 316.54 217.92 317.26 217.92 317.26 217.92 317.97 217.92 317.97 217.92 318.69 217.92 318.69 217.92 319.4 217.92 319.4 217.92 320.12 217.92 320.12 217.92 320.84 217.92 320.84 217.92 321.55 217.92 321.55 217.92 322.27 217.92 322.27 217.92 322.98 217.92 322.98 217.92 323.7 217.92 323.7 217.92 324.41 217.92 324.41 217.92 325.13 217.92 325.13 217.92 325.84 217.92 325.84 217.92 326.56 217.92 326.56 217.92 327.28 217.92 327.28 217.92 327.99 217.92 327.99 217.92 328.71 217.92 328.71 217.92 329.42 217.92 329.42 217.92 330.14 217.92 330.14 217.92 330.85 217.92 330.85 217.92 331.57 217.92 331.57 217.92 332.28 217.92 332.28 217.92 333 217.92 333 217.92 333.72 217.92 333.72 217.92 334.43 217.92 334.43 217.92 335.15 217.92 335.15 217.92 335.86 217.92 335.86 217.92 336.58 217.92 336.58 217.92 337.29 217.92 337.29 217.92 338.01 217.92 338.01 217.92 338.72 217.92 338.72 217.92 339.44 217.92 339.44 217.92 340.16 217.92 340.16 217.92 340.87 217.92 340.87 217.92 341.59 217.92 341.59 217.92 342.3 217.92 342.3 217.92 343.02 217.92 343.02 217.92 343.73 217.92 343.73 217.92 344.45 217.92 344.45 217.92 345.16 217.92 345.16 217.92 345.88 217.92 345.88 217.92 346.6 217.92 346.6 217.92 347.31 217.92 347.31 217.92 348.03 217.92 348.03 217.92 348.74 217.92 348.74 217.92 349.46 217.92 349.46 217.92 350.17 217.92 350.17 217.92 350.89 217.92 350.89 217.92 351.6 217.92 351.6 217.92 352.32 217.92 352.32 217.92 353.04 217.92 353.04 217.92 353.75 217.92 353.75 217.91 354.47 217.91 354.47 217.91 355.18 217.91 355.18 217.91 355.9 217.91 355.9 217.91 356.61 217.91 356.61 217.91 357.33 217.91 357.33 217.91 358.04 217.91 358.04 217.91 358.76 217.91 358.76 217.91 359.48 217.91 359.48 217.91 360.19 217.91 360.19 217.91 360.91 217.91 360.91 217.91 361.62 217.91 361.62 217.91 362.34 217.91 362.34 217.91 363.05 217.91 363.05 217.91 363.77 217.91 363.77 217.91 364.48 217.91 364.48 217.91 365.2 217.91 365.2 217.91 365.92 217.91 365.92 217.91 366.63 217.91 366.63 217.91 367.35 217.91 367.35 217.91 368.06 217.91 368.06 217.91 368.78 217.91 368.78 217.91 369.49 217.91 369.49 217.91 370.21 217.91 370.21 217.91 370.92 217.91 370.92 217.91 371.64 217.91 371.64 217.91 372.36 217.91 372.36 217.91 373.07 217.91 373.07 217.91 373.79 217.91 373.79 217.91 374.5 217.91 374.5 217.91 375.22 217.91 375.22 217.91 375.93 217.91 375.93 217.91 376.65 217.91 376.65 217.91 377.36 217.91 377.36 217.91 378.08 217.91 378.08 217.91 378.8 217.91 378.8 217.91 379.51 217.91 379.51 217.91 380.23 217.91 380.23 217.91 380.94 217.91 380.94 217.91 381.66 217.91 381.66 217.91 382.37 217.91 382.37 217.91 383.09 217.91 383.09 217.91 383.8 217.91 383.8 217.91 384.52 217.91 384.52 217.91 385.24 217.91 385.24 217.91 385.95 217.91 385.95 217.91 386.67 217.91 386.67 217.91 387.38 217.91 387.38 217.91 388.1 217.91 388.1 217.91 388.81 217.91 388.81 217.91 389.53 217.91 389.53 217.91 390.24 217.91 390.24 217.91 390.96 217.91 390.96 217.91 391.68 217.91 391.68 217.91 392.39 217.91 392.39 217.91 393.11 217.91 393.11 217.91 393.82 217.91 393.82 217.91 394.54 217.91 394.54 217.91 395.25 217.91 395.25 217.91 395.97 217.91 395.97 217.91 396.68 217.91 396.68 217.91 397.4 217.91 397.4 217.91 398.12 217.91 398.12 217.91 398.83 217.91 398.83 217.91 399.55 217.91 399.55 217.91 400.26 217.91 400.26 217.91 400.98 217.91 400.98 217.91 401.69 217.91 401.69 217.91 402.41 217.91 402.41 217.91 403.12 217.91 403.12 217.91 403.84 217.91 403.84 217.91 404.56 217.91 404.56 217.91 405.27 217.91 405.27 217.91 405.99 217.91 405.99 217.91 406.7 217.91 406.7 217.91 407.42 217.91 407.42 217.91 408.13 217.91 408.13 217.91 408.85 217.91 408.85 217.91 409.56 217.91 409.56 217.91 410.28 217.91 410.28 217.91 411 217.91 411 217.91 411.71 217.91 411.71 217.91 412.43 217.91 412.43 217.91 413.14 217.91 413.14 217.91 413.86 217.91 413.86 217.91" style="stroke-width:1.07;stroke:#33a02c;stroke-linecap:butt"/></g><g clip-path="url(#cpMC4wMHw3MDIuMDB8MC4wMHw0MzkuMDA=)"><text x="33.26" y="392.12" lengthAdjust="spacingAndGlyphs" text-anchor="end" style="font-size:8.8px;font-weight:700;fill:#4d4d4d;font-family:&quot;Arial&quot;" textLength="4.9">0</text><text x="33.26" y="300.81" lengthAdjust="spacingAndGlyphs" text-anchor="end" style="font-size:8.8px;font-weight:700;fill:#4d4d4d;font-family:&quot;Arial&quot;" textLength="9.79">25</text><text x="33.26" y="209.51" lengthAdjust="spacingAndGlyphs" text-anchor="end" style="font-size:8.8px;font-weight:700;fill:#4d4d4d;font-family:&quot;Arial&quot;" textLength="9.79">50</text><text x="33.26" y="118.21" lengthAdjust="spacingAndGlyphs" text-anchor="end" style="font-size:8.8px;font-weight:700;fill:#4d4d4d;font-family:&quot;Arial&quot;" textLength="9.79">75</text><text x="33.26" y="26.91" lengthAdjust="spacingAndGlyphs" text-anchor="end" style="font-size:8.8px;font-weight:700;fill:#4d4d4d;font-family:&quot;Arial&quot;" textLength="14.69">100</text><text x="56.08" y="418.48" lengthAdjust="spacingAndGlyphs" text-anchor="middle" style="font-size:8.8px;font-weight:700;fill:#4d4d4d;font-family:&quot;Arial&quot;" textLength="4.9">0</text><text x="127.64" y="418.48" lengthAdjust="spacingAndGlyphs" text-anchor="middle" style="font-size:8.8px;font-weight:700;fill:#4d4d4d;font-family:&quot;Arial&quot;" textLength="14.69">100</text><text x="199.19" y="418.48" lengthAdjust="spacingAndGlyphs" text-anchor="middle" style="font-size:8.8px;font-weight:700;fill:#4d4d4d;font-family:&quot;Arial&quot;" textLength="14.69">200</text><text x="270.75" y="418.48" lengthAdjust="spacingAndGlyphs" text-anchor="middle" style="font-size:8.8px;font-weight:700;fill:#4d4d4d;font-family:&quot;Arial&quot;" textLength="14.69">300</text><text x="342.3" y="418.48" lengthAdjust="spacingAndGlyphs" text-anchor="middle" style="font-size:8.8px;font-weight:700;fill:#4d4d4d;font-family:&quot;Arial&quot;" textLength="14.69">400</text><text x="413.86" y="418.48" lengthAdjust="spacingAndGlyphs" text-anchor="middle" style="font-size:8.8px;font-weight:700;fill:#4d4d4d;font-family:&quot;Arial&quot;" textLength="14.69">500</text><text x="234.97" y="431.09" lengthAdjust="spacingAndGlyphs" text-anchor="middle" style="font-size:11px;font-weight:700;font-family:&quot;Arial&quot;" textLength="26.9">Rank</text><text lengthAdjust="spacingAndGlyphs" text-anchor="middle" textLength="119.84" transform="translate(13.40,206.34) rotate(-90)" style="font-size:11px;font-weight:700;font-family:&quot;Arial&quot;">Correct candidates [%]</text><text x="448.18" y="173" style="font-size:11px;font-weight:700;font-family:&quot;Arial&quot;" lengthAdjust="spacingAndGlyphs" textLength="28.74">name</text><line x1="449.91" x2="463.74" y1="188.34" y2="188.34" style="stroke-width:1.07;stroke:#a6cee3;stroke-linecap:butt"/><line x1="449.91" x2="463.74" y1="205.62" y2="205.62" style="stroke-width:1.07;stroke:#1f78b4;stroke-linecap:butt"/><line x1="449.91" x2="463.74" y1="222.9" y2="222.9" style="stroke-width:1.07;stroke:#b2df8a;stroke-linecap:butt"/><line x1="449.91" x2="463.74" y1="240.18" y2="240.18" style="stroke-width:1.07;stroke:#33a02c;stroke-linecap:butt"/><text x="470.94" y="191.51" style="font-size:8.8px;font-weight:700;font-family:&quot;Arial&quot;" lengthAdjust="spacingAndGlyphs" textLength="38.63">MS2 only</text><text x="470.94" y="208.79" style="font-size:8.8px;font-weight:700;font-family:&quot;Arial&quot;" lengthAdjust="spacingAndGlyphs" textLength="78.72">MS2 taxo informed</text><text x="470.94" y="226.07" style="font-size:8.8px;font-weight:700;font-family:&quot;Arial&quot;" lengthAdjust="spacingAndGlyphs" textLength="156.23">MS2 taxo informed + MS1 completion</text><text x="470.94" y="243.35" style="font-size:8.8px;font-weight:700;font-family:&quot;Arial&quot;" lengthAdjust="spacingAndGlyphs" textLength="220.1">MS2 taxo informed + MS1 completion + larger library</text></g></svg>