<svg class="main-svg" xmlns="http://www.w3.org/2000/svg" xmlns:xlink="http://www.w3.org/1999/xlink" width="700" height="500" style="" viewBox="0 0 700 500"><rect x="0" y="0" width="700" height="500" style="fill: rgb(255, 255, 255); fill-opacity: 1;"/><defs id="defs-68987f"><g class="clips"><clipPath id="clip68987fxyplot" class="plotclip"><rect width="322" height="435"/></clipPath><clipPath class="axesclip" id="clip68987fx"><rect x="60" y="0" width="322" height="500"/></clipPath><clipPath class="axesclip" id="clip68987fy"><rect x="0" y="25" width="700" height="435"/></clipPath><clipPath class="axesclip" id="clip68987fxy"><rect x="60" y="25" width="322" height="435"/></clipPath></g><g class="gradients"/><g class="patterns"/></defs><g class="bglayer"/><g class="layer-below"><g class="imagelayer"/><g class="shapelayer"/></g><g class="cartesianlayer"><g class="subplot xy"><g class="layer-subplot"><g class="shapelayer"/><g class="imagelayer"/></g><g class="gridlayer"><g class="x"/><g class="y"/></g><g class="zerolinelayer"/><path class="xlines-below"/><path class="ylines-below"/><g class="overlines-below"/><g class="xaxislayer-below"/><g class="yaxislayer-below"/><g class="overaxes-below"/><g class="plot" transform="translate(60,25)" clip-path="url(#clip68987fxyplot)"><g class="scatterlayer mlayer"><g class="trace scatter trace93b436" style="stroke-miterlimit: 2; opacity: 1;"><g class="fills"/><g class="errorbars"/><g class="lines"><path class="js-line" d="M12.88,413.25H12.88V339.16H25.76V304.77H38.64V286.36H51.52V273.45H64.4V262.09H77.28V254.72H90.16V247.71H103.04V241.33H115.92V236.53H128.8V231.48H141.68V227.13H154.56V223.36H167.44V220.83H180.32V218.39H193.2V215.86H206.08V213.55H218.96V211.55H231.84V209.47H244.72V207.92H257.6V206.27H270.48V204.54H283.36V203.12H296.24V201.75H309.12V200.24H322V199H334.88V197.98H347.76V196.43H360.64V195.18H373.52V194.16H386.4V193.28H399.28V192.34H412.16V191.5H425.04V190.57H437.92V189.33H450.8V188.26H463.68V187.51H476.56V186.66H489.44V186.04H502.32V185.42H515.2V184.4H528.08V183.96H540.96V183.6H553.84V182.98H566.72V182.45H579.6V182.14H592.48V181.61H605.36V180.85H618.24V180.05H631.12V179.74H644V179.34H656.88V179.08H669.76V178.77H682.64V178.63H695.52V178.23H708.4V177.79H721.28V177.52H734.16V177.08H747.04V176.68H759.92V176.46H772.8V176.33H785.68V176.1H798.56V175.97H811.44V175.66H824.32V175.57H837.2V175.26H850.08V175.13H862.96V175.04H875.84V174.82H888.72V174.69H901.6V174.51H914.48V174.37H927.36V174.24H940.24V174.06H953.12V173.98H966V173.75H978.88V173.62H991.76V173.27H1004.64V173.09H1017.52V173H1030.4V172.95H1043.28V172.78H1056.16V172.64H1069.04V172.38H1081.92V171.98H1094.8V171.62H1107.68V171.49H1120.56V171.36H1133.44V171.27H1146.32V171.09H1159.2V171H1172.08V170.87H1184.96V170.65H1197.84V170.51H1210.72V170.34H1223.6V170.16H1236.48V169.89H1249.36V169.8H1262.24V169.58H1275.12V169.49H1288V169.36H1300.88V169.18H1313.76V169.14H1326.64V169.09H1339.52V169.01H1352.4V168.83H1365.28V168.83H1378.16V168.65H1391.04V168.56H1403.92V168.43H1416.8V168.39H1429.68V168.3H1442.56V168.3H1455.44V168.21H1468.32V168.21H1481.2V168.16H1494.08V167.99H1506.96V167.99H1519.84V167.94H1532.72V167.81H1545.6V167.68H1558.48V167.63H1571.36V167.54H1584.24V167.41H1597.12V167.23H1610V167.23H1622.88V167.23H1635.76V167.1H1648.64V167.01H1661.52V166.88H1674.4V166.79H1687.28V166.7H1700.16V166.65H1713.04V166.52H1725.92V166.52H1738.8V166.48H1751.68V166.43H1764.56V166.34H1777.44V166.34H1790.32V166.34H1803.2V166.3H1816.08V166.3H1828.96V166.21H1841.84V166.21H1854.72V166.12H1867.6V166.03H1880.48V165.94H1893.36V165.86H1906.24V165.81H1919.12V165.81H1932V165.77H1944.88V165.68H1957.76V165.55H1970.64V165.46H1983.52V165.41H1996.4V165.41H2009.28V165.41H2022.16V165.28H2035.04V165.28H2047.92V165.28H2060.8V165.23H2073.68V165.19H2086.56V165.15H2099.44V165.01H2112.32V165.01H2125.2V164.97H2138.08V164.92H2150.96V164.88H2163.84V164.88H2176.72V164.84H2189.6V164.79H2202.48V164.79H2215.36V164.7H2228.24V164.61H2241.12V164.57H2254V164.53H2266.88V164.53H2279.76V164.48H2292.64V164.44H2305.52V164.39H2318.4V164.3H2331.28V164.3H2344.16V164.3H2357.04V164.3H2369.92V164.21H2382.8V164.13H2395.68V164.08H2408.56V164.04H2421.44V163.99H2434.32V163.95H2447.2V163.82H2460.08V163.82H2472.96V163.73H2485.84V163.73H2498.72V163.73H2511.6V163.73H2524.48V163.73H2537.36V163.73H2550.24V163.68H2563.12V163.64H2576V163.55H2588.88V163.5H2601.76V163.5H2614.64V163.46H2627.52V163.46H2640.4V163.42H2653.28V163.37H2666.16V163.33H2679.04V163.33H2691.92V163.24H2704.8V163.24H2717.68V163.24H2730.56V163.24H2743.44V163.24H2756.32V163.24H2769.2V163.24H2782.08V163.15H2794.96V163.11H2807.84V163.11H2820.72V163.06H2833.6V162.97H2846.48V162.93H2859.36V162.93H2872.24V162.93H2885.12V162.93H2898V162.93H2910.88V162.93H2923.76V162.88H2936.64V162.88H2949.52V162.88H2962.4V162.88H2975.28V162.88H2988.16V162.88H3001.04V162.84H3013.92V162.84H3026.8V162.84H3039.68V162.75H3052.56V162.75H3065.44V162.66H3078.32V162.66H3091.2V162.66H3104.08V162.66H3116.96V162.66H3129.84V162.66H3142.72V162.66H3155.6V162.66H3168.48V162.62H3181.36V162.57H3194.24V162.57H3207.12V162.57H3220V162.57H3232.88V162.48H3245.76V162.48H3258.64V162.48H3271.52V162.48H3284.4V162.48H3297.28V162.4H3310.16V162.35H3323.04V162.35H3335.92V162.31H3348.8V162.31H3361.68V162.31H3374.56V162.31H3387.44V162.26H3400.32V162.22H3413.2V162.22H3426.08V162.17H3438.96V162.17H3451.84V162.17H3464.72V162.17H3477.6V162.17H3490.48V162.17H3503.36V162.17H3516.24V162.17H3529.12V162.17H3542V162.17H3554.88V162.17H3567.76V162.17H3580.64V162.13H3593.52V162.13H3606.4V162.13H3619.28V162.08H3632.16V162.08H3645.04V162.04H3657.92V162.04H3670.8V162.04H3683.68V162.04H3696.56V162.04H3709.44V162.04H3722.32V162H3735.2V162H3748.08V162H3760.96V161.95H3773.84V161.95H3786.72V161.86H3799.6V161.86H3812.48V161.86H3825.36V161.86H3838.24V161.82H3851.12V161.82H3864V161.77H3876.88V161.77H3889.76V161.77H3902.64V161.73H3915.52V161.69H3928.4V161.64H3941.28V161.64H3954.16V161.64H3967.04V161.64H3979.92V161.64H3992.8V161.64H4005.68V161.6H4018.56V161.6H4031.44V161.6H4044.32V161.6H4057.2V161.6H4070.08V161.6H4082.96V161.6H4095.84V161.55H4108.72V161.55H4121.6V161.51H4134.48V161.51H4147.36V161.51H4160.24V161.51H4173.12V161.51H4186V161.51H4198.88V161.51H4211.76V161.51H4224.64V161.46H4237.52V161.46H4250.4V161.46H4263.28V161.42H4276.16V161.37H4289.04V161.37H4301.92V161.37H4314.8V161.37H4327.68V161.37H4340.56V161.37H4353.44V161.37H4366.32V161.37H4379.2V161.37H4392.08V161.37H4404.96V161.37H4417.84V161.37H4430.72V161.37H4443.6V161.37H4456.48V161.37H4469.36V161.37H4482.24V161.37H4495.12V161.37H4508V161.33H4520.88V161.33H4533.76V161.33H4546.64V161.33H4559.52V161.33H4572.4V161.33H4585.28V161.33H4598.16V161.33H4611.04V161.33H4623.92V161.33H4636.8V161.33H4649.68V161.33H4662.56V161.29H4675.44V161.29H4688.32V161.24H4701.2V161.24H4714.08V161.24H4726.96V161.24H4739.84V161.2H4752.72V161.2H4765.6V161.2H4778.48V161.2H4791.36V161.15H4804.24V161.15H4817.12V161.11H4830V161.11H4842.88V161.06H4855.76V161.06H4868.64V161.06H4881.52V161.02H4894.4V160.98H4907.28V160.98H4920.16V160.93H4933.04V160.93H4945.92V160.93H4958.8V160.93H4971.68V160.93H4984.56V160.93H4997.44V160.93H5010.32V160.93H5023.2V160.93H5036.08V160.93H5048.96V160.93H5061.84V160.93H5074.72V160.93H5087.6V160.93H5100.48V160.93H5113.36V160.93H5126.24V160.93H5139.12V160.93H5152V160.93H5164.88V160.89H5177.76V160.89H5190.64V160.89H5203.52V160.89H5216.4V160.89H5229.28V160.89H5242.16V160.84H5255.04V160.8H5267.92V160.8H5280.8V160.75H5293.68V160.75H5306.56V160.75H5319.44V160.75H5332.32V160.75H5345.2V160.75H5358.08V160.75H5370.96V160.75H5383.84V160.75H5396.72V160.75H5409.6V160.75H5422.48V160.71H5435.36V160.71H5448.24V160.71H5461.12V160.71H5474V160.71H5486.88V160.71H5499.76V160.71H5512.64V160.71H5525.52V160.71H5538.4V160.71H5551.28V160.71H5564.16V160.71H5577.04V160.71H5589.92V160.71H5602.8V160.67H5615.68V160.67H5628.56V160.67H5641.44V160.67H5654.32V160.67H5667.2V160.67H5680.08V160.67H5692.96V160.67H5705.84V160.67H5718.72V160.67H5731.6V160.67H5744.48V160.67H5757.36V160.58H5770.24V160.58H5783.12V160.58H5796V160.58H5808.88V160.58H5821.76V160.58H5834.64V160.53H5847.52V160.53H5860.4V160.53H5873.28V160.53H5886.16V160.53H5899.04V160.53H5911.92V160.53H5924.8V160.53H5937.68V160.53H5950.56V160.53H5963.44V160.53H5976.32V160.53H5989.2V160.53H6002.08V160.53H6014.96V160.53H6027.84V160.53H6040.72V160.53H6053.6V160.53H6066.48V160.53H6079.36V160.53H6092.24V160.53H6105.12V160.53H6118V160.53H6130.88V160.53H6143.76V160.53H6156.64V160.53H6169.52V160.53H6182.4V160.53H6195.28V160.53H6208.16V160.49H6221.04V160.49H6233.92V160.49H6246.8V160.49H6259.68V160.49H6272.56V160.49H6285.44V160.49H6298.32V160.49H6311.2V160.49H6324.08V160.44H6336.96V160.44H6349.84V160.44H6362.72V160.44H6375.6V160.44H6388.48V160.44H6401.36V160.44H6414.24V160.44H6427.12V160.44H6440V160.44" style="vector-effect: non-scaling-stroke; fill: none; stroke: rgb(215, 29, 98); stroke-opacity: 1; stroke-width: 2px; opacity: 1;"/></g><g class="points"/><g class="text"/></g><g class="trace scatter trace73eded" style="stroke-miterlimit: 2; opacity: 1;"><g class="fills"/><g class="errorbars"/><g class="lines"><path class="js-line" d="M12.88,413.25H12.88V261.56H25.76V228.24H38.64V216.75H51.52V210.13H64.4V204.77H77.28V201.13H90.16V197.45H103.04V194.21H115.92V191.59H128.8V189.77H141.68V187.51H154.56V186.35H167.44V185.29H180.32V184.18H193.2V183.16H206.08V182.01H218.96V180.94H231.84V180.05H244.72V179.52H257.6V179.03H270.48V178.06H283.36V177.44H296.24V176.86H309.12V176.28H322V175.84H334.88V175.57H347.76V175.13H360.64V174.51H373.52V174.02H386.4V173.8H399.28V173.35H412.16V172.95H425.04V172.64H437.92V172.29H450.8V171.89H463.68V171.71H476.56V171.22H489.44V170.87H502.32V170.83H515.2V170.56H528.08V170.43H540.96V170.29H553.84V169.94H566.72V169.63H579.6V169.49H592.48V169.36H605.36V169.14H618.24V168.7H631.12V168.52H644V168.25H656.88V168.12H669.76V168.12H682.64V168.03H695.52V167.85H708.4V167.68H721.28V167.5H734.16V167.28H747.04V167.1H759.92V166.92H772.8V166.88H785.68V166.83H798.56V166.79H811.44V166.61H824.32V166.57H837.2V166.43H850.08V166.3H862.96V166.26H875.84V166.17H888.72V166.08H901.6V165.94H914.48V165.86H927.36V165.77H940.24V165.68H953.12V165.55H966V165.37H978.88V165.37H991.76V165.15H1004.64V165.01H1017.52V164.97H1030.4V164.97H1043.28V164.92H1056.16V164.88H1069.04V164.75H1081.92V164.61H1094.8V164.61H1107.68V164.61H1120.56V164.57H1133.44V164.57H1146.32V164.48H1159.2V164.35H1172.08V164.26H1184.96V164.13H1197.84V164.13H1210.72V164.08H1223.6V164.08H1236.48V164.08H1249.36V164.04H1262.24V163.99H1275.12V163.95H1288V163.86H1300.88V163.86H1313.76V163.82H1326.64V163.82H1339.52V163.82H1352.4V163.77H1365.28V163.77H1378.16V163.73H1391.04V163.73H1403.92V163.68H1416.8V163.68H1429.68V163.64H1442.56V163.59H1455.44V163.55H1468.32V163.55H1481.2V163.55H1494.08V163.46H1506.96V163.37H1519.84V163.37H1532.72V163.33H1545.6V163.28H1558.48V163.28H1571.36V163.24H1584.24V163.19H1597.12V163.15H1610V163.15H1622.88V163.15H1635.76V163.11H1648.64V163.06H1661.52V163.02H1674.4V162.93H1687.28V162.93H1700.16V162.93H1713.04V162.93H1725.92V162.88H1738.8V162.84H1751.68V162.84H1764.56V162.75H1777.44V162.75H1790.32V162.75H1803.2V162.75H1816.08V162.75H1828.96V162.66H1841.84V162.66H1854.72V162.57H1867.6V162.57H1880.48V162.57H1893.36V162.57H1906.24V162.57H1919.12V162.57H1932V162.57H1944.88V162.53H1957.76V162.48H1970.64V162.44H1983.52V162.4H1996.4V162.4H2009.28V162.4H2022.16V162.35H2035.04V162.35H2047.92V162.35H2060.8V162.35H2073.68V162.26H2086.56V162.22H2099.44V162.17H2112.32V162.17H2125.2V162.17H2138.08V162.17H2150.96V162.13H2163.84V162.13H2176.72V162.13H2189.6V162.08H2202.48V162.08H2215.36V162H2228.24V161.95H2241.12V161.95H2254V161.91H2266.88V161.91H2279.76V161.91H2292.64V161.91H2305.52V161.91H2318.4V161.86H2331.28V161.86H2344.16V161.86H2357.04V161.86H2369.92V161.86H2382.8V161.82H2395.68V161.82H2408.56V161.82H2421.44V161.77H2434.32V161.73H2447.2V161.69H2460.08V161.64H2472.96V161.55H2485.84V161.55H2498.72V161.55H2511.6V161.55H2524.48V161.55H2537.36V161.55H2550.24V161.55H2563.12V161.55H2576V161.55H2588.88V161.51H2601.76V161.51H2614.64V161.51H2627.52V161.51H2640.4V161.46H2653.28V161.42H2666.16V161.42H2679.04V161.42H2691.92V161.37H2704.8V161.37H2717.68V161.37H2730.56V161.37H2743.44V161.33H2756.32V161.33H2769.2V161.33H2782.08V161.29H2794.96V161.29H2807.84V161.29H2820.72V161.29H2833.6V161.29H2846.48V161.29H2859.36V161.29H2872.24V161.29H2885.12V161.29H2898V161.29H2910.88V161.29H2923.76V161.24H2936.64V161.24H2949.52V161.24H2962.4V161.24H2975.28V161.24H2988.16V161.2H3001.04V161.2H3013.92V161.2H3026.8V161.2H3039.68V161.2H3052.56V161.2H3065.44V161.2H3078.32V161.2H3091.2V161.2H3104.08V161.2H3116.96V161.2H3129.84V161.2H3142.72V161.2H3155.6V161.2H3168.48V161.2H3181.36V161.2H3194.24V161.2H3207.12V161.2H3220V161.2H3232.88V161.2H3245.76V161.2H3258.64V161.2H3271.52V161.2H3284.4V161.2H3297.28V161.15H3310.16V161.06H3323.04V161.06H3335.92V161.02H3348.8V161.02H3361.68V161.02H3374.56V161.02H3387.44V161.02H3400.32V161.02H3413.2V161.02H3426.08V160.98H3438.96V160.98H3451.84V160.98H3464.72V160.98H3477.6V160.98H3490.48V160.98H3503.36V160.98H3516.24V160.98H3529.12V160.98H3542V160.98H3554.88V160.98H3567.76V160.98H3580.64V160.98H3593.52V160.98H3606.4V160.98H3619.28V160.98H3632.16V160.98H3645.04V160.98H3657.92V160.98H3670.8V160.98H3683.68V160.98H3696.56V160.98H3709.44V160.98H3722.32V160.98H3735.2V160.98H3748.08V160.98H3760.96V160.98H3773.84V160.98H3786.72V160.89H3799.6V160.89H3812.48V160.89H3825.36V160.89H3838.24V160.84H3851.12V160.84H3864V160.84H3876.88V160.84H3889.76V160.84H3902.64V160.84H3915.52V160.84H3928.4V160.84H3941.28V160.84H3954.16V160.84H3967.04V160.84H3979.92V160.84H3992.8V160.84H4005.68V160.8H4018.56V160.8H4031.44V160.8H4044.32V160.8H4057.2V160.8H4070.08V160.8H4082.96V160.8H4095.84V160.8H4108.72V160.8H4121.6V160.8H4134.48V160.8H4147.36V160.8H4160.24V160.8H4173.12V160.8H4186V160.8H4198.88V160.8H4211.76V160.8H4224.64V160.8H4237.52V160.8H4250.4V160.8H4263.28V160.8H4276.16V160.8H4289.04V160.8H4301.92V160.8H4314.8V160.8H4327.68V160.8H4340.56V160.8H4353.44V160.8H4366.32V160.75H4379.2V160.75H4392.08V160.75H4404.96V160.75H4417.84V160.75H4430.72V160.75H4443.6V160.75H4456.48V160.75H4469.36V160.75H4482.24V160.75H4495.12V160.75H4508V160.71H4520.88V160.71H4533.76V160.71H4546.64V160.71H4559.52V160.71H4572.4V160.71H4585.28V160.71H4598.16V160.71H4611.04V160.71H4623.92V160.71H4636.8V160.71H4649.68V160.71H4662.56V160.71H4675.44V160.71H4688.32V160.71H4701.2V160.71H4714.08V160.71H4726.96V160.71H4739.84V160.67H4752.72V160.67H4765.6V160.67H4778.48V160.67H4791.36V160.67H4804.24V160.67H4817.12V160.67H4830V160.67H4842.88V160.62H4855.76V160.62H4868.64V160.62H4881.52V160.62H4894.4V160.62H4907.28V160.62H4920.16V160.62H4933.04V160.62H4945.92V160.62H4958.8V160.62H4971.68V160.62H4984.56V160.62H4997.44V160.62H5010.32V160.62H5023.2V160.62H5036.08V160.62H5048.96V160.62H5061.84V160.62H5074.72V160.62H5087.6V160.62H5100.48V160.62H5113.36V160.62H5126.24V160.62H5139.12V160.62H5152V160.62H5164.88V160.62H5177.76V160.62H5190.64V160.62H5203.52V160.62H5216.4V160.62H5229.28V160.62H5242.16V160.62H5255.04V160.62H5267.92V160.62H5280.8V160.58H5293.68V160.58H5306.56V160.58H5319.44V160.58H5332.32V160.58H5345.2V160.58H5358.08V160.58H5370.96V160.58H5383.84V160.58H5396.72V160.53H5409.6V160.53H5422.48V160.53H5435.36V160.53H5448.24V160.53H5461.12V160.53H5474V160.53H5486.88V160.53H5499.76V160.53H5512.64V160.53H5525.52V160.53H5538.4V160.53H5551.28V160.53H5564.16V160.53H5577.04V160.53H5589.92V160.53H5602.8V160.49H5615.68V160.49H5628.56V160.49H5641.44V160.49H5654.32V160.49H5667.2V160.49H5680.08V160.49H5692.96V160.49H5705.84V160.49H5718.72V160.49H5731.6V160.49H5744.48V160.49H5757.36V160.49H5770.24V160.49H5783.12V160.49H5796V160.49H5808.88V160.49H5821.76V160.49H5834.64V160.49H5847.52V160.49H5860.4V160.49H5873.28V160.49H5886.16V160.49H5899.04V160.49H5911.92V160.49H5924.8V160.49H5937.68V160.49H5950.56V160.49H5963.44V160.49H5976.32V160.49H5989.2V160.49H6002.08V160.49H6014.96V160.49H6027.84V160.49H6040.72V160.49H6053.6V160.49H6066.48V160.49H6079.36V160.49H6092.24V160.49H6105.12V160.49H6118V160.49H6130.88V160.49H6143.76V160.49H6156.64V160.49H6169.52V160.49H6182.4V160.49H6195.28V160.49H6208.16V160.49H6221.04V160.49H6233.92V160.49H6246.8V160.49H6259.68V160.49H6272.56V160.49H6285.44V160.49H6298.32V160.49H6311.2V160.49H6324.08V160.44H6336.96V160.44H6349.84V160.44H6362.72V160.44H6375.6V160.44H6388.48V160.44H6401.36V160.44H6414.24V160.44H6427.12V160.44H6440V160.44" style="vector-effect: non-scaling-stroke; fill: none; stroke: rgb(8, 88, 155); stroke-opacity: 1; stroke-width: 2px; opacity: 1;"/></g><g class="points"/><g class="text"/></g><g class="trace scatter trace599770" style="stroke-miterlimit: 2; opacity: 1;"><g class="fills"/><g class="errorbars"/><g class="lines"><path class="js-line" d="M12.88,413.25H12.88V249.18H25.76V214.84H38.64V204.06H51.52V198.33H64.4V193.67H77.28V190.48H90.16V187.33H103.04V184.8H115.92V182.98H128.8V181.34H141.68V179.57H154.56V178.55H167.44V177.79H180.32V177.08H193.2V176.24H206.08V175.53H218.96V174.69H231.84V173.93H244.72V173.53H257.6V173.13H270.48V172.51H283.36V171.98H296.24V171.54H309.12V171.22H322V170.87H334.88V170.65H347.76V170.34H360.64V169.85H373.52V169.36H386.4V169.27H399.28V168.96H412.16V168.65H425.04V168.43H437.92V168.12H450.8V167.76H463.68V167.63H476.56V167.23H489.44V167.01H502.32V166.97H515.2V166.74H528.08V166.65H540.96V166.61H553.84V166.39H566.72V166.17H579.6V166.08H592.48V165.94H605.36V165.77H618.24V165.5H631.12V165.32H644V165.1H656.88V165.01H669.76V165.01H682.64V164.97H695.52V164.84H708.4V164.7H721.28V164.7H734.16V164.57H747.04V164.48H759.92V164.39H772.8V164.35H785.68V164.3H798.56V164.3H811.44V164.21H824.32V164.17H837.2V164.17H850.08V164.08H862.96V164.08H875.84V163.99H888.72V163.99H901.6V163.9H914.48V163.86H927.36V163.82H940.24V163.77H953.12V163.77H966V163.68H978.88V163.68H991.76V163.59H1004.64V163.55H1017.52V163.5H1030.4V163.5H1043.28V163.46H1056.16V163.42H1069.04V163.28H1081.92V163.19H1094.8V163.19H1107.68V163.19H1120.56V163.15H1133.44V163.15H1146.32V163.11H1159.2V163.02H1172.08V162.93H1184.96V162.88H1197.84V162.88H1210.72V162.88H1223.6V162.88H1236.48V162.88H1249.36V162.88H1262.24V162.84H1275.12V162.79H1288V162.75H1300.88V162.75H1313.76V162.71H1326.64V162.71H1339.52V162.71H1352.4V162.71H1365.28V162.71H1378.16V162.71H1391.04V162.71H1403.92V162.66H1416.8V162.66H1429.68V162.66H1442.56V162.66H1455.44V162.62H1468.32V162.62H1481.2V162.62H1494.08V162.57H1506.96V162.57H1519.84V162.57H1532.72V162.53H1545.6V162.53H1558.48V162.53H1571.36V162.48H1584.24V162.44H1597.12V162.4H1610V162.4H1622.88V162.4H1635.76V162.4H1648.64V162.4H1661.52V162.4H1674.4V162.35H1687.28V162.35H1700.16V162.35H1713.04V162.35H1725.92V162.35H1738.8V162.31H1751.68V162.31H1764.56V162.26H1777.44V162.26H1790.32V162.26H1803.2V162.26H1816.08V162.26H1828.96V162.22H1841.84V162.22H1854.72V162.17H1867.6V162.17H1880.48V162.17H1893.36V162.17H1906.24V162.17H1919.12V162.17H1932V162.17H1944.88V162.13H1957.76V162.08H1970.64V162.04H1983.52V162H1996.4V162H2009.28V162H2022.16V161.95H2035.04V161.95H2047.92V161.95H2060.8V161.95H2073.68V161.91H2086.56V161.86H2099.44V161.82H2112.32V161.82H2125.2V161.82H2138.08V161.82H2150.96V161.77H2163.84V161.77H2176.72V161.77H2189.6V161.73H2202.48V161.73H2215.36V161.69H2228.24V161.64H2241.12V161.64H2254V161.6H2266.88V161.6H2279.76V161.6H2292.64V161.6H2305.52V161.6H2318.4V161.55H2331.28V161.55H2344.16V161.55H2357.04V161.55H2369.92V161.55H2382.8V161.51H2395.68V161.51H2408.56V161.51H2421.44V161.46H2434.32V161.42H2447.2V161.37H2460.08V161.37H2472.96V161.29H2485.84V161.29H2498.72V161.29H2511.6V161.29H2524.48V161.29H2537.36V161.29H2550.24V161.29H2563.12V161.29H2576V161.29H2588.88V161.24H2601.76V161.24H2614.64V161.24H2627.52V161.24H2640.4V161.2H2653.28V161.15H2666.16V161.15H2679.04V161.15H2691.92V161.11H2704.8V161.11H2717.68V161.11H2730.56V161.11H2743.44V161.11H2756.32V161.11H2769.2V161.11H2782.08V161.06H2794.96V161.06H2807.84V161.06H2820.72V161.06H2833.6V161.06H2846.48V161.06H2859.36V161.06H2872.24V161.06H2885.12V161.06H2898V161.06H2910.88V161.06H2923.76V161.02H2936.64V161.02H2949.52V161.02H2962.4V161.02H2975.28V161.02H2988.16V161.02H3001.04V161.02H3013.92V161.02H3026.8V161.02H3039.68V161.02H3052.56V161.02H3065.44V161.02H3078.32V161.02H3091.2V161.02H3104.08V161.02H3116.96V161.02H3129.84V161.02H3142.72V161.02H3155.6V161.02H3168.48V161.02H3181.36V161.02H3194.24V161.02H3207.12V161.02H3220V161.02H3232.88V161.02H3245.76V161.02H3258.64V161.02H3271.52V161.02H3284.4V161.02H3297.28V160.98H3310.16V160.98H3323.04V160.98H3335.92V160.93H3348.8V160.93H3361.68V160.93H3374.56V160.93H3387.44V160.93H3400.32V160.93H3413.2V160.93H3426.08V160.89H3438.96V160.89H3451.84V160.89H3464.72V160.89H3477.6V160.89H3490.48V160.89H3503.36V160.89H3516.24V160.89H3529.12V160.89H3542V160.89H3554.88V160.89H3567.76V160.89H3580.64V160.89H3593.52V160.89H3606.4V160.89H3619.28V160.89H3632.16V160.89H3645.04V160.89H3657.92V160.89H3670.8V160.89H3683.68V160.89H3696.56V160.89H3709.44V160.89H3722.32V160.89H3735.2V160.89H3748.08V160.89H3760.96V160.89H3773.84V160.89H3786.72V160.8H3799.6V160.8H3812.48V160.8H3825.36V160.8H3838.24V160.75H3851.12V160.75H3864V160.75H3876.88V160.75H3889.76V160.75H3902.64V160.75H3915.52V160.75H3928.4V160.75H3941.28V160.75H3954.16V160.75H3967.04V160.75H3979.92V160.75H3992.8V160.75H4005.68V160.71H4018.56V160.71H4031.44V160.71H4044.32V160.71H4057.2V160.71H4070.08V160.71H4082.96V160.71H4095.84V160.71H4108.72V160.71H4121.6V160.71H4134.48V160.71H4147.36V160.71H4160.24V160.71H4173.12V160.71H4186V160.71H4198.88V160.71H4211.76V160.71H4224.64V160.71H4237.52V160.71H4250.4V160.71H4263.28V160.71H4276.16V160.71H4289.04V160.71H4301.92V160.71H4314.8V160.71H4327.68V160.71H4340.56V160.71H4353.44V160.71H4366.32V160.71H4379.2V160.71H4392.08V160.71H4404.96V160.71H4417.84V160.71H4430.72V160.71H4443.6V160.71H4456.48V160.71H4469.36V160.71H4482.24V160.71H4495.12V160.71H4508V160.67H4520.88V160.67H4533.76V160.67H4546.64V160.67H4559.52V160.67H4572.4V160.67H4585.28V160.67H4598.16V160.67H4611.04V160.67H4623.92V160.67H4636.8V160.67H4649.68V160.67H4662.56V160.67H4675.44V160.67H4688.32V160.67H4701.2V160.67H4714.08V160.67H4726.96V160.67H4739.84V160.62H4752.72V160.62H4765.6V160.62H4778.48V160.62H4791.36V160.62H4804.24V160.62H4817.12V160.62H4830V160.62H4842.88V160.58H4855.76V160.58H4868.64V160.58H4881.52V160.58H4894.4V160.58H4907.28V160.58H4920.16V160.58H4933.04V160.58H4945.92V160.58H4958.8V160.58H4971.68V160.58H4984.56V160.58H4997.44V160.58H5010.32V160.58H5023.2V160.58H5036.08V160.58H5048.96V160.58H5061.84V160.58H5074.72V160.58H5087.6V160.58H5100.48V160.58H5113.36V160.58H5126.24V160.58H5139.12V160.58H5152V160.58H5164.88V160.58H5177.76V160.58H5190.64V160.58H5203.52V160.58H5216.4V160.58H5229.28V160.58H5242.16V160.58H5255.04V160.58H5267.92V160.58H5280.8V160.53H5293.68V160.53H5306.56V160.53H5319.44V160.53H5332.32V160.53H5345.2V160.53H5358.08V160.53H5370.96V160.53H5383.84V160.53H5396.72V160.53H5409.6V160.53H5422.48V160.53H5435.36V160.53H5448.24V160.53H5461.12V160.53H5474V160.53H5486.88V160.53H5499.76V160.53H5512.64V160.53H5525.52V160.53H5538.4V160.53H5551.28V160.53H5564.16V160.53H5577.04V160.53H5589.92V160.53H5602.8V160.49H5615.68V160.49H5628.56V160.49H5641.44V160.49H5654.32V160.49H5667.2V160.49H5680.08V160.49H5692.96V160.49H5705.84V160.49H5718.72V160.49H5731.6V160.49H5744.48V160.49H5757.36V160.49H5770.24V160.49H5783.12V160.49H5796V160.49H5808.88V160.49H5821.76V160.49H5834.64V160.49H5847.52V160.49H5860.4V160.49H5873.28V160.49H5886.16V160.49H5899.04V160.49H5911.92V160.49H5924.8V160.49H5937.68V160.49H5950.56V160.49H5963.44V160.49H5976.32V160.49H5989.2V160.49H6002.08V160.49H6014.96V160.49H6027.84V160.49H6040.72V160.49H6053.6V160.49H6066.48V160.49H6079.36V160.49H6092.24V160.49H6105.12V160.49H6118V160.49H6130.88V160.49H6143.76V160.49H6156.64V160.49H6169.52V160.49H6182.4V160.49H6195.28V160.49H6208.16V160.49H6221.04V160.49H6233.92V160.49H6246.8V160.49H6259.68V160.49H6272.56V160.49H6285.44V160.49H6298.32V160.49H6311.2V160.49H6324.08V160.44H6336.96V160.44H6349.84V160.44H6362.72V160.44H6375.6V160.44H6388.48V160.44H6401.36V160.44H6414.24V160.44H6427.12V160.44H6440V160.44" style="vector-effect: non-scaling-stroke; fill: none; stroke: rgb(8, 88, 155); stroke-opacity: 1; stroke-width: 2px; opacity: 1; stroke-dasharray: 3px, 3px;"/></g><g class="points"/><g class="text"/></g><g class="trace scatter trace02a194" style="stroke-miterlimit: 2; opacity: 1;"><g class="fills"/><g class="errorbars"/><g class="lines"><path class="js-line" d="M12.88,413.25H12.88V164.66H25.76V120.91H38.64V105.29H51.52V96.29H64.4V89.41H77.28V83.95H90.16V79.69H103.04V75.83H115.92V73.53H128.8V71.49H141.68V69.13H154.56V67.54H167.44V66.34H180.32V64.96H193.2V63.77H206.08V62.66H218.96V61.59H231.84V60.57H244.72V59.82H257.6V59.11H270.48V57.78H283.36V57.16H296.24V56.45H309.12V55.96H322V55.38H334.88V54.8H347.76V54.4H360.64V53.83H373.52V53.38H386.4V53.07H399.28V52.72H412.16V52.5H425.04V52.14H437.92V51.57H450.8V51.25H463.68V50.99H476.56V50.41H489.44V50.01H502.32V49.97H515.2V49.75H528.08V49.66H540.96V49.39H553.84V49.08H566.72V48.68H579.6V48.5H592.48V48.24H605.36V48.02H618.24V47.79H631.12V47.53H644V47.17H656.88V47.08H669.76V47.08H682.64V46.95H695.52V46.77H708.4V46.68H721.28V46.51H734.16V46.33H747.04V46.29H759.92V46.06H772.8V45.93H785.68V45.8H798.56V45.8H811.44V45.62H824.32V45.49H837.2V45.4H850.08V45.26H862.96V45.09H875.84V44.95H888.72V44.91H901.6V44.78H914.48V44.64H927.36V44.6H940.24V44.6H953.12V44.47H966V44.38H978.88V44.24H991.76V44.11H1004.64V44.02H1017.52V43.93H1030.4V43.89H1043.28V43.85H1056.16V43.76H1069.04V43.62H1081.92V43.58H1094.8V43.58H1107.68V43.58H1120.56V43.49H1133.44V43.49H1146.32V43.45H1159.2V43.4H1172.08V43.18H1184.96V43.09H1197.84V43.09H1210.72V43.09H1223.6V43.09H1236.48V43.05H1249.36V42.91H1262.24V42.82H1275.12V42.78H1288V42.74H1300.88V42.69H1313.76V42.65H1326.64V42.6H1339.52V42.6H1352.4V42.6H1365.28V42.6H1378.16V42.6H1391.04V42.6H1403.92V42.56H1416.8V42.51H1429.68V42.47H1442.56V42.43H1455.44V42.34H1468.32V42.34H1481.2V42.34H1494.08V42.29H1506.96V42.29H1519.84V42.29H1532.72V42.16H1545.6V42.11H1558.48V42.07H1571.36V42.07H1584.24V42.07H1597.12V41.98H1610V41.98H1622.88V41.98H1635.76V41.94H1648.64V41.89H1661.52V41.85H1674.4V41.76H1687.28V41.72H1700.16V41.72H1713.04V41.72H1725.92V41.72H1738.8V41.67H1751.68V41.67H1764.56V41.58H1777.44V41.58H1790.32V41.54H1803.2V41.54H1816.08V41.54H1828.96V41.45H1841.84V41.4H1854.72V41.36H1867.6V41.36H1880.48V41.36H1893.36V41.32H1906.24V41.32H1919.12V41.32H1932V41.32H1944.88V41.32H1957.76V41.27H1970.64V41.23H1983.52V41.23H1996.4V41.23H2009.28V41.23H2022.16V41.18H2035.04V41.18H2047.92V41.18H2060.8V41.18H2073.68V41.18H2086.56V41.14H2099.44V41.09H2112.32V41.09H2125.2V41.09H2138.08V41.09H2150.96V41.05H2163.84V41.05H2176.72V41.05H2189.6V41.01H2202.48V41.01H2215.36V40.96H2228.24V40.96H2241.12V40.92H2254V40.87H2266.88V40.87H2279.76V40.87H2292.64V40.87H2305.52V40.87H2318.4V40.83H2331.28V40.83H2344.16V40.83H2357.04V40.83H2369.92V40.78H2382.8V40.78H2395.68V40.78H2408.56V40.74H2421.44V40.74H2434.32V40.69H2447.2V40.69H2460.08V40.69H2472.96V40.61H2485.84V40.61H2498.72V40.56H2511.6V40.56H2524.48V40.56H2537.36V40.56H2550.24V40.52H2563.12V40.52H2576V40.52H2588.88V40.52H2601.76V40.52H2614.64V40.47H2627.52V40.47H2640.4V40.47H2653.28V40.43H2666.16V40.43H2679.04V40.43H2691.92V40.38H2704.8V40.3H2717.68V40.3H2730.56V40.3H2743.44V40.3H2756.32V40.3H2769.2V40.3H2782.08V40.25H2794.96V40.25H2807.84V40.25H2820.72V40.25H2833.6V40.25H2846.48V40.25H2859.36V40.25H2872.24V40.25H2885.12V40.25H2898V40.25H2910.88V40.25H2923.76V40.25H2936.64V40.25H2949.52V40.25H2962.4V40.25H2975.28V40.21H2988.16V40.21H3001.04V40.21H3013.92V40.16H3026.8V40.16H3039.68V40.16H3052.56V40.16H3065.44V40.16H3078.32V40.16H3091.2V40.16H3104.08V40.16H3116.96V40.16H3129.84V40.16H3142.72V40.16H3155.6V40.16H3168.48V40.16H3181.36V40.16H3194.24V40.16H3207.12V40.16H3220V40.16H3232.88V40.16H3245.76V40.16H3258.64V40.12H3271.52V40.12H3284.4V40.12H3297.28V40.07H3310.16V40.03H3323.04V40.03H3335.92V40.03H3348.8V40.03H3361.68V40.03H3374.56V40.03H3387.44V40.03H3400.32V40.03H3413.2V39.99H3426.08V39.94H3438.96V39.94H3451.84V39.94H3464.72V39.94H3477.6V39.94H3490.48V39.94H3503.36V39.94H3516.24V39.94H3529.12V39.94H3542V39.94H3554.88V39.94H3567.76V39.94H3580.64V39.94H3593.52V39.94H3606.4V39.94H3619.28V39.94H3632.16V39.94H3645.04V39.94H3657.92V39.94H3670.8V39.94H3683.68V39.94H3696.56V39.94H3709.44V39.94H3722.32V39.94H3735.2V39.94H3748.08V39.94H3760.96V39.94H3773.84V39.94H3786.72V39.94H3799.6V39.94H3812.48V39.94H3825.36V39.94H3838.24V39.94H3851.12V39.94H3864V39.94H3876.88V39.94H3889.76V39.94H3902.64V39.94H3915.52V39.94H3928.4V39.94H3941.28V39.94H3954.16V39.9H3967.04V39.9H3979.92V39.9H3992.8V39.9H4005.68V39.85H4018.56V39.85H4031.44V39.85H4044.32V39.85H4057.2V39.81H4070.08V39.81H4082.96V39.81H4095.84V39.81H4108.72V39.81H4121.6V39.81H4134.48V39.81H4147.36V39.81H4160.24V39.81H4173.12V39.81H4186V39.81H4198.88V39.81H4211.76V39.81H4224.64V39.81H4237.52V39.81H4250.4V39.81H4263.28V39.81H4276.16V39.81H4289.04V39.81H4301.92V39.81H4314.8V39.81H4327.68V39.81H4340.56V39.81H4353.44V39.81H4366.32V39.76H4379.2V39.76H4392.08V39.76H4404.96V39.76H4417.84V39.76H4430.72V39.76H4443.6V39.76H4456.48V39.76H4469.36V39.76H4482.24V39.76H4495.12V39.76H4508V39.76H4520.88V39.76H4533.76V39.76H4546.64V39.76H4559.52V39.76H4572.4V39.76H4585.28V39.76H4598.16V39.76H4611.04V39.76H4623.92V39.76H4636.8V39.76H4649.68V39.76H4662.56V39.76H4675.44V39.76H4688.32V39.76H4701.2V39.76H4714.08V39.76H4726.96V39.76H4739.84V39.72H4752.72V39.72H4765.6V39.72H4778.48V39.67H4791.36V39.67H4804.24V39.67H4817.12V39.67H4830V39.67H4842.88V39.67H4855.76V39.67H4868.64V39.67H4881.52V39.67H4894.4V39.67H4907.28V39.67H4920.16V39.67H4933.04V39.67H4945.92V39.67H4958.8V39.67H4971.68V39.67H4984.56V39.67H4997.44V39.67H5010.32V39.67H5023.2V39.67H5036.08V39.67H5048.96V39.67H5061.84V39.67H5074.72V39.67H5087.6V39.67H5100.48V39.67H5113.36V39.67H5126.24V39.67H5139.12V39.67H5152V39.67H5164.88V39.67H5177.76V39.67H5190.64V39.67H5203.52V39.67H5216.4V39.67H5229.28V39.67H5242.16V39.67H5255.04V39.67H5267.92V39.67H5280.8V39.67H5293.68V39.67H5306.56V39.67H5319.44V39.67H5332.32V39.67H5345.2V39.67H5358.08V39.67H5370.96V39.67H5383.84V39.67H5396.72V39.63H5409.6V39.63H5422.48V39.63H5435.36V39.63H5448.24V39.63H5461.12V39.63H5474V39.63H5486.88V39.63H5499.76V39.63H5512.64V39.63H5525.52V39.63H5538.4V39.63H5551.28V39.63H5564.16V39.63H5577.04V39.63H5589.92V39.63H5602.8V39.59H5615.68V39.59H5628.56V39.59H5641.44V39.59H5654.32V39.59H5667.2V39.59H5680.08V39.59H5692.96V39.59H5705.84V39.59H5718.72V39.59H5731.6V39.59H5744.48V39.59H5757.36V39.59H5770.24V39.59H5783.12V39.59H5796V39.59H5808.88V39.59H5821.76V39.59H5834.64V39.59H5847.52V39.59H5860.4V39.59H5873.28V39.59H5886.16V39.59H5899.04V39.59H5911.92V39.59H5924.8V39.59H5937.68V39.59H5950.56V39.59H5963.44V39.59H5976.32V39.59H5989.2V39.59H6002.08V39.59H6014.96V39.59H6027.84V39.59H6040.72V39.59H6053.6V39.59H6066.48V39.59H6079.36V39.59H6092.24V39.59H6105.12V39.59H6118V39.59H6130.88V39.59H6143.76V39.59H6156.64V39.59H6169.52V39.59H6182.4V39.59H6195.28V39.59H6208.16V39.59H6221.04V39.59H6233.92V39.59H6246.8V39.59H6259.68V39.59H6272.56V39.59H6285.44V39.59H6298.32V39.59H6311.2V39.59H6324.08V39.54H6336.96V39.54H6349.84V39.54H6362.72V39.54H6375.6V39.54H6388.48V39.54H6401.36V39.54H6414.24V39.54H6427.12V39.54H6440V39.54" style="vector-effect: non-scaling-stroke; fill: none; stroke: rgb(51, 106, 45); stroke-opacity: 1; stroke-width: 2px; opacity: 1;"/></g><g class="points"/><g class="text"/></g><g class="trace scatter trace418f62" style="stroke-miterlimit: 2; opacity: 1;"><g class="fills"/><g class="errorbars"/><g class="lines"><path class="js-line" d="M12.88,413.25H12.88V137.9H25.76V93.27H38.64V76.59H51.52V68.2H64.4V61.5H77.28V56.36H90.16V52.76H103.04V49.57H115.92V47.08H128.8V45.26H141.68V43.27H154.56V41.72H167.44V40.56H180.32V39.5H193.2V38.48H206.08V37.86H218.96V37.23H231.84V36.52H244.72V35.9H257.6V35.37H270.48V34.66H283.36V33.73H296.24V33.24H309.12V33.06H322V32.75H334.88V32.44H347.76V32.13H360.64V31.51H373.52V31.16H386.4V31.02H399.28V30.71H412.16V30.49H425.04V30.22H437.92V29.78H450.8V29.56H463.68V29.38H476.56V29.03H489.44V28.8H502.32V28.63H515.2V28.41H528.08V28.18H540.96V28.14H553.84V27.96H566.72V27.78H579.6V27.65H592.48V27.47H605.36V27.34H618.24V27.07H631.12V26.94H644V26.72H656.88V26.59H669.76V26.54H682.64V26.45H695.52V26.36H708.4V26.19H721.28V26.19H734.16V26.14H747.04V26.01H759.92V25.88H772.8V25.79H785.68V25.74H798.56V25.74H811.44V25.65H824.32V25.61H837.2V25.61H850.08V25.52H862.96V25.48H875.84V25.39H888.72V25.39H901.6V25.3H914.48V25.21H927.36V25.21H940.24V25.21H953.12V25.21H966V25.17H978.88V25.08H991.76V25.03H1004.64V24.94H1017.52V24.9H1030.4V24.9H1043.28V24.9H1056.16V24.86H1069.04V24.72H1081.92V24.72H1094.8V24.72H1107.68V24.72H1120.56V24.68H1133.44V24.63H1146.32V24.63H1159.2V24.55H1172.08V24.46H1184.96V24.41H1197.84V24.37H1210.72V24.37H1223.6V24.37H1236.48V24.37H1249.36V24.32H1262.24V24.28H1275.12V24.28H1288V24.23H1300.88V24.19H1313.76V24.15H1326.64V24.1H1339.52V24.1H1352.4V24.1H1365.28V24.1H1378.16V24.1H1391.04V24.1H1403.92V24.06H1416.8V24.06H1429.68V24.06H1442.56V24.01H1455.44V23.97H1468.32V23.97H1481.2V23.97H1494.08V23.92H1506.96V23.92H1519.84V23.92H1532.72V23.88H1545.6V23.88H1558.48V23.88H1571.36V23.88H1584.24V23.88H1597.12V23.84H1610V23.79H1622.88V23.79H1635.76V23.75H1648.64V23.75H1661.52V23.7H1674.4V23.66H1687.28V23.66H1700.16V23.66H1713.04V23.66H1725.92V23.57H1738.8V23.52H1751.68V23.52H1764.56V23.48H1777.44V23.48H1790.32V23.44H1803.2V23.39H1816.08V23.39H1828.96V23.35H1841.84V23.35H1854.72V23.26H1867.6V23.26H1880.48V23.26H1893.36V23.26H1906.24V23.26H1919.12V23.26H1932V23.26H1944.88V23.26H1957.76V23.21H1970.64V23.21H1983.52V23.21H1996.4V23.21H2009.28V23.21H2022.16V23.17H2035.04V23.17H2047.92V23.17H2060.8V23.17H2073.68V23.17H2086.56V23.13H2099.44V23.08H2112.32V23.08H2125.2V23.04H2138.08V23.04H2150.96V22.99H2163.84V22.99H2176.72V22.99H2189.6V22.9H2202.48V22.9H2215.36V22.86H2228.24V22.86H2241.12V22.86H2254V22.86H2266.88V22.86H2279.76V22.86H2292.64V22.86H2305.52V22.86H2318.4V22.81H2331.28V22.81H2344.16V22.81H2357.04V22.81H2369.92V22.81H2382.8V22.81H2395.68V22.81H2408.56V22.81H2421.44V22.81H2434.32V22.77H2447.2V22.77H2460.08V22.77H2472.96V22.64H2485.84V22.64H2498.72V22.64H2511.6V22.64H2524.48V22.64H2537.36V22.64H2550.24V22.64H2563.12V22.64H2576V22.64H2588.88V22.64H2601.76V22.64H2614.64V22.59H2627.52V22.59H2640.4V22.55H2653.28V22.5H2666.16V22.5H2679.04V22.5H2691.92V22.5H2704.8V22.5H2717.68V22.5H2730.56V22.5H2743.44V22.5H2756.32V22.46H2769.2V22.46H2782.08V22.42H2794.96V22.42H2807.84V22.42H2820.72V22.42H2833.6V22.42H2846.48V22.42H2859.36V22.42H2872.24V22.42H2885.12V22.42H2898V22.42H2910.88V22.42H2923.76V22.42H2936.64V22.42H2949.52V22.42H2962.4V22.42H2975.28V22.42H2988.16V22.42H3001.04V22.42H3013.92V22.42H3026.8V22.37H3039.68V22.37H3052.56V22.37H3065.44V22.33H3078.32V22.33H3091.2V22.33H3104.08V22.33H3116.96V22.33H3129.84V22.33H3142.72V22.33H3155.6V22.33H3168.48V22.33H3181.36V22.33H3194.24V22.33H3207.12V22.33H3220V22.33H3232.88V22.33H3245.76V22.33H3258.64V22.33H3271.52V22.33H3284.4V22.33H3297.28V22.28H3310.16V22.28H3323.04V22.28H3335.92V22.28H3348.8V22.28H3361.68V22.28H3374.56V22.28H3387.44V22.28H3400.32V22.24H3413.2V22.24H3426.08V22.19H3438.96V22.19H3451.84V22.19H3464.72V22.19H3477.6V22.19H3490.48V22.19H3503.36V22.19H3516.24V22.19H3529.12V22.19H3542V22.19H3554.88V22.19H3567.76V22.19H3580.64V22.19H3593.52V22.19H3606.4V22.15H3619.28V22.15H3632.16V22.15H3645.04V22.15H3657.92V22.1H3670.8V22.1H3683.68V22.1H3696.56V22.1H3709.44V22.1H3722.32V22.1H3735.2V22.1H3748.08V22.1H3760.96V22.1H3773.84V22.1H3786.72V22.1H3799.6V22.1H3812.48V22.1H3825.36V22.1H3838.24V22.1H3851.12V22.1H3864V22.1H3876.88V22.1H3889.76V22.1H3902.64V22.1H3915.52V22.1H3928.4V22.1H3941.28V22.1H3954.16V22.1H3967.04V22.1H3979.92V22.1H3992.8V22.1H4005.68V22.06H4018.56V22.06H4031.44V22.06H4044.32V22.06H4057.2V22.06H4070.08V22.06H4082.96V22.06H4095.84V22.06H4108.72V22.06H4121.6V22.06H4134.48V22.06H4147.36V22.06H4160.24V22.06H4173.12V22.02H4186V22.02H4198.88V22.02H4211.76V22.02H4224.64V21.97H4237.52V21.97H4250.4V21.97H4263.28V21.97H4276.16V21.97H4289.04V21.97H4301.92V21.97H4314.8V21.97H4327.68V21.97H4340.56V21.97H4353.44V21.97H4366.32V21.97H4379.2V21.97H4392.08V21.97H4404.96V21.97H4417.84V21.97H4430.72V21.97H4443.6V21.97H4456.48V21.97H4469.36V21.97H4482.24V21.97H4495.12V21.97H4508V21.97H4520.88V21.97H4533.76V21.97H4546.64V21.97H4559.52V21.97H4572.4V21.97H4585.28V21.97H4598.16V21.97H4611.04V21.97H4623.92V21.93H4636.8V21.93H4649.68V21.93H4662.56V21.93H4675.44V21.93H4688.32V21.93H4701.2V21.93H4714.08V21.93H4726.96V21.93H4739.84V21.88H4752.72V21.88H4765.6V21.88H4778.48V21.88H4791.36V21.88H4804.24V21.88H4817.12V21.88H4830V21.88H4842.88V21.88H4855.76V21.88H4868.64V21.88H4881.52V21.88H4894.4V21.88H4907.28V21.88H4920.16V21.88H4933.04V21.88H4945.92V21.88H4958.8V21.88H4971.68V21.88H4984.56V21.88H4997.44V21.88H5010.32V21.88H5023.2V21.88H5036.08V21.88H5048.96V21.88H5061.84V21.88H5074.72V21.88H5087.6V21.88H5100.48V21.88H5113.36V21.88H5126.24V21.88H5139.12V21.88H5152V21.88H5164.88V21.88H5177.76V21.88H5190.64V21.88H5203.52V21.88H5216.4V21.88H5229.28V21.88H5242.16V21.84H5255.04V21.84H5267.92V21.84H5280.8V21.84H5293.68V21.84H5306.56V21.84H5319.44V21.84H5332.32V21.84H5345.2V21.84H5358.08V21.84H5370.96V21.84H5383.84V21.84H5396.72V21.84H5409.6V21.84H5422.48V21.84H5435.36V21.84H5448.24V21.84H5461.12V21.84H5474V21.84H5486.88V21.84H5499.76V21.84H5512.64V21.84H5525.52V21.84H5538.4V21.84H5551.28V21.84H5564.16V21.84H5577.04V21.84H5589.92V21.84H5602.8V21.79H5615.68V21.79H5628.56V21.79H5641.44V21.79H5654.32V21.79H5667.2V21.79H5680.08V21.79H5692.96V21.79H5705.84V21.79H5718.72V21.79H5731.6V21.79H5744.48V21.79H5757.36V21.79H5770.24V21.79H5783.12V21.79H5796V21.79H5808.88V21.79H5821.76V21.79H5834.64V21.79H5847.52V21.79H5860.4V21.79H5873.28V21.79H5886.16V21.79H5899.04V21.79H5911.92V21.79H5924.8V21.79H5937.68V21.79H5950.56V21.79H5963.44V21.79H5976.32V21.79H5989.2V21.79H6002.08V21.79H6014.96V21.79H6027.84V21.79H6040.72V21.79H6053.6V21.79H6066.48V21.79H6079.36V21.79H6092.24V21.79H6105.12V21.79H6118V21.79H6130.88V21.79H6143.76V21.79H6156.64V21.79H6169.52V21.79H6182.4V21.79H6195.28V21.79H6208.16V21.79H6221.04V21.79H6233.92V21.79H6246.8V21.79H6259.68V21.79H6272.56V21.79H6285.44V21.79H6298.32V21.79H6311.2V21.79H6324.08V21.75H6336.96V21.75H6349.84V21.75H6362.72V21.75H6375.6V21.75H6388.48V21.75H6401.36V21.75H6414.24V21.75H6427.12V21.75H6440V21.75" style="vector-effect: non-scaling-stroke; fill: none; stroke: rgb(51, 106, 45); stroke-opacity: 1; stroke-width: 2px; opacity: 1; stroke-dasharray: 3px, 3px;"/></g><g class="points"/><g class="text"/></g></g></g><g class="overplot"/><path class="xlines-above crisp" d="M0,0" style="fill: none;"/><path class="ylines-above crisp" d="M0,0" style="fill: none;"/><g class="overlines-above"/><g class="xaxislayer-above"><g class="xtick"><text text-anchor="middle" x="0" y="473" transform="translate(60,0)" style="font-family: 'Open Sans', verdana, arial, sans-serif; font-size: 12px; fill: rgb(68, 68, 68); fill-opacity: 1; white-space: pre; opacity: 1;">0</text></g><g class="xtick"><text text-anchor="middle" x="0" y="473" style="font-family: 'Open Sans', verdana, arial, sans-serif; font-size: 12px; fill: rgb(68, 68, 68); fill-opacity: 1; white-space: pre; opacity: 1;" transform="translate(124.4,0)">5</text></g><g class="xtick"><text text-anchor="middle" x="0" y="473" style="font-family: 'Open Sans', verdana, arial, sans-serif; font-size: 12px; fill: rgb(68, 68, 68); fill-opacity: 1; white-space: pre; opacity: 1;" transform="translate(188.8,0)">10</text></g><g class="xtick"><text text-anchor="middle" x="0" y="473" style="font-family: 'Open Sans', verdana, arial, sans-serif; font-size: 12px; fill: rgb(68, 68, 68); fill-opacity: 1; white-space: pre; opacity: 1;" transform="translate(253.2,0)">15</text></g><g class="xtick"><text text-anchor="middle" x="0" y="473" style="font-family: 'Open Sans', verdana, arial, sans-serif; font-size: 12px; fill: rgb(68, 68, 68); fill-opacity: 1; white-space: pre; opacity: 1;" transform="translate(317.6,0)">20</text></g><g class="xtick"><text text-anchor="middle" x="0" y="473" style="font-family: 'Open Sans', verdana, arial, sans-serif; font-size: 12px; fill: rgb(68, 68, 68); fill-opacity: 1; white-space: pre; opacity: 1;" transform="translate(382,0)">25</text></g></g><g class="yaxislayer-above"><g class="ytick"><text text-anchor="end" x="59" y="4.199999999999999" transform="translate(0,438.25)" style="font-family: 'Open Sans', verdana, arial, sans-serif; font-size: 12px; fill: rgb(68, 68, 68); fill-opacity: 1; white-space: pre; opacity: 1;">0</text></g><g class="ytick"><text text-anchor="end" x="59" y="4.199999999999999" style="font-family: 'Open Sans', verdana, arial, sans-serif; font-size: 12px; fill: rgb(68, 68, 68); fill-opacity: 1; white-space: pre; opacity: 1;" transform="translate(0,388.89)">5</text></g><g class="ytick"><text text-anchor="end" x="59" y="4.199999999999999" style="font-family: 'Open Sans', verdana, arial, sans-serif; font-size: 12px; fill: rgb(68, 68, 68); fill-opacity: 1; white-space: pre; opacity: 1;" transform="translate(0,339.53)">10</text></g><g class="ytick"><text text-anchor="end" x="59" y="4.199999999999999" style="font-family: 'Open Sans', verdana, arial, sans-serif; font-size: 12px; fill: rgb(68, 68, 68); fill-opacity: 1; white-space: pre; opacity: 1;" transform="translate(0,290.17)">15</text></g><g class="ytick"><text text-anchor="end" x="59" y="4.199999999999999" style="font-family: 'Open Sans', verdana, arial, sans-serif; font-size: 12px; fill: rgb(68, 68, 68); fill-opacity: 1; white-space: pre; opacity: 1;" transform="translate(0,240.81)">20</text></g><g class="ytick"><text text-anchor="end" x="59" y="4.199999999999999" style="font-family: 'Open Sans', verdana, arial, sans-serif; font-size: 12px; fill: rgb(68, 68, 68); fill-opacity: 1; white-space: pre; opacity: 1;" transform="translate(0,191.44)">25</text></g><g class="ytick"><text text-anchor="end" x="59" y="4.199999999999999" style="font-family: 'Open Sans', verdana, arial, sans-serif; font-size: 12px; fill: rgb(68, 68, 68); fill-opacity: 1; white-space: pre; opacity: 1;" transform="translate(0,142.07999999999998)">30</text></g><g class="ytick"><text text-anchor="end" x="59" y="4.199999999999999" style="font-family: 'Open Sans', verdana, arial, sans-serif; font-size: 12px; fill: rgb(68, 68, 68); fill-opacity: 1; white-space: pre; opacity: 1;" transform="translate(0,92.72)">35</text></g><g class="ytick"><text text-anchor="end" x="59" y="4.199999999999999" style="font-family: 'Open Sans', verdana, arial, sans-serif; font-size: 12px; fill: rgb(68, 68, 68); fill-opacity: 1; white-space: pre; opacity: 1;" transform="translate(0,43.36)">40</text></g></g><g class="overaxes-above"/></g></g><g class="polarlayer"/><g class="ternarylayer"/><g class="geolayer"/><g class="funnelarealayer"/><g class="pielayer"/><g class="iciclelayer"/><g class="treemaplayer"/><g class="sunburstlayer"/><g class="glimages"/><defs id="topdefs-68987f"><g class="clips"/><clipPath id="legend68987f"><rect width="302" height="105" x="0" y="0"/></clipPath></defs><g class="layer-above"><g class="imagelayer"/><g class="shapelayer"/></g><g class="infolayer"><g class="legend" pointer-events="all" transform="translate(388.44,190)"><rect class="bg" shape-rendering="crispEdges" style="stroke: rgb(68, 68, 68); stroke-opacity: 1; fill: rgb(255, 255, 255); fill-opacity: 1; stroke-width: 0px;" width="302" height="105" x="0" y="0"/><g class="scrollbox" transform="" clip-path="url(#legend68987f)"><g class="groups"><g class="traces" transform="translate(0,14.5)" style="opacity: 1;"><text class="legendtext" text-anchor="start" x="40" y="4.680000000000001" style="font-family: 'Open Sans', verdana, arial, sans-serif; font-size: 12px; fill: rgb(68, 68, 68); fill-opacity: 1; white-space: pre;">ISDB only</text><g class="layers" style="opacity: 1;"><g class="legendfill"/><g class="legendlines"><path class="js-line" d="M5,0h30" style="fill: none; stroke: rgb(215, 29, 98); stroke-opacity: 1; stroke-width: 2px;"/></g><g class="legendsymbols"><g class="legendpoints"/></g></g><rect class="legendtoggle" x="0" y="-9.5" width="296.328125" height="19" style="fill: rgb(0, 0, 0); fill-opacity: 0;"/></g><g class="traces" transform="translate(0,33.5)" style="opacity: 1;"><text class="legendtext" text-anchor="start" x="40" y="4.680000000000001" style="font-family: 'Open Sans', verdana, arial, sans-serif; font-size: 12px; fill: rgb(68, 68, 68); fill-opacity: 1; white-space: pre;">ISDB + weighting (LOTUS)</text><g class="layers" style="opacity: 1;"><g class="legendfill"/><g class="legendlines"><path class="js-line" d="M5,0h30" style="fill: none; stroke: rgb(8, 88, 155); stroke-opacity: 1; stroke-width: 2px;"/></g><g class="legendsymbols"><g class="legendpoints"/></g></g><rect class="legendtoggle" x="0" y="-9.5" width="296.328125" height="19" style="fill: rgb(0, 0, 0); fill-opacity: 0;"/></g><g class="traces" transform="translate(0,52.5)" style="opacity: 1;"><text class="legendtext" text-anchor="start" x="40" y="4.680000000000001" style="font-family: 'Open Sans', verdana, arial, sans-serif; font-size: 12px; fill: rgb(68, 68, 68); fill-opacity: 1; white-space: pre;">ISDB + weighting (inhouse library)</text><g class="layers" style="opacity: 1;"><g class="legendfill"/><g class="legendlines"><path class="js-line" d="M5,0h30" style="fill: none; stroke: rgb(8, 88, 155); stroke-opacity: 1; stroke-dasharray: 3px, 3px; stroke-width: 2px;"/></g><g class="legendsymbols"><g class="legendpoints"/></g></g><rect class="legendtoggle" x="0" y="-9.5" width="296.328125" height="19" style="fill: rgb(0, 0, 0); fill-opacity: 0;"/></g><g class="traces" transform="translate(0,71.5)" style="opacity: 1;"><text class="legendtext" text-anchor="start" x="40" y="4.680000000000001" style="font-family: 'Open Sans', verdana, arial, sans-serif; font-size: 12px; fill: rgb(68, 68, 68); fill-opacity: 1; white-space: pre;">ISDB + MS1 + weighting (LOTUS)</text><g class="layers" style="opacity: 1;"><g class="legendfill"/><g class="legendlines"><path class="js-line" d="M5,0h30" style="fill: none; stroke: rgb(51, 106, 45); stroke-opacity: 1; stroke-width: 2px;"/></g><g class="legendsymbols"><g class="legendpoints"/></g></g><rect class="legendtoggle" x="0" y="-9.5" width="296.328125" height="19" style="fill: rgb(0, 0, 0); fill-opacity: 0;"/></g><g class="traces" transform="translate(0,90.5)" style="opacity: 1;"><text class="legendtext" text-anchor="start" x="40" y="4.680000000000001" style="font-family: 'Open Sans', verdana, arial, sans-serif; font-size: 12px; fill: rgb(68, 68, 68); fill-opacity: 1; white-space: pre;">ISDB + MS1 + weighting (inhouse library)</text><g class="layers" style="opacity: 1;"><g class="legendfill"/><g class="legendlines"><path class="js-line" d="M5,0h30" style="fill: none; stroke: rgb(51, 106, 45); stroke-opacity: 1; stroke-dasharray: 3px, 3px; stroke-width: 2px;"/></g><g class="legendsymbols"><g class="legendpoints"/></g></g><rect class="legendtoggle" x="0" y="-9.5" width="296.328125" height="19" style="fill: rgb(0, 0, 0); fill-opacity: 0;"/></g></g></g><rect class="scrollbar" rx="20" ry="3" width="0" height="0" style="fill: rgb(128, 139, 164); fill-opacity: 1;" x="0" y="0"/></g><g class="g-gtitle"/><g class="g-xtitle" transform="translate(0,-15)"><text class="xtitle" x="221" y="512" text-anchor="middle" style="font-family: 'Open Sans', verdana, arial, sans-serif; font-size: 14px; fill: rgb(68, 68, 68); opacity: 1; font-weight: normal; white-space: pre;"><tspan style="font-weight:bold"> Rank </tspan></text></g><g class="g-ytitle"><text class="ytitle" transform="rotate(-90,22,242.5)" x="22" y="242.5" text-anchor="middle" style="font-family: 'Open Sans', verdana, arial, sans-serif; font-size: 14px; fill: rgb(68, 68, 68); opacity: 1; font-weight: normal; white-space: pre;"><tspan style="font-weight:bold"> Correct short IK annotations [%] </tspan></text></g></g></svg>