<svg xmlns="http://www.w3.org/2000/svg" xmlns:xlink="http://www.w3.org/1999/xlink" width="1044" height="588" class="svglite" viewBox="0 0 783 441"><defs><style type="text/css">.svglite line,.svglite polyline,.svglite rect{fill:none;stroke:#000;stroke-linecap:round;stroke-linejoin:round;stroke-miterlimit:10}.svglite text{white-space:pre}</style></defs><rect width="100%" height="100%" style="stroke:none;fill:none"/><defs><clipPath id="cpMC4wMHw3ODMuMDB8MC4wMHw0NDEuMDA="><rect width="783" height="441" x="0" y="0"/></clipPath></defs><defs><clipPath id="cpMzguMTl8NTc2LjYxfDUuNDh8NDA5LjIx"><rect width="538.42" height="403.73" x="38.19" y="5.48"/></clipPath></defs><g clip-path="url(#cpMzguMTl8NTc2LjYxfDUuNDh8NDA5LjIx)"><polyline points="62.67 390.86 67.56 390.86 67.56 324.38 72.46 324.38 72.46 314.16 77.35 314.16 77.35 309.02 82.24 309.02 82.24 305.4 87.14 305.4 87.14 302.47 92.03 302.47 92.03 300.42 96.93 300.42 96.93 298.8 101.82 298.8 101.82 297.36 106.72 297.36 106.72 295.96 111.61 295.96 111.61 294.76 116.51 294.76 116.51 293.83 121.4 293.83 121.4 293.16 126.3 293.16 126.3 292.39 131.19 292.39 131.19 291.67 136.09 291.67 136.09 290.98 140.98 290.98 140.98 290.53 145.88 290.53 145.88 290 150.77 290 150.77 289.52 155.67 289.52 155.67 289.21 160.56 289.21 160.56 288.91 165.45 288.91 165.45 288.56 170.35 288.56 170.35 288.27 175.24 288.27 175.24 288.06 180.14 288.06 180.14 287.86 185.03 287.86 185.03 287.56 189.93 287.56 189.93 287.28 194.82 287.28 194.82 287.05 199.72 287.05 199.72 286.82 204.61 286.82 204.61 286.62 209.51 286.62 209.51 286.4 214.4 286.4 214.4 286.23 219.3 286.23 219.3 285.96 224.19 285.96 224.19 285.71 229.09 285.71 229.09 285.53 233.98 285.53 233.98 285.32 238.88 285.32 238.88 285.26 243.77 285.26 243.77 285.12 248.66 285.12 248.66 285.04 253.56 285.04 253.56 284.97 258.45 284.97 258.45 284.87 263.35 284.87 263.35 284.79 268.24 284.79 268.24 284.68 273.14 284.68 273.14 284.6 278.03 284.6 278.03 284.44 282.93 284.44 282.93 284.34 287.82 284.34 287.82 284.28 292.72 284.28 292.72 284.15 297.61 284.15 297.61 284.11 302.51 284.11 302.51 284.09 307.4 284.09 307.4 284.01 312.3 284.01 312.3 283.94 317.19 283.94 317.19 283.85 322.09 283.85 322.09 283.78 326.98 283.78 326.98 283.66 331.87 283.66 331.87 283.61 336.77 283.61 336.77 283.55 341.66 283.55 341.66 283.49 346.56 283.49 346.56 283.45 351.45 283.45 351.45 283.36 356.35 283.36 356.35 283.31 361.24 283.31 361.24 283.27 366.14 283.27 366.14 283.23 371.03 283.23 371.03 283.18 375.93 283.18 375.93 283.16 380.82 283.16 380.82 283.14 385.72 283.14 385.72 283.1 390.61 283.1 390.61 283.04 395.51 283.04 395.51 283.02 400.4 283.02 400.4 282.95 405.3 282.95 405.3 282.91 410.19 282.91 410.19 282.83 415.09 282.83 415.09 282.78 419.98 282.78 419.98 282.77 424.87 282.77 424.87 282.74 429.77 282.74 429.77 282.7 434.66 282.7 434.66 282.63 439.56 282.63 439.56 282.62 444.45 282.62 444.45 282.57 449.35 282.57 449.35 282.54 454.24 282.54 454.24 282.52 459.14 282.52 459.14 282.5 464.03 282.5 464.03 282.49 468.93 282.49 468.93 282.45 473.82 282.45 473.82 282.4 478.72 282.4 478.72 282.38 483.61 282.38 483.61 282.33 488.51 282.33 488.51 282.33 493.4 282.33 493.4 282.24 498.3 282.24 498.3 282.22 503.19 282.22 503.19 282.17 508.08 282.17 508.08 282.16 512.98 282.16 512.98 282.13 517.87 282.13 517.87 282.13 522.77 282.13 522.77 282.12 527.66 282.12 527.66 282.04 532.56 282.04 532.56 282.03 537.45 282.03 537.45 282.01 542.35 282.01 542.35 281.99 547.24 281.99 547.24 281.96 552.14 281.96 552.14 281.93" style="stroke-width:4.27;stroke:#a6cee3;stroke-linecap:butt"/><polyline points="62.67 390.86 67.56 390.86 67.56 306.58 72.46 306.58 72.46 296.94 77.35 296.94 77.35 293.21 82.24 293.21 82.24 290.82 87.14 290.82 87.14 289.41 92.03 289.41 92.03 288.33 96.93 288.33 96.93 287.6 101.82 287.6 101.82 287.02 106.72 287.02 106.72 286.56 111.61 286.56 111.61 286.08 116.51 286.08 116.51 285.71 121.4 285.71 121.4 285.47 126.3 285.47 126.3 285.05 131.19 285.05 131.19 284.69 136.09 284.69 136.09 284.46 140.98 284.46 140.98 284.18 145.88 284.18 145.88 283.97 150.77 283.97 150.77 283.77 155.67 283.77 155.67 283.68 160.56 283.68 160.56 283.58 165.45 283.58 165.45 283.49 170.35 283.49 170.35 283.37 175.24 283.37 175.24 283.31 180.14 283.31 180.14 283.24 185.03 283.24 185.03 283.07 189.93 283.07 189.93 282.99 194.82 282.99 194.82 282.94 199.72 282.94 199.72 282.83 204.61 282.83 204.61 282.77 209.51 282.77 209.51 282.7 214.4 282.7 214.4 282.66 219.3 282.66 219.3 282.61 224.19 282.61 224.19 282.57 229.09 282.57 229.09 282.54 233.98 282.54 233.98 282.5 238.88 282.5 238.88 282.48 243.77 282.48 243.77 282.42 248.66 282.42 248.66 282.37 253.56 282.37 253.56 282.36 258.45 282.36 258.45 282.3 263.35 282.3 263.35 282.29 268.24 282.29 268.24 282.24 273.14 282.24 273.14 282.18 278.03 282.18 278.03 282.13 282.93 282.13 282.93 282.04 287.82 282.04 287.82 282.04 292.72 282.04 292.72 281.96 297.61 281.96 297.61 281.93 302.51 281.93 302.51 281.92 307.4 281.92 307.4 281.87 312.3 281.87 312.3 281.85 317.19 281.85 317.19 281.79 322.09 281.79 322.09 281.75 326.98 281.75 326.98 281.71 331.87 281.71 331.87 281.63 336.77 281.63 336.77 281.59 341.66 281.59 341.66 281.55 346.56 281.55 346.56 281.51 351.45 281.51 351.45 281.48 356.35 281.48 356.35 281.43 361.24 281.43 361.24 281.43 366.14 281.43 366.14 281.38 371.03 281.38 371.03 281.37 375.93 281.37 375.93 281.34 380.82 281.34 380.82 281.34 385.72 281.34 385.72 281.34 390.61 281.34 390.61 281.34 395.51 281.34 395.51 281.31 400.4 281.31 400.4 281.29 405.3 281.29 405.3 281.29 410.19 281.29 410.19 281.26 415.09 281.26 415.09 281.23 419.98 281.23 419.98 281.23 424.87 281.23 424.87 281.21 429.77 281.21 429.77 281.18 434.66 281.18 434.66 281.14 439.56 281.14 439.56 281.12 444.45 281.12 444.45 281.09 449.35 281.09 449.35 281.05 454.24 281.05 454.24 281.04 459.14 281.04 459.14 281.02 464.03 281.02 464.03 281.01 468.93 281.01 468.93 281 473.82 281 473.82 281 478.72 281 478.72 280.98 483.61 280.98 483.61 280.97 488.51 280.97 488.51 280.96 493.4 280.96 493.4 280.93 498.3 280.93 498.3 280.92 503.19 280.92 503.19 280.88 508.08 280.88 508.08 280.85 512.98 280.85 512.98 280.85 517.87 280.85 517.87 280.84 522.77 280.84 522.77 280.82 527.66 280.82 527.66 280.81 532.56 280.81 532.56 280.81 537.45 280.81 537.45 280.8 542.35 280.8 542.35 280.8 547.24 280.8 547.24 280.78 552.14 280.78 552.14 280.78" style="stroke-width:4.27;stroke:#1f78b4;stroke-linecap:butt"/><polyline points="62.67 390.86 67.56 390.86 67.56 265.74 72.46 265.74 72.46 253.7 77.35 253.7 77.35 248.37 82.24 248.37 82.24 245.06 87.14 245.06 87.14 243.12 92.03 243.12 92.03 241.65 96.93 241.65 96.93 240.66 101.82 240.66 101.82 239.87 106.72 239.87 106.72 239.17 111.61 239.17 111.61 238.48 116.51 238.48 116.51 238.01 121.4 238.01 121.4 237.61 126.3 237.61 126.3 237.01 131.19 237.01 131.19 236.47 136.09 236.47 136.09 236.16 140.98 236.16 140.98 235.81 145.88 235.81 145.88 235.48 150.77 235.48 150.77 235.19 155.67 235.19 155.67 234.98 160.56 234.98 160.56 234.82 165.45 234.82 165.45 234.7 170.35 234.7 170.35 234.53 175.24 234.53 175.24 234.39 180.14 234.39 180.14 234.28 185.03 234.28 185.03 234.07 189.93 234.07 189.93 233.92 194.82 233.92 194.82 233.85 199.72 233.85 199.72 233.65 204.61 233.65 204.61 233.53 209.51 233.53 209.51 233.46 214.4 233.46 214.4 233.42 219.3 233.42 219.3 233.33 224.19 233.33 224.19 233.25 229.09 233.25 229.09 233.17 233.98 233.17 233.98 233.12 238.88 233.12 238.88 233.07 243.77 233.07 243.77 232.95 248.66 232.95 248.66 232.88 253.56 232.88 253.56 232.87 258.45 232.87 258.45 232.81 263.35 232.81 263.35 232.75 268.24 232.75 268.24 232.67 273.14 232.67 273.14 232.59 278.03 232.59 278.03 232.52 282.93 232.52 282.93 232.46 287.82 232.46 287.82 232.37 292.72 232.37 292.72 232.29 297.61 232.29 297.61 232.23 302.51 232.23 302.51 232.22 307.4 232.22 307.4 232.17 312.3 232.17 312.3 232.13 317.19 232.13 317.19 232.02 322.09 232.02 322.09 231.98 326.98 231.98 326.98 231.93 331.87 231.93 331.87 231.86 336.77 231.86 336.77 231.8 341.66 231.8 341.66 231.75 346.56 231.75 346.56 231.71 351.45 231.71 351.45 231.67 356.35 231.67 356.35 231.6 361.24 231.6 361.24 231.6 366.14 231.6 366.14 231.55 371.03 231.55 371.03 231.52 375.93 231.52 375.93 231.45 380.82 231.45 380.82 231.43 385.72 231.43 385.72 231.41 390.61 231.41 390.61 231.4 395.51 231.4 395.51 231.35 400.4 231.35 400.4 231.28 405.3 231.28 405.3 231.26 410.19 231.26 410.19 231.23 415.09 231.23 415.09 231.2 419.98 231.2 419.98 231.2 424.87 231.2 424.87 231.18 429.77 231.18 429.77 231.14 434.66 231.14 434.66 231.1 439.56 231.1 439.56 231.06 444.45 231.06 444.45 231.02 449.35 231.02 449.35 230.97 454.24 230.97 454.24 230.94 459.14 230.94 459.14 230.93 464.03 230.93 464.03 230.91 468.93 230.91 468.93 230.87 473.82 230.87 473.82 230.87 478.72 230.87 478.72 230.85 483.61 230.85 483.61 230.82 488.51 230.82 488.51 230.78 493.4 230.78 493.4 230.74 498.3 230.74 498.3 230.7 503.19 230.7 503.19 230.66 508.08 230.66 508.08 230.61 512.98 230.61 512.98 230.6 517.87 230.6 517.87 230.58 522.77 230.58 522.77 230.57 527.66 230.57 527.66 230.56 532.56 230.56 532.56 230.56 537.45 230.56 537.45 230.54 542.35 230.54 542.35 230.54 547.24 230.54 547.24 230.52 552.14 230.52 552.14 230.52" style="stroke-width:4.27;stroke:#b2df8a;stroke-linecap:butt"/></g><g clip-path="url(#cpMC4wMHw3ODMuMDB8MC4wMHw0NDEuMDA=)"><text x="33.26" y="394.03" lengthAdjust="spacingAndGlyphs" text-anchor="end" style="font-size:8.8px;font-weight:700;fill:#4d4d4d;font-family:&quot;Arial&quot;" textLength="4.9">0</text><text x="33.26" y="302.27" lengthAdjust="spacingAndGlyphs" text-anchor="end" style="font-size:8.8px;font-weight:700;fill:#4d4d4d;font-family:&quot;Arial&quot;" textLength="9.79">25</text><text x="33.26" y="210.51" lengthAdjust="spacingAndGlyphs" text-anchor="end" style="font-size:8.8px;font-weight:700;fill:#4d4d4d;font-family:&quot;Arial&quot;" textLength="9.79">50</text><text x="33.26" y="118.76" lengthAdjust="spacingAndGlyphs" text-anchor="end" style="font-size:8.8px;font-weight:700;fill:#4d4d4d;font-family:&quot;Arial&quot;" textLength="9.79">75</text><text x="33.26" y="27" lengthAdjust="spacingAndGlyphs" text-anchor="end" style="font-size:8.8px;font-weight:700;fill:#4d4d4d;font-family:&quot;Arial&quot;" textLength="14.69">100</text><text x="62.67" y="420.48" lengthAdjust="spacingAndGlyphs" text-anchor="middle" style="font-size:8.8px;font-weight:700;fill:#4d4d4d;font-family:&quot;Arial&quot;" textLength="4.9">0</text><text x="185.03" y="420.48" lengthAdjust="spacingAndGlyphs" text-anchor="middle" style="font-size:8.8px;font-weight:700;fill:#4d4d4d;font-family:&quot;Arial&quot;" textLength="9.79">25</text><text x="307.4" y="420.48" lengthAdjust="spacingAndGlyphs" text-anchor="middle" style="font-size:8.8px;font-weight:700;fill:#4d4d4d;font-family:&quot;Arial&quot;" textLength="9.79">50</text><text x="429.77" y="420.48" lengthAdjust="spacingAndGlyphs" text-anchor="middle" style="font-size:8.8px;font-weight:700;fill:#4d4d4d;font-family:&quot;Arial&quot;" textLength="9.79">75</text><text x="552.14" y="420.48" lengthAdjust="spacingAndGlyphs" text-anchor="middle" style="font-size:8.8px;font-weight:700;fill:#4d4d4d;font-family:&quot;Arial&quot;" textLength="14.69">100</text><text x="307.4" y="433.09" lengthAdjust="spacingAndGlyphs" text-anchor="middle" style="font-size:11px;font-weight:700;fill:#4d4d4d;font-family:&quot;Arial&quot;" textLength="26.9">Rank</text><text lengthAdjust="spacingAndGlyphs" text-anchor="middle" textLength="119.84" transform="translate(13.40,207.34) rotate(-90)" style="font-size:11px;font-weight:700;fill:#4d4d4d;font-family:&quot;Arial&quot;">Correct candidates [%]</text><text x="593.05" y="182.64" style="font-size:11px;font-weight:700;fill:#4d4d4d;font-family:&quot;Arial&quot;" lengthAdjust="spacingAndGlyphs" textLength="28.74">name</text><line x1="594.78" x2="608.6" y1="197.98" y2="197.98" style="stroke-width:4.27;stroke:#a6cee3;stroke-linecap:butt"/><line x1="594.78" x2="608.6" y1="215.26" y2="215.26" style="stroke-width:4.27;stroke:#1f78b4;stroke-linecap:butt"/><line x1="594.78" x2="608.6" y1="232.54" y2="232.54" style="stroke-width:4.27;stroke:#b2df8a;stroke-linecap:butt"/><text x="615.81" y="201.15" style="font-size:8.8px;font-weight:700;fill:#4d4d4d;font-family:&quot;Arial&quot;" lengthAdjust="spacingAndGlyphs" textLength="38.63">MS2 only</text><text x="615.81" y="218.43" style="font-size:8.8px;font-weight:700;fill:#4d4d4d;font-family:&quot;Arial&quot;" lengthAdjust="spacingAndGlyphs" textLength="78.72">MS2 taxo informed</text><text x="615.81" y="235.71" style="font-size:8.8px;font-weight:700;fill:#4d4d4d;font-family:&quot;Arial&quot;" lengthAdjust="spacingAndGlyphs" textLength="156.23">MS2 taxo informed + MS1 completion</text></g></svg>