<svg xmlns="http://www.w3.org/2000/svg" xmlns:xlink="http://www.w3.org/1999/xlink" width="1044" height="588" class="svglite" viewBox="0 0 783 441"><defs><style type="text/css">.svglite line,.svglite polyline,.svglite rect{fill:none;stroke:#000;stroke-linecap:round;stroke-linejoin:round;stroke-miterlimit:10}.svglite text{white-space:pre}</style></defs><rect width="100%" height="100%" style="stroke:none;fill:none"/><defs><clipPath id="cpMC4wMHw3ODMuMDB8MC4wMHw0NDEuMDA="><rect width="783" height="441" x="0" y="0"/></clipPath></defs><defs><clipPath id="cpMzMuMzB8NTc2LjYxfDUuNDh8NDA5LjIx"><rect width="543.31" height="403.73" x="33.3" y="5.48"/></clipPath></defs><g clip-path="url(#cpMzMuMzB8NTc2LjYxfDUuNDh8NDA5LjIx)"><polyline points="57.99 390.86 77.75 390.86 77.75 176.97 97.51 176.97 97.51 152.75 117.26 152.75 117.26 137.65 137.02 137.65 137.02 128.46 156.78 128.46 156.78 121.89 176.53 121.89 176.53 116.47 196.29 116.47 196.29 112.09 216.05 112.09 216.05 108.5 235.8 108.5 235.8 105.64 255.56 105.64 255.56 102.9 275.32 102.9 275.32 100.1 295.07 100.1 295.07 98.09 314.83 98.09 314.83 96.14 334.59 96.14 334.59 94.68 354.35 94.68 354.35 93.46 374.1 93.46 374.1 91.76 393.86 91.76 393.86 90.42 413.62 90.42 413.62 89.69 433.37 89.69 433.37 88.71 453.13 88.71 453.13 88.05 472.89 88.05 472.89 87.07 492.64 87.07 492.64 86.28 512.4 86.28 512.4 85.43 532.16 85.43 532.16 84.45 551.91 84.45 551.91 84.03" style="stroke-width:4.27;stroke:#a6cee3;stroke-linecap:butt"/><polyline points="57.99 390.86 77.75 390.86 77.75 129.07 97.51 129.07 97.51 107.1 117.26 107.1 117.26 96.81 137.02 96.81 137.02 91.03 156.78 91.03 156.78 87.68 176.53 87.68 176.53 85.37 196.29 85.37 196.29 83.6 216.05 83.6 216.05 81.84 235.8 81.84 235.8 81.05 255.56 81.05 255.56 79.71 275.32 79.71 275.32 78.73 295.07 78.73 295.07 78.37 314.83 78.37 314.83 77.7 334.59 77.7 334.59 76.97 354.35 76.97 354.35 76.18 374.1 76.18 374.1 76.05 393.86 76.05 393.86 75.69 413.62 75.69 413.62 75.45 433.37 75.45 433.37 74.9 453.13 74.9 453.13 74.72 472.89 74.72 472.89 74.17 492.64 74.17 492.64 74.05 512.4 74.05 512.4 73.8 532.16 73.8 532.16 73.68 551.91 73.68 551.91 73.19" style="stroke-width:4.27;stroke:#1f78b4;stroke-linecap:butt"/><polyline points="57.99 390.86 77.75 390.86 77.75 96.69 97.51 96.69 97.51 71.79 117.26 71.79 117.26 59.92 137.02 59.92 137.02 53.66 156.78 53.66 156.78 49.88 176.53 49.88 176.53 47.51 196.29 47.51 196.29 45.56 216.05 45.56 216.05 43.43 235.8 43.43 235.8 42.52 255.56 42.52 255.56 41 275.32 41 275.32 39.78 295.07 39.78 295.07 39.35 314.83 39.35 314.83 38.74 334.59 38.74 334.59 37.89 354.35 37.89 354.35 37.04 374.1 37.04 374.1 36.98 393.86 36.98 393.86 36.67 413.62 36.67 413.62 36.25 433.37 36.25 433.37 35.88 453.13 35.88 453.13 35.52 472.89 35.52 472.89 35.03 492.64 35.03 492.64 34.79 512.4 34.79 512.4 34.54 532.16 34.54 532.16 34.36 551.91 34.36 551.91 33.87" style="stroke-width:4.27;stroke:#b2df8a;stroke-linecap:butt"/></g><g clip-path="url(#cpMC4wMHw3ODMuMDB8MC4wMHw0NDEuMDA=)"><text x="28.36" y="394.03" lengthAdjust="spacingAndGlyphs" text-anchor="end" style="font-size:8.8px;font-weight:700;fill:#4d4d4d;font-family:&quot;Arial&quot;" textLength="4.9">0</text><text x="28.36" y="320.62" lengthAdjust="spacingAndGlyphs" text-anchor="end" style="font-size:8.8px;font-weight:700;fill:#4d4d4d;font-family:&quot;Arial&quot;" textLength="9.79">10</text><text x="28.36" y="247.21" lengthAdjust="spacingAndGlyphs" text-anchor="end" style="font-size:8.8px;font-weight:700;fill:#4d4d4d;font-family:&quot;Arial&quot;" textLength="9.79">20</text><text x="28.36" y="173.81" lengthAdjust="spacingAndGlyphs" text-anchor="end" style="font-size:8.8px;font-weight:700;fill:#4d4d4d;font-family:&quot;Arial&quot;" textLength="9.79">30</text><text x="28.36" y="100.4" lengthAdjust="spacingAndGlyphs" text-anchor="end" style="font-size:8.8px;font-weight:700;fill:#4d4d4d;font-family:&quot;Arial&quot;" textLength="9.79">40</text><text x="28.36" y="27" lengthAdjust="spacingAndGlyphs" text-anchor="end" style="font-size:8.8px;font-weight:700;fill:#4d4d4d;font-family:&quot;Arial&quot;" textLength="9.79">50</text><text x="57.99" y="420.48" lengthAdjust="spacingAndGlyphs" text-anchor="middle" style="font-size:8.8px;font-weight:700;fill:#4d4d4d;font-family:&quot;Arial&quot;" textLength="4.9">0</text><text x="156.78" y="420.48" lengthAdjust="spacingAndGlyphs" text-anchor="middle" style="font-size:8.8px;font-weight:700;fill:#4d4d4d;font-family:&quot;Arial&quot;" textLength="4.9">5</text><text x="255.56" y="420.48" lengthAdjust="spacingAndGlyphs" text-anchor="middle" style="font-size:8.8px;font-weight:700;fill:#4d4d4d;font-family:&quot;Arial&quot;" textLength="9.79">10</text><text x="354.35" y="420.48" lengthAdjust="spacingAndGlyphs" text-anchor="middle" style="font-size:8.8px;font-weight:700;fill:#4d4d4d;font-family:&quot;Arial&quot;" textLength="9.79">15</text><text x="453.13" y="420.48" lengthAdjust="spacingAndGlyphs" text-anchor="middle" style="font-size:8.8px;font-weight:700;fill:#4d4d4d;font-family:&quot;Arial&quot;" textLength="9.79">20</text><text x="551.91" y="420.48" lengthAdjust="spacingAndGlyphs" text-anchor="middle" style="font-size:8.8px;font-weight:700;fill:#4d4d4d;font-family:&quot;Arial&quot;" textLength="9.79">25</text><text x="304.95" y="433.09" lengthAdjust="spacingAndGlyphs" text-anchor="middle" style="font-size:11px;font-weight:700;fill:#4d4d4d;font-family:&quot;Arial&quot;" textLength="26.9">Rank</text><text lengthAdjust="spacingAndGlyphs" text-anchor="middle" textLength="119.84" transform="translate(13.40,207.34) rotate(-90)" style="font-size:11px;font-weight:700;fill:#4d4d4d;font-family:&quot;Arial&quot;">Correct candidates [%]</text><text x="593.05" y="182.64" style="font-size:11px;font-weight:700;fill:#4d4d4d;font-family:&quot;Arial&quot;" lengthAdjust="spacingAndGlyphs" textLength="28.74">name</text><line x1="594.78" x2="608.6" y1="197.98" y2="197.98" style="stroke-width:4.27;stroke:#a6cee3;stroke-linecap:butt"/><line x1="594.78" x2="608.6" y1="215.26" y2="215.26" style="stroke-width:4.27;stroke:#1f78b4;stroke-linecap:butt"/><line x1="594.78" x2="608.6" y1="232.54" y2="232.54" style="stroke-width:4.27;stroke:#b2df8a;stroke-linecap:butt"/><text x="615.81" y="201.15" style="font-size:8.8px;font-weight:700;fill:#4d4d4d;font-family:&quot;Arial&quot;" lengthAdjust="spacingAndGlyphs" textLength="38.63">MS2 only</text><text x="615.81" y="218.43" style="font-size:8.8px;font-weight:700;fill:#4d4d4d;font-family:&quot;Arial&quot;" lengthAdjust="spacingAndGlyphs" textLength="78.72">MS2 taxo informed</text><text x="615.81" y="235.71" style="font-size:8.8px;font-weight:700;fill:#4d4d4d;font-family:&quot;Arial&quot;" lengthAdjust="spacingAndGlyphs" textLength="156.23">MS2 taxo informed + MS1 completion</text></g></svg>