<svg xmlns="http://www.w3.org/2000/svg" xmlns:xlink="http://www.w3.org/1999/xlink" width="1044" height="588" class="svglite" viewBox="0 0 783 441"><defs><style type="text/css">.svglite line,.svglite polyline,.svglite rect{fill:none;stroke:#000;stroke-linecap:round;stroke-linejoin:round;stroke-miterlimit:10}.svglite text{white-space:pre}</style></defs><rect width="100%" height="100%" style="stroke:none;fill:none"/><defs><clipPath id="cpMC4wMHw3ODMuMDB8MC4wMHw0NDEuMDA="><rect width="783" height="441" x="0" y="0"/></clipPath></defs><defs><clipPath id="cpMzguMTl8NTc2LjYxfDUuNDh8NDA5LjIx"><rect width="538.42" height="403.73" x="38.19" y="5.48"/></clipPath></defs><g clip-path="url(#cpMzguMTl8NTc2LjYxfDUuNDh8NDA5LjIx)"><polyline points="62.67 390.86 67.56 390.86 67.56 283.91 72.46 283.91 72.46 271.8 77.35 271.8 77.35 264.25 82.24 264.25 82.24 259.66 87.14 259.66 87.14 256.37 92.03 256.37 92.03 253.66 96.93 253.66 96.93 251.47 101.82 251.47 101.82 249.68 106.72 249.68 106.72 248.25 111.61 248.25 111.61 246.88 116.51 246.88 116.51 245.48 121.4 245.48 121.4 244.47 126.3 244.47 126.3 243.5 131.19 243.5 131.19 242.77 136.09 242.77 136.09 242.16 140.98 242.16 140.98 241.31 145.88 241.31 145.88 240.64 150.77 240.64 150.77 240.27 155.67 240.27 155.67 239.79 160.56 239.79 160.56 239.45 165.45 239.45 165.45 238.96 170.35 238.96 170.35 238.57 175.24 238.57 175.24 238.14 180.14 238.14 180.14 237.66 185.03 237.66 185.03 237.44 189.93 237.44 189.93 237.08 194.82 237.08 194.82 236.89 199.72 236.89 199.72 236.53 204.61 236.53 204.61 236.35 209.51 236.35 209.51 236.07 214.4 236.07 214.4 235.92 219.3 235.92 219.3 235.65 224.19 235.65 224.19 235.43 229.09 235.43 229.09 235.34 233.98 235.34 233.98 235.16 238.88 235.16 238.88 235.07 243.77 235.07 243.77 234.95 248.66 234.95 248.66 234.76 253.56 234.76 253.56 234.58 258.45 234.58 258.45 234.43 263.35 234.43 263.35 234.31 268.24 234.31 268.24 234.03 273.14 234.03 273.14 233.88 278.03 233.88 278.03 233.82 282.93 233.82 282.93 233.67 287.82 233.67 287.82 233.46 292.72 233.46 292.72 233.36 297.61 233.36 297.61 233.24 302.51 233.24 302.51 233.18 307.4 233.18 307.4 233.09 312.3 233.09 312.3 233.03 317.19 233.03 317.19 233 322.09 233 322.09 232.79 326.98 232.79 326.98 232.69 331.87 232.69 331.87 232.69 336.77 232.69 336.77 232.51 341.66 232.51 341.66 232.45 346.56 232.45 346.56 232.27 351.45 232.27 351.45 232.21 356.35 232.21 356.35 232.15 361.24 232.15 361.24 232.15 366.14 232.15 366.14 232.06 371.03 232.06 371.03 231.9 375.93 231.9 375.93 231.78 380.82 231.78 380.82 231.63 385.72 231.63 385.72 231.54 390.61 231.54 390.61 231.54 395.51 231.54 395.51 231.51 400.4 231.51 400.4 231.45 405.3 231.45 405.3 231.3 410.19 231.3 410.19 231.3 415.09 231.3 415.09 231.3 419.98 231.3 419.98 231.26 424.87 231.26 424.87 231.17 429.77 231.17 429.77 231.08 434.66 231.08 434.66 230.99 439.56 230.99 439.56 230.93 444.45 230.93 444.45 230.87 449.35 230.87 449.35 230.87 454.24 230.87 454.24 230.87 459.14 230.87 459.14 230.87 464.03 230.87 464.03 230.81 468.93 230.81 468.93 230.75 473.82 230.75 473.82 230.66 478.72 230.66 478.72 230.66 483.61 230.66 483.61 230.63 488.51 230.63 488.51 230.53 493.4 230.53 493.4 230.44 498.3 230.44 498.3 230.41 503.19 230.41 503.19 230.35 508.08 230.35 508.08 230.32 512.98 230.32 512.98 230.26 517.87 230.26 517.87 230.23 522.77 230.23 522.77 230.2 527.66 230.2 527.66 230.2 532.56 230.2 532.56 230.2 537.45 230.2 537.45 230.17 542.35 230.17 542.35 230.14 547.24 230.14 547.24 230.11 552.14 230.11 552.14 230.08" style="stroke-width:4.27;stroke:#a6cee3;stroke-linecap:butt"/><polyline points="62.67 390.86 67.56 390.86 67.56 259.96 72.46 259.96 72.46 248.98 77.35 248.98 77.35 243.83 82.24 243.83 82.24 240.94 87.14 240.94 87.14 239.27 92.03 239.27 92.03 238.11 96.93 238.11 96.93 237.23 101.82 237.23 101.82 236.35 106.72 236.35 106.72 235.95 111.61 235.95 111.61 235.28 116.51 235.28 116.51 234.79 121.4 234.79 121.4 234.61 126.3 234.61 126.3 234.28 131.19 234.28 131.19 233.91 136.09 233.91 136.09 233.52 140.98 233.52 140.98 233.46 145.88 233.46 145.88 233.27 150.77 233.27 150.77 233.15 155.67 233.15 155.67 232.88 160.56 232.88 160.56 232.79 165.45 232.79 165.45 232.51 170.35 232.51 170.35 232.45 175.24 232.45 175.24 232.33 180.14 232.33 180.14 232.27 185.03 232.27 185.03 232.03 189.93 232.03 189.93 231.81 194.82 231.81 194.82 231.69 199.72 231.69 199.72 231.6 204.61 231.6 204.61 231.42 209.51 231.42 209.51 231.17 214.4 231.17 214.4 231.08 219.3 231.08 219.3 230.99 224.19 230.99 224.19 230.96 229.09 230.96 229.09 230.96 233.98 230.96 233.98 230.9 238.88 230.9 238.88 230.87 243.77 230.87 243.77 230.87 248.66 230.87 248.66 230.78 253.56 230.78 253.56 230.66 258.45 230.66 258.45 230.6 263.35 230.6 263.35 230.56 268.24 230.56 268.24 230.53 273.14 230.53 273.14 230.5 278.03 230.5 278.03 230.44 282.93 230.44 282.93 230.44 287.82 230.44 287.82 230.35 292.72 230.35 292.72 230.29 297.61 230.29 297.61 230.23 302.51 230.23 302.51 230.17 307.4 230.17 307.4 230.17 312.3 230.17 312.3 230.14 317.19 230.14 317.19 230.08 322.09 230.08 322.09 229.86 326.98 229.86 326.98 229.8 331.87 229.8 331.87 229.8 336.77 229.8 336.77 229.74 341.66 229.74 341.66 229.74 346.56 229.74 346.56 229.56 351.45 229.56 351.45 229.56 356.35 229.56 356.35 229.5 361.24 229.5 361.24 229.47 366.14 229.47 366.14 229.44 371.03 229.44 371.03 229.38 375.93 229.38 375.93 229.35 380.82 229.35 380.82 229.32 385.72 229.32 385.72 229.29 390.61 229.29 390.61 229.29 395.51 229.29 395.51 229.29 400.4 229.29 400.4 229.26 405.3 229.26 405.3 229.23 410.19 229.23 410.19 229.23 415.09 229.23 415.09 229.2 419.98 229.2 419.98 229.2 424.87 229.2 424.87 229.16 429.77 229.16 429.77 229.1 434.66 229.1 434.66 229.07 439.56 229.07 439.56 229.07 444.45 229.07 444.45 229.01 449.35 229.01 449.35 229.01 454.24 229.01 454.24 228.95 459.14 228.95 459.14 228.95 464.03 228.95 464.03 228.92 468.93 228.92 468.93 228.92 473.82 228.92 473.82 228.89 478.72 228.89 478.72 228.89 483.61 228.89 483.61 228.89 488.51 228.89 488.51 228.86 493.4 228.86 493.4 228.86 498.3 228.86 498.3 228.86 503.19 228.86 503.19 228.86 508.08 228.86 508.08 228.86 512.98 228.86 512.98 228.86 517.87 228.86 517.87 228.86 522.77 228.86 522.77 228.83 527.66 228.83 527.66 228.83 532.56 228.83 532.56 228.83 537.45 228.83 537.45 228.83 542.35 228.83 542.35 228.8 547.24 228.8 547.24 228.77 552.14 228.77 552.14 228.74" style="stroke-width:4.27;stroke:#1f78b4;stroke-linecap:butt"/><polyline points="62.67 390.86 67.56 390.86 67.56 243.77 72.46 243.77 72.46 231.33 77.35 231.33 77.35 225.39 82.24 225.39 82.24 222.26 87.14 222.26 87.14 220.37 92.03 220.37 92.03 219.18 96.93 219.18 96.93 218.21 101.82 218.21 101.82 217.14 106.72 217.14 106.72 216.69 111.61 216.69 111.61 215.93 116.51 215.93 116.51 215.32 121.4 215.32 121.4 215.1 126.3 215.1 126.3 214.8 131.19 214.8 131.19 214.37 136.09 214.37 136.09 213.95 140.98 213.95 140.98 213.92 145.88 213.92 145.88 213.77 150.77 213.77 150.77 213.55 155.67 213.55 155.67 213.37 160.56 213.37 160.56 213.19 165.45 213.19 165.45 212.94 170.35 212.94 170.35 212.82 175.24 212.82 175.24 212.7 180.14 212.7 180.14 212.61 185.03 212.61 185.03 212.37 189.93 212.37 189.93 212.18 194.82 212.18 194.82 212.03 199.72 212.03 199.72 211.94 204.61 211.94 204.61 211.73 209.51 211.73 209.51 211.51 214.4 211.51 214.4 211.36 219.3 211.36 219.3 211.27 224.19 211.27 224.19 211.24 229.09 211.24 229.09 211.24 233.98 211.24 233.98 211.18 238.88 211.18 238.88 211.15 243.77 211.15 243.77 211.15 248.66 211.15 248.66 211.06 253.56 211.06 253.56 210.97 258.45 210.97 258.45 210.84 263.35 210.84 263.35 210.81 268.24 210.81 268.24 210.75 273.14 210.75 273.14 210.72 278.03 210.72 278.03 210.66 282.93 210.66 282.93 210.66 287.82 210.66 287.82 210.57 292.72 210.57 292.72 210.51 297.61 210.51 297.61 210.42 302.51 210.42 302.51 210.36 307.4 210.36 307.4 210.36 312.3 210.36 312.3 210.33 317.19 210.33 317.19 210.3 322.09 210.3 322.09 210.05 326.98 210.05 326.98 209.99 331.87 209.99 331.87 209.99 336.77 209.99 336.77 209.9 341.66 209.9 341.66 209.9 346.56 209.9 346.56 209.72 351.45 209.72 351.45 209.72 356.35 209.72 356.35 209.63 361.24 209.63 361.24 209.6 366.14 209.6 366.14 209.54 371.03 209.54 371.03 209.47 375.93 209.47 375.93 209.44 380.82 209.44 380.82 209.41 385.72 209.41 385.72 209.38 390.61 209.38 390.61 209.38 395.51 209.38 395.51 209.38 400.4 209.38 400.4 209.35 405.3 209.35 405.3 209.32 410.19 209.32 410.19 209.32 415.09 209.32 415.09 209.29 419.98 209.29 419.98 209.29 424.87 209.29 424.87 209.26 429.77 209.26 429.77 209.2 434.66 209.2 434.66 209.17 439.56 209.17 439.56 209.17 444.45 209.17 444.45 209.11 449.35 209.11 449.35 209.11 454.24 209.11 454.24 209.05 459.14 209.05 459.14 209.05 464.03 209.05 464.03 209.02 468.93 209.02 468.93 209.02 473.82 209.02 473.82 208.99 478.72 208.99 478.72 208.96 483.61 208.96 483.61 208.96 488.51 208.96 488.51 208.93 493.4 208.93 493.4 208.9 498.3 208.9 498.3 208.9 503.19 208.9 503.19 208.9 508.08 208.9 508.08 208.9 512.98 208.9 512.98 208.9 517.87 208.9 517.87 208.9 522.77 208.9 522.77 208.87 527.66 208.87 527.66 208.87 532.56 208.87 532.56 208.87 537.45 208.87 537.45 208.87 542.35 208.87 542.35 208.84 547.24 208.84 547.24 208.8 552.14 208.8 552.14 208.8" style="stroke-width:4.27;stroke:#b2df8a;stroke-linecap:butt"/></g><g clip-path="url(#cpMC4wMHw3ODMuMDB8MC4wMHw0NDEuMDA=)"><text x="33.26" y="394.03" lengthAdjust="spacingAndGlyphs" text-anchor="end" style="font-size:8.8px;font-weight:700;fill:#4d4d4d;font-family:&quot;Arial&quot;" textLength="4.9">0</text><text x="33.26" y="302.27" lengthAdjust="spacingAndGlyphs" text-anchor="end" style="font-size:8.8px;font-weight:700;fill:#4d4d4d;font-family:&quot;Arial&quot;" textLength="9.79">25</text><text x="33.26" y="210.51" lengthAdjust="spacingAndGlyphs" text-anchor="end" style="font-size:8.8px;font-weight:700;fill:#4d4d4d;font-family:&quot;Arial&quot;" textLength="9.79">50</text><text x="33.26" y="118.76" lengthAdjust="spacingAndGlyphs" text-anchor="end" style="font-size:8.8px;font-weight:700;fill:#4d4d4d;font-family:&quot;Arial&quot;" textLength="9.79">75</text><text x="33.26" y="27" lengthAdjust="spacingAndGlyphs" text-anchor="end" style="font-size:8.8px;font-weight:700;fill:#4d4d4d;font-family:&quot;Arial&quot;" textLength="14.69">100</text><text x="62.67" y="420.48" lengthAdjust="spacingAndGlyphs" text-anchor="middle" style="font-size:8.8px;font-weight:700;fill:#4d4d4d;font-family:&quot;Arial&quot;" textLength="4.9">0</text><text x="185.03" y="420.48" lengthAdjust="spacingAndGlyphs" text-anchor="middle" style="font-size:8.8px;font-weight:700;fill:#4d4d4d;font-family:&quot;Arial&quot;" textLength="9.79">25</text><text x="307.4" y="420.48" lengthAdjust="spacingAndGlyphs" text-anchor="middle" style="font-size:8.8px;font-weight:700;fill:#4d4d4d;font-family:&quot;Arial&quot;" textLength="9.79">50</text><text x="429.77" y="420.48" lengthAdjust="spacingAndGlyphs" text-anchor="middle" style="font-size:8.8px;font-weight:700;fill:#4d4d4d;font-family:&quot;Arial&quot;" textLength="9.79">75</text><text x="552.14" y="420.48" lengthAdjust="spacingAndGlyphs" text-anchor="middle" style="font-size:8.8px;font-weight:700;fill:#4d4d4d;font-family:&quot;Arial&quot;" textLength="14.69">100</text><text x="307.4" y="433.09" lengthAdjust="spacingAndGlyphs" text-anchor="middle" style="font-size:11px;font-weight:700;fill:#4d4d4d;font-family:&quot;Arial&quot;" textLength="26.9">Rank</text><text lengthAdjust="spacingAndGlyphs" text-anchor="middle" textLength="119.84" transform="translate(13.40,207.34) rotate(-90)" style="font-size:11px;font-weight:700;fill:#4d4d4d;font-family:&quot;Arial&quot;">Correct candidates [%]</text><text x="593.05" y="182.64" style="font-size:11px;font-weight:700;fill:#4d4d4d;font-family:&quot;Arial&quot;" lengthAdjust="spacingAndGlyphs" textLength="28.74">name</text><line x1="594.78" x2="608.6" y1="197.98" y2="197.98" style="stroke-width:4.27;stroke:#a6cee3;stroke-linecap:butt"/><line x1="594.78" x2="608.6" y1="215.26" y2="215.26" style="stroke-width:4.27;stroke:#1f78b4;stroke-linecap:butt"/><line x1="594.78" x2="608.6" y1="232.54" y2="232.54" style="stroke-width:4.27;stroke:#b2df8a;stroke-linecap:butt"/><text x="615.81" y="201.15" style="font-size:8.8px;font-weight:700;fill:#4d4d4d;font-family:&quot;Arial&quot;" lengthAdjust="spacingAndGlyphs" textLength="38.63">MS2 only</text><text x="615.81" y="218.43" style="font-size:8.8px;font-weight:700;fill:#4d4d4d;font-family:&quot;Arial&quot;" lengthAdjust="spacingAndGlyphs" textLength="78.72">MS2 taxo informed</text><text x="615.81" y="235.71" style="font-size:8.8px;font-weight:700;fill:#4d4d4d;font-family:&quot;Arial&quot;" lengthAdjust="spacingAndGlyphs" textLength="156.23">MS2 taxo informed + MS1 completion</text></g></svg>